<svg width="14" height="12" viewBox="0 0 14 12" fill="none" xmlns="http://www.w3.org/2000/svg">
<path fill-rule="evenodd" clip-rule="evenodd" d="M0.5 6.15034C0.5 5.93485 0.585603 5.72819 0.737976 5.57582C0.890349 5.42344 1.09701 5.33784 1.3125 5.33784L10.7261 5.33784L7.23725 1.85059C7.16171 1.77505 7.10178 1.68537 7.0609 1.58666C7.02002 1.48796 6.99897 1.38217 6.99897 1.27534C6.99897 1.16851 7.02002 1.06272 7.0609 0.964017C7.10178 0.865316 7.16171 0.775633 7.23725 0.70009C7.31279 0.624547 7.40248 0.564624 7.50118 0.52374C7.59988 0.482857 7.70567 0.461815 7.8125 0.461815C7.91933 0.461815 8.02512 0.482857 8.12382 0.52374C8.22253 0.564624 8.31221 0.624547 8.38775 0.700091L13.2628 5.57509C13.3384 5.65056 13.3984 5.74023 13.4394 5.83894C13.4804 5.93765 13.5015 6.04347 13.5015 6.15034C13.5015 6.25721 13.4804 6.36303 13.4394 6.46175C13.3984 6.56046 13.3384 6.65012 13.2628 6.72559L8.38775 11.6006C8.31221 11.6761 8.22253 11.7361 8.12382 11.7769C8.02512 11.8178 7.91933 11.8389 7.8125 11.8389C7.70567 11.8389 7.59988 11.8178 7.50118 11.7769C7.40247 11.7361 7.31279 11.6761 7.23725 11.6006C7.08468 11.448 6.99897 11.2411 6.99897 11.0253C6.99897 10.9185 7.02002 10.8127 7.0609 10.714C7.10178 10.6153 7.16171 10.5256 7.23725 10.4501L10.7261 6.96284L1.3125 6.96284C1.09701 6.96284 0.890349 6.87724 0.737976 6.72486C0.585603 6.57249 0.5 6.36583 0.5 6.15034Z" fill="black"/>
</svg>
