<svg width="65" height="64" viewBox="0 0 65 64" fill="none" xmlns="http://www.w3.org/2000/svg">
<path d="M29.7926 5.79816C29.4102 6.02478 28.6879 6.56299 28.1922 7.00206C26.7475 8.29094 26.2801 8.41842 24.5521 8.00767C23.5465 7.76689 21.8327 7.73857 21.2662 7.95102C20.7422 8.14931 19.9915 8.87165 19.6799 9.49484C19.5383 9.76395 19.2833 10.4296 19.0992 10.982C18.4618 12.9507 18.1219 13.3048 16.3373 13.8855C13.2072 14.9053 12.4282 16.1659 13.0797 19.126C13.363 20.4008 13.3488 21.5338 13.0514 21.9587C12.9239 22.157 12.4707 22.6953 12.0458 23.1626C10.9552 24.3807 10.5869 25.0606 10.5019 26.0662C10.4311 26.7885 10.4736 27.0151 10.7994 27.695C11.0118 28.1199 11.4934 28.8139 11.8616 29.2105C13.3913 30.8818 13.5188 31.335 13.0655 33.5162C12.4707 36.3631 13.2497 37.6944 16.0115 38.6009C16.6631 38.8133 17.2863 39.0541 17.4279 39.1108C17.6262 39.2099 17.2296 40.1589 14.5527 45.8526C12.8531 49.5068 11.4509 52.5803 11.4509 52.7078C11.4509 53.1752 12.0174 53.685 12.5131 53.685C12.9664 53.685 18.0511 52.9061 18.5468 52.7503C18.7168 52.7078 19.1842 53.3734 20.4306 55.5121C21.337 57.056 22.1868 58.3732 22.3001 58.4157C22.6259 58.5431 23.1924 58.5148 23.4757 58.3732C23.6032 58.3024 24.9487 55.5971 26.4501 52.3678L29.1978 46.5041L29.8493 46.8724C30.7558 47.3823 32.073 47.3823 33.0078 46.8582L33.6451 46.5041L36.3929 52.3678C37.8942 55.5971 39.2397 58.3024 39.3672 58.3732C39.6505 58.5148 40.217 58.5431 40.5428 58.4157C40.6561 58.3732 41.5059 57.0701 42.4123 55.5121C43.857 53.0477 44.0978 52.7078 44.3669 52.7644C45.2875 52.9769 49.8765 53.685 50.3014 53.685C50.6697 53.685 50.8821 53.5859 51.0946 53.3168C51.2645 53.1043 51.392 52.8352 51.392 52.7078C51.392 52.5803 50.0182 49.5493 48.3469 45.9659C46.6756 42.3967 45.3017 39.3799 45.3017 39.2949C45.3017 39.1958 45.9107 38.9125 46.6472 38.6717C49.6074 37.6803 50.3864 36.4197 49.7774 33.5162C49.3241 31.3208 49.4516 30.8818 51.0096 29.1821C52.0294 28.0632 52.4401 27.1001 52.341 26.052C52.256 25.0606 51.8877 24.3665 50.7972 23.1626C50.3722 22.6953 49.919 22.157 49.7915 21.9587C49.4941 21.5338 49.4799 20.4008 49.7632 19.126C50.4147 16.1659 49.6357 14.9053 46.5056 13.8855C44.721 13.3048 44.3811 12.9507 43.7437 10.982C43.5596 10.4296 43.3046 9.76395 43.163 9.49484C42.8514 8.87165 42.1007 8.14931 41.5767 7.95102C41.0243 7.73857 39.4522 7.76689 38.3616 8.00767C36.5062 8.41842 36.1237 8.30511 34.5799 6.94541C33.2769 5.784 32.4554 5.38742 31.3648 5.38742C30.6708 5.38742 30.3592 5.4724 29.7926 5.79816ZM32.1296 7.75273C32.3279 7.8802 32.8661 8.33344 33.3335 8.75834C34.4949 9.83477 35.6139 10.3447 36.8036 10.3447C37.3135 10.3447 38.1066 10.2455 38.574 10.1322C39.0414 10.0189 39.7638 9.93391 40.1603 9.91975C41.0526 9.91975 41.1801 10.0614 41.7608 11.8035C42.6248 14.3954 43.2622 15.0753 45.5142 15.8118C47.922 16.6191 48.0494 16.7749 47.6529 18.7153C47.5112 19.381 47.4121 20.3866 47.4121 20.9673C47.4121 22.2845 47.7662 23.0493 49.1259 24.579C49.6782 25.2022 50.1598 25.8254 50.2023 25.967C50.3581 26.4344 50.1456 26.831 49.0692 28.1199C47.667 29.777 47.3979 30.3436 47.4121 31.7174C47.4121 32.3123 47.5112 33.2046 47.6245 33.7145C48.0919 35.6407 47.8653 36.0231 46.024 36.6038C43.3755 37.4395 42.6248 38.1335 41.8883 40.4422C41.4634 41.8018 41.0951 42.4817 40.7127 42.6517C40.4719 42.765 39.9904 42.7225 38.7723 42.4959C36.0671 41.9718 35.2456 42.1843 33.1494 44.0114C31.9738 45.0453 31.5773 45.2436 31.0674 45.0453C30.8832 44.9745 30.26 44.5071 29.6935 44.0114C27.5973 42.1843 26.9175 42.0001 24.1556 42.4959C22.7817 42.7366 22.3143 42.765 22.0877 42.6517C21.7194 42.4534 21.3654 41.7594 20.9546 40.4422C20.2323 38.176 19.4249 37.4253 16.8189 36.6038C14.9918 36.0231 14.751 35.6266 15.2042 33.7853C15.3175 33.3179 15.4025 32.4114 15.4167 31.7599C15.4167 30.3152 15.1759 29.7487 13.9295 28.304C12.8247 27.0435 12.5131 26.5052 12.6265 26.052C12.6831 25.8679 13.1647 25.2022 13.717 24.579C15.1051 23.0068 15.4167 22.3412 15.4167 20.9248C15.4167 20.3016 15.3034 19.2818 15.1759 18.6445C14.7935 16.7891 14.9209 16.6049 17.3287 15.8118C19.6091 15.0611 20.2606 14.3529 21.1529 11.6335C21.3654 10.982 21.6628 10.3305 21.8044 10.1889C22.1302 9.86309 23.0508 9.83477 24.2689 10.1322C24.7363 10.2455 25.5294 10.3447 26.0393 10.3447C27.2291 10.3447 28.348 9.83477 29.5094 8.75834C30.6141 7.75273 30.9824 7.51195 31.4215 7.51195C31.6197 7.51195 31.9455 7.62526 32.1296 7.75273ZM19.9348 43.544C20.119 43.8272 20.5439 44.2238 20.9121 44.4363C21.7194 44.9037 22.7959 44.9462 24.7788 44.5637C26.2093 44.2805 26.6483 44.3088 27.1866 44.7479L27.5123 45.017L25.2037 49.9459C23.9431 52.6653 22.8525 54.9314 22.7959 54.9881C22.7392 55.0447 22.1443 54.1524 21.4645 52.991C20.7846 51.8296 20.1331 50.7957 20.0198 50.7107C19.7224 50.4699 19.1558 50.4983 16.7056 50.9232C15.5158 51.1214 14.5102 51.2631 14.4819 51.2348C14.4536 51.2206 15.36 49.2235 16.4931 46.8157C17.6262 44.3938 18.646 42.1984 18.7593 41.9293L18.9717 41.4336L19.2975 42.2268C19.4674 42.6658 19.7649 43.2607 19.9348 43.544ZM46.2223 46.5325C47.4262 49.0961 48.3894 51.2064 48.361 51.2348C48.3469 51.2631 47.3413 51.1073 46.1374 50.909C43.6871 50.4983 43.1205 50.4699 42.8231 50.7107C42.7239 50.7957 42.0724 51.8296 41.3926 52.991C40.6986 54.1524 40.1037 55.0589 40.047 54.9881C39.9904 54.9314 38.8998 52.6653 37.6392 49.9459L35.3306 45.017L35.6563 44.7479C36.1946 44.3088 36.6336 44.2805 38.0641 44.5637C40.0612 44.9462 41.1235 44.9178 41.945 44.4363C42.6531 44.0255 43.3046 43.0766 43.6304 42.0143C43.7579 41.6177 43.8287 41.5186 43.9278 41.6602C43.9845 41.7735 45.0184 43.9547 46.2223 46.5325Z" fill="url(#paint0_linear_142_576)"/>
<path d="M29.2965 12.9082C25.189 13.5314 21.2516 16.3924 19.382 20.1174C17.1441 24.5647 17.4416 29.7061 20.161 33.7994C21.9739 36.5188 24.7641 38.53 27.9509 39.4081C29.5939 39.8614 33.2481 39.8614 34.8769 39.4081C36.1941 39.0399 38.2903 38.0626 39.2817 37.3402C41.9445 35.414 43.9982 32.2697 44.6639 29.1112C44.9472 27.7657 44.9896 25.0888 44.7489 23.8707C43.6724 18.5169 39.9333 14.5228 34.6928 13.1631C33.4322 12.8232 30.6845 12.6957 29.2965 12.9082ZM33.4039 15.0752C37.7804 15.8542 41.3355 19.1826 42.4827 23.5875C42.8934 25.2021 42.9076 27.4399 42.4827 29.0263C41.6187 32.3122 39.4234 35.0316 36.449 36.4904C34.7777 37.3119 33.8005 37.5527 31.8884 37.6377C30.557 37.7085 30.0613 37.666 28.9282 37.3969C22.4413 35.9097 18.5888 29.2812 20.5434 22.9784C22.2289 17.483 27.781 14.0696 33.4039 15.0752Z" fill="url(#paint1_linear_142_576)"/>
<path d="M34.4969 31.0057C34.4036 31.006 34.3116 30.984 34.2285 30.9415L31.2535 29.384L28.2785 30.9415C28.1819 30.9923 28.073 31.015 27.9642 31.0069C27.8553 30.9989 27.7509 30.9605 27.6628 30.8961C27.5747 30.8317 27.5064 30.7438 27.4657 30.6426C27.425 30.5413 27.4136 30.4306 27.4327 30.3232L28.016 27.039L25.6127 24.7057C25.5377 24.6308 25.4845 24.537 25.4588 24.4342C25.4331 24.3315 25.4359 24.2236 25.4669 24.1223C25.5007 24.0186 25.5629 23.9265 25.6464 23.8564C25.7299 23.7863 25.8314 23.741 25.9394 23.7257L29.2644 23.2415L30.7285 20.249C30.7763 20.1504 30.8509 20.0672 30.9437 20.009C31.0366 19.9508 31.1439 19.9199 31.2535 19.9199C31.3631 19.9199 31.4705 19.9508 31.5633 20.009C31.6562 20.0672 31.7308 20.1504 31.7785 20.249L33.2602 23.2357L36.5852 23.7198C36.6932 23.7352 36.7947 23.7805 36.8782 23.8506C36.9617 23.9207 37.0239 24.0128 37.0577 24.1165C37.0886 24.2178 37.0914 24.3256 37.0657 24.4284C37.04 24.5312 36.9868 24.625 36.9119 24.6998L34.5085 27.0332L35.0919 30.3173C35.1127 30.4267 35.1018 30.5397 35.0604 30.6431C35.0191 30.7464 34.949 30.8358 34.8585 30.9007C34.7529 30.9747 34.6257 31.0116 34.4969 31.0057Z" fill="url(#paint2_linear_142_576)"/>
<defs>
<linearGradient id="paint0_linear_142_576" x1="31.414" y1="58.4971" x2="31.414" y2="5.38742" gradientUnits="userSpaceOnUse">
<stop stop-color="#D0006F"/>
<stop offset="1" stop-color="#8E24AA"/>
</linearGradient>
<linearGradient id="paint1_linear_142_576" x1="31.3982" y1="39.748" x2="31.3982" y2="12.8043" gradientUnits="userSpaceOnUse">
<stop stop-color="#D0006F"/>
<stop offset="1" stop-color="#8E24AA"/>
</linearGradient>
<linearGradient id="paint2_linear_142_576" x1="31.2623" y1="19.9199" x2="31.2623" y2="31.0085" gradientUnits="userSpaceOnUse">
<stop stop-color="#D0006F"/>
<stop offset="1" stop-color="#8E24AA"/>
</linearGradient>
</defs>
</svg>
