<svg width="65" height="65" viewBox="0 0 65 65" fill="none" xmlns="http://www.w3.org/2000/svg">
<path d="M53.458 5.9718L47.7205 6.2343L47.433 6.5843C46.858 7.2468 46.983 7.5468 48.5455 9.1218L49.9455 10.5593L48.6955 11.7343C41.6455 18.3968 34.458 24.1093 29.708 26.8468C23.8705 30.1968 14.833 33.5968 6.25798 35.6593C3.18298 36.4093 3.28298 36.3718 3.05798 36.7968C2.82048 37.2593 2.99548 37.9468 3.42048 38.1968C3.83298 38.4343 10.3705 38.3718 13.1955 38.1093C22.183 37.2718 29.133 35.4218 35.833 32.1093C43.0705 28.5343 48.6455 24.3968 54.333 18.3593L55.933 16.6593L57.583 18.2843C59.133 19.8218 59.2455 19.9093 59.7205 19.9093C60.0705 19.9093 60.2955 19.8343 60.483 19.6218C60.758 19.3343 60.7705 19.1218 61.0705 12.9093C61.2705 8.6468 61.333 6.4218 61.258 6.2718C61.0205 5.8468 60.608 5.6593 59.883 5.6718C59.508 5.6843 56.608 5.8218 53.458 5.9718ZM59.133 8.6218C59.1205 9.1593 58.808 15.9218 58.758 16.2718C58.758 16.3093 58.233 15.8218 57.5955 15.1968C56.4455 14.0718 56.0205 13.8093 55.5205 13.9718C55.383 14.0093 54.658 14.7593 53.908 15.6343C48.3705 22.0593 39.858 28.2343 31.9205 31.5718C27.4205 33.4718 21.3455 35.0093 15.508 35.7218C14.658 35.8218 13.8955 35.9093 13.8205 35.8968C13.758 35.8968 15.0455 35.4343 16.6955 34.8593C23.883 32.3843 29.1705 29.9343 33.383 27.1218C36.608 24.9718 41.758 20.9468 45.5705 17.5843C48.1955 15.2718 52.3455 11.2343 52.458 10.8843C52.5955 10.4343 52.3705 9.9968 51.5455 9.1343C51.083 8.6718 50.7455 8.2718 50.7705 8.2718C50.9205 8.2218 56.758 7.9468 57.858 7.9343L59.133 7.9093V8.6218Z" fill="url(#paint0_linear_142_601)"/>
<path d="M51.3828 25.5342C51.1328 25.7842 51.1328 25.9467 51.1328 41.7842C51.1328 57.6217 51.1328 57.7842 51.3828 58.0342C51.6203 58.2717 51.7953 58.2842 55.6328 58.2842C59.4703 58.2842 59.6453 58.2717 59.8828 58.0342C60.1328 57.7842 60.1328 57.6217 60.1328 41.7842C60.1328 25.9467 60.1328 25.7842 59.8828 25.5342C59.6453 25.2967 59.4703 25.2842 55.6328 25.2842C51.7953 25.2842 51.6203 25.2967 51.3828 25.5342ZM58.1328 41.7842V56.2842H55.6328H53.1328V41.7842V27.2842H55.6328H58.1328V41.7842Z" fill="url(#paint1_linear_142_601)"/>
<path d="M36.3828 35.5342C36.1328 35.7842 36.1328 35.9467 36.1328 46.7842C36.1328 57.6217 36.1328 57.7842 36.3828 58.0342C36.6203 58.2717 36.7953 58.2842 40.6328 58.2842C44.4703 58.2842 44.6453 58.2717 44.8828 58.0342C45.1328 57.7842 45.1328 57.6217 45.1328 46.7842C45.1328 35.9467 45.1328 35.7842 44.8828 35.5342C44.6453 35.2967 44.4703 35.2842 40.6328 35.2842C36.7953 35.2842 36.6203 35.2967 36.3828 35.5342ZM43.1328 46.7842V56.2842H40.6328H38.1328V46.7842V37.2842H40.6328H43.1328V46.7842Z" fill="url(#paint2_linear_142_601)"/>
<path d="M20.3828 41.5342C20.1328 41.7842 20.1328 41.9467 20.1328 49.7842C20.1328 57.6217 20.1328 57.7842 20.3828 58.0342C20.6203 58.2717 20.7953 58.2842 24.6328 58.2842C28.4703 58.2842 28.6453 58.2717 28.8828 58.0342C29.1328 57.7842 29.1328 57.6217 29.1328 49.7842C29.1328 41.9467 29.1328 41.7842 28.8828 41.5342C28.6453 41.2967 28.4703 41.2842 24.6328 41.2842C20.7953 41.2842 20.6203 41.2967 20.3828 41.5342ZM27.1328 49.7842V56.2842H24.6328H22.1328V49.7842V43.2842H24.6328H27.1328V49.7842Z" fill="url(#paint3_linear_142_601)"/>
<path d="M4.38281 46.5342C4.14531 46.7717 4.13281 46.9467 4.13281 52.2842C4.13281 57.6217 4.14531 57.7967 4.38281 58.0342C4.62031 58.2717 4.79531 58.2842 8.63281 58.2842C12.4703 58.2842 12.6453 58.2717 12.8828 58.0342C13.1203 57.7967 13.1328 57.6217 13.1328 52.2842C13.1328 46.9467 13.1203 46.7717 12.8828 46.5342C12.6453 46.2967 12.4703 46.2842 8.63281 46.2842C4.79531 46.2842 4.62031 46.2967 4.38281 46.5342ZM11.1328 52.2842V56.2842H8.63281H6.13281V52.2842V48.2842H8.63281H11.1328V52.2842Z" fill="url(#paint4_linear_142_601)"/>
<defs>
<linearGradient id="paint0_linear_142_601" x1="32.1199" y1="38.3447" x2="32.1199" y2="5.67121" gradientUnits="userSpaceOnUse">
<stop stop-color="#D0006F"/>
<stop offset="1" stop-color="#8E24AA"/>
</linearGradient>
<linearGradient id="paint1_linear_142_601" x1="55.6328" y1="58.2842" x2="55.6328" y2="25.2842" gradientUnits="userSpaceOnUse">
<stop stop-color="#D0006F"/>
<stop offset="1" stop-color="#8E24AA"/>
</linearGradient>
<linearGradient id="paint2_linear_142_601" x1="40.6328" y1="58.2842" x2="40.6328" y2="35.2842" gradientUnits="userSpaceOnUse">
<stop stop-color="#D0006F"/>
<stop offset="1" stop-color="#8E24AA"/>
</linearGradient>
<linearGradient id="paint3_linear_142_601" x1="24.6328" y1="58.2842" x2="24.6328" y2="41.2842" gradientUnits="userSpaceOnUse">
<stop stop-color="#D0006F"/>
<stop offset="1" stop-color="#8E24AA"/>
</linearGradient>
<linearGradient id="paint4_linear_142_601" x1="8.63281" y1="58.2842" x2="8.63281" y2="46.2842" gradientUnits="userSpaceOnUse">
<stop stop-color="#D0006F"/>
<stop offset="1" stop-color="#8E24AA"/>
</linearGradient>
</defs>
</svg>
