<svg width="65" height="66" viewBox="0 0 65 66" fill="none" xmlns="http://www.w3.org/2000/svg">
<g clip-path="url(#clip0_142_608)">
<path d="M53.6242 1.8584C54.4867 2.4548 54.8742 3.78719 54.4242 4.66276C53.9492 5.58908 51.3242 9.06598 50.9492 9.26901C50.7117 9.3959 50.2617 9.48473 49.8492 9.48473C48.5492 9.49741 47.7367 8.63454 47.7367 7.2387C47.7367 6.60423 47.7992 6.43927 48.3117 5.67791C49.6867 3.6476 50.9992 1.94723 51.3492 1.75688C51.9367 1.45234 53.1117 1.5031 53.6242 1.8584Z" fill="url(#paint0_linear_142_608)"/>
<path d="M14.6873 1.8074C15.0248 2.02312 17.2998 5.01781 17.9873 6.15986C18.2998 6.68012 18.3248 7.75872 18.0248 8.3805C17.9123 8.6216 17.5998 8.9769 17.3248 9.15456C16.6873 9.58599 15.6498 9.62406 14.9998 9.24338C14.6123 9.00228 12.0123 5.56346 11.5498 4.66251C11.0998 3.78694 11.4873 2.45456 12.3498 1.85815C12.9123 1.47747 14.1123 1.45209 14.6873 1.8074Z" fill="url(#paint1_linear_142_608)"/>
<path d="M34.3612 5.05596C35.2987 5.32244 35.9487 5.74119 36.6612 6.51524C37.1612 7.0482 37.6862 8.05066 39.7487 12.3016C41.1112 15.1187 42.2487 17.4281 42.2737 17.4281C42.7612 17.4281 53.4612 19.1158 53.8362 19.2554C55.9862 20.0421 57.3987 22.5039 56.9987 24.8007C56.7112 26.501 56.5987 26.6406 52.0862 31.1454L47.9362 35.2821L48.8487 40.7005C49.8987 46.8929 49.9362 47.5908 49.3237 48.9359C48.9112 49.8622 47.8987 50.9027 46.9237 51.3849C46.2237 51.7276 46.0737 51.7529 44.7362 51.7529H43.2987L42.2362 51.1946C41.6487 50.9027 39.3737 49.6846 37.1612 48.5044C34.9612 47.3243 33.0737 46.3599 32.9862 46.3599C32.8987 46.3599 31.0112 47.3243 28.8112 48.5044C26.5987 49.6846 24.3237 50.9027 23.7362 51.1946L22.6737 51.7529H21.2362C19.8987 51.7529 19.7487 51.7276 19.0487 51.3849C18.0737 50.9027 17.0612 49.8622 16.6487 48.9359C16.0362 47.5908 16.0737 46.8802 17.1237 40.7005L18.0362 35.2821L13.8987 31.1454C9.41117 26.666 9.24867 26.463 8.98618 24.9022C8.57367 22.5039 9.94867 20.0548 12.1362 19.2554C12.4362 19.1539 14.9487 18.7224 17.7362 18.3037C20.5237 17.8976 23.0112 17.5169 23.2737 17.4789L23.7487 17.4027L26.2862 12.1874C28.7612 7.07358 28.8362 6.94668 29.5862 6.23608C30.0862 5.76657 30.5987 5.42395 31.0737 5.2463C32.0237 4.87831 33.4487 4.80218 34.3612 5.05596ZM32.7237 9.4465C32.5612 9.52263 31.4612 11.6671 29.7862 15.1187C28.3112 18.1641 26.9737 20.7908 26.8237 20.9558C26.6737 21.1207 26.3987 21.3365 26.2237 21.438C26.0362 21.5268 23.1737 22.009 19.8737 22.5039C16.5612 22.9861 13.7362 23.4556 13.6112 23.519C13.4487 23.6079 13.3612 23.7855 13.3612 24.0139C13.3612 24.3058 14.0487 25.0418 17.6987 28.6455C20.2487 31.1454 22.1612 33.1376 22.3237 33.4421C22.4862 33.734 22.6112 34.1274 22.6112 34.3177C22.6112 34.5207 22.1612 37.3378 21.6112 40.5863C21.0612 43.8347 20.6112 46.6137 20.6112 46.7787C20.6112 47.134 20.8362 47.3751 21.1612 47.3751C21.2987 47.3751 23.8362 46.0808 26.7987 44.4946L32.1737 41.6014H32.9862L33.7987 41.6141L39.1737 44.4946C42.1237 46.0808 44.6612 47.3751 44.7987 47.3751C45.1362 47.3751 45.3612 47.1467 45.3612 46.7787C45.3612 46.6137 44.9112 43.8347 44.3612 40.5863C43.8112 37.3378 43.3612 34.5334 43.3612 34.3431C43.3612 33.5563 43.8612 32.9726 48.2362 28.6709C51.9362 25.0291 52.6112 24.3058 52.6112 24.0139C52.6112 23.7855 52.5237 23.6079 52.3737 23.519C52.2362 23.4556 49.4237 22.9988 46.1112 22.5039C42.8112 22.0217 39.9487 21.5395 39.7612 21.438C39.5737 21.3365 39.2987 21.1207 39.1487 20.9558C38.9987 20.7908 37.6612 18.1641 36.1862 15.1187C33.8987 10.4236 33.3112 9.34498 33.0112 9.30691C32.9862 9.30691 32.8612 9.37036 32.7237 9.4465Z" fill="url(#paint2_linear_142_608)"/>
<path d="M61.6363 37.2615C64.5613 38.2513 64.9863 38.5939 64.9863 40.0151C64.9863 41.3348 64.1738 42.2231 62.9488 42.2231C62.0363 42.2358 57.6863 40.7638 57.1988 40.2943C56.6113 39.7359 56.4488 39.3045 56.5113 38.467C56.5738 37.6422 56.8238 37.2108 57.4863 36.7412C58.1738 36.2717 58.9488 36.3733 61.6363 37.2615Z" fill="url(#paint3_linear_142_608)"/>
<path d="M8.48727 36.7412C9.16227 37.2108 9.39977 37.6422 9.46227 38.4797C9.52477 39.3045 9.23727 40.0024 8.68727 40.4085C8.17477 40.8018 3.72477 42.2358 3.03727 42.2231C1.82477 42.2231 0.987269 41.3221 0.987269 40.0151C0.987269 38.5812 1.46227 38.2132 4.47477 37.2234C7.13727 36.3606 7.81227 36.2844 8.48727 36.7412Z" fill="url(#paint4_linear_142_608)"/>
<path d="M34.1113 55.0141C35.0863 55.6993 35.2363 56.2069 35.2363 59.1127C35.2363 62.0186 35.0863 62.5262 34.1113 63.2114C33.5363 63.6048 32.4363 63.6048 31.8613 63.1987C30.8863 62.5262 30.7363 62.0186 30.7363 59.1127C30.7363 57.9199 30.7988 56.7271 30.8613 56.4607C31.0988 55.3821 31.9113 54.7349 32.9863 54.7349C33.5238 54.7349 33.7988 54.811 34.1113 55.0141Z" fill="url(#paint5_linear_142_608)"/>
</g>
<defs>
<linearGradient id="paint0_linear_142_608" x1="51.175" y1="9.48486" x2="51.175" y2="1.55691" gradientUnits="userSpaceOnUse">
<stop stop-color="#D0006F"/>
<stop offset="1" stop-color="#8E24AA"/>
</linearGradient>
<linearGradient id="paint1_linear_142_608" x1="14.7985" y1="9.50537" x2="14.7985" y2="1.55604" gradientUnits="userSpaceOnUse">
<stop stop-color="#D0006F"/>
<stop offset="1" stop-color="#8E24AA"/>
</linearGradient>
<linearGradient id="paint2_linear_142_608" x1="32.9898" y1="51.7529" x2="32.9898" y2="4.90731" gradientUnits="userSpaceOnUse">
<stop stop-color="#D0006F"/>
<stop offset="1" stop-color="#8E24AA"/>
</linearGradient>
<linearGradient id="paint3_linear_142_608" x1="60.7426" y1="42.2231" x2="60.7426" y2="36.4652" gradientUnits="userSpaceOnUse">
<stop stop-color="#D0006F"/>
<stop offset="1" stop-color="#8E24AA"/>
</linearGradient>
<linearGradient id="paint4_linear_142_608" x1="5.22899" y1="42.2231" x2="5.22899" y2="36.465" gradientUnits="userSpaceOnUse">
<stop stop-color="#D0006F"/>
<stop offset="1" stop-color="#8E24AA"/>
</linearGradient>
<linearGradient id="paint5_linear_142_608" x1="32.9863" y1="63.5049" x2="32.9863" y2="54.7349" gradientUnits="userSpaceOnUse">
<stop stop-color="#D0006F"/>
<stop offset="1" stop-color="#8E24AA"/>
</linearGradient>
<clipPath id="clip0_142_608">
<rect width="64" height="64.9697" fill="white" transform="matrix(-1 0 0 1 64.9863 0.043457)"/>
</clipPath>
</defs>
</svg>
