<svg width="65" height="65" viewBox="0 0 65 65" fill="none" xmlns="http://www.w3.org/2000/svg">
<g clip-path="url(#clip0_142_583)">
<path d="M31.3855 0.479658L31.0605 0.817158V4.21716V7.61716L31.373 7.94216C32.0105 8.56716 33.0855 8.42966 33.4605 7.65466C33.6605 7.27966 33.6855 6.82966 33.6855 4.24216C33.6855 0.442158 33.5855 0.154657 32.273 0.154657C31.8355 0.154657 31.648 0.229657 31.3855 0.479658Z" fill="url(#paint0_linear_142_583)"/>
<path d="M11.2864 0.604279C10.7989 0.866778 10.5239 1.45428 10.6239 2.01678C10.6864 2.39178 11.1114 2.87928 13.0989 4.87928C14.4239 6.21678 15.6489 7.37928 15.8364 7.47928C17.0489 8.11678 18.2739 6.89178 17.6364 5.67928C17.3614 5.16678 12.7989 0.691779 12.3989 0.541779C11.9364 0.366778 11.6989 0.379279 11.2864 0.604279Z" fill="url(#paint1_linear_142_583)"/>
<path d="M52.2988 0.504348C51.8988 0.679348 47.1863 5.35435 46.9863 5.75435C46.4363 6.91685 47.6488 8.07935 48.7863 7.47935C49.2738 7.21685 53.8863 2.51685 53.9988 2.17935C54.1363 1.72935 53.9738 1.10435 53.6363 0.791848C53.3238 0.504348 52.6363 0.354349 52.2988 0.504348Z" fill="url(#paint2_linear_142_583)"/>
<path d="M26.8109 10.7294C26.1984 11.0294 25.9734 11.0669 24.7484 11.0794C23.6234 11.0919 23.2734 11.1419 22.7984 11.3544C21.0859 12.1544 20.0609 13.9169 20.2234 15.8044C20.2859 16.5044 20.2609 16.6544 20.1109 16.6544C19.7609 16.6544 18.6734 17.2919 18.1734 17.7919C17.8859 18.0794 17.5109 18.6169 17.3234 19.0169C17.0484 19.6294 16.9984 19.8794 16.9984 20.9294C16.9984 21.9544 16.9609 22.1544 16.7984 22.1544C16.4109 22.1544 15.3109 22.8044 14.8359 23.3294C14.1859 24.0419 13.8734 24.6544 13.6859 25.6294C13.5109 26.5044 13.6609 27.6169 14.0609 28.4044L14.2859 28.8419L13.8234 29.0544C13.0109 29.4419 12.3484 30.1169 11.9109 31.0044C11.5359 31.7669 11.4984 31.9294 11.4984 33.0294C11.4984 34.3669 11.7109 35.0044 12.4359 35.8294L12.8484 36.2919L10.8234 38.3294L8.78594 40.3669L8.19844 40.1919C7.83594 40.0794 7.28594 40.0294 6.68594 40.0544C5.26094 40.1294 4.54844 40.5669 2.64844 42.5294C0.810937 44.4044 0.523438 44.9419 0.523438 46.5669C0.523438 48.0669 0.898438 48.6919 3.03594 50.8169C4.58594 52.3669 4.82344 52.5544 5.28594 52.6169C5.93594 52.7044 6.38594 52.4419 6.63594 51.8169C6.93594 51.1169 6.72344 50.7544 5.04844 49.0919C4.22344 48.2669 3.46094 47.4419 3.36094 47.2544C3.26094 47.0669 3.18594 46.6794 3.18594 46.3919C3.18594 45.8794 3.24844 45.8044 4.74844 44.2919L6.29844 42.7169H6.91094C7.43594 42.7169 7.59844 42.7794 8.13594 43.2419C8.47344 43.5294 11.7109 46.7294 15.3359 50.3669C19.7109 54.7544 21.9484 57.0794 21.9984 57.3169C22.1984 58.0919 21.9984 58.4169 20.3984 60.0044C18.8859 61.4919 18.8359 61.5294 18.2984 61.5294C17.9859 61.5294 17.5984 61.4419 17.4359 61.3294C17.2609 61.2169 16.4109 60.4044 15.5234 59.5419C13.9484 57.9919 13.9234 57.9669 13.3609 57.9669C12.8734 57.9669 12.7359 58.0294 12.4109 58.3919C12.0734 58.7669 12.0359 58.8794 12.0984 59.3794C12.1609 59.9294 12.2484 60.0419 14.0109 61.7919C16.2484 63.9919 16.6609 64.2044 18.4359 64.1294C19.9859 64.0669 20.4109 63.8169 22.3859 61.8544C24.2859 59.9419 24.5734 59.4794 24.6609 57.9919C24.7109 57.2044 24.6734 56.8919 24.4359 56.2669L24.1609 55.4919L26.5734 53.0669C28.3859 51.2669 29.1109 50.6169 29.4359 50.5294C29.6984 50.4544 30.9734 50.4419 32.7109 50.4919L35.5359 50.5669L38.0609 53.0919L40.5859 55.6294L40.3734 56.2794C40.0734 57.1794 40.1609 58.6294 40.5609 59.4794C40.9734 60.3419 43.9234 63.3044 44.7234 63.6544C46.0359 64.2419 47.5234 64.2044 48.6984 63.5669C49.4984 63.1419 63.5609 49.0419 63.9359 48.2919C64.3109 47.5419 64.4609 46.4669 64.3109 45.6419C64.0859 44.4669 63.7234 43.9294 62.0734 42.2544C60.0734 40.2419 59.5484 39.9669 57.8734 39.9794C57.1359 39.9794 56.5984 40.0544 56.2984 40.1794L55.8484 40.3794L53.8359 38.3544L51.8109 36.3419L52.2484 35.8044C52.9484 34.9044 53.2234 34.0294 53.1609 32.7794C53.1234 31.9794 53.0359 31.5544 52.8109 31.0919C52.3859 30.2044 51.3859 29.2419 50.5734 28.9419L49.8984 28.6919L49.8859 27.5169C49.8734 26.5294 49.8234 26.2294 49.5484 25.6544C49.1109 24.7294 48.3234 23.9544 47.3484 23.5044L46.5359 23.1169L46.6234 22.5169C46.7359 21.7544 46.4984 20.6419 46.0859 19.8669C45.6609 19.0794 44.7109 18.2294 43.9234 17.9294L43.2984 17.7044L43.2734 16.4544C43.2484 15.3044 43.2109 15.1544 42.8234 14.4294C42.0359 12.9919 40.9484 12.3169 39.1234 12.1419C38.5109 12.0919 36.2234 11.6919 34.0609 11.2794C31.3609 10.7419 29.7109 10.4919 28.8109 10.4544C27.5734 10.3919 27.4609 10.4169 26.8109 10.7294ZM31.7484 13.5294C33.2609 13.8169 34.5984 14.0794 34.7234 14.1294C34.8984 14.2044 34.6609 14.5044 33.3859 15.7669L31.8359 17.3169L31.0234 16.7419C29.7109 15.8044 28.1859 13.9294 28.1859 13.2419C28.1859 12.9294 28.6234 12.9544 31.7484 13.5294ZM25.2859 13.8169C25.4609 13.9044 25.6984 14.2544 25.8609 14.6544C26.3859 15.9544 27.8984 17.7919 29.3109 18.8544C29.8484 19.2544 31.3609 20.0294 31.6109 20.0294C31.8609 20.0294 32.1109 20.8294 32.0234 21.3544C31.9234 21.9669 31.5109 22.4669 30.9234 22.7044C29.8984 23.1169 29.8359 23.0794 26.2859 19.5544C22.9609 16.2544 22.6984 15.9169 22.8609 15.1419C23.0859 14.0044 24.3484 13.3169 25.2859 13.8169ZM39.9359 15.1044C40.6609 15.7169 40.8734 16.5544 40.5109 17.2544C40.4109 17.4419 39.7609 18.1544 39.0609 18.8419C37.6984 20.1794 37.4359 20.5544 37.4359 21.1419C37.4359 21.9169 38.4234 22.5794 39.2109 22.3419C39.3609 22.2794 39.9359 21.8169 40.4609 21.3044C41.3484 20.4419 41.4734 20.3669 42.0359 20.3044C43.1609 20.2044 43.9359 20.9044 43.9359 22.0419C43.9359 22.7544 43.6609 23.1544 42.0109 24.7669C41.2984 25.4794 40.7859 26.0919 40.7484 26.2919C40.6359 26.7794 40.9734 27.4794 41.4234 27.7044C42.1734 28.0919 42.6484 27.9169 43.6859 26.8419C44.4984 26.0044 44.8859 25.7794 45.4984 25.7794C46.6109 25.7794 47.4484 26.7919 47.2484 27.8669C47.1859 28.2169 46.8609 28.6294 45.7359 29.7794C44.1609 31.3919 43.9734 31.7544 44.3609 32.5044C44.6109 32.9919 44.9109 33.1544 45.5609 33.1544C46.0234 33.1544 46.1734 33.0794 46.8484 32.4294C47.9109 31.4294 48.1609 31.2794 48.7984 31.2794C50.0984 31.2794 50.9734 32.6419 50.3859 33.7544C50.2859 33.9419 49.4984 34.7919 48.6359 35.6544C46.9234 37.3544 46.6984 37.7294 46.9359 38.4669C47.1234 39.0419 47.4859 39.2794 48.1984 39.2794C48.6984 39.2794 48.8609 39.2044 49.3609 38.7544L49.9609 38.2419L51.9109 40.1919L53.8734 42.1544L48.1609 47.8669L42.4359 53.5919L40.4359 51.5919L38.4484 49.6044L39.4984 48.5169C40.5109 47.4919 40.5609 47.4044 40.5609 46.8794C40.5609 46.2669 40.2734 45.8544 39.7109 45.6419C39.1484 45.4294 38.6859 45.6419 37.6734 46.6044C36.3234 47.8919 36.1734 47.9294 32.1609 47.8794C27.8234 47.8294 28.3359 47.6169 24.9609 50.9544L22.3109 53.5794L16.5609 47.8419L10.8109 42.0919L12.7859 40.1169L14.7609 38.1419L15.5734 38.4044C16.6859 38.7919 18.0984 38.7169 19.0359 38.2294C20.3734 37.5419 21.1609 36.5294 21.4359 35.0794L21.5859 34.3044L22.1859 34.2294C23.0109 34.1169 24.1984 33.4919 24.7484 32.8794C25.3109 32.2669 25.7609 31.3044 25.8734 30.5044C25.9609 29.9294 25.9609 29.9294 26.5359 29.8419C27.3359 29.7294 28.2984 29.2794 28.9109 28.7169C29.5234 28.1669 30.1484 26.9794 30.2609 26.1544L30.3359 25.5544L30.9234 25.4669C32.3109 25.2794 33.6859 24.2544 34.3234 22.9294C34.7359 22.0419 34.7984 20.5794 34.4359 19.5419L34.1734 18.7419L35.7734 17.1169C37.8484 15.0169 38.1734 14.7794 38.9484 14.7794C39.4109 14.7794 39.6359 14.8544 39.9359 15.1044ZM22.0984 19.3544C22.6609 19.6419 27.1484 24.1169 27.4484 24.6794C27.7484 25.2794 27.7484 25.6669 27.4234 26.2919C27.2359 26.6669 27.0234 26.8669 26.5984 27.0544C25.5484 27.5169 25.4484 27.4544 22.5234 24.5544C21.0859 23.1294 19.8359 21.8169 19.7359 21.6294C19.3484 20.8794 19.6609 19.8919 20.4609 19.4044C20.9609 19.1044 21.5609 19.0794 22.0984 19.3544ZM18.7859 24.8294C18.9734 24.9294 20.0359 25.9294 21.1484 27.0544C22.8234 28.7419 23.1734 29.1669 23.2484 29.5544C23.3734 30.2169 22.9609 31.0169 22.3234 31.3794C21.2984 31.9544 20.8859 31.7544 18.6984 29.6044C16.5859 27.5294 16.3109 27.1669 16.3109 26.4294C16.3109 25.1169 17.6609 24.2419 18.7859 24.8294ZM16.6609 31.4544C17.2484 31.7669 18.6484 33.3169 18.7859 33.8169C19.0109 34.6169 18.7109 35.2919 17.9359 35.7669C17.0484 36.3044 16.3609 36.0544 15.0984 34.7544C13.8359 33.4419 13.7359 32.7044 14.6734 31.7544C15.0984 31.3419 15.2359 31.2794 15.7359 31.2794C16.0609 31.2794 16.4734 31.3544 16.6609 31.4544ZM58.5359 42.7044C58.7234 42.8044 59.5109 43.5294 60.2859 44.3169C61.6234 45.6794 61.6859 45.7669 61.6859 46.2669C61.6859 46.5544 61.6109 46.9419 61.5109 47.1294C61.2859 47.5419 47.7359 61.0669 47.3484 61.2669C47.1984 61.3419 46.8609 61.4044 46.5859 61.4044C45.9609 61.4044 45.4609 61.0419 44.0359 59.5544C42.8984 58.3794 42.6859 57.9419 42.8734 57.1919C42.9734 56.7669 56.6734 42.9669 57.2484 42.7044C57.7359 42.4919 58.1234 42.4919 58.5359 42.7044Z" fill="url(#paint3_linear_142_583)"/>
<path d="M42.523 41.7918C42.223 41.9668 41.9355 42.5668 41.9355 43.0168C41.9355 43.2668 42.073 43.5418 42.298 43.8043C42.6105 44.1543 42.748 44.2168 43.248 44.2168C43.748 44.2168 43.8855 44.1543 44.198 43.8043C44.9855 42.9168 44.448 41.6543 43.2855 41.6543C42.9855 41.6543 42.648 41.7168 42.523 41.7918Z" fill="url(#paint4_linear_142_583)"/>
<path d="M8.33633 54.2168C7.91133 54.5793 7.78633 55.0043 7.96133 55.6168C8.08633 56.0918 8.67383 56.5293 9.18633 56.5293C9.98633 56.5293 10.6238 55.6918 10.4738 54.8543C10.3738 54.3543 9.76133 53.9043 9.18633 53.9043C8.86133 53.9043 8.58633 54.0043 8.33633 54.2168Z" fill="url(#paint5_linear_142_583)"/>
</g>
<defs>
<linearGradient id="paint0_linear_142_583" x1="32.373" y1="8.33545" x2="32.373" y2="0.154657" gradientUnits="userSpaceOnUse">
<stop stop-color="#D0006F"/>
<stop offset="1" stop-color="#8E24AA"/>
</linearGradient>
<linearGradient id="paint1_linear_142_583" x1="14.2072" y1="7.65381" x2="14.2072" y2="0.421707" gradientUnits="userSpaceOnUse">
<stop stop-color="#D0006F"/>
<stop offset="1" stop-color="#8E24AA"/>
</linearGradient>
<linearGradient id="paint2_linear_142_583" x1="50.4487" y1="7.64258" x2="50.4487" y2="0.44526" gradientUnits="userSpaceOnUse">
<stop stop-color="#D0006F"/>
<stop offset="1" stop-color="#8E24AA"/>
</linearGradient>
<linearGradient id="paint3_linear_142_583" x1="32.4459" y1="64.1416" x2="32.4459" y2="10.4269" gradientUnits="userSpaceOnUse">
<stop stop-color="#D0006F"/>
<stop offset="1" stop-color="#8E24AA"/>
</linearGradient>
<linearGradient id="paint4_linear_142_583" x1="43.2528" y1="44.2168" x2="43.2528" y2="41.6543" gradientUnits="userSpaceOnUse">
<stop stop-color="#D0006F"/>
<stop offset="1" stop-color="#8E24AA"/>
</linearGradient>
<linearGradient id="paint5_linear_142_583" x1="9.1903" y1="56.5293" x2="9.1903" y2="53.9043" gradientUnits="userSpaceOnUse">
<stop stop-color="#D0006F"/>
<stop offset="1" stop-color="#8E24AA"/>
</linearGradient>
<clipPath id="clip0_142_583">
<rect width="64" height="64" fill="white" transform="translate(0.435547 0.154297)"/>
</clipPath>
</defs>
</svg>
