<svg width="65" height="64" viewBox="0 0 65 64" fill="none" xmlns="http://www.w3.org/2000/svg">
<g clip-path="url(#clip0_142_593)">
<path d="M31.3875 0.325016C31.0625 0.662516 31.0625 0.675016 31.0625 2.58752C31.0625 4.45002 31.075 4.52502 31.3625 4.81252C31.725 5.16252 32.1875 5.31252 32.6375 5.20002C32.8125 5.15002 33.1 4.97502 33.2625 4.81252C33.55 4.52502 33.5625 4.45002 33.5625 2.58752C33.5625 0.675016 33.5625 0.662516 33.2375 0.325016C32.975 0.0625162 32.7875 1.62125e-05 32.3125 1.62125e-05C31.8375 1.62125e-05 31.65 0.0625162 31.3875 0.325016Z" fill="url(#paint0_linear_142_593)"/>
<path d="M20.475 3.46257C20.325 3.48757 20.0625 3.66257 19.8875 3.83757C19.6375 4.08757 19.5625 4.28757 19.5625 4.72507V5.30007L22.0125 7.76257C23.775 9.53757 24.575 10.2501 24.8375 10.3001C25.4125 10.4126 26.0375 10.0876 26.2625 9.55007C26.6125 8.72507 26.4625 8.50007 24.1375 6.15007C22.9625 4.95007 21.8625 3.87507 21.6875 3.76257C21.325 3.50007 20.875 3.38757 20.475 3.46257Z" fill="url(#paint1_linear_142_593)"/>
<path d="M43.4382 3.46252C42.9632 3.55002 38.3632 8.20002 38.2507 8.70002C38.1257 9.30002 38.4632 9.97502 38.9882 10.1875C39.8007 10.525 39.9882 10.4 42.6132 7.76252L45.0632 5.30002V4.72502C45.0632 4.27502 44.9882 4.08752 44.7382 3.82502C44.5507 3.65002 44.3382 3.50002 44.2382 3.50002C44.1507 3.50002 44.0132 3.47502 43.9132 3.45002C43.8257 3.42502 43.6132 3.43752 43.4382 3.46252Z" fill="url(#paint2_linear_142_593)"/>
<path d="M31.4874 7.17512C30.9624 7.41262 30.7624 7.71262 29.5749 10.0876C28.7874 11.6751 28.4999 12.1376 28.2874 12.1876C28.1249 12.2126 27.1624 12.3626 26.1249 12.5001C25.0999 12.6501 24.0499 12.8251 23.7874 12.8876C23.2249 13.0376 22.5999 13.7126 22.4874 14.3251C22.3249 15.2001 22.5624 15.5751 24.4749 17.4751L26.2749 19.2751L25.9249 21.2876C25.4999 23.7001 25.4624 24.4376 25.7374 24.9751C26.1124 25.7001 27.0624 26.0876 27.8999 25.8501C28.1374 25.7876 29.2374 25.2501 30.3249 24.6751L32.3124 23.6251L34.3124 24.6876C35.4249 25.2751 36.5499 25.8001 36.8249 25.8626C37.6749 26.0501 38.5249 25.6876 38.8874 24.9751C39.1624 24.4376 39.1249 23.7001 38.6999 21.2876L38.3499 19.2751L40.1499 17.4751C42.0624 15.5751 42.2999 15.2001 42.1374 14.3251C42.0249 13.7126 41.3999 13.0376 40.8374 12.8876C40.5749 12.8126 39.4999 12.6501 38.4374 12.5001C37.3749 12.3501 36.3999 12.2001 36.2749 12.1501C36.1374 12.0876 35.5624 11.1251 34.8999 9.81262C34.1749 8.41262 33.6249 7.48762 33.4124 7.33762C32.9874 7.02512 31.9999 6.93762 31.4874 7.17512ZM33.2499 12.4126C33.7749 13.4751 34.2499 14.2626 34.4374 14.4001C34.6499 14.5501 35.4249 14.7126 36.7249 14.9001L38.6874 15.1876L37.3249 16.5626C36.5749 17.3126 35.8999 18.0626 35.8249 18.2126C35.6249 18.6001 35.6499 19.1001 35.9749 21.0001L36.2624 22.7001L34.4749 21.7876C33.4124 21.2501 32.5374 20.8751 32.3124 20.8751C32.0874 20.8751 31.2124 21.2501 30.1499 21.7876L28.3624 22.7001L28.6499 21.0001C28.9874 19.0251 28.9999 18.6001 28.7624 18.1501C28.6624 17.9626 27.9874 17.2251 27.2624 16.5001L25.9374 15.1876L27.7999 14.9251C30.3499 14.5501 30.3374 14.5626 31.4124 12.3751C31.8749 11.4251 32.2749 10.6376 32.3124 10.6376C32.3499 10.6376 32.7749 11.4376 33.2499 12.4126Z" fill="url(#paint3_linear_142_593)"/>
<path d="M30.3133 27.45C27.6633 28.1375 25.4258 30.4 24.7508 33.0625C24.5133 34.025 24.5133 35.9875 24.7508 36.9375C25.0758 38.175 25.7883 39.4625 26.6508 40.3625C27.0758 40.8125 27.4133 41.1875 27.4008 41.2C27.3883 41.2125 27.0633 41.375 26.6883 41.5625C24.9133 42.4625 23.1633 44.025 22.0633 45.6875C21.7258 46.225 21.4383 46.7125 21.4383 46.7625C21.4383 46.825 21.0133 46.5125 20.4883 46.0875C19.9633 45.65 19.0883 45.05 18.5258 44.75C17.9633 44.45 17.4758 44.2 17.4633 44.175C17.4383 44.1625 17.6508 43.925 17.9508 43.6625C18.6508 43.0375 19.5883 41.575 19.9383 40.6C20.3258 39.5125 20.4258 37.2625 20.1383 36.125C19.4508 33.375 17.2258 31.125 14.5008 30.4375C13.5508 30.2 11.5758 30.2 10.6258 30.4375C7.92578 31.125 5.68828 33.3625 5.00078 36.0625C4.76328 37.025 4.76328 38.9875 5.00078 39.9375C5.32578 41.175 6.03828 42.4625 6.90078 43.3625C7.32578 43.8125 7.66328 44.1875 7.65078 44.2C7.63828 44.2125 7.31328 44.375 6.93828 44.5625C4.00078 46.0375 1.76328 48.75 0.725781 52.0875L0.388281 53.1875L0.338281 58.2625L0.300781 63.325L0.638281 63.6625L0.975781 64H32.3133H63.6508L63.9883 63.6625L64.3258 63.325L64.2883 58.2625L64.2383 53.1875L63.9008 52.0875C62.8633 48.75 60.6258 46.0375 57.6883 44.5625C57.3133 44.375 56.9883 44.2125 56.9758 44.2C56.9633 44.1875 57.3008 43.8125 57.7258 43.3625C58.5883 42.4625 59.3008 41.175 59.6258 39.9375C59.8633 38.9875 59.8633 37.025 59.6258 36.0625C58.9383 33.3625 56.7008 31.125 54.0008 30.4375C53.0508 30.2 51.0758 30.2 50.1258 30.4375C47.4008 31.125 45.1758 33.375 44.4883 36.125C44.2008 37.2625 44.3008 39.5125 44.6883 40.6C45.0383 41.575 45.9758 43.0375 46.6758 43.6625C46.9758 43.925 47.1883 44.1625 47.1633 44.175C47.1508 44.2 46.6633 44.45 46.1008 44.75C45.5383 45.05 44.6633 45.65 44.1383 46.0875C43.6133 46.5125 43.1883 46.825 43.1883 46.7625C43.1883 46.7125 42.9008 46.225 42.5633 45.6875C41.4633 44.025 39.7133 42.4625 37.9383 41.5625C37.5633 41.375 37.2383 41.2125 37.2258 41.2C37.2133 41.1875 37.5508 40.8125 37.9758 40.3625C38.8383 39.4625 39.5508 38.175 39.8758 36.9375C40.1133 35.9875 40.1133 34.025 39.8758 33.0625C39.1883 30.3625 36.9508 28.125 34.2508 27.4375C33.3133 27.2 31.2383 27.2 30.3133 27.45ZM34.4508 30.325C35.5133 30.8375 36.4758 31.8 36.9883 32.8625C37.3508 33.625 37.3758 33.7875 37.3758 35C37.3758 36.2125 37.3508 36.375 36.9883 37.1375C36.4758 38.2 35.5133 39.1625 34.4508 39.675C33.6883 40.0375 33.5258 40.0625 32.3133 40.0625C31.1008 40.0625 30.9383 40.0375 30.1758 39.675C29.1133 39.1625 28.1508 38.2 27.6383 37.1375C27.2758 36.375 27.2508 36.2125 27.2508 35C27.2508 33.7875 27.2758 33.625 27.6383 32.8625C28.0758 31.9375 29.0508 30.8875 29.8508 30.4875C30.8758 29.9625 31.2258 29.875 32.4383 29.9125C33.4758 29.9375 33.7258 29.9875 34.4508 30.325ZM14.7008 33.325C15.7633 33.8375 16.7258 34.8 17.2383 35.8625C17.6008 36.625 17.6258 36.7875 17.6258 38C17.6258 39.2125 17.6008 39.375 17.2383 40.1375C16.7258 41.2 15.7633 42.1625 14.7008 42.675C13.9383 43.0375 13.7758 43.0625 12.5633 43.0625C11.3508 43.0625 11.1883 43.0375 10.4258 42.675C9.36328 42.1625 8.40078 41.2 7.88828 40.1375C7.52578 39.375 7.50078 39.2125 7.50078 38C7.50078 36.7875 7.52578 36.625 7.88828 35.8625C8.32578 34.9375 9.30078 33.8875 10.1008 33.4875C11.1258 32.9625 11.4758 32.875 12.6883 32.9125C13.7258 32.9375 13.9758 32.9875 14.7008 33.325ZM54.2008 33.325C55.2633 33.8375 56.2258 34.8 56.7383 35.8625C57.1008 36.625 57.1258 36.7875 57.1258 38C57.1258 39.2125 57.1008 39.375 56.7383 40.1375C56.2258 41.2 55.2633 42.1625 54.2008 42.675C53.4383 43.0375 53.2758 43.0625 52.0633 43.0625C50.8508 43.0625 50.6883 43.0375 49.9258 42.675C48.8633 42.1625 47.9008 41.2 47.3883 40.1375C47.0258 39.375 47.0008 39.2125 47.0008 38C47.0008 36.7875 47.0258 36.625 47.3883 35.8625C47.8258 34.9375 48.8008 33.8875 49.6008 33.4875C50.6258 32.9625 50.9758 32.875 52.1883 32.9125C53.2258 32.9375 53.4758 32.9875 54.2008 33.325ZM34.6383 43.125C38.0633 43.9875 40.7758 46.7 41.7008 50.1875C41.9508 51.1125 41.9758 51.575 42.0383 56.3375L42.0883 61.5H40.9008H39.7008L39.6633 59.325C39.6258 57.3375 39.6008 57.1125 39.3633 56.7875C38.8758 56.1375 37.9383 56.1 37.3633 56.7125C37.0633 57.025 37.0633 57.0875 37.0633 59.2625V61.5H29.8008H22.5383L22.5883 56.3375C22.6508 51.575 22.6758 51.1125 22.9258 50.1875C23.8508 46.725 26.5508 44.0125 29.9383 43.1375C31.2383 42.7875 33.3133 42.7875 34.6383 43.125ZM14.8758 46.125C16.7508 46.6 18.6883 47.775 19.8008 49.1125L20.3383 49.75L20.2008 50.375C20.1133 50.775 20.0633 52.9625 20.0633 56.25V61.5H11.4258H2.77578L2.85078 57.8375C2.90078 54.6625 2.95078 54.0625 3.17578 53.1875C4.07578 49.7375 6.78828 47.0125 10.1883 46.1375C11.4883 45.7875 13.5633 45.7875 14.8758 46.125ZM54.3883 46.125C57.8133 46.9875 60.5383 49.7125 61.4508 53.1875C61.6758 54.0625 61.7258 54.6625 61.7758 57.8375L61.8508 61.5H53.2008H44.5633V56.25C44.5633 52.9625 44.5133 50.775 44.4258 50.375L44.2883 49.75L44.8258 49.1125C45.9258 47.8 47.8633 46.6125 49.7008 46.125C50.9883 45.7875 53.0633 45.7875 54.3883 46.125Z" fill="url(#paint4_linear_142_593)"/>
<path d="M37.8125 51.5126C37.35 51.7001 37.0625 52.1251 37.0625 52.6626C37.0625 53.5376 37.75 54.1126 38.6 53.9501C39.725 53.7376 40 52.2126 39.0125 51.6126C38.5875 51.3501 38.2875 51.3251 37.8125 51.5126Z" fill="url(#paint5_linear_142_593)"/>
</g>
<defs>
<linearGradient id="paint0_linear_142_593" x1="32.3125" y1="5.23682" x2="32.3125" y2="1.62125e-05" gradientUnits="userSpaceOnUse">
<stop stop-color="#D0006F"/>
<stop offset="1" stop-color="#8E24AA"/>
</linearGradient>
<linearGradient id="paint1_linear_142_593" x1="22.9838" y1="10.3223" x2="22.9838" y2="3.43976" gradientUnits="userSpaceOnUse">
<stop stop-color="#D0006F"/>
<stop offset="1" stop-color="#8E24AA"/>
</linearGradient>
<linearGradient id="paint2_linear_142_593" x1="41.6439" y1="10.3223" x2="41.6439" y2="3.43639" gradientUnits="userSpaceOnUse">
<stop stop-color="#D0006F"/>
<stop offset="1" stop-color="#8E24AA"/>
</linearGradient>
<linearGradient id="paint3_linear_142_593" x1="32.3124" y1="25.9199" x2="32.3124" y2="7.03961" gradientUnits="userSpaceOnUse">
<stop stop-color="#D0006F"/>
<stop offset="1" stop-color="#8E24AA"/>
</linearGradient>
<linearGradient id="paint4_linear_142_593" x1="32.3133" y1="64" x2="32.3133" y2="27.2609" gradientUnits="userSpaceOnUse">
<stop stop-color="#D0006F"/>
<stop offset="1" stop-color="#8E24AA"/>
</linearGradient>
<linearGradient id="paint5_linear_142_593" x1="38.3408" y1="53.9775" x2="38.3408" y2="51.3906" gradientUnits="userSpaceOnUse">
<stop stop-color="#D0006F"/>
<stop offset="1" stop-color="#8E24AA"/>
</linearGradient>
<clipPath id="clip0_142_593">
<rect width="64" height="64" fill="white" transform="translate(0.3125)"/>
</clipPath>
</defs>
</svg>
