<svg width="40" height="40" viewBox="0 0 55 56" fill="none" xmlns="http://www.w3.org/2000/svg">
<path fill-rule="evenodd" clip-rule="evenodd" d="M8.5119 4.58092C7.91001 4.58092 7.31401 4.69947 6.75794 4.9298C6.20186 5.16013 5.6966 5.49774 5.271 5.92334C4.8454 6.34894 4.50779 6.85421 4.27746 7.41028C4.04712 7.96636 3.92857 8.56236 3.92857 9.16425C3.92857 9.76614 4.04712 10.3621 4.27746 10.9182C4.50779 11.4743 4.8454 11.9796 5.271 12.4052C5.6966 12.8308 6.20186 13.1684 6.75794 13.3987C7.31401 13.629 7.91001 13.7476 8.5119 13.7476C9.72748 13.7476 10.8933 13.2647 11.7528 12.4052C12.6124 11.5456 13.0952 10.3798 13.0952 9.16425C13.0952 7.94867 12.6124 6.78288 11.7528 5.92334C10.8933 5.0638 9.72748 4.58092 8.5119 4.58092ZM0 9.16425C0 6.90675 0.896787 4.74171 2.49308 3.14542C4.08937 1.54913 6.25441 0.652344 8.5119 0.652344C10.7694 0.652344 12.9344 1.54913 14.5307 3.14542C16.127 4.74171 17.0238 6.90675 17.0238 9.16425C17.0238 11.4217 16.127 13.5868 14.5307 15.1831C12.9344 16.7794 10.7694 17.6762 8.5119 17.6762C6.25441 17.6762 4.08937 16.7794 2.49308 15.1831C0.896787 13.5868 0 11.4217 0 9.16425ZM8.5119 42.5571C7.29633 42.5571 6.13054 43.04 5.271 43.8995C4.41146 44.7591 3.92857 45.9249 3.92857 47.1404C3.92857 48.356 4.41146 49.5218 5.271 50.3813C6.13054 51.2409 7.29633 51.7238 8.5119 51.7238C9.72748 51.7238 10.8933 51.2409 11.7528 50.3813C12.6124 49.5218 13.0952 48.356 13.0952 47.1404C13.0952 45.9249 12.6124 44.7591 11.7528 43.8995C10.8933 43.04 9.72748 42.5571 8.5119 42.5571ZM0 47.1404C0 44.8829 0.896787 42.7179 2.49308 41.1216C4.08937 39.5253 6.25441 38.6285 8.5119 38.6285C10.7694 38.6285 12.9344 39.5253 14.5307 41.1216C16.127 42.7179 17.0238 44.8829 17.0238 47.1404C17.0238 49.3979 16.127 51.563 14.5307 53.1593C12.9344 54.7556 10.7694 55.6523 8.5119 55.6523C6.25441 55.6523 4.08937 54.7556 2.49308 53.1593C0.896787 51.563 0 49.3979 0 47.1404ZM46.4881 42.5571C45.2725 42.5571 44.1067 43.04 43.2472 43.8995C42.3876 44.7591 41.9048 45.9249 41.9048 47.1404C41.9048 48.356 42.3876 49.5218 43.2472 50.3813C44.1067 51.2409 45.2725 51.7238 46.4881 51.7238C47.7037 51.7238 48.8695 51.2409 49.729 50.3813C50.5885 49.5218 51.0714 48.356 51.0714 47.1404C51.0714 45.9249 50.5885 44.7591 49.729 43.8995C48.8695 43.04 47.7037 42.5571 46.4881 42.5571ZM37.9762 47.1404C37.9762 44.8829 38.873 42.7179 40.4693 41.1216C42.0656 39.5253 44.2306 38.6285 46.4881 38.6285C48.7456 38.6285 50.9106 39.5253 52.5069 41.1216C54.1032 42.7179 55 44.8829 55 47.1404C55 49.3979 54.1032 51.563 52.5069 53.1593C50.9106 54.7556 48.7456 55.6523 46.4881 55.6523C44.2306 55.6523 42.0656 54.7556 40.4693 53.1593C38.873 51.563 37.9762 49.3979 37.9762 47.1404Z" fill="url(#paint0_linear_284_65)"/>
<path fill-rule="evenodd" clip-rule="evenodd" d="M8.01563 15.9846C8.5502 15.9846 9.06288 16.1953 9.44089 16.5704C9.81889 16.9455 10.0313 17.4542 10.0313 17.9846V39.3189C10.0313 39.8493 9.81889 40.3581 9.44089 40.7331C9.06288 41.1082 8.5502 41.319 8.01563 41.319C7.48105 41.319 6.96837 41.1082 6.59036 40.7331C6.21236 40.3581 6 39.8493 6 39.3189V17.9846C6 17.4542 6.21236 16.9455 6.59036 16.5704C6.96837 16.1953 7.48105 15.9846 8.01563 15.9846ZM31.2759 1.23728C31.6534 1.61229 31.8654 2.12064 31.8654 2.65067C31.8654 3.18069 31.6534 3.68904 31.2759 4.06406L27.9972 7.31753H38.9219C41.5948 7.31753 44.1582 8.37114 46.0482 10.2466C47.9382 12.122 49 14.6657 49 17.3179V40.6523C49 41.1827 48.7876 41.6914 48.4096 42.0665C48.0316 42.4416 47.519 42.6523 46.9844 42.6523C46.4498 42.6523 45.9371 42.4416 45.5591 42.0665C45.1811 41.6914 44.9688 41.1827 44.9688 40.6523V17.3179C44.9688 15.7266 44.3317 14.2004 43.1977 13.0751C42.0637 11.9499 40.5256 11.3177 38.9219 11.3177H27.9999L31.2786 14.5712C31.6456 14.9486 31.8485 15.4539 31.8437 15.9783C31.8389 16.5027 31.6266 17.0043 31.2527 17.3749C30.8789 17.7456 30.3732 17.9557 29.8447 17.96C29.3162 17.9643 28.8072 17.7625 28.4272 17.398L21.7084 10.731C21.331 10.356 21.119 9.84764 21.119 9.31761C21.119 8.78759 21.331 8.27924 21.7084 7.90422L28.4272 1.23728C28.8051 0.862725 29.3174 0.652344 29.8516 0.652344C30.3857 0.652344 30.898 0.862725 31.2759 1.23728Z" fill="url(#paint1_linear_284_65)"/>
<defs>
<linearGradient id="paint0_linear_284_65" x1="27.5" y1="0.652344" x2="27.5" y2="55.6523" gradientUnits="userSpaceOnUse">
<stop stop-color="#D0006F"/>
<stop offset="1" stop-color="#8E24AA"/>
</linearGradient>
<linearGradient id="paint1_linear_284_65" x1="27.5" y1="0.652344" x2="27.5" y2="42.6523" gradientUnits="userSpaceOnUse">
<stop stop-color="#D0006F"/>
<stop offset="1" stop-color="#8E24AA"/>
</linearGradient>
</defs>
</svg>
