<svg width="45" height="45" viewBox="0 0 71 72" fill="none" xmlns="http://www.w3.org/2000/svg">
<g clip-path="url(#clip0_50_861)">
<path d="M52.2826 17.2368C46.6879 14.6052 41.0956 11.9683 35.5059 9.32617L0.408203 25.8692L6.41362 28.7683L5.91662 28.8482V59.819H8.87495V31.3421L11.005 30.9753L11.8333 31.3746V47.0183C11.8333 49.7222 27.2344 57.4701 30.3199 58.9966C31.9241 59.784 33.6896 60.1869 35.4765 60.1736C37.2634 60.1602 39.0227 59.7309 40.6149 58.9197C59.1666 49.4234 59.1666 47.675 59.1666 47.0183V31.3746L70.568 25.881C70.568 25.881 59.3264 20.553 52.2826 17.2368ZM56.2083 46.5183C50.7767 50.1337 45.1186 53.3965 39.2689 56.2868C38.0878 56.8895 36.7826 57.2087 35.4567 57.2189C34.1307 57.2292 32.8207 56.9303 31.6305 56.3459C25.7596 53.5528 20.1278 50.2827 14.7916 46.5686V32.7976L35.5 42.7761L56.2083 32.7976V46.5183ZM35.5 39.4982L16.0223 30.1114L35.1597 26.8129L34.6568 23.893L11.4339 27.8986L7.28337 25.8988L35.497 12.601C37.9376 13.7637 60.7109 24.4758 63.7254 25.8958L35.5 39.4982Z" fill="url(#paint0_linear_50_861)"/>
</g>
<defs>
<linearGradient id="paint0_linear_50_861" x1="35.4881" y1="9.32617" x2="35.4881" y2="60.1739" gradientUnits="userSpaceOnUse">
<stop stop-color="#D0006F"/>
<stop offset="1" stop-color="#8E24AA"/>
</linearGradient>
<clipPath id="clip0_50_861">
<rect width="71" height="71" fill="white" transform="translate(0 0.652344)"/>
</clipPath>
</defs>
</svg>
