<svg width="45" height="45" viewBox="0 0 78 56" fill="none" xmlns="http://www.w3.org/2000/svg">
<path d="M1.09421 46.8466C1.15186 46.7714 1.2113 46.6976 1.27287 46.6252C2.44031 45.2472 4.30257 44.3537 6.39656 44.3537H16.0277V42.5886H10.3001H8.33497H5.41417V28.0027L8.33497 26.022V6.50117H9.81371V1.04663H15.7136V6.50117H28.906L40.9511 24.3053V34.9596H45.0302V38.0636H45.9964L43.7781 16.8816C43.7611 16.7202 43.7571 16.559 43.7629 16.3985C43.7552 16.1562 43.7716 15.9123 43.8154 15.6699C44.0131 14.5812 44.7251 13.6105 45.7684 13.0068L64.3799 2.22921C64.5653 2.00993 64.7772 1.80671 65.0137 1.62403C65.9532 0.898081 67.2038 0.552678 68.4435 0.677358C69.6836 0.80146 70.8145 1.38508 71.5462 2.27795C72.2779 3.17111 72.5518 4.30234 72.2975 5.38165L69.0764 19.056L77.9844 26.496L69.7607 32.6193L69.0066 37.7406L65.0872 37.2904L53.2401 28.4875L53.7748 24.8565L53.7851 24.8575L54.1873 22.3425L56.1331 22.5852L55.7381 25.0554L62.9968 25.7912L63.3925 8.86777L52.5104 18.0903L50.3779 38.4544C51.0578 38.8626 51.5057 39.5512 51.5057 40.3306C51.5057 41.5806 50.3543 42.5975 48.9391 42.5975H41.9337V42.5886H40.951H38.9859H33.2584V44.3537H43.0048C45.0988 44.3537 46.9611 45.2472 48.1285 46.6252C48.1901 46.6976 48.2495 46.7716 48.3072 46.8466C48.5947 47.2224 48.8327 47.6301 49.0123 48.0626C49.2637 48.6681 49.4011 49.3216 49.4011 50.0031C49.4011 50.6845 49.2637 51.338 49.0123 51.9435C48.8327 52.3758 48.5947 52.7837 48.3072 53.1595C48.2495 53.2347 48.1901 53.3084 48.1285 53.3809C46.9611 54.7588 45.0988 55.6523 43.0048 55.6523H6.3964C4.30241 55.6523 2.44015 54.7588 1.27271 53.3809C1.21114 53.3084 1.1517 53.2345 1.09406 53.1595C0.864136 52.8589 0.665825 52.5377 0.50386 52.1998C0.179787 51.5242 0.000465393 50.7817 0.000465393 50.003C0.000465393 49.2241 0.179787 48.4816 0.50386 47.806C0.665985 47.4684 0.864296 47.1472 1.09421 46.8466ZM6.39672 53.9168C8.84 53.9168 10.8277 52.1612 10.8277 50.0031C10.8277 47.8451 8.84 46.0893 6.39672 46.0893C4.7932 46.0893 3.38602 46.8455 2.608 47.9751C2.20057 48.567 1.96558 49.2613 1.96558 50.0031C1.96558 50.7448 2.20057 51.4392 2.608 52.031C3.38602 53.1606 4.7932 53.9168 6.39672 53.9168ZM46.7937 52.031C47.2012 51.4392 47.4362 50.7448 47.4362 50.0031C47.4362 49.2613 47.2012 48.567 46.7937 47.9751C46.0157 46.8453 44.6084 46.0893 43.005 46.0893C40.5617 46.0893 38.5739 47.8451 38.5739 50.0031C38.5739 52.1612 40.5617 53.9168 43.005 53.9168C44.6084 53.9168 46.0157 53.1606 46.7937 52.031ZM36.8107 48.5924H35.5687C35.8013 49.0074 35.9357 49.4727 35.9357 49.9664C35.9357 50.4599 35.8014 50.9252 35.5687 51.3402H36.7915C36.6731 50.9112 36.6089 50.4636 36.6089 50.0031C36.6087 49.5163 36.6788 49.0436 36.8107 48.5924ZM12.6102 51.3402H13.9334C13.7007 50.9252 13.5666 50.4599 13.5666 49.9664C13.5666 49.4727 13.7007 49.0074 13.9334 48.5924H12.5911C12.7229 49.0434 12.7928 49.5163 12.7928 50.0031C12.7928 50.4638 12.7286 50.9113 12.6102 51.3402ZM15.5315 49.9664C15.5315 50.7239 16.2291 51.3402 17.0867 51.3402C17.9443 51.3402 18.6423 50.7239 18.6423 49.9664C18.6423 49.2089 17.9443 48.5924 17.0867 48.5924C16.2291 48.5924 15.5315 49.2089 15.5315 49.9664ZM20.2404 51.3402H21.547C21.3145 50.9252 21.1802 50.4599 21.1802 49.9664C21.1802 49.4727 21.3145 49.0074 21.5472 48.5924H20.2402C20.4731 49.0074 20.6074 49.4727 20.6074 49.9664C20.6074 50.46 20.4731 50.9252 20.2404 51.3402ZM23.1455 49.9664C23.1455 50.7239 23.8433 51.3402 24.7009 51.3402C25.5585 51.3402 26.2564 50.7239 26.2564 49.9664C26.2564 49.2089 25.5585 48.5924 24.7009 48.5924C23.8433 48.5924 23.1455 49.2089 23.1455 49.9664ZM27.8544 51.3402H29.2615C29.0288 50.9252 28.8946 50.4599 28.8946 49.9664C28.8946 49.4727 29.0288 49.0074 29.2617 48.5924H27.8544C28.0869 49.0074 28.2214 49.4727 28.2214 49.9664C28.2215 50.46 28.0871 50.9252 27.8544 51.3402ZM30.8597 49.9664C30.8597 50.7239 31.5574 51.3402 32.4151 51.3402C33.2727 51.3402 33.9706 50.7239 33.9706 49.9664C33.9706 49.2089 33.2727 48.5924 32.4151 48.5924C31.5574 48.5924 30.8597 49.2089 30.8597 49.9664ZM37.6419 53.0759H11.7597C11.5376 53.3771 11.2841 53.6585 11.0028 53.9167H38.399C38.1176 53.6586 37.864 53.3771 37.6419 53.0759ZM7.37927 28.8585V40.8529H8.33497V28.2104L7.37927 28.8585ZM11.7788 2.78231V3.95621H13.7485V2.78231H11.7788ZM13.7487 5.6919H11.779V6.50117H13.7487V5.6919ZM50.6805 16.7216C50.7457 16.0998 50.5192 15.5032 50.0427 15.0418C49.5665 14.5804 48.9147 14.3262 48.2078 14.3262C47.5008 14.3262 46.8491 14.5804 46.3727 15.0418C45.973 15.4291 45.7517 15.9121 45.7286 16.4248C45.7575 16.8715 45.9401 17.2977 46.2654 17.6584C46.7397 18.1844 47.4481 18.4861 48.2091 18.4861C48.8515 18.4861 49.4614 18.269 49.9264 17.875L50.6211 17.2861L50.6805 16.7216ZM48.2093 20.2216C47.4399 20.2216 46.7007 20.0494 46.0499 19.7301L47.97 38.0635H48.4454L50.3656 19.7281C49.7119 20.0495 48.9737 20.2216 48.2093 20.2216ZM69.9543 3.29564C69.5398 2.78983 68.9247 2.47249 68.2222 2.40205C68.1254 2.39236 68.0293 2.38744 67.9338 2.38744C67.3355 2.38744 66.7664 2.57591 66.3074 2.93042C65.7752 3.34164 65.4742 3.91181 65.4594 4.53622L64.9583 25.9644L65.431 26.0117L70.3737 5.02829C70.5178 4.4169 70.3689 3.80159 69.9543 3.29564ZM65.9119 35.635L67.3117 35.7957L68.4462 28.0905L55.4741 26.7757L55.3275 27.7701L65.9119 35.635ZM70.6521 26.5672L70.1364 30.0699L75.0356 26.4218L68.6064 21.0523L67.3854 26.2361L70.6521 26.5672ZM63.4875 4.82146L49.6834 12.8152C50.3701 13.0289 50.9958 13.3888 51.4949 13.8725C52.0188 14.3799 52.3777 14.9966 52.5462 15.655L63.4503 6.4138L63.4875 4.82146ZM49.5408 40.3304C49.5408 40.0375 49.2711 39.7992 48.9393 39.7992H46.1783H45.0302V40.8617H48.9393C49.2711 40.8617 49.5408 40.6235 49.5408 40.3304ZM40.9511 40.8529H41.9339V38.0636H43.0651V36.6953H40.9511V40.8529ZM38.986 40.8529V39.7903H33.8451V38.0546H38.986V34.9596V24.7845L27.7912 8.237H15.7138H10.3001V24.6897V38.0548H31.4225V39.7905H10.3001V40.853H16.0277H33.2586H38.986V40.8529ZM31.2935 42.5886H17.9926V44.3537H31.2935V42.5886ZM16.0277 46.0894H11.0028C11.2612 46.3266 11.4975 46.5828 11.7063 46.8569H37.6953C37.9041 46.5828 38.1405 46.3266 38.399 46.0894H33.2586H16.0277Z" fill="url(#paint0_linear_50_882)"/>
<path d="M6.39654 47.4639C7.98188 47.4639 9.27148 48.6029 9.27148 50.0032C9.27148 51.4034 7.98188 52.5425 6.39654 52.5425C4.81119 52.5425 3.52159 51.4034 3.52159 50.0032C3.52159 48.6029 4.81119 47.4639 6.39654 47.4639ZM6.39654 50.8067C6.89813 50.8067 7.30638 50.4462 7.30638 50.003C7.30638 49.5599 6.89813 49.1994 6.39654 49.1994C5.89494 49.1994 5.48669 49.5599 5.48669 50.003C5.48669 50.4462 5.89494 50.8067 6.39654 50.8067Z" fill="url(#paint1_linear_50_882)"/>
<path d="M43.0059 47.4639C44.5913 47.4639 45.8809 48.6029 45.8809 50.0032C45.8809 51.4034 44.5913 52.5425 43.0059 52.5425C41.4207 52.5425 40.131 51.4034 40.131 50.0032C40.131 48.6029 41.4207 47.4639 43.0059 47.4639ZM43.0059 50.8067C43.5075 50.8067 43.9158 50.4462 43.9158 50.003C43.9158 49.5599 43.5077 49.1994 43.0059 49.1994C42.5042 49.1994 42.0961 49.5599 42.0961 50.003C42.0961 50.4462 42.5043 50.8067 43.0059 50.8067Z" fill="url(#paint2_linear_50_882)"/>
<path d="M20.9922 31.2358H13.1616V26.4268H20.9922V31.2358ZM19.0271 28.1626H15.1267V29.5002H19.0271V28.1626Z" fill="url(#paint3_linear_50_882)"/>
<path d="M13.1635 9.57373H26.4763L37.0605 25.4161H13.1635V9.57373ZM25.3541 11.3094H22.7452V23.6804H33.619L25.3541 11.3094ZM15.1287 23.6804H20.7803V11.3094H15.1287V23.6804Z" fill="url(#paint4_linear_50_882)"/>
<defs>
<linearGradient id="paint0_linear_50_882" x1="38.9924" y1="0.652344" x2="38.9924" y2="55.6523" gradientUnits="userSpaceOnUse">
<stop stop-color="#D0006F"/>
<stop offset="1" stop-color="#8E24AA"/>
</linearGradient>
<linearGradient id="paint1_linear_50_882" x1="6.39654" y1="47.4639" x2="6.39654" y2="52.5425" gradientUnits="userSpaceOnUse">
<stop stop-color="#D0006F"/>
<stop offset="1" stop-color="#8E24AA"/>
</linearGradient>
<linearGradient id="paint2_linear_50_882" x1="43.0059" y1="47.4639" x2="43.0059" y2="52.5425" gradientUnits="userSpaceOnUse">
<stop stop-color="#D0006F"/>
<stop offset="1" stop-color="#8E24AA"/>
</linearGradient>
<linearGradient id="paint3_linear_50_882" x1="17.0769" y1="26.4268" x2="17.0769" y2="31.2358" gradientUnits="userSpaceOnUse">
<stop stop-color="#D0006F"/>
<stop offset="1" stop-color="#8E24AA"/>
</linearGradient>
<linearGradient id="paint4_linear_50_882" x1="25.112" y1="9.57373" x2="25.112" y2="25.4161" gradientUnits="userSpaceOnUse">
<stop stop-color="#D0006F"/>
<stop offset="1" stop-color="#8E24AA"/>
</linearGradient>
</defs>
</svg>
