<svg width="45" height="45" viewBox="0 0 44 67" fill="none" xmlns="http://www.w3.org/2000/svg">
<path d="M6.15254 51.3642C6.99153 56.3049 11.0932 61.7117 14.9153 64.3218C17.2458 65.9066 19.8559 66.6523 22.3729 66.6523C23.2119 66.6523 23.9576 66.5591 24.7034 66.3727C33.7458 64.4151 35.6102 53.3218 34.678 46.3303C34.2119 42.7879 33.1864 39.2456 31.6949 35.7964C38.5 35.7964 44 30.2964 44 23.4913V2.98285C44 1.67777 42.9746 0.652344 41.6695 0.652344H33.5593V4.38116H40.2712V23.5845C40.2712 28.3388 36.4492 32.1608 31.6949 32.1608H25.822C21.0678 32.1608 17.2458 28.3388 17.2458 23.5845V4.38116H24.0508V0.652344H15.8475C14.5424 0.652344 13.5169 1.67777 13.5169 2.98285V23.5845C13.5169 30.3896 19.0169 35.8896 25.822 35.8896H27.6864C29.3644 39.432 30.5763 43.254 31.0424 46.8896C31.7881 52.2964 30.483 61.432 23.9576 62.8303C21.7203 63.2964 19.2034 62.7371 16.9661 61.2456C13.9831 59.1947 10.7203 54.9066 9.88136 51.271C13.1441 50.3388 15.661 47.3557 15.661 43.7201C15.661 39.432 12.1186 35.8896 7.83051 35.8896C3.54237 35.8896 0 39.432 0 43.7201C0.0932203 47.4489 2.70339 50.6184 6.15254 51.3642ZM7.92373 39.6184C10.161 39.6184 12.0254 41.4828 12.0254 43.7201C12.0254 45.9574 10.161 47.8218 7.92373 47.8218C5.68644 47.8218 3.82203 45.9574 3.82203 43.7201C3.82203 41.4828 5.68644 39.6184 7.92373 39.6184Z" fill="url(#paint0_linear_50_854)"/>
<defs>
<linearGradient id="paint0_linear_50_854" x1="22" y1="0.652344" x2="22" y2="66.6523" gradientUnits="userSpaceOnUse">
<stop stop-color="#D0006F"/>
<stop offset="1" stop-color="#8E24AA"/>
</linearGradient>
</defs>
</svg>
