<svg width="45" height="45" viewBox="0 0 68 60" fill="none" xmlns="http://www.w3.org/2000/svg">
<path d="M55.1105 54.9856H29.7771V38.0967H25.5549V54.9856H12.8882V38.0967H8.66602V54.9856C8.66602 56.1054 9.11086 57.1793 9.90268 57.9711C10.6945 58.763 11.7684 59.2078 12.8882 59.2078H55.1105C56.2303 59.2078 57.3042 58.763 58.096 57.9711C58.8878 57.1793 59.3327 56.1054 59.3327 54.9856V38.0967H55.1105V54.9856Z" fill="url(#paint0_linear_286_66)"/>
<path d="M67.3349 19.6667L58.7216 2.44001C58.372 1.73656 57.8332 1.14457 57.1656 0.730603C56.498 0.316633 55.7282 0.0970965 54.9427 0.0966797H13.0582C12.2727 0.0970965 11.5029 0.316633 10.8353 0.730603C10.1678 1.14457 9.62891 1.73656 9.27936 2.44001L0.666022 19.6667C0.371936 20.2567 0.220105 20.9074 0.222689 21.5667V28.0689C0.220761 29.0554 0.564346 30.0115 1.1938 30.7711C2.12408 31.8375 3.27303 32.6911 4.56257 33.274C5.85211 33.8568 7.25201 34.1552 8.66713 34.1489C10.9762 34.1525 13.2149 33.354 15.0005 31.89C16.7861 33.3549 19.0242 34.1554 21.3338 34.1554C23.6434 34.1554 25.8815 33.3549 27.6671 31.89C29.4527 33.3549 31.6909 34.1554 34.0005 34.1554C36.31 34.1554 38.5482 33.3549 40.3338 31.89C42.1194 33.3549 44.3576 34.1554 46.6671 34.1554C48.9767 34.1554 51.2149 33.3549 53.0005 31.89C54.9937 33.5266 57.5438 34.3266 60.1147 34.1219C62.6856 33.9172 65.0769 32.7237 66.786 30.7922C67.4231 30.0355 67.7742 29.0792 67.7782 28.09V21.5667C67.7808 20.9074 67.629 20.2567 67.3349 19.6667ZM59.3338 29.9267C58.4321 29.9246 57.544 29.7069 56.7434 29.292C55.9429 28.877 55.2531 28.2767 54.7316 27.5411L53.0005 25.1767L51.2905 27.5411C50.7591 28.2654 50.0645 28.8544 49.2632 29.2604C48.4618 29.6664 47.576 29.8779 46.6777 29.8779C45.7793 29.8779 44.8936 29.6664 44.0922 29.2604C43.2908 28.8544 42.5963 28.2654 42.0649 27.5411L40.3338 25.1767L38.6238 27.5411C38.0924 28.2654 37.3979 28.8544 36.5965 29.2604C35.7951 29.6664 34.9094 29.8779 34.011 29.8779C33.1127 29.8779 32.2269 29.6664 31.4256 29.2604C30.6242 28.8544 29.9297 28.2654 29.3982 27.5411L27.6671 25.1767L25.9571 27.5411C25.4257 28.2654 24.7312 28.8544 23.9298 29.2604C23.1284 29.6664 22.2427 29.8779 21.3444 29.8779C20.446 29.8779 19.5603 29.6664 18.7589 29.2604C17.9575 28.8544 17.263 28.2654 16.7316 27.5411L15.0005 25.1767L13.2694 27.5411C12.7478 28.2767 12.0581 28.877 11.2575 29.292C10.457 29.7069 9.56884 29.9246 8.66713 29.9267C7.87153 29.9363 7.08308 29.7756 6.3548 29.4551C5.62652 29.1347 4.97529 28.662 4.44491 28.0689V21.5667L13.0582 4.3189H54.9427L63.556 21.5456V22.96V28.0056C63.0288 28.607 62.3797 29.0894 61.6517 29.4206C60.9237 29.7518 60.1336 29.9243 59.3338 29.9267Z" fill="url(#paint1_linear_286_66)"/>
<defs>
<linearGradient id="paint0_linear_286_66" x1="33.9993" y1="38.0967" x2="33.9993" y2="59.2078" gradientUnits="userSpaceOnUse">
<stop stop-color="#D0006F"/>
<stop offset="1" stop-color="#8E24AA"/>
</linearGradient>
<linearGradient id="paint1_linear_286_66" x1="34.0005" y1="0.0966797" x2="34.0005" y2="34.1554" gradientUnits="userSpaceOnUse">
<stop stop-color="#D0006F"/>
<stop offset="1" stop-color="#8E24AA"/>
</linearGradient>
</defs>
</svg>
