<svg width="45" height="45" viewBox="0 0 64 66" fill="none" xmlns="http://www.w3.org/2000/svg">
<path d="M62.2291 10.2802L62.2675 10.2429C64.5128 7.9888 64.5853 4.39555 62.4288 2.2318C61.4136 1.21339 60.0478 0.652344 58.5844 0.652344C57.0339 0.652344 55.5625 1.2708 54.4425 2.39362L49.5138 7.67703L31.8856 2.38296L28.2317 6.04937C27.7712 6.51012 27.5179 7.12422 27.5179 7.77683C27.5179 8.42993 27.7712 9.04306 28.2317 9.50381L28.392 9.66466L41.1249 16.6942L39.2619 18.7223C36.7925 17.1181 34.041 15.9369 31.0877 15.2625C29.2225 14.8359 27.3148 14.6201 25.4179 14.6201C24.4609 14.6201 23.5165 14.6777 22.5844 14.7809L22.496 14.6826C22.4544 14.7199 22.4076 14.762 22.3619 14.8049C11.7794 16.0641 3.06914 23.7954 0.645131 34.4705C-0.864622 41.1146 0.295947 47.9509 3.91191 53.719C7.52788 59.4867 13.1677 63.4966 19.7914 65.0099C21.6566 65.4365 23.5645 65.6523 25.4611 65.6523C37.394 65.6523 47.5815 57.4913 50.2347 45.8058C50.7084 43.721 50.9188 41.6171 50.8729 39.534C51.0178 39.0001 50.9927 38.4179 50.7676 37.784C50.4078 33.8392 49.1313 30.0064 46.9679 26.5566C46.7049 26.1375 46.4282 25.7293 46.1432 25.3305L48.0345 23.5818L55.0989 36.4574L55.2606 36.6193C55.7207 37.079 56.3316 37.3327 56.9805 37.3327C57.6293 37.3327 58.2389 37.0795 58.6998 36.6188L62.3559 32.9519L57.0435 15.1472L62.2291 10.2802ZM12.728 58.4496C10.3103 56.7616 8.23108 54.5894 6.61532 52.0121C3.74143 47.4278 2.64799 42.0722 3.463 36.7712C4.88702 37.1561 6.32481 37.7249 6.87684 38.1205C6.85608 38.2678 6.83314 38.4175 6.81019 38.5664C6.59672 39.9565 6.2741 42.056 7.98018 43.3019C9.47327 44.3913 10.8398 43.3724 11.4631 42.8457C11.7133 43.048 11.9859 43.2493 12.2663 43.4572C12.7038 43.7808 13.4756 44.3523 13.7531 44.6999C13.6652 45.0071 13.536 45.37 13.4097 45.7236C12.9142 47.112 12.4015 48.5468 13.3554 49.555C13.6843 49.9608 14.6676 51.8261 14.9187 52.4978C14.9134 52.7217 14.9298 52.9763 14.9511 53.3079C14.9735 53.6497 15.023 54.4203 14.9723 54.7338C14.9711 54.7335 13.0347 57.1802 13.1465 57.7597L12.728 58.4496ZM47.1205 45.0926C44.8001 55.3113 35.8939 62.4477 25.4611 62.4477C23.8024 62.4477 22.1337 62.2587 20.5006 61.8854C18.5006 61.4288 16.6067 60.7052 14.8489 59.7541C16.4075 58.4319 17.7564 56.3081 17.7767 56.274C18.2493 55.4729 18.2222 54.4092 18.1382 53.1015C18.1244 52.8825 18.1085 52.6945 18.1116 52.5739C18.1094 52.6492 18.0957 52.7091 18.0855 52.7517C18.3415 51.6148 16.8011 48.9976 16.06 47.8828C16.1365 47.588 16.2995 47.1321 16.4162 46.8041C16.6093 46.2626 16.809 45.703 16.9288 45.172C17.369 43.2513 15.5905 41.9354 14.1619 40.8787C13.754 40.5771 13.3327 40.2651 13.1457 40.0664C12.5027 39.3862 11.4194 38.8613 9.83912 40.0412C9.86737 39.7021 9.92653 39.3181 9.96686 39.0534C10.02 38.7084 10.0717 38.3639 10.1047 38.0323C10.2885 36.1735 8.28807 34.698 4.16934 33.6423C6.42841 26.1423 12.3187 20.5316 19.6438 18.5772C19.3171 19.3776 19.0587 20.3029 18.9401 21.3802C18.8716 22.0023 18.7827 22.5658 18.7042 23.0619C18.3917 25.0425 18.0372 27.2874 20.873 28.5541C22.4187 29.2467 23.4972 29.3606 24.3643 29.4524C24.7471 29.4924 25.0675 29.5265 25.4003 29.6023C25.4966 30.0839 25.4353 31.0735 25.4104 31.48C25.3754 32.0476 25.3375 32.6595 25.5184 33.1728C25.7521 34.4683 26.8806 39.2021 31.2691 42.2556C30.6516 42.6251 29.8397 43.0032 29.1585 43.1345C28.789 43.2055 28.4106 43.253 28.0443 43.299C26.5459 43.4875 24.4938 43.7442 23.635 46.1185C23.2533 47.1679 23.501 47.932 23.7761 48.3881C24.4595 49.5218 25.7893 49.7006 26.7603 49.8309C26.9168 49.8518 27.1366 49.8816 27.2686 49.9077C27.8697 50.3493 29.7455 51.6001 31.69 51.6001C32.5687 51.6001 33.4615 51.3443 34.2574 50.6437C34.5774 50.3714 36.0944 50.3891 36.8249 50.3985C38.3706 50.4167 39.8304 50.4349 40.7618 49.4901C41.2191 49.0255 41.4526 48.4189 41.4367 47.7338C41.4036 46.3956 43.9573 44.9564 46.0092 43.7997C46.5042 43.5209 47.0104 43.2343 47.5023 42.9368C47.4103 43.6565 47.2835 44.376 47.1205 45.0926ZM47.6457 38.8748C47.1826 39.4632 45.4958 40.4148 44.4444 41.0071C41.697 42.5558 38.6075 44.297 38.2721 47.1759C37.8698 47.2084 37.29 47.2004 36.8635 47.1958C35.2277 47.1776 33.3784 47.1536 32.1488 48.2382C31.617 48.7064 29.9989 47.9855 29.0747 47.2631C28.5572 46.8578 27.9388 46.759 27.2824 46.6699C27.5343 46.6057 27.8982 46.5475 28.4408 46.4802C28.8378 46.43 29.2882 46.3738 29.7598 46.2832C31.1918 46.0078 34.9232 44.4361 35.2342 42.3593C35.3636 41.4952 34.9478 40.6948 34.1466 40.2687C29.393 37.7493 28.6637 32.6566 28.6354 32.4478L28.5797 31.9977C28.5855 31.8921 28.5925 31.7777 28.5983 31.6794C28.6929 30.151 28.8687 27.3058 26.6309 26.6186C25.8888 26.3921 25.2571 26.3255 24.699 26.2666C23.9256 26.1854 23.2581 26.1149 22.1743 25.6295C21.7879 25.457 21.7075 25.3431 21.7075 25.3431C21.6102 25.1428 21.7544 24.2307 21.8597 23.5648C21.9437 23.0328 22.0386 22.4306 22.1156 21.7332C22.3226 19.8589 23.0753 18.6818 23.7935 17.8863C24.331 17.8478 24.8719 17.8238 25.4186 17.8238C27.0769 17.8238 28.7456 18.0127 30.3787 18.386C32.7774 18.9345 35.0241 19.8647 37.063 21.1164L36.9033 21.2899C36.6232 21.5735 36.3677 21.8742 36.1383 22.1891L30.4277 20.706L27.9238 23.2186C27.5026 23.6399 27.2706 24.2007 27.2706 24.7976C27.2706 25.3952 27.5022 25.957 27.9233 26.3792L28.1027 26.5597L34.6805 29.9085L34.9169 30.1457L38.2552 36.7455L38.4351 36.9255C38.8555 37.3479 39.4155 37.5807 40.0107 37.5807C40.6065 37.5807 41.1665 37.3479 41.5852 36.9267L44.0908 34.4141L42.5823 28.5679C42.8788 28.3485 43.1609 28.105 43.4287 27.8395L43.7704 27.5239C43.9377 27.7666 44.1058 28.0088 44.264 28.261C46.3007 31.5093 47.4402 35.1459 47.6457 38.8748ZM58.7489 32.0369L57.1816 33.6091L48.8669 18.4524L41.2425 25.504L41.1974 25.5474C40.8465 25.8981 40.4553 26.1818 40.0349 26.3894L38.8702 26.9662L40.5422 33.4432L40.293 33.6932L37.5351 28.2416L36.58 27.2826L31.1461 24.5171L31.3946 24.2678L37.7579 25.9204L38.3264 24.7329C38.535 24.2988 38.8236 23.8945 39.1844 23.5319L46.2355 15.8594L31.229 7.57431L32.7962 6.00165L50.494 11.3161L56.7168 4.64385C57.2321 4.1361 57.8938 3.85679 58.5842 3.85679C59.1942 3.85679 59.7573 4.08426 60.17 4.49753C61.0765 5.40693 61.0099 6.9561 60.0251 7.96094L53.4162 14.1622L58.7489 32.0369Z" fill="url(#paint0_linear_50_921)"/>
<defs>
<linearGradient id="paint0_linear_50_921" x1="32" y1="0.652344" x2="32" y2="65.6523" gradientUnits="userSpaceOnUse">
<stop stop-color="#D0006F"/>
<stop offset="1" stop-color="#8E24AA"/>
</linearGradient>
</defs>
</svg>
