<svg width="43" height="43" viewBox="0 0 43 43" fill="none" xmlns="http://www.w3.org/2000/svg">
<path fill-rule="evenodd" clip-rule="evenodd" d="M2.01563 15.9846C2.5502 15.9846 3.06288 16.1953 3.44089 16.5704C3.81889 16.9455 4.03125 17.4542 4.03125 17.9846V39.3189C4.03125 39.8493 3.81889 40.3581 3.44089 40.7331C3.06288 41.1082 2.5502 41.319 2.01563 41.319C1.48105 41.319 0.968366 41.1082 0.590363 40.7331C0.21236 40.3581 0 39.8493 0 39.3189V17.9846C0 17.4542 0.21236 16.9455 0.590363 16.5704C0.968366 16.1953 1.48105 15.9846 2.01563 15.9846ZM25.2759 1.23728C25.6534 1.61229 25.8654 2.12064 25.8654 2.65067C25.8654 3.18069 25.6534 3.68904 25.2759 4.06406L21.9972 7.31753H32.9219C35.5948 7.31753 38.1582 8.37114 40.0482 10.2466C41.9382 12.122 43 14.6657 43 17.3179V40.6523C43 41.1827 42.7876 41.6914 42.4096 42.0665C42.0316 42.4416 41.519 42.6523 40.9844 42.6523C40.4498 42.6523 39.9371 42.4416 39.5591 42.0665C39.1811 41.6914 38.9688 41.1827 38.9688 40.6523V17.3179C38.9688 15.7266 38.3317 14.2004 37.1977 13.0751C36.0637 11.9499 34.5256 11.3177 32.9219 11.3177H21.9999L25.2786 14.5712C25.6456 14.9486 25.8485 15.4539 25.8437 15.9783C25.8389 16.5027 25.6266 17.0043 25.2527 17.3749C24.8789 17.7456 24.3732 17.9557 23.8447 17.96C23.3162 17.9643 22.8072 17.7625 22.4272 17.398L15.7084 10.731C15.331 10.356 15.119 9.84764 15.119 9.31761C15.119 8.78759 15.331 8.27924 15.7084 7.90422L22.4272 1.23728C22.8051 0.862725 23.3174 0.652344 23.8516 0.652344C24.3857 0.652344 24.898 0.862725 25.2759 1.23728Z" fill="url(#paint0_linear_50_928)"/>
<defs>
<linearGradient id="paint0_linear_50_928" x1="21.5" y1="0.652344" x2="21.5" y2="42.6523" gradientUnits="userSpaceOnUse">
<stop stop-color="#D0006F"/>
<stop offset="1" stop-color="#8E24AA"/>
</linearGradient>
</defs>
</svg>
