<svg width="38" height="38" viewBox="0 0 54 55" fill="none" xmlns="http://www.w3.org/2000/svg">
<path d="M2.16237 16.454C2.28545 13.7646 2.70655 12.03 3.27605 10.5577L3.28371 10.5373C3.84805 9.03905 4.73213 7.68179 5.87439 6.55995L5.89042 6.54421L5.90615 6.52819C7.02891 5.38445 8.38667 4.50124 9.88362 3.9384L9.90943 3.92853C11.3784 3.35724 13.1096 2.93769 15.8013 2.81463M2.16237 16.454C2.03297 19.3276 2 20.2183 2 27.6689C2 35.121 2.03116 36.0097 2.16229 38.8839M2.16237 16.454V17.1789M15.8013 2.81463C18.6755 2.6835 19.566 2.65234 27.0164 2.65234C34.4669 2.65234 35.3569 2.68529 38.2303 2.81466M15.8013 2.81463H16.528M2.16229 38.8839C2.28534 41.5758 2.70489 43.3068 3.27618 44.7758L3.28605 44.8018M2.16229 38.8839L2.20637 39.116M2.16229 38.8839V38.1573M2.16237 17.1789C2.17242 16.9486 2.18326 16.7085 2.19487 16.4532C2.32974 13.5106 2.82997 11.7913 3.30679 10.5718C3.92389 8.97924 4.7056 7.7775 5.89986 6.57829C7.03502 5.41382 8.41499 4.51648 9.93975 3.95124C11.1538 3.48034 12.8686 2.98161 15.8001 2.84724C16.0562 2.83561 16.297 2.82474 16.528 2.81463M2.16237 17.1789C2.05587 19.614 2.03297 20.9574 2.03297 27.6689C2.03297 34.3781 2.05587 35.7234 2.16229 38.1573M2.16237 17.1789L2.16229 38.1573M3.28605 44.8018C3.84889 46.2987 4.7321 47.6563 5.87584 48.7792L5.89184 48.795L5.90755 48.8108C7.02944 49.9531 8.38675 50.8373 9.88501 51.4016L9.90738 51.41C11.3777 51.9802 13.1097 52.4 15.8013 52.5231M3.28605 44.8018L3.25231 44.6239M3.25231 44.6239L2.20637 39.116M3.25231 44.6239C2.80808 43.4505 2.35066 41.8129 2.20637 39.116M3.25231 44.6239C3.26789 44.6652 3.28345 44.7058 3.299 44.7458C3.86234 46.2645 4.75494 47.6397 5.91268 48.7723C7.04502 49.93 8.41965 50.8223 9.93785 51.3858C11.1562 51.8602 12.873 52.3563 15.8009 52.4905C18.7556 52.625 19.6684 52.6523 27.0164 52.6523C34.3645 52.6523 35.2782 52.625 38.2329 52.4905C41.1642 52.356 42.879 51.8573 44.0932 51.3866C45.6121 50.8234 46.9876 49.9305 48.1203 48.7723C49.2776 47.64 50.17 46.2655 50.7334 44.7473C51.2079 43.5289 51.7039 41.8123 51.8379 38.8844C51.9724 35.9297 52 35.015 52 27.6689C52 20.3227 51.9724 19.4072 51.8379 16.4525C51.7029 13.5057 51.1997 11.7883 50.7266 10.5732C50.1082 8.97661 49.3239 7.76911 48.1184 6.56358C46.9153 5.36284 45.7111 4.57811 44.1132 3.95903C42.8937 3.48226 41.1753 2.98211 38.2329 2.84724C37.9769 2.83561 37.7363 2.82477 37.5055 2.81466M2.20637 39.116C2.20229 39.04 2.19847 38.9631 2.19489 38.8852C2.18326 38.6292 2.17239 38.3884 2.16229 38.1573M37.5055 2.81466H38.2303M37.5055 2.81466L16.528 2.81463M37.5055 2.81466C35.0713 2.70824 33.7263 2.68532 27.0164 2.68532C20.307 2.68532 18.9618 2.70821 16.528 2.81463M38.2303 2.81466C40.9203 2.93771 42.655 3.35876 44.1276 3.92832L44.1479 3.93605C45.6461 4.5004 47.0034 5.38448 48.1253 6.52674L48.1408 6.54261L48.1568 6.55819C49.2992 7.68011 50.1832 9.03777 50.7471 10.5364L50.7566 10.5618C51.3279 12.0308 51.7476 13.7619 51.8705 16.4537M51.8705 38.8839C51.7476 41.5755 51.3279 43.3076 50.7576 44.7779L50.7492 44.8002C50.1847 46.2987 49.3008 47.6558 48.1584 48.7776L48.1424 48.7934L48.1268 48.8094C47.004 49.9531 45.6463 50.8363 44.1492 51.3992L44.1234 51.4092C42.6545 51.9805 40.9232 52.4 38.2316 52.5231M22.5672 38.4105C23.9777 38.9947 25.4895 39.2955 27.0164 39.2955C30.1 39.2955 33.0574 38.0705 35.2379 35.8902C37.4182 33.7097 38.6432 30.7523 38.6432 27.6689C38.6432 24.5852 37.4182 21.6279 35.2379 19.4475C33.0574 17.2671 30.1 16.0421 27.0164 16.0421C25.4895 16.0421 23.9777 16.3428 22.5672 16.9271C21.1564 17.5114 19.8748 18.3678 18.7951 19.4475C17.7155 20.5271 16.8591 21.8088 16.2748 23.2195C15.6905 24.63 15.3897 26.1421 15.3897 27.6689C15.3897 29.1958 15.6905 30.7076 16.2748 32.1181C16.8591 33.5289 17.7155 34.8105 18.7951 35.8902C19.8748 36.9697 21.1564 37.8263 22.5672 38.4105ZM18.7692 19.4216C20.9566 17.2343 23.9232 16.0054 27.0164 16.0054C30.1098 16.0054 33.0763 17.2343 35.2637 19.4216C37.4511 21.6089 38.6798 24.5755 38.6798 27.6689C38.6798 30.7621 37.4511 33.7287 35.2637 35.916C33.0763 38.1034 30.1098 39.3321 27.0164 39.3321C23.9232 39.3321 20.9566 38.1034 18.7692 35.916C16.5819 33.7287 15.3531 30.7621 15.3531 27.6689C15.3531 24.5755 16.5819 21.6089 18.7692 19.4216ZM45.2474 13.2899C45.2474 14.1753 44.8955 15.0244 44.2697 15.6505C43.6437 16.2765 42.7945 16.6282 41.9092 16.6282C41.0237 16.6282 40.1748 16.2765 39.5487 15.6505C38.9226 15.0244 38.5708 14.1753 38.5708 13.2899C38.5708 12.4046 38.9226 11.5555 39.5487 10.9294C40.1748 10.3034 41.0237 9.95169 41.9092 9.95169C42.7945 9.95169 43.6437 10.3034 44.2697 10.9294C44.8955 11.5555 45.2474 12.4046 45.2474 13.2899Z" stroke="url(#paint0_linear_50_912)" stroke-width="4" stroke-linejoin="round"/>
<defs>
<linearGradient id="paint0_linear_50_912" x1="27" y1="2.65234" x2="27" y2="52.6523" gradientUnits="userSpaceOnUse">
<stop stop-color="#D0006F"/>
<stop offset="1" stop-color="#8E24AA"/>
</linearGradient>
</defs>
</svg>
