<svg width="214" height="213" viewBox="0 0 214 213" fill="none" xmlns="http://www.w3.org/2000/svg">
<path d="M53.3516 68.5741C53.3516 38.6021 77.739 14.2147 107.711 14.2147C137.683 14.2147 162.07 38.6021 162.07 68.5741C162.07 98.546 137.683 122.933 107.711 122.933C77.739 122.933 53.3516 98.546 53.3516 68.5741ZM59.209 68.5741C59.209 95.3199 80.9651 117.076 107.711 117.076C134.457 117.076 156.213 95.3199 156.213 68.5741C156.213 41.8283 134.457 20.0721 107.711 20.0721C80.9651 20.0721 59.209 41.8283 59.209 68.5741Z" stroke="white"/>
<path d="M128.282 144.506H134.639V150.363H128.282H127.782V150.863V192.008C127.782 203.077 118.779 212.08 107.709 212.08C96.64 212.08 87.6372 203.077 87.6372 192.008V162.569V161.362L86.7837 162.215L66.565 182.434L53.2037 169.073L52.8501 168.719L52.4966 169.073L28.8492 192.72L0.7071 164.578L49.4214 115.864L59.354 125.796L59.7076 126.15L60.0611 125.796L64.2407 121.617L64.6279 121.23L64.2072 120.879C49.2054 108.379 39.6353 89.5774 39.6353 68.5742C39.6353 31.0385 70.1738 0.5 107.709 0.5C128.713 0.5 147.515 10.0701 160.014 25.0719L160.365 25.4926L160.752 25.1054L171.789 14.0684L172.143 13.7148L171.789 13.3613L158.928 0.5H213.499V58.5039L202.353 47.3569L201.999 47.0034L201.645 47.3569L175.673 73.3294L175.542 73.4607L175.528 73.6459C173.435 101.831 154.166 125.304 128.131 133.51L127.782 133.62V133.987V144.006V144.506H128.282ZM87.1372 144.506H87.6372V144.006V133.987V133.62L87.2875 133.51C80.9806 131.523 75.0651 128.646 69.6941 125.018L69.3523 124.787L69.0607 125.079L59.7076 134.432L49.775 124.499L49.4214 124.146L49.0679 124.499L9.34284 164.225L8.98928 164.578L9.34284 164.932L28.4956 184.084L28.8492 184.438L29.2027 184.084L52.8501 160.437L66.2114 173.798L66.565 174.152L66.9185 173.798L87.4908 153.226L87.6372 153.08V152.872V150.863V150.363H87.1372H80.7798V144.506H87.1372ZM93.9946 150.363H93.4946V150.863V192.008C93.4946 199.848 99.8696 206.223 107.709 206.223C115.549 206.223 121.924 199.848 121.924 192.008V150.863V150.363H121.424H93.9946ZM121.424 144.506H121.924V144.006V135.767V135.155L121.325 135.277C116.923 136.172 112.373 136.648 107.709 136.648C103.046 136.648 98.4955 136.172 94.0943 135.277L93.4946 135.155V135.767V144.006V144.506H93.9946H121.424ZM206.789 43.5073L207.642 44.3609V43.1537V6.85742V6.35742H207.142H174.274H173.067L173.921 7.21097L180.425 13.7148L164.214 29.9254L163.923 30.2171L164.154 30.5589C170.687 40.227 174.724 51.6727 175.552 63.9926L175.625 65.0914L176.404 64.3127L201.999 38.7178L206.789 43.5073ZM45.4927 68.5742C45.4927 102.88 73.4034 130.791 107.709 130.791C142.016 130.791 169.926 102.88 169.926 68.5742C169.926 34.2681 142.016 6.35742 107.709 6.35742C73.4034 6.35742 45.4927 34.2681 45.4927 68.5742Z" stroke="white"/>
<path d="M107.373 46.9866L107.709 47.2923L108.045 46.9866C115.845 39.8962 127.96 40.1106 135.495 47.6456L135.495 47.6457C143.254 55.4016 143.254 68.0317 135.495 75.7876L135.495 75.7877L107.709 103.574L79.923 75.7877L79.9229 75.7876C72.1637 68.0317 72.1637 55.4016 79.9229 47.6457C87.458 40.1139 99.5766 39.8996 107.373 46.9866ZM107.355 94.9378L107.709 95.2913L108.062 94.9378L131.354 71.6466C136.829 66.1711 136.829 57.2622 131.354 51.7867L131.353 51.7865C125.875 46.3147 116.973 46.3147 111.494 51.7865L111.494 51.7867L107.709 55.5716L103.924 51.7867L103.924 51.7862C101.183 49.0525 97.5911 47.6801 93.994 47.6801C90.3972 47.6801 86.8055 49.0489 84.0643 51.7865L84.0641 51.7867C78.5886 57.2622 78.5886 66.1711 84.0641 71.6466L107.355 94.9378Z" stroke="white"/>
<path d="M145.926 154.292C145.926 135.662 161.083 120.505 179.713 120.505C198.343 120.505 213.5 135.662 213.5 154.292C213.5 172.922 198.343 188.079 179.713 188.079C161.083 188.079 145.926 172.922 145.926 154.292ZM151.783 154.292C151.783 169.692 164.313 182.222 179.713 182.222C195.113 182.222 207.643 169.692 207.643 154.292C207.643 138.892 195.113 126.362 179.713 126.362C164.313 126.362 151.783 138.892 151.783 154.292Z" stroke="white"/>
<path d="M183.142 137.648C188.369 137.648 192.654 141.771 192.915 146.935H187.039C186.793 145.002 185.141 143.506 183.142 143.506H176.284C174.115 143.506 172.355 145.266 172.355 147.435C172.355 149.603 174.115 151.363 176.284 151.363H183.142C188.537 151.363 192.928 155.754 192.928 161.149C192.928 166.544 188.537 170.936 183.142 170.936H182.642V171.436V177.793H176.784V171.436V170.936H176.284C171.057 170.936 166.772 166.813 166.511 161.649H172.387C172.633 163.582 174.285 165.078 176.284 165.078H183.142C185.31 165.078 187.07 163.318 187.07 161.149C187.07 158.981 185.31 157.221 183.142 157.221H176.284C170.889 157.221 166.498 152.83 166.498 147.435C166.498 142.04 170.889 137.648 176.284 137.648H176.784V137.148V130.791H182.642V137.148V137.648H183.142Z" stroke="white"/>
</svg>
