<svg width="387" height="356" viewBox="0 0 387 356" fill="none" xmlns="http://www.w3.org/2000/svg">
<path d="M290.249 291.583H290.749V291.083V259.333H386.499V355.083H290.749V323.333V322.833H290.249H252.844L216.774 295.82L235.524 270.821L263.02 291.483L263.154 291.583H263.32H290.249ZM322.499 290.583H321.999V291.083V323.333V323.833H322.499H354.749H355.249V323.333V291.083V290.583H354.749H322.499Z" stroke="white"/>
<path d="M290.25 162.583H290.75V162.083V130.333H386.5V226.083H290.75V194.333V193.833H290.25H242.375V162.583H290.25ZM322.5 161.583H322V162.083V194.333V194.833H322.5H354.75H355.25V194.333V162.083V161.583H354.75H322.5Z" stroke="white"/>
<path d="M290.249 33.5835H290.749V33.0835V1.3335H386.499V97.0834H290.749V65.3335V64.8335H290.249H263.32H263.154L263.02 64.9337L235.524 85.5956L216.774 60.5962L252.844 33.5835H290.249ZM354.749 65.8335H355.249V65.3335V33.0835V32.5835H354.749H322.499H321.999V33.0835V65.3335V65.8335H322.499H354.749Z" stroke="white"/>
<path d="M32.4995 159.231L31.75 158.8V159.665V178.208V186.271C31.75 187.225 32.2665 188.303 33.1526 189.426C34.0497 190.562 35.3755 191.806 37.1105 193.104C40.5826 195.7 45.7452 198.547 52.5477 201.189C66.1566 206.475 86.3751 210.958 112.875 210.958C139.375 210.958 159.593 206.475 173.202 201.189C180.005 198.547 185.167 195.7 188.639 193.104C190.374 191.806 191.7 190.562 192.597 189.426C193.483 188.303 194 187.225 194 186.271V178.208V159.665V158.8L193.25 159.231C173.188 170.788 145.06 177.708 112.875 177.708C80.6896 177.708 52.5622 170.788 32.4995 159.231ZM32.4695 226.295L31.75 225.944V226.745V250.771C31.75 251.725 32.2665 252.803 33.1526 253.926C34.0497 255.062 35.3755 256.306 37.1105 257.604C40.5826 260.2 45.7452 263.047 52.5477 265.689C66.1566 270.975 86.3751 275.458 112.875 275.458C139.375 275.458 159.593 270.975 173.202 265.689C180.005 263.047 185.167 260.2 188.639 257.604C190.374 256.306 191.7 255.062 192.597 253.926C193.483 252.803 194 251.725 194 250.771V226.745V225.944L193.28 226.295C171.922 236.733 142.334 242.208 112.875 242.208C83.4163 242.208 53.8274 236.733 32.4695 226.295ZM225.25 178.208V186.271V250.771C225.25 269.014 211.294 282.995 190.152 292.441C169.029 301.878 140.885 306.708 112.875 306.708C84.8652 306.708 56.7207 301.878 35.5983 292.441C14.4554 282.995 0.5 269.014 0.5 250.771V186.271V178.208V113.708C0.5 95.5724 12.4693 79.5853 32.5585 68.1057C52.6423 56.6293 80.7706 49.7085 112.875 49.7085C144.979 49.7085 173.108 56.6293 193.191 68.1057C213.281 79.5853 225.25 95.5724 225.25 113.708V178.208ZM194 113.708C194 110.208 191.927 106.419 188.168 102.734C184.399 99.0391 178.878 95.3915 171.838 92.1704C157.755 85.7266 137.526 80.9585 112.875 80.9585C88.2234 80.9585 67.9946 85.7266 53.9115 92.1704C46.8715 95.3915 41.3506 99.0391 37.5815 102.734C33.823 106.419 31.75 110.208 31.75 113.708C31.75 117.209 33.823 120.998 37.5815 124.683C41.3506 128.378 46.8715 132.025 53.9115 135.247C67.9946 141.69 88.2234 146.458 112.875 146.458C137.526 146.458 157.755 141.69 171.838 135.247C178.878 132.025 184.399 128.378 188.168 124.683C191.927 120.998 194 117.209 194 113.708Z" stroke="white"/>
</svg>
