<svg width="263" height="268" viewBox="0 0 263 268" fill="none" xmlns="http://www.w3.org/2000/svg">
<path d="M7.82337 265.18L7.82516 265.177L103.566 122.343L103.828 121.952L104.234 122.189L156.618 152.754L156.62 152.756C158.357 153.78 160.768 153.243 161.923 151.583L232.994 49.2127L233.49 48.4995L233.858 49.2857L243.85 70.6152L243.85 70.6153C244.256 71.4842 244.669 72.085 245.052 72.4512C245.436 72.8183 245.741 72.9066 245.958 72.883C246.176 72.8593 246.454 72.7077 246.75 72.2665C247.046 71.8266 247.32 71.151 247.53 70.2148L7.82337 265.18ZM7.82337 265.18C7.09013 266.289 5.84477 266.949 4.49723 266.949C3.71046 266.949 2.94284 266.719 2.27599 266.277C1.38041 265.682 0.780188 264.776 0.575243 263.726C0.37045 262.676 0.58713 261.615 1.18393 260.723L99.2629 114.379C99.2634 114.378 99.2639 114.377 99.2644 114.376C100.406 112.695 102.836 112.128 104.617 113.149C104.617 113.149 104.618 113.149 104.618 113.15L157.071 143.749L157.47 143.982L157.734 143.602L226.43 44.6432L226.926 43.9295L226.06 43.8597L202.578 41.9665L202.577 41.9664C201.622 41.89 200.915 41.7133 200.439 41.4828C199.961 41.2518 199.773 40.9979 199.719 40.7864C199.665 40.5748 199.711 40.2615 200.021 39.8304C200.33 39.4005 200.868 38.908 201.673 38.385C201.673 38.385 201.673 38.3849 201.673 38.3849L258.541 1.44187L258.542 1.44178C259.34 0.922822 260.027 0.638356 260.582 0.539962C261.134 0.442236 261.526 0.531557 261.793 0.71707C262.06 0.902588 262.281 1.23811 262.382 1.78934C262.484 2.34433 262.458 3.08722 262.251 4.01651L262.739 4.12517L262.251 4.01663L247.53 70.2138L7.82337 265.18Z" stroke="white"/>
</svg>
