<svg width="278" height="278" viewBox="0 0 278 278" fill="none" xmlns="http://www.w3.org/2000/svg">
<path d="M119.042 127.917H119.329L119.474 127.668C121.449 124.273 124.273 121.449 127.668 119.474L127.917 119.329V119.042V81.0833C127.917 78.1438 129.084 75.3248 131.163 73.2462C133.241 71.1677 136.061 70 139 70C141.939 70 144.759 71.1677 146.837 73.2462C148.916 75.3248 150.083 78.1438 150.083 81.0833V119.042V119.331L150.334 119.475C153.34 121.206 155.907 123.605 157.836 126.487C159.765 129.369 161.006 132.657 161.46 136.096C161.915 139.534 161.572 143.031 160.458 146.315C159.344 149.6 157.489 152.584 155.037 155.037C152.584 157.489 149.6 159.344 146.315 160.458C143.031 161.572 139.534 161.915 136.096 161.46C132.657 161.006 129.369 159.765 126.487 157.836C123.605 155.907 121.206 153.34 119.475 150.334L119.331 150.083H119.042H92.6667C89.7272 150.083 86.9081 148.916 84.8296 146.837C82.751 144.759 81.5833 141.939 81.5833 139C81.5833 136.061 82.751 133.241 84.8296 131.163C86.9081 129.084 89.7272 127.917 92.6667 127.917H119.042ZM277.5 139.001C277.5 175.733 262.908 210.961 236.934 236.934C210.96 262.908 175.732 277.5 139 277.5C102.268 277.5 67.0395 262.908 41.0657 236.934C15.0919 210.96 0.5 175.732 0.5 139C0.5 136.061 1.6677 133.241 3.74623 131.163C5.82476 129.084 8.64385 127.917 11.5833 127.917C14.5228 127.917 17.3419 129.084 19.4204 131.163C21.499 133.241 22.6667 136.061 22.6667 139C22.6667 162.009 29.4895 184.5 42.2724 203.631C55.0552 222.762 73.224 237.673 94.4811 246.478C115.738 255.283 139.129 257.587 161.696 253.098C184.262 248.609 204.991 237.53 221.26 221.26C237.53 204.991 248.609 184.262 253.098 161.696C257.587 139.129 255.283 115.738 246.478 94.4811C237.673 73.224 222.762 55.0552 203.631 42.2724C184.5 29.4895 162.009 22.6667 139 22.6667C136.061 22.6667 133.241 21.499 131.163 19.4204C129.084 17.3419 127.917 14.5228 127.917 11.5833C127.917 8.64385 129.084 5.82476 131.163 3.74623C133.241 1.66777 136.06 0.500068 139 0.5C175.72 0.539789 210.925 15.1445 236.89 41.1097C262.856 67.075 277.46 102.28 277.5 139.001ZM27.3203 99.3801C25.4977 100.598 23.3548 101.248 21.1628 101.248C18.2233 101.248 15.4042 100.08 13.3256 98.0018C11.2471 95.9232 10.0794 93.1041 10.0794 90.1647C10.0794 87.9726 10.7294 85.8297 11.9473 84.0071C13.1651 82.1844 14.8961 80.7639 16.9213 79.925C18.9466 79.0861 21.175 78.8666 23.325 79.2943C25.475 79.7219 27.4498 80.7775 28.9998 82.3276C30.5499 83.8776 31.6055 85.8525 32.0331 88.0024C32.4608 90.1524 32.2413 92.3809 31.4024 94.4061C30.5635 96.4313 29.143 98.1623 27.3203 99.3801ZM55.0508 57.9465C53.2282 59.1644 51.0853 59.8144 48.8932 59.8144C45.9538 59.8144 43.1347 58.6467 41.0561 56.5682C38.9776 54.4897 37.8099 51.6706 37.8099 48.7311C37.8099 46.539 38.4599 44.3962 39.6778 42.5735C40.8956 40.7509 42.6266 39.3303 44.6518 38.4914C46.6771 37.6525 48.9055 37.4331 51.0555 37.8607C53.2055 38.2884 55.1803 39.344 56.7303 40.894C58.2804 42.444 59.336 44.4189 59.7636 46.5688C60.1913 48.7188 59.9718 50.9473 59.1329 52.9725C58.294 54.9977 56.8735 56.7287 55.0508 57.9465ZM96.2643 30.5404C94.4417 31.7582 92.2988 32.4082 90.1067 32.4082C87.1673 32.4082 84.3482 31.2405 82.2696 29.162C80.1911 27.0835 79.0234 24.2644 79.0234 21.3249C79.0234 19.1328 79.6734 16.99 80.8913 15.1673C82.1091 13.3447 83.8401 11.9241 85.8653 11.0853C87.8905 10.2464 90.119 10.0269 92.269 10.4545C94.419 10.8822 96.3938 11.9378 97.9438 13.4878C99.4939 15.0378 100.549 17.0127 100.977 19.1627C101.405 21.3126 101.185 23.5411 100.346 25.5663C99.5075 27.5915 98.087 29.3225 96.2643 30.5404Z" stroke="white"/>
</svg>
