<svg width="251" height="227" viewBox="0 0 251 227" fill="none" xmlns="http://www.w3.org/2000/svg">
<path d="M228.696 182.169V182.167C228.696 175.6 223.355 170.271 216.778 170.271C210.202 170.271 204.861 175.6 204.861 182.167C204.861 188.733 210.202 194.062 216.778 194.062C223.325 194.062 228.663 188.732 228.696 182.169ZM159.222 34.1543C159.222 52.7446 144.129 67.8086 125.5 67.8086C106.871 67.8086 91.7784 52.7446 91.7784 34.1543C91.7784 15.564 106.871 0.5 125.5 0.5C144.129 0.5 159.222 15.564 159.222 34.1543ZM137.418 34.1543C137.418 27.5881 132.077 22.2591 125.5 22.2591C118.923 22.2591 113.582 27.5881 113.582 34.1543C113.582 40.7205 118.923 46.0494 125.5 46.0494C132.077 46.0494 137.418 40.7205 137.418 34.1543ZM36.7507 137.425C36.9347 103.921 55.6036 73.8771 85.595 58.7985L95.3185 78.2966C72.7873 89.6523 58.7693 112.228 58.5557 137.425H36.7507ZM180.542 207.369C164.941 219.71 145.403 226.5 125.469 226.5C105.535 226.5 85.9964 219.71 70.3955 207.369L84.057 190.371C107.876 209.126 143.122 209.126 166.881 190.371L180.542 207.369ZM155.681 78.2963L165.374 58.7988C195.365 73.8774 214.034 103.922 214.218 137.425H192.414C192.231 112.228 178.212 89.6518 155.681 78.2963ZM0.5 182.167C0.5 163.576 15.5923 148.512 34.2216 148.512C52.8509 148.512 67.9432 163.576 67.9432 182.167C67.9432 200.757 52.8509 215.821 34.2216 215.821C15.5923 215.821 0.5 200.757 0.5 182.167ZM22.304 182.167C22.304 188.733 27.6449 194.062 34.2216 194.062C40.7983 194.062 46.1392 188.733 46.1392 182.167C46.1392 175.6 40.7983 170.271 34.2216 170.271C27.6449 170.271 22.304 175.6 22.304 182.167ZM183.057 182.167C183.057 163.576 198.149 148.512 216.778 148.512C235.408 148.512 250.5 163.576 250.5 182.167C250.5 200.757 235.408 215.821 216.778 215.821C198.149 215.821 183.057 200.757 183.057 182.167Z" stroke="white"/>
</svg>
