<svg width="40" height="40" viewBox="0 0 78 78" fill="none" xmlns="http://www.w3.org/2000/svg">
<path fill-rule="evenodd" clip-rule="evenodd" d="M35.9856 2.35279C38.4637 1.07978 41.5837 1.47555 43.6657 3.55748L74.4425 34.3343C77.0191 36.9113 77.0191 41.0888 74.4425 43.6654L43.6657 74.4423C43.1714 74.9366 42.613 75.3396 42.0144 75.647C39.5362 76.92 36.4162 76.5242 34.3343 74.4423L3.55754 43.6654C0.980817 41.0888 0.98082 36.9113 3.55754 34.3343L34.3343 3.55748C34.8286 3.06314 35.387 2.66018 35.9856 2.35279ZM39.2782 8.36244C36.1481 13.5477 36.8228 20.3894 41.2981 24.8646L53.1352 36.702C53.7449 37.3113 54.0871 38.1381 54.0871 39C54.0871 39.8619 53.7449 40.6884 53.1352 41.2981L43.4102 51.0231C45.7246 54.2416 46.9654 57.9924 47.1331 61.7822L69.8464 39.0693C69.86 39.0556 69.8652 39.0459 69.8682 39.0384C69.8717 39.029 69.875 39.016 69.875 39C69.875 38.9841 69.8717 38.9708 69.8682 38.9614C69.8652 38.9542 69.86 38.9445 69.8464 38.9305L39.2782 8.36244ZM38.7218 69.6375C41.8519 64.4521 41.1772 57.6105 36.7019 53.1353L24.8646 41.2981C23.5954 40.029 23.5954 37.9711 24.8646 36.702L34.5897 26.9768C32.2755 23.7583 31.0346 20.0074 30.8667 16.2176L8.15373 38.9305C8.13991 38.9445 8.13488 38.9542 8.13195 38.9614C8.12812 38.9708 8.125 38.9841 8.125 39C8.125 39.016 8.12812 39.029 8.13195 39.0384C8.13488 39.0459 8.13991 39.0556 8.15373 39.0693L38.7218 69.6375ZM39 31.7589L31.7589 39L39 46.241L46.241 39L39 31.7589Z" fill="black"/>
</svg>
