<svg width="40" height="40" viewBox="0 0 72 72" fill="none" xmlns="http://www.w3.org/2000/svg">
<path d="M47.5809 45.56C47.5307 45.5576 47.4728 45.5576 47.415 45.5576C44.5839 45.5576 42.2481 47.5935 41.9288 50.2151L41.9262 50.2391C41.9262 50.2439 41.9262 50.2511 41.9262 50.2584C41.9262 50.3568 42.0117 50.4384 42.1148 50.4384H53.0873C53.1904 50.4384 53.2759 50.3568 53.2759 50.2584C53.2759 50.2511 53.2759 50.2463 53.2759 50.2391C53.0521 47.6031 50.7565 45.5456 47.9581 45.5456C47.8274 45.5456 47.6966 45.5504 47.5659 45.56H47.5809ZM59.1569 53.8043C59.1569 54.1236 58.8878 54.3805 58.5534 54.3805H42.2079C42.1048 54.3805 42.0193 54.4622 42.0193 54.5606C42.0193 54.5678 42.0193 54.5726 42.0193 54.5798C42.5498 57.3983 45.0993 59.511 48.1668 59.511C48.3327 59.511 48.4962 59.5038 48.6596 59.4918L48.637 59.4942C50.7641 59.439 52.7177 58.7716 54.3243 57.6744L54.2942 57.6936C54.3947 57.6168 54.5255 57.5712 54.6663 57.5712C54.87 57.5712 55.051 57.6696 55.1616 57.8161L57.1605 60.6082C57.2259 60.6994 57.2636 60.8147 57.2636 60.9347C57.2636 61.122 57.1731 61.29 57.0298 61.3981C54.621 63.0882 51.5963 64.1038 48.3227 64.1038C48.1894 64.1038 48.0562 64.1014 47.9229 64.099H47.943C47.7494 64.111 47.5206 64.1158 47.2918 64.1158C40.825 64.1158 35.5851 59.1101 35.5851 52.9376C35.5851 52.7792 35.5877 52.6231 35.5952 52.4671V52.4887C35.5927 52.3903 35.5902 52.2774 35.5902 52.1622C35.5902 45.9585 40.8577 40.9288 47.3547 40.9288C47.4301 40.9288 47.503 40.9288 47.5784 40.9312H47.5684C47.5835 40.9312 47.6036 40.9312 47.6212 40.9312C54.0151 40.9312 59.1996 45.8817 59.1996 51.9869C59.1996 52.3735 59.1795 52.7528 59.1393 53.1297L59.1443 53.0817L59.1569 53.8043ZM20.0768 64.1014C19.838 64.1134 19.5589 64.1182 19.2773 64.1182C14.6886 64.1182 10.5048 62.4736 7.33426 59.7655L7.35186 59.7799C7.24878 59.6647 7.18592 59.5134 7.18592 59.3478C7.18592 59.1821 7.24878 59.0309 7.35438 58.9156L10.1252 55.2064C10.2534 55.0359 10.4596 54.9255 10.6934 54.9255C10.8744 54.9255 11.0379 54.9903 11.1611 55.0984C13.5849 57.2519 16.8484 58.5723 20.4313 58.5723C20.4464 58.5723 20.4615 58.5723 20.4766 58.5723H20.4741C24.1123 58.5723 25.8849 56.971 25.8849 55.2784C25.8849 50.0231 7.97541 53.6219 7.97541 42.4437C7.97541 37.4933 12.461 33.4431 19.7776 33.4431C19.9637 33.4359 20.1824 33.4335 20.4012 33.4335C24.5951 33.4335 28.447 34.8428 31.4591 37.1932L31.429 37.1692C31.5421 37.2868 31.6125 37.4453 31.6125 37.6181C31.6125 37.791 31.5421 37.9495 31.429 38.0695L28.5828 41.6707C28.4545 41.8291 28.2534 41.9324 28.0296 41.9324C27.8586 41.9324 27.7053 41.8748 27.5821 41.7787C25.2991 40.0285 22.3674 38.9698 19.1767 38.9698C19.1415 38.9698 19.1088 38.9698 19.0736 38.9698H19.0786C16.2324 38.9698 14.6484 40.175 14.6484 41.9588C14.6484 46.674 32.5202 43.5241 32.5202 54.5582C32.5378 59.9936 28.4847 64.099 20.0768 64.099V64.1014ZM71.1074 10.4051L47.8072 35.3734C47.6765 35.503 47.4929 35.5847 47.2893 35.5847C47.0856 35.5847 46.9021 35.503 46.7713 35.3734L34.8761 23.6719C34.7806 23.5567 34.7227 23.4102 34.7227 23.2493C34.7227 23.0885 34.7806 22.942 34.8761 22.8244L38.7406 18.0012C38.8713 17.8331 39.08 17.7251 39.3164 17.7251C39.5527 17.7251 39.7589 17.8331 39.8896 17.9988L39.8922 18.0012L46.5098 25.0403C46.6406 25.182 46.8342 25.2708 47.0479 25.2708C47.2616 25.2708 47.4527 25.182 47.5835 25.0403L66.2472 0.756252C66.3 0.679427 66.3327 0.585795 66.3327 0.484962C66.3327 0.225675 66.119 0.0144048 65.8525 0H0.545607C0.243889 0 0 0.232878 0 0.520974V71.479C0 71.7671 0.243889 72 0.545607 72H71.4468C71.7486 72 71.9925 71.7671 71.9925 71.479V10.7988C71.9975 10.7748 72 10.7484 72 10.722C72 10.4531 71.7712 10.237 71.4921 10.237C71.3387 10.237 71.203 10.3018 71.1099 10.4027L71.1074 10.4051Z" fill="black"/>
</svg>
