<svg width="40" height="40" viewBox="0 0 72 72" fill="none" xmlns="http://www.w3.org/2000/svg">
<path d="M69.7365 24.6722L69.7368 24.673C77.2941 48.8642 59.4908 71.177 36.5051 71.4965V58.5334C51.3756 58.2073 62.7821 43.3736 57.0493 27.6593C54.9167 21.8051 50.194 17.0827 44.299 14.9504C28.5867 9.25936 13.7519 20.6237 13.4258 35.4949H0.503473C0.822954 12.5092 23.1357 -5.294 47.3269 2.26317C57.9488 5.60291 66.4384 14.0538 69.7365 24.6722Z" fill="black" stroke="black"/>
<path d="M35.5453 57.6208H22.625V44.7004H35.5453V57.6208Z" fill="black" stroke="black"/>
<path d="M21.6253 68.2754H11.9707V58.6208H21.6253V68.2754Z" fill="black" stroke="black"/>
<path d="M10.9713 57.6195H3.03125V49.6794H10.9713V57.6195Z" fill="black" stroke="black"/>
</svg>
