<svg width="40" height="40" viewBox="0 0 65 75" fill="none" xmlns="http://www.w3.org/2000/svg">
<path d="M32.8427 0C14.6904 0 0 14.7311 0 32.9336C0 48.9599 11.4564 62.2761 26.575 65.2388V74.6664C46.2307 71.6948 63.6347 56.0488 64.9334 35.5105C65.7151 23.1482 59.5683 10.5277 49.2014 4.39953C48.6079 4.04867 48.0048 3.70035 47.3838 3.39393C46.751 3.08169 46.1012 2.77738 45.4408 2.51402C45.2312 2.42609 45.0258 2.34633 44.814 2.26262C44.2373 2.04912 43.6553 1.80871 43.0591 1.63411C39.8454 0.571937 36.4099 0 32.8427 0Z" fill="black"/>
<path d="M39.6474 12.169C38.5216 12.0533 37.3362 12.4461 36.5072 13.4286C35.9042 14.2347 35.5274 15.0156 35.1255 15.8217C33.9196 18.6432 34.3216 21.6661 36.1303 23.883C38.944 23.2784 41.3306 21.4772 42.5364 18.6558C42.9383 17.8496 43.1644 16.8168 43.1644 16.0107C43.2901 13.8694 41.5237 12.3619 39.6474 12.169ZM25.0139 12.3579C23.1789 12.5331 21.4341 13.9954 21.4341 16.0107C21.4341 16.8168 21.6602 17.8496 22.0621 18.6558C23.268 21.4772 25.843 23.2784 28.6566 23.883C30.2644 21.6661 30.6789 18.6432 29.4731 15.8217C29.0711 15.0156 28.6943 14.2221 28.0914 13.6175C27.2623 12.635 26.115 12.2528 25.0139 12.3579ZM15.1536 22.0566C11.9845 22.2197 10.5689 26.2132 13.2067 28.2914C14.0106 28.896 14.7894 29.3369 15.5933 29.7399C18.4069 30.9491 21.6602 30.5335 24.0719 28.9212C23.469 26.3013 21.4215 23.8955 18.6079 22.6864C17.603 22.2833 16.7866 22.0566 15.7817 22.0566C15.5556 22.0314 15.3649 22.0457 15.1536 22.0566ZM46.1163 34.2744C44.2753 34.239 42.4108 34.7782 40.9035 35.7859C41.5064 38.4058 43.5538 40.8115 46.3675 42.0207C47.3723 42.4238 48.1888 42.6505 49.1937 42.6505C52.8112 42.852 54.5823 38.368 51.7687 36.3527C50.9648 35.7481 50.186 35.3702 49.3821 34.9671C48.327 34.5137 47.2208 34.2956 46.1163 34.2744ZM18.6707 34.4633C17.5661 34.4846 16.46 34.7026 15.4049 35.1561C14.4 35.5591 13.6212 36 13.0183 36.6046C10.4056 38.8214 12.1641 43.041 15.7817 42.8394C16.7866 42.8394 17.804 42.6127 18.6079 42.2096C21.4215 41.0005 23.4187 38.5947 23.8207 35.9748C22.3133 34.9671 20.5116 34.4279 18.6707 34.4633ZM28.845 40.6352C26.0314 41.2398 23.6448 43.041 22.439 45.8624C22.037 46.6685 21.8109 47.6384 21.8109 48.4445C21.6099 51.8705 26.27 53.7095 28.2798 51.0896C28.8827 50.2835 29.2595 49.5025 29.6615 48.6964C30.8673 46.0765 30.4528 43.0536 28.845 40.6352ZM36.3188 40.8241C34.711 43.041 34.2964 46.0639 35.5023 48.8853C35.9042 49.6915 36.2811 50.485 36.884 51.0896C39.0947 53.508 43.7422 51.7194 43.5413 48.6964C43.5413 47.8903 43.3152 46.8574 42.9132 46.0513C41.7074 43.2299 39.1324 41.4287 36.3188 40.8241Z" fill="white"/>
</svg>
