<svg width="40" height="40" viewBox="0 0 72 72" fill="none" xmlns="http://www.w3.org/2000/svg">
<path d="M0.0829686 33.5806C7.06189 49.613 24.7705 52.3015 45.9055 38.7123C55.6536 47.7345 58.0822 58.4308 49.9482 69.1976C45.6583 71.0021 40.946 72 35.9999 72C16.1178 72 0 55.8824 0 35.9999C0 35.1868 0.0298124 34.3804 0.0829686 33.5806ZM33.0056 26.6211C36.157 13.4881 44.957 5.95509 58.79 8.13254C66.8534 14.7346 72 24.7657 72 36C72 50.1736 63.808 62.4317 51.9019 68.3036C62.7176 52.8956 53.8791 36.6393 33.0056 26.6211ZM36.0001 0C43.7162 0 50.8644 2.4286 56.7245 6.56158C37.0508 4.27445 27.7603 20.6733 29.058 43.3194C16.2747 47.2403 5.86056 44.3513 0.357074 30.9311C2.8211 13.4491 17.8387 0 36.0001 0Z" fill="black"/>
</svg>
