<svg width="99" height="89" viewBox="0 0 99 89" fill="none" xmlns="http://www.w3.org/2000/svg">
<path d="M74.2504 73.318H74.7504V72.818V65.2271H98.5004V88.4998H74.7504V80.9089V80.4089H74.2504H64.803L55.9822 73.9304L60.3242 68.2528L67.065 73.2205L67.1973 73.318H67.3616H74.2504ZM82.5004 72.318H82.0004V72.818V80.9089V81.4089H82.5004H90.7504H91.2504V80.9089V72.818V72.318H90.7504H82.5004Z" fill="url(#paint0_linear_70_1130)" stroke="white"/>
<path d="M74.25 40.9547H74.75V40.4547V32.8638H98.5V56.1365H74.75V48.5456V48.0456H74.25H62.375V40.9547H74.25ZM82.5 39.9547H82V40.4547V48.5456V49.0456H82.5H90.75H91.25V48.5456V40.4547V39.9547H90.75H82.5Z" fill="url(#paint1_linear_70_1130)" stroke="white"/>
<path d="M74.2504 8.59091H74.7504V8.09091V0.5H98.5004V23.7727H74.7504V16.1818V15.6818H74.2504H67.3616H67.1973L67.065 15.7793L60.3242 20.747L55.9822 15.0694L64.803 8.59091H74.2504ZM90.7504 16.6818H91.2504V16.1818V8.09091V7.59091H90.7504H82.5004H82.0004V8.09091V16.1818V16.6818H82.5004H90.7504Z" fill="url(#paint2_linear_70_1130)" stroke="white"/>
<path d="M8.49592 39.4123L7.75 38.9909V39.8476V44.4999V46.5226C7.75 46.8914 7.94707 47.2459 8.19183 47.5499C8.44817 47.8683 8.81428 48.2022 9.2743 48.5396C10.1964 49.2158 11.5487 49.9444 13.3108 50.6156C16.8389 51.9595 22.0562 53.0908 28.875 53.0908C35.6938 53.0908 40.9111 51.9595 44.4392 50.6156C46.2012 49.9444 47.5536 49.2158 48.4757 48.5396C48.9357 48.2022 49.3018 47.8683 49.5582 47.5499C49.8029 47.2459 50 46.8914 50 46.5226V44.4999V39.8476V38.9909L49.2541 39.4123C44.1906 42.2726 37.0618 43.9999 28.875 43.9999C20.6882 43.9999 13.5594 42.2726 8.49592 39.4123ZM8.46611 56.2258L7.75 55.8826V56.6767V62.7044C7.75 63.0733 7.94707 63.4277 8.19183 63.7317C8.44817 64.0501 8.81428 64.384 9.2743 64.7214C10.1964 65.3976 11.5487 66.1263 13.3108 66.7974C16.8389 68.1413 22.0562 69.2726 28.875 69.2726C35.6938 69.2726 40.9111 68.1413 44.4392 66.7974C46.2012 66.1263 47.5536 65.3976 48.4757 64.7214C48.9357 64.384 49.3018 64.0501 49.5582 63.7317C49.8029 63.4277 50 63.0733 50 62.7044V56.6767V55.8826L49.2839 56.2258C43.885 58.8135 36.3747 60.1817 28.875 60.1817C21.3752 60.1817 13.865 58.8135 8.46611 56.2258ZM57.25 44.4999V46.5226V62.7044C57.25 67.0508 53.862 70.4636 48.4949 72.8152C43.1516 75.1564 36.0058 76.3635 28.875 76.3635C21.7442 76.3635 14.5984 75.1564 9.25503 72.8152C3.88797 70.4636 0.5 67.0508 0.5 62.7044V46.5226V44.4999V28.3181C0.5 23.9577 3.43332 20.0494 8.5099 17.2045C13.5795 14.3634 20.7091 12.6362 28.875 12.6362C37.0409 12.6362 44.1705 14.3634 49.2401 17.2045C54.3167 20.0494 57.25 23.9577 57.25 28.3181V44.4999ZM50 28.3181C50 27.2905 49.3854 26.248 48.3931 25.2939C47.3893 24.3288 45.9371 23.3923 44.1102 22.5724C40.4529 20.9313 35.2252 19.7271 28.875 19.7271C22.5248 19.7271 17.2971 20.9313 13.6398 22.5724C11.8128 23.3923 10.3607 24.3288 9.35688 25.2939C8.36455 26.248 7.75 27.2905 7.75 28.3181C7.75 29.3456 8.36455 30.3881 9.35688 31.3422C10.3607 32.3073 11.8128 33.2438 13.6398 34.0637C17.2971 35.7048 22.5248 36.909 28.875 36.909C35.2252 36.909 40.4529 35.7048 44.1102 34.0637C45.9371 33.2438 47.3893 32.3073 48.3931 31.3422C49.3854 30.3881 50 29.3456 50 28.3181Z" fill="url(#paint3_linear_70_1130)" stroke="white"/>
<defs>
<linearGradient id="paint0_linear_70_1130" x1="77.1379" y1="64.7271" x2="77.1379" y2="88.9998" gradientUnits="userSpaceOnUse">
<stop stop-color="#D0006F"/>
<stop offset="1" stop-color="#8E24AA"/>
</linearGradient>
<linearGradient id="paint1_linear_70_1130" x1="80.4375" y1="32.3638" x2="80.4375" y2="56.6365" gradientUnits="userSpaceOnUse">
<stop stop-color="#D0006F"/>
<stop offset="1" stop-color="#8E24AA"/>
</linearGradient>
<linearGradient id="paint2_linear_70_1130" x1="77.1379" y1="0" x2="77.1379" y2="24.2727" gradientUnits="userSpaceOnUse">
<stop stop-color="#D0006F"/>
<stop offset="1" stop-color="#8E24AA"/>
</linearGradient>
<linearGradient id="paint3_linear_70_1130" x1="28.875" y1="12.1362" x2="28.875" y2="76.8635" gradientUnits="userSpaceOnUse">
<stop stop-color="#D0006F"/>
<stop offset="1" stop-color="#8E24AA"/>
</linearGradient>
</defs>
</svg>
