<svg width="409" height="345" viewBox="0 0 409 345" fill="none" xmlns="http://www.w3.org/2000/svg">
<path d="M86.5309 344.207C86.441 344.207 86.3499 344.185 86.2647 344.14C85.9866 343.993 85.8801 343.648 86.0268 343.369C97.1786 322.271 110.749 302.423 126.362 284.375C126.568 284.137 126.928 284.11 127.167 284.317C127.405 284.523 127.431 284.883 127.225 285.121C111.667 303.104 98.1466 322.88 87.035 343.902C86.9333 344.095 86.7357 344.207 86.5309 344.207Z" fill="black"/>
<path d="M72.3315 332.991C72.2191 332.991 72.1055 332.958 72.0073 332.889C71.7482 332.709 71.6842 332.354 71.8629 332.095C83.8312 314.816 97.4869 298.572 112.451 283.815C112.676 283.593 113.037 283.596 113.258 283.821C113.48 284.045 113.477 284.406 113.253 284.628C98.3377 299.335 84.7282 315.525 72.8001 332.746C72.6901 332.904 72.5126 332.991 72.3315 332.991Z" fill="black"/>
<path d="M0.570125 294.519C0.293224 294.519 0.0506402 294.318 0.00685674 294.037C-0.0416601 293.725 0.172524 293.434 0.483741 293.386C37.6228 287.635 73.2566 275.727 106.394 257.995C106.672 257.845 107.017 257.95 107.166 258.228C107.315 258.506 107.21 258.851 106.933 259C73.6826 276.794 37.9269 288.742 0.660059 294.514C0.628109 294.517 0.598525 294.519 0.570125 294.519Z" fill="black"/>
<path d="M4.22678 332.991C4.03627 332.991 3.8493 332.895 3.74162 332.721C3.57595 332.452 3.65878 332.101 3.92622 331.935L105.277 269.19C105.545 269.024 105.897 269.107 106.062 269.374C106.228 269.643 106.145 269.995 105.878 270.16L4.52735 332.905C4.43387 332.963 4.32974 332.991 4.22678 332.991Z" fill="black"/>
<path d="M143.344 143.654C143.344 141.877 144.785 140.436 146.562 140.436C148.34 140.436 149.781 141.877 149.781 143.654C149.781 145.432 148.34 146.873 146.562 146.873C144.785 146.872 143.344 145.432 143.344 143.654Z" fill="white"/>
<path d="M146.562 147.442C144.473 147.442 142.773 145.743 142.773 143.653C142.773 141.564 144.473 139.864 146.562 139.864C148.652 139.864 150.352 141.564 150.352 143.653C150.352 145.743 148.652 147.442 146.562 147.442ZM146.562 141.006C145.102 141.006 143.914 142.194 143.914 143.654C143.914 145.115 145.102 146.302 146.562 146.302C148.023 146.302 149.21 145.114 149.21 143.654C149.21 142.195 148.023 141.006 146.562 141.006Z" fill="black"/>
<path d="M279.908 75.1474C279.908 73.37 281.35 71.9287 283.127 71.9287C284.904 71.9287 286.346 73.37 286.346 75.1474C286.346 76.9248 284.904 78.3661 283.127 78.3661C281.348 78.3661 279.908 76.9248 279.908 75.1474Z" fill="white"/>
<path d="M283.127 78.9365C281.037 78.9365 279.338 77.2372 279.338 75.1474C279.338 73.0577 281.037 71.3584 283.127 71.3584C285.217 71.3584 286.916 73.0577 286.916 75.1474C286.916 77.2372 285.217 78.9365 283.127 78.9365ZM283.127 72.5003C281.667 72.5003 280.479 73.6884 280.479 75.1486C280.479 76.6089 281.667 77.7958 283.127 77.7958C284.587 77.7958 285.774 76.6077 285.774 75.1486C285.775 73.6884 284.587 72.5003 283.127 72.5003Z" fill="black"/>
<path d="M287.635 255.218C287.635 252.222 290.063 249.794 293.059 249.794C296.055 249.794 298.484 252.222 298.484 255.218C298.484 258.214 296.055 260.643 293.059 260.643C290.063 260.643 287.635 258.214 287.635 255.218Z" fill="white"/>
<path d="M293.059 261.214C289.753 261.214 287.064 258.524 287.064 255.219C287.064 251.914 289.754 249.225 293.059 249.225C296.364 249.225 299.054 251.914 299.054 255.219C299.054 258.524 296.365 261.214 293.059 261.214ZM293.059 250.364C290.383 250.364 288.205 252.542 288.205 255.218C288.205 257.895 290.383 260.072 293.059 260.072C295.736 260.072 297.913 257.895 297.913 255.218C297.913 252.542 295.736 250.364 293.059 250.364Z" fill="black"/>
<path d="M391.275 191.862C365.869 192.502 340.462 193.144 315.056 193.784C308.013 193.961 300.237 193.894 294.931 189.345C288.908 184.181 288.843 173.774 294.803 168.565C300.763 163.356 311.323 164.589 315.888 171.027C315.74 160.615 326.427 151.953 337.059 152.348C347.69 152.743 357.072 160.706 360.91 170.425C360.163 163.881 368.049 158.576 374.548 160.284C381.047 161.991 385.192 168.758 385.472 175.336C390.245 168.536 402.397 168.882 406.791 175.942C407.96 177.82 408.611 180.044 408.386 182.229C407.905 186.892 403.519 190.432 398.871 191.552C394.223 192.673 389.339 191.894 391.275 191.862Z" fill="#D0006F"/>
<path d="M311.909 194.4C305.482 194.4 299.136 193.701 294.56 189.779C291.558 187.206 289.824 183.26 289.803 178.955C289.782 174.667 291.468 170.724 294.427 168.136C297.396 165.541 301.6 164.35 305.961 164.865C309.726 165.312 313.073 166.969 315.372 169.484C315.724 165.379 317.691 161.408 321.01 158.163C325.32 153.952 331.327 151.562 337.08 151.779C346.544 152.132 355.846 158.678 360.448 167.982C360.848 165.966 362.002 164.048 363.791 162.498C366.818 159.874 371.098 158.789 374.692 159.733C381.256 161.459 385.159 167.909 385.918 173.878C388.363 171.234 392.133 169.748 396.278 169.872C400.996 170.002 405.107 172.16 407.274 175.64C408.582 177.74 409.177 180.101 408.952 182.287C408.414 187.516 403.417 191.042 399.004 192.106C396.002 192.83 391.797 192.894 390.655 192.448L315.07 194.354C314.02 194.381 312.963 194.4 311.909 194.4ZM303.97 165.888C300.615 165.888 297.484 166.98 295.179 168.995C292.469 171.364 290.925 174.992 290.944 178.95C290.963 182.923 292.552 186.555 295.303 188.913C300.325 193.218 307.504 193.404 315.042 193.215L391.091 191.298C391.15 191.295 391.209 191.294 391.266 191.293C391.435 191.282 391.618 191.376 391.725 191.513C392.985 191.628 395.852 191.694 398.737 190.999C402.774 190.027 407.337 186.849 407.818 182.173C408.018 180.237 407.481 178.132 406.307 176.246C404.343 173.091 400.583 171.135 396.249 171.014C391.919 170.9 388.068 172.633 385.94 175.666C385.799 175.866 385.547 175.954 385.312 175.886C385.078 175.817 384.912 175.607 384.903 175.363C384.652 169.45 380.965 162.563 374.404 160.839C371.164 159.987 367.293 160.977 364.54 163.361C362.306 165.296 361.19 167.849 361.478 170.363C361.511 170.647 361.326 170.912 361.049 170.982C360.771 171.051 360.485 170.905 360.38 170.638C356.404 160.57 346.804 153.284 337.038 152.922C331.581 152.714 325.898 154.985 321.809 158.982C318.298 162.414 316.397 166.69 316.459 171.022C316.462 171.272 316.303 171.496 316.066 171.573C315.828 171.65 315.568 171.564 315.423 171.36C313.347 168.43 309.849 166.476 305.828 166C305.204 165.925 304.584 165.888 303.97 165.888Z" fill="black"/>
<g opacity="0.1294">
<path d="M405.095 184.892C405.087 184.902 405.082 184.905 405.077 184.911C403.889 185.807 403.98 186.003 402.306 186.832C401.215 187.325 398.786 187.9 396.583 187.963C394.171 188.098 391.773 187.644 389.359 187.636C382.883 187.613 376.406 187.804 369.93 187.712C361.604 187.823 353.278 187.925 344.953 188.109C342.035 188.222 339.128 188.514 336.215 188.712C332.844 188.922 329.468 189.036 326.096 189.23C321.044 189.339 315.982 189.73 310.932 189.366C310.113 189.293 309.176 189.023 308.542 189.71C307.548 190.675 308.264 192.501 309.685 192.469C313.196 192.902 316.746 192.816 320.275 192.719C321.638 192.696 323 192.66 324.361 192.617C324.536 192.925 324.852 193.151 325.251 193.137C329.385 193.474 333.541 193.296 337.684 193.436C347.419 193.761 357.161 193.643 366.885 193.067C370.491 192.872 374.1 192.754 377.707 192.606C378.975 192.548 380.244 192.489 381.511 192.428C381.89 192.417 382.305 192.421 382.582 192.12C382.771 191.938 382.858 191.691 382.86 191.442C385.184 191.466 387.508 191.476 389.832 191.441C390.398 191.437 391 191.433 391.626 191.42C391.62 191.757 391.771 192.1 392.09 192.275C392.444 192.494 392.867 192.37 393.255 192.352C393.949 192.288 394.642 192.203 395.333 192.111C396.54 191.949 397.724 191.66 398.903 191.359C399.406 191.183 399.994 191.139 400.435 190.836C400.694 190.654 400.81 190.4 400.825 190.14C402.742 189.499 404.483 188.539 405.797 187.098C406.19 186.645 406.831 186.274 406.837 185.616C406.86 184.736 405.705 184.25 405.095 184.892Z" fill="black"/>
</g>
<path d="M256.357 334.793C270.937 335.019 285.526 334.664 300.079 333.729C301.969 333.607 303.912 333.463 305.611 332.628C309.916 330.512 310.903 323.893 307.607 320.407C304.313 316.92 297.96 317.312 294.871 320.982C294.581 315.597 290.401 310.311 285.021 309.938C281.579 309.699 278.21 311.425 275.817 313.911C273.424 316.397 271.887 319.579 270.66 322.805C270.25 320.511 267.933 318.917 265.612 318.702C263.293 318.487 261.009 319.377 258.965 320.496C256.184 322.019 253.531 324.17 252.491 327.164C251.452 330.159 252.557 334.735 256.357 334.793Z" fill="#8E24AA"/>
<path d="M264.783 335.43C261.966 335.43 259.154 335.408 256.348 335.365C254.827 335.341 253.563 334.671 252.692 333.427C251.519 331.752 251.215 329.1 251.952 326.977C252.888 324.281 255.155 321.932 258.691 319.995C261.362 318.532 263.577 317.94 265.665 318.134C267.577 318.311 269.669 319.393 270.681 321.2C271.714 318.702 273.167 315.841 275.406 313.515C278.126 310.688 281.736 309.138 285.06 309.369C290.086 309.718 294.469 314.244 295.312 319.718C296.907 318.319 299.045 317.499 301.352 317.432C303.963 317.357 306.399 318.298 308.021 320.015C309.749 321.843 310.484 324.574 309.989 327.319C309.512 329.964 308.008 332.086 305.863 333.14C304.013 334.049 301.852 334.187 300.115 334.3C288.41 335.051 276.559 335.43 264.783 335.43ZM256.366 334.223C270.869 334.447 285.565 334.089 300.042 333.16C301.762 333.05 303.714 332.925 305.359 332.115C307.175 331.222 308.454 329.401 308.866 327.116C309.298 324.725 308.671 322.363 307.193 320.798C305.793 319.316 303.671 318.508 301.386 318.571C298.985 318.64 296.713 319.678 295.308 321.348C295.158 321.527 294.913 321.596 294.691 321.522C294.468 321.447 294.314 321.245 294.301 321.012C294.008 315.554 289.826 310.842 284.981 310.506C281.992 310.298 278.717 311.719 276.228 314.305C273.701 316.932 272.21 320.335 271.193 323.006C271.102 323.246 270.86 323.394 270.606 323.371C270.351 323.348 270.144 323.156 270.097 322.904C269.718 320.782 267.475 319.447 265.559 319.27C263.711 319.096 261.702 319.646 259.239 320.995C255.959 322.793 253.87 324.931 253.03 327.351C252.405 329.15 252.65 331.379 253.627 332.773C254.288 333.717 255.209 334.205 256.366 334.223Z" fill="white"/>
<g opacity="0.1294">
<path d="M309.666 326.75C309.61 325.868 308.499 325.355 307.764 325.815C307.564 325.943 307.408 326.11 307.295 326.307C307.274 326.336 307.252 326.363 307.233 326.393C306.773 326.994 306.51 327.672 305.52 328.215C304.606 328.849 298.418 330.035 297.557 330.051C294.52 330.267 291.471 330.574 288.424 330.413C286.826 330.335 285.229 330.423 283.631 330.425C281.877 330.418 280.119 330.333 278.364 330.431C273.84 330.571 269.332 330.94 264.815 331.203C262.645 331.231 260.475 331.31 258.306 331.381C257.584 331.4 256.863 331.437 256.141 331.47C255.75 331.468 255.372 331.629 255.095 331.903C254.175 332.771 254.861 334.47 256.141 334.427C259.636 334.251 263.136 334.337 266.63 334.219C270.387 334.059 274.135 333.766 277.898 333.754C280.023 333.657 282.145 333.837 284.269 333.87C286.463 333.836 288.657 333.869 290.85 333.849C293.886 333.691 296.488 333.364 298.803 333.04C298.976 333.646 299.566 334.133 300.338 333.926C301.944 333.71 303.574 333.484 305.075 332.844C305.754 332.545 306.505 332.218 306.948 331.602C307.164 331.223 307.168 330.845 307.045 330.522C307.303 330.348 307.561 330.16 307.828 329.948C308.597 329.23 309.352 328.372 309.623 327.333C309.631 327.31 309.633 327.286 309.638 327.262C309.639 327.26 309.64 327.261 309.641 327.258C309.697 327.089 309.704 326.92 309.666 326.75Z" fill="white"/>
</g>
<path d="M127.839 16.1555C126.946 16.3969 126.461 15.074 127.253 14.5971C127.272 14.5864 127.29 14.5746 127.308 14.564C129.668 13.209 137.214 12.1062 138.274 12.0115C139.49 11.9038 140.704 11.7949 141.752 11.6683C138.794 10.4459 134.179 7.41778 130.934 7.3456C130.133 7.37992 129.803 6.30427 130.499 5.90666C130.578 5.8617 130.658 5.82146 130.741 5.78596C131.408 5.50314 132.155 5.49013 132.881 5.49841C136.699 5.54101 140.378 7.8355 144.074 8.77862C144.778 8.95849 147.068 9.65193 147.855 9.71819C147.912 6.47467 148.219 3.95771 149.358 1.27508C149.769 0.303562 151.165 0.350898 151.516 1.3449L151.528 1.37922C151.561 3.60744 151.033 4.46063 152.063 9.04369C152.364 10.388 154.097 11.8352 154.672 13.0883C155.487 14.8622 155.665 16.8478 156.183 18.7281C157.011 21.7362 158.746 24.4945 161.108 26.5618C160.927 27.357 159.305 28.8161 157.416 29.2078C155.41 26.053 151.992 23.8614 148.598 22.2793C147.099 21.58 145.499 20.9433 143.842 21.0214C142.752 21.0735 141.705 21.432 140.646 21.6912C137.67 22.4189 132.992 23.665 132.992 23.665C131.776 23.4331 132.529 22.4237 132.981 22.3042L137.089 20.3528C138.306 20.031 139.962 19.3648 140.745 18.3163C138.433 17.2277 133.586 19.1778 129.154 19.9801C127.705 20.2428 127.905 19.1435 128.297 18.5589C129.549 17.1815 139.264 15.6361 141.2 14.9675C141.2 14.9675 131.492 15.1675 127.839 16.1555Z" fill="white"/>
<path d="M157.418 29.7806C157.225 29.7806 157.043 29.6824 156.937 29.5168C155.282 26.9158 152.477 24.7183 148.359 22.799C146.702 22.0262 145.3 21.5245 143.871 21.5943C143.111 21.631 142.364 21.831 141.573 22.0428C141.311 22.1138 141.047 22.1836 140.783 22.2487C137.847 22.967 133.188 24.2071 133.141 24.219C133.059 24.2415 132.972 24.2438 132.888 24.2284C131.902 24.0403 131.774 23.4167 131.765 23.1563C131.743 22.5469 132.269 21.9422 132.775 21.773L136.846 19.8394C136.878 19.8241 136.911 19.8122 136.945 19.8028C138.04 19.514 138.987 19.0868 139.641 18.6005C138.103 18.4088 135.787 18.9922 133.357 19.6051C132.012 19.9448 130.619 20.2962 129.257 20.5423C128.287 20.7187 127.836 20.3802 127.63 20.0655C127.255 19.4927 127.5 18.7259 127.824 18.2419C127.84 18.2183 127.857 18.197 127.876 18.1757C128.616 17.3615 131.281 16.6326 134.873 15.8291C132.291 16.0066 129.552 16.2835 127.987 16.706C127.334 16.8835 126.681 16.5569 126.407 15.9108C126.118 15.2327 126.35 14.4742 126.959 14.1074L127.027 14.0683C129.604 12.5879 137.46 11.5111 138.223 11.4437C138.695 11.4011 139.174 11.3585 139.643 11.3147C139.266 11.1265 138.878 10.9289 138.481 10.7266C135.943 9.43199 133.066 7.96465 130.921 7.91614C130.319 7.94217 129.78 7.5493 129.603 6.93515C129.429 6.33283 129.675 5.71986 130.216 5.41101C130.314 5.35421 130.416 5.30451 130.519 5.26072C131.277 4.93767 132.104 4.91874 132.886 4.92821C135.394 4.95661 137.822 5.90683 140.171 6.8251C141.502 7.34577 142.879 7.88418 144.215 8.22498C144.396 8.27113 144.678 8.35042 145.015 8.4439C145.658 8.62495 146.62 8.89357 147.3 9.04267C147.385 6.18846 147.71 3.69517 148.833 1.05041C149.112 0.39011 149.755 -0.0205095 150.477 0.000790562C151.196 0.023274 151.816 0.475312 152.055 1.15336C152.077 1.21135 152.099 1.3072 152.1 1.36873C152.11 1.98288 152.078 2.49526 152.047 2.99227C151.963 4.34837 151.884 5.62992 152.622 8.91723C152.767 9.55979 153.37 10.3159 153.955 11.0461C154.45 11.6661 154.919 12.2519 155.194 12.8495C155.752 14.0659 156.024 15.3688 156.287 16.629C156.422 17.274 156.56 17.9414 156.735 18.5756C157.531 21.463 159.218 24.1468 161.485 26.1312C161.643 26.2697 161.713 26.4827 161.666 26.6874C161.421 27.7654 159.564 29.3452 157.534 29.7664C157.495 29.7759 157.456 29.7806 157.418 29.7806ZM144.12 20.4465C145.775 20.4465 147.363 21.076 148.84 21.7647C152.983 23.6959 155.876 25.9218 157.673 28.5594C158.998 28.1713 160.051 27.259 160.419 26.7111C158.144 24.6118 156.451 21.8476 155.635 18.8821C155.45 18.2123 155.307 17.5272 155.17 16.8645C154.908 15.6114 154.661 14.428 154.156 13.3287C153.939 12.8577 153.514 12.3252 153.064 11.762C152.399 10.9301 151.711 10.0698 151.509 9.17047C150.735 5.72459 150.822 4.30104 150.909 2.92482C150.938 2.45858 150.964 2.0172 150.961 1.49416C150.812 1.1794 150.53 1.14744 150.441 1.14389C150.355 1.14034 150.029 1.15691 149.884 1.4989C148.747 4.17679 148.478 6.7257 148.426 9.729C148.423 9.88639 148.355 10.0367 148.238 10.142C148.121 10.2485 147.966 10.3006 147.807 10.2875C147.214 10.2378 146.003 9.90769 144.707 9.54441C144.383 9.45329 144.108 9.37637 143.933 9.33259C142.53 8.97404 141.119 8.4226 139.756 7.88892C137.503 7.00733 135.174 6.09616 132.875 6.07013C132.186 6.06184 131.522 6.07486 130.965 6.31153C130.902 6.33874 130.841 6.36833 130.781 6.40264C130.7 6.44998 130.671 6.52216 130.7 6.6192C130.717 6.68073 130.762 6.78723 130.909 6.77658C133.353 6.82983 136.352 8.36107 139 9.71126C140.084 10.2639 141.107 10.7869 141.97 11.1431C142.209 11.2425 142.352 11.491 142.318 11.7478C142.282 12.0046 142.079 12.2057 141.821 12.2377C140.764 12.3655 139.526 12.4755 138.329 12.582C137.242 12.6791 129.825 13.7796 127.593 15.0611L127.547 15.0872C127.353 15.2043 127.446 15.4386 127.456 15.4646C127.534 15.6481 127.648 15.6173 127.69 15.6055C131.368 14.6103 140.79 14.4056 141.19 14.3973C141.194 14.3973 141.198 14.3973 141.202 14.3973C141.478 14.3973 141.715 14.5949 141.764 14.8671C141.814 15.144 141.654 15.4149 141.389 15.5072C140.728 15.7356 139.323 16.0362 137.543 16.416C134.549 17.0562 129.564 18.1224 128.748 18.9153C128.608 19.1436 128.568 19.3744 128.589 19.443C128.593 19.4383 128.638 19.4513 128.741 19.4513C128.815 19.4513 128.916 19.4442 129.055 19.4194C130.379 19.1803 131.752 18.8336 133.079 18.4987C136.361 17.6704 139.196 16.9556 140.991 17.8005C141.146 17.8739 141.261 18.0124 141.301 18.178C141.343 18.3449 141.307 18.52 141.204 18.6573C140.217 19.9791 138.176 20.6512 137.287 20.8902L133.226 22.8203C133.194 22.8356 133.161 22.8475 133.128 22.8569C133.072 22.8806 132.978 22.98 132.93 23.0593C132.946 23.0652 132.963 23.0711 132.985 23.0782C133.783 22.8664 137.849 21.7896 140.511 21.1387C140.766 21.076 141.022 21.0074 141.276 20.9388C142.089 20.721 142.931 20.495 143.816 20.4524C143.918 20.4489 144.019 20.4465 144.12 20.4465Z" fill="black"/>
<path d="M220.93 131.085C222.269 130.668 223.707 130.774 225.106 130.883C228.921 131.181 232.736 131.479 236.552 131.778C238.77 131.951 241.271 132.274 242.594 134.062C243.478 135.255 243.607 136.895 243.179 138.316C242.75 139.737 241.825 140.963 240.762 142C239.641 143.095 238.308 144.032 236.784 144.394C233.611 145.148 230.433 143.305 227.846 141.318C225.791 139.739 223.845 138.016 222.029 136.166C221.384 135.509 220.732 134.797 220.495 133.907C220.157 132.64 220.73 131.324 220.93 131.085Z" fill="#D0006F"/>
<path d="M235.292 145.138C232.274 145.138 229.46 143.28 227.498 141.772C225.429 140.181 223.451 138.43 221.622 136.567C220.921 135.854 220.215 135.072 219.944 134.055C219.558 132.61 220.171 131.104 220.49 130.719C220.561 130.634 220.655 130.572 220.76 130.539C222.223 130.085 223.778 130.207 225.15 130.313L236.597 131.209C238.958 131.394 241.598 131.756 243.053 133.723C243.99 134.989 244.242 136.767 243.725 138.481C243.317 139.839 242.478 141.124 241.161 142.409C239.782 143.754 238.354 144.608 236.915 144.95C236.371 145.08 235.828 145.138 235.292 145.138ZM221.299 131.572C221.119 131.937 220.811 132.881 221.047 133.762C221.247 134.511 221.818 135.138 222.436 135.767C224.229 137.593 226.166 139.309 228.194 140.866C230.32 142.501 233.508 144.587 236.652 143.84C237.888 143.547 239.136 142.79 240.365 141.592C241.54 140.446 242.282 139.321 242.633 138.152C243.039 136.802 242.848 135.365 242.136 134.402C240.966 132.821 238.617 132.512 236.507 132.347L225.06 131.452C223.799 131.353 222.497 131.252 221.299 131.572Z" fill="black"/>
<path d="M191.549 132.665C196.896 114.995 200.884 96.9148 202.485 77.7223C191.838 69.704 170.057 67.2355 165.407 57.176C159.273 43.9084 153.486 33.637 151.527 24.4046C151.527 24.4046 160.504 21.4711 160.195 21.4001C162.583 28.4138 170.681 40.2424 177.545 50.0547C180.846 54.7714 197.23 54.4626 207.291 57.4197C226.286 63.4571 236.131 59.8764 245.685 75.9449C251.783 86.1997 251.241 103.422 269.343 128.128C266.64 130.869 263.736 133.414 260.587 135.399C257.494 131.178 254.402 126.957 251.309 122.735C248.986 119.565 246.652 116.378 244.86 112.88C242.929 109.116 241.657 105.056 240.396 101.019C239.249 97.3503 238.101 93.6819 236.556 89.6905C231.635 106.921 229.268 126.283 219.028 140.484C209.522 138.547 199.496 136.353 191.549 132.665Z" fill="white"/>
<path d="M219.028 141.054C218.99 141.054 218.953 141.051 218.915 141.043C209.295 139.083 199.239 136.862 191.309 133.182C191.051 133.062 190.921 132.771 191.003 132.499C196.858 113.154 200.42 95.3196 201.89 77.9909C197.604 74.8515 191.472 72.5345 185.539 70.2933C176.381 66.8344 167.732 63.566 164.888 57.4162C163.365 54.1206 161.876 51.0356 160.434 48.0524C156.153 39.1857 152.454 31.5283 150.968 24.5241C150.907 24.239 151.072 23.9538 151.349 23.8627C154.296 22.8994 159.065 21.3078 159.817 20.9718C159.953 20.8523 160.141 20.8026 160.321 20.844C160.543 20.8949 160.717 21.0771 160.761 21.296C163.129 28.1605 170.903 39.5667 178.011 49.7269C179.924 52.4604 187.245 53.4757 194.326 54.4567C198.893 55.0897 203.615 55.7441 207.449 56.8707C212.802 58.5723 217.432 59.5083 221.518 60.3343C232.16 62.4868 239.191 63.908 246.174 75.6526C248.327 79.2736 249.676 83.7809 251.238 89.0018C254.269 99.1324 258.042 111.741 269.802 127.789C269.967 128.015 269.945 128.328 269.747 128.528C266.645 131.674 263.748 134.079 260.89 135.881C260.636 136.041 260.303 135.977 260.126 135.735L250.847 123.072C248.548 119.934 246.169 116.688 244.351 113.141C242.394 109.323 241.1 105.188 239.849 101.189C238.876 98.0768 237.878 94.8842 236.635 91.5188C235.587 95.3374 234.635 99.2897 233.711 103.13C230.517 116.39 227.216 130.103 219.49 140.819C219.382 140.968 219.209 141.054 219.028 141.054ZM192.239 132.353C199.888 135.815 209.519 137.96 218.779 139.852C226.222 129.361 229.465 115.892 232.602 102.863C233.665 98.4496 234.764 93.8855 236.007 89.5355C236.074 89.3 236.285 89.1332 236.53 89.1225C236.777 89.1142 237 89.2586 237.087 89.487C238.639 93.4902 239.805 97.2248 240.935 100.836C242.177 104.804 243.455 108.893 245.367 112.622C247.144 116.09 249.496 119.298 251.769 122.4L260.73 134.631C263.264 132.978 265.846 130.826 268.595 128.073C256.942 112.045 253.017 98.9288 250.145 89.332C248.606 84.1844 247.275 79.7387 245.194 76.2395C238.469 64.9304 231.636 63.5482 221.292 61.4561C217.178 60.6242 212.515 59.6811 207.116 57.9653C203.374 56.8659 198.694 56.2175 194.169 55.5903C186.509 54.5288 179.273 53.5254 177.075 50.3836C170.094 40.4045 162.47 29.222 159.863 22.1776C158.845 22.6024 156.698 23.3148 152.192 24.788C153.719 31.526 157.314 38.9691 161.46 47.5566C162.903 50.5445 164.395 53.6342 165.921 56.9381C168.568 62.6655 177.006 65.8522 185.939 69.2271C192.065 71.5417 198.399 73.9344 202.825 77.2678C202.981 77.3862 203.066 77.5755 203.051 77.7708C201.605 95.1362 198.067 112.995 192.239 132.353Z" fill="black"/>
<path d="M225.558 50.0748C223.71 54.0875 221.548 57.9559 218.77 61.9248C219.506 64.54 220.664 67.0806 222.192 69.4295C222.613 70.0768 223.122 70.756 223.877 71.0116C224.757 71.3098 225.666 70.9394 226.461 70.575C228.486 69.6484 230.63 68.6142 231.624 66.7232C232.056 65.902 232.236 64.9731 232.411 64.0572C233.076 60.5852 233.74 57.1133 234.405 53.6414C232.385 52.6439 230.365 51.6463 228.345 50.6488C227.44 50.2038 226.479 49.7435 225.558 50.0748Z" fill="white"/>
<path d="M224.551 71.6908C224.269 71.6908 223.981 71.6494 223.693 71.5524C222.789 71.2459 222.207 70.5004 221.714 69.7407C220.151 67.3373 218.975 64.7588 218.221 62.0798C218.174 61.9153 218.204 61.7378 218.302 61.5981C220.898 57.8884 223.103 54.0414 225.041 49.837C225.105 49.6985 225.222 49.5908 225.366 49.5388C226.53 49.1187 227.677 49.6843 228.597 50.1387L234.657 53.1314C234.888 53.245 235.013 53.4982 234.965 53.7503L232.971 64.166C232.79 65.1115 232.603 66.0889 232.128 66.9906C231.092 68.9632 229.055 70.0164 226.698 71.0944C226.045 71.3938 225.312 71.6908 224.551 71.6908ZM219.392 62.0289C220.117 64.5044 221.219 66.8888 222.67 69.1183C223.052 69.7064 223.485 70.2767 224.059 70.472C224.725 70.6968 225.493 70.3903 226.223 70.0566C228.388 69.0662 230.249 68.1124 231.119 66.4593C231.514 65.7067 231.686 64.8145 231.85 63.9518L233.762 53.9621L228.092 51.1623C227.402 50.8215 226.627 50.4416 225.964 50.5564C224.065 54.6449 221.911 58.4031 219.392 62.0289Z" fill="black"/>
<path d="M182.113 186.133L139.083 173.085L90.5117 223.177L162.063 210.879L182.113 186.133Z" fill="#8E24AA"/>
<path d="M90.5118 223.747C90.3024 223.747 90.1071 223.633 90.0077 223.443C89.8917 223.224 89.9308 222.957 90.1024 222.779L138.675 172.688C138.824 172.534 139.045 172.477 139.25 172.539L182.28 185.586C182.462 185.64 182.604 185.784 182.659 185.965C182.715 186.146 182.677 186.343 182.558 186.491L162.508 211.237C162.422 211.345 162.298 211.417 162.162 211.441L90.6088 223.739C90.5757 223.745 90.5438 223.747 90.5118 223.747ZM139.251 173.733L92.1389 222.319L161.756 210.353L181.136 186.433L139.251 173.733Z" fill="black"/>
<path d="M227.127 240.195L222.631 284.934L157.717 310.518L196.575 249.192L227.127 240.195Z" fill="#8E24AA"/>
<path d="M157.717 311.088C157.55 311.088 157.388 311.015 157.277 310.881C157.12 310.691 157.103 310.421 157.236 310.213L196.095 248.886C196.17 248.769 196.283 248.684 196.416 248.645L226.967 239.648C227.149 239.595 227.346 239.635 227.493 239.756C227.639 239.876 227.715 240.063 227.696 240.252L223.201 284.99C223.179 285.203 223.041 285.385 222.842 285.463L157.927 311.048C157.859 311.075 157.788 311.088 157.717 311.088ZM196.944 249.678L159.136 309.345L222.1 284.53L226.476 240.98L196.944 249.678Z" fill="black"/>
<path d="M172.343 256.946C160.712 267.234 157.962 273.627 153.614 279.781C140.058 267.422 130.127 253.072 124.291 237.196C135.831 235.215 143.274 232.032 152.101 227.852C158.409 238.315 166.217 247.648 172.343 256.946Z" fill="white"/>
<path d="M153.615 280.351C153.473 280.351 153.336 280.298 153.23 280.202C139.52 267.702 129.604 253.3 123.756 237.392C123.698 237.234 123.712 237.056 123.797 236.91C123.882 236.763 124.028 236.661 124.195 236.633C135.864 234.629 143.321 231.377 151.856 227.335C152.12 227.211 152.437 227.306 152.589 227.556C156.261 233.647 160.459 239.374 164.518 244.914C167.473 248.945 170.264 252.754 172.819 256.632C172.975 256.869 172.933 257.185 172.721 257.374C163.658 265.39 160.008 271.048 156.789 276.038C155.882 277.445 155.024 278.772 154.08 280.11C153.985 280.243 153.839 280.33 153.675 280.347C153.655 280.35 153.635 280.351 153.615 280.351ZM125.066 237.64C130.81 252.934 140.377 266.816 153.52 278.919C154.309 277.777 155.051 276.627 155.831 275.419C159.046 270.435 162.684 264.795 171.594 256.848C169.13 253.134 166.44 249.465 163.599 245.588C159.621 240.163 155.513 234.557 151.88 228.587C143.62 232.487 136.279 235.641 125.066 237.64Z" fill="black"/>
<path d="M149.674 234.62C152.848 241.467 157.147 247.73 162.406 253.127C167.291 258.141 172.99 262.497 179.301 265.925C180.977 266.835 180.873 266.084 182.636 266.867C203.509 261.484 288.267 206.842 312.513 189.544C363.069 153.477 377.313 86.756 377.313 86.756C377.313 86.756 309.589 78.5129 259.032 114.58C233.737 132.626 155.706 197.534 143.982 216.144C145.068 222.604 146.986 228.822 149.674 234.62Z" fill="white"/>
<path d="M182.636 267.437C182.557 267.437 182.477 267.421 182.405 267.387C181.659 267.056 181.318 267.036 180.959 267.016C180.497 266.99 180.018 266.963 179.03 266.425C172.742 263.01 167.011 258.67 161.997 253.525C156.697 248.086 152.377 241.806 149.157 234.86C146.442 229.005 144.512 222.739 143.42 216.239C143.397 216.1 143.425 215.958 143.501 215.84C155.226 197.226 232.696 132.668 258.702 114.115C284.919 95.4107 315.791 88.8148 337.072 86.5748C360.121 84.1489 377.212 86.1689 377.383 86.189C377.541 86.2079 377.684 86.2931 377.778 86.4245C377.871 86.5546 377.904 86.7179 377.871 86.8753C377.836 87.0434 374.184 103.862 364.389 124.866C355.345 144.26 339.062 171.305 312.846 190.009C289.629 206.572 204.196 261.897 182.78 267.419C182.732 267.431 182.685 267.437 182.636 267.437ZM144.583 216.266C145.665 222.589 147.552 228.682 150.194 234.381C153.359 241.21 157.606 247.383 162.815 252.729C167.748 257.793 173.387 262.064 179.575 265.424C180.338 265.838 180.641 265.856 181.023 265.878C181.399 265.899 181.862 265.925 182.681 266.264C203.382 260.729 287.544 206.656 312.182 189.079C338.188 170.527 354.357 143.672 363.342 124.411C372.035 105.776 375.864 90.4632 376.615 87.254C373.337 86.9191 357.61 85.5571 337.162 87.7131C316.025 89.9413 285.371 96.4911 259.365 115.045C233.496 133.5 156.637 197.513 144.583 216.266Z" fill="black"/>
<path d="M180.611 255.717C172.443 249.801 165.704 241.832 160.388 233.307C157.409 228.528 154.977 223.49 153.021 218.21C152.013 215.489 151.133 212.709 150.462 209.884C150.346 209.397 150.236 208.907 150.129 208.416C147.38 211.472 145.277 214.091 143.982 216.145C145.068 222.605 146.986 228.821 149.674 234.621C152.848 241.468 157.147 247.731 162.406 253.128C167.291 258.142 172.99 262.498 179.301 265.926C180.977 266.836 180.873 266.085 182.636 266.868C185.303 266.18 189.017 264.686 193.511 262.57C188.902 260.93 184.574 258.588 180.611 255.717Z" fill="white"/>
<path d="M182.636 267.437C182.557 267.437 182.477 267.421 182.405 267.388C181.659 267.056 181.318 267.036 180.959 267.016C180.497 266.99 180.018 266.963 179.03 266.425C172.742 263.01 167.011 258.67 161.997 253.525C156.697 248.086 152.378 241.806 149.157 234.86C146.442 229.005 144.512 222.739 143.42 216.239C143.397 216.101 143.425 215.96 143.501 215.84C144.768 213.827 146.855 211.2 149.706 208.033C149.849 207.873 150.069 207.808 150.276 207.862C150.484 207.918 150.642 208.083 150.688 208.293C150.795 208.78 150.905 209.268 151.02 209.752C151.646 212.391 152.476 215.092 153.557 218.012C155.53 223.339 157.992 228.384 160.873 233.006C166.691 242.336 173.445 249.822 180.946 255.256C184.977 258.175 189.269 260.454 193.701 262.032C193.919 262.109 194.069 262.31 194.08 262.541C194.092 262.771 193.963 262.987 193.753 263.085C189.069 265.291 185.377 266.749 182.779 267.42C182.732 267.431 182.685 267.437 182.636 267.437ZM144.583 216.266C145.665 222.589 147.552 228.682 150.194 234.381C153.359 241.21 157.606 247.383 162.815 252.73C167.748 257.793 173.387 262.064 179.575 265.424C180.338 265.839 180.641 265.856 181.023 265.878C181.399 265.899 181.861 265.925 182.681 266.265C184.966 265.654 188.105 264.433 192.032 262.628C187.953 261.046 184.005 258.881 180.276 256.18C172.655 250.659 165.801 243.065 159.904 233.609C156.981 228.922 154.486 223.808 152.486 218.408C151.388 215.445 150.544 212.7 149.907 210.016C149.877 209.886 149.846 209.754 149.816 209.624C147.47 212.281 145.711 214.511 144.583 216.266Z" fill="black"/>
<path d="M293.146 115.272C296.391 121.246 299.806 127.124 303.491 132.823C307.164 138.505 311.108 144.013 315.418 149.235C319.668 154.386 324.276 159.255 329.32 163.706C331.303 165.456 333.358 167.123 335.472 168.726C367.543 132.513 377.311 86.7558 377.311 86.7558C377.311 86.7558 330.221 81.0249 285.262 100.033C287.811 105.158 290.419 110.25 293.146 115.272Z" fill="#8E24AA"/>
<path d="M335.473 169.297C335.353 169.297 335.232 169.259 335.129 169.181C332.937 167.52 330.856 165.822 328.944 164.134C324.137 159.893 319.439 155.002 314.979 149.599C310.874 144.624 306.961 139.239 303.013 133.133C299.59 127.838 296.198 122.084 292.646 115.544C290.169 110.985 287.662 106.136 284.753 100.286C284.683 100.145 284.674 99.9819 284.729 99.834C284.784 99.6861 284.897 99.5677 285.042 99.5062C308.342 89.6561 332.204 86.5593 348.117 85.6955C365.36 84.7594 377.263 86.1735 377.382 86.1877C377.541 86.2067 377.684 86.2919 377.778 86.4232C377.871 86.5534 377.904 86.7167 377.871 86.8741C377.846 86.9889 375.345 98.5453 368.949 114.375C363.046 128.983 352.52 150.338 335.9 169.104C335.789 169.232 335.632 169.297 335.473 169.297ZM293.649 115C297.188 121.514 300.565 127.242 303.972 132.513C307.894 138.581 311.783 143.932 315.859 148.871C320.28 154.23 324.937 159.077 329.699 163.277C331.468 164.838 333.382 166.407 335.397 167.949C351.702 149.407 362.055 128.387 367.881 113.971C373.409 100.298 376.011 89.8407 376.614 87.2527C373.952 86.9806 363.066 86.0256 348.153 86.8362C332.464 87.6894 309.007 90.7246 286.046 100.322C288.834 105.919 291.257 110.595 293.649 115Z" fill="black"/>
<path d="M335.484 152.126C331.518 147.886 327.754 143.458 324.201 138.865C320.628 134.244 317.259 129.466 314.137 124.528C311.041 119.631 308.166 114.589 305.572 109.408C303.207 104.683 301.043 99.853 299.091 94.9421C294.495 96.4024 289.868 98.0863 285.264 100.033C287.811 105.158 290.419 110.25 293.147 115.272C296.392 121.247 299.807 127.124 303.492 132.823C307.165 138.506 311.109 144.013 315.419 149.235C319.669 154.386 324.277 159.255 329.32 163.706C331.304 165.456 333.359 167.123 335.473 168.726C338.102 165.757 340.574 162.721 342.911 159.654C340.359 157.221 337.888 154.696 335.484 152.126Z" fill="white"/>
<path d="M335.473 169.297C335.353 169.297 335.232 169.259 335.129 169.181C332.937 167.52 330.856 165.822 328.944 164.134C324.137 159.893 319.439 155.003 314.979 149.599C310.874 144.625 306.961 139.239 303.013 133.133C299.59 127.838 296.198 122.084 292.646 115.544C290.169 110.985 287.662 106.137 284.753 100.286C284.683 100.145 284.674 99.9821 284.729 99.8342C284.784 99.6862 284.897 99.5679 285.042 99.5064C289.467 97.6355 294.136 95.9161 298.919 94.3967C299.204 94.3056 299.51 94.4512 299.622 94.7304C301.561 99.6105 303.735 104.463 306.082 109.152C308.58 114.14 311.452 119.21 314.619 124.223C317.646 129.012 321.022 133.821 324.653 138.516C328.189 143.089 331.973 147.537 335.9 151.737C338.501 154.517 340.924 156.973 343.303 159.241C343.514 159.442 343.54 159.769 343.364 160C340.921 163.205 338.409 166.268 335.899 169.104C335.789 169.232 335.632 169.297 335.473 169.297ZM286.046 100.323C288.834 105.918 291.258 110.595 293.649 115C297.188 121.514 300.565 127.243 303.972 132.513C307.894 138.581 311.783 143.932 315.859 148.872C320.28 154.23 324.937 159.077 329.699 163.278C331.468 164.838 333.382 166.408 335.397 167.949C337.667 165.367 339.934 162.601 342.148 159.712C339.87 157.527 337.55 155.167 335.069 152.514C331.117 148.288 327.309 143.813 323.751 139.212C320.099 134.488 316.702 129.65 313.656 124.83C310.468 119.786 307.577 114.683 305.063 109.661C302.78 105.101 300.661 100.388 298.759 95.644C294.388 97.0509 290.116 98.6224 286.046 100.323Z" fill="black"/>
<path d="M286.363 173.658C288.498 161.329 280.234 149.604 267.905 147.469C255.576 145.335 243.851 153.599 241.717 165.927C239.582 178.256 247.846 189.981 260.175 192.116C272.503 194.25 284.228 185.986 286.363 173.658Z" fill="white"/>
<path d="M264.106 193.021C262.817 193.021 261.52 192.913 260.224 192.697C254.105 191.673 248.752 188.328 245.148 183.277C241.545 178.227 240.125 172.076 241.148 165.957C242.171 159.838 245.517 154.484 250.567 150.881C255.617 147.278 261.767 145.855 267.887 146.88C274.007 147.904 279.361 151.249 282.963 156.3C286.566 161.35 287.988 167.501 286.964 173.62C285.94 179.739 282.595 185.093 277.545 188.696C273.564 191.537 268.899 193.021 264.106 193.021ZM264.009 147.699C259.45 147.699 255.015 149.11 251.23 151.811C246.428 155.237 243.247 160.329 242.273 166.147C241.3 171.966 242.65 177.815 246.076 182.617C249.502 187.419 254.594 190.6 260.412 191.574C266.231 192.548 272.08 191.196 276.882 187.77C281.684 184.345 284.865 179.253 285.839 173.434C286.813 167.616 285.461 161.767 282.035 156.965C278.61 152.163 273.518 148.982 267.699 148.008C266.467 147.801 265.233 147.699 264.009 147.699Z" fill="black"/>
<path d="M254.637 156.588C261.928 151.387 272.055 153.081 277.255 160.371C282.456 167.662 280.763 177.789 273.472 182.99C266.182 188.19 256.055 186.497 250.854 179.206C245.653 171.916 247.347 161.79 254.637 156.588Z" fill="white"/>
<path d="M264.092 186.58C263.16 186.58 262.223 186.502 261.287 186.346C256.865 185.606 252.996 183.188 250.391 179.538C247.787 175.887 246.759 171.441 247.5 167.019C248.24 162.597 250.657 158.728 254.308 156.123C261.842 150.747 272.347 152.505 277.723 160.04C280.327 163.691 281.353 168.136 280.614 172.559C279.874 176.981 277.456 180.85 273.806 183.455C270.928 185.508 267.557 186.58 264.092 186.58ZM254.969 157.052C251.567 159.479 249.314 163.086 248.624 167.207C247.936 171.329 248.892 175.473 251.319 178.875C253.746 182.277 257.353 184.53 261.474 185.22C265.595 185.909 269.74 184.953 273.142 182.526C276.544 180.099 278.797 176.492 279.487 172.37C280.177 168.249 279.22 164.105 276.793 160.703C271.782 153.681 261.993 152.044 254.969 157.052Z" fill="black"/>
<path d="M201.56 231.973C212.074 230.741 219.599 221.219 218.366 210.705C217.134 200.19 207.612 192.666 197.098 193.898C186.584 195.13 179.059 204.653 180.292 215.167C181.524 225.681 191.046 233.205 201.56 231.973Z" fill="white"/>
<path d="M199.348 232.676C193.18 232.676 187.1 229.8 183.253 224.408C180.191 220.116 178.984 214.889 179.853 209.688C180.723 204.489 183.567 199.939 187.857 196.876C192.149 193.814 197.376 192.608 202.577 193.476C207.777 194.346 212.327 197.189 215.389 201.481C218.451 205.773 219.658 210.999 218.789 216.2C217.919 221.4 215.077 225.951 210.785 229.012C207.316 231.488 203.314 232.676 199.348 232.676ZM199.281 194.344C195.443 194.344 191.708 195.532 188.52 197.806C184.477 200.691 181.798 204.978 180.979 209.878C180.159 214.777 181.297 219.702 184.182 223.746C190.138 232.093 201.774 234.04 210.122 228.086C214.165 225.201 216.844 220.913 217.663 216.014C218.483 211.115 217.345 206.19 214.46 202.146C211.575 198.102 207.288 195.423 202.389 194.604C201.351 194.429 200.312 194.344 199.281 194.344Z" fill="black"/>
<path d="M191.356 201.777C197.523 197.376 206.092 198.809 210.492 204.977C214.892 211.145 213.459 219.714 207.291 224.113C201.123 228.514 192.554 227.081 188.155 220.912C183.755 214.745 185.188 206.177 191.356 201.777Z" fill="white"/>
<path d="M199.354 227.238C198.561 227.238 197.763 227.172 196.966 227.04C193.201 226.41 189.907 224.352 187.691 221.245C183.115 214.83 184.612 205.889 191.024 201.313C194.131 199.096 197.915 198.222 201.68 198.851C205.444 199.481 208.739 201.539 210.955 204.646C213.171 207.753 214.046 211.538 213.416 215.302C212.787 219.066 210.729 222.361 207.62 224.577C205.173 226.325 202.302 227.238 199.354 227.238ZM199.296 199.793C196.582 199.793 193.941 200.633 191.688 202.24C185.785 206.451 184.409 214.678 188.619 220.581C190.66 223.44 193.69 225.334 197.155 225.913C200.621 226.492 204.101 225.688 206.96 223.648C209.819 221.608 211.713 218.577 212.292 215.113C212.872 211.649 212.067 208.166 210.027 205.308C207.987 202.449 204.957 200.555 201.492 199.975C200.758 199.854 200.024 199.793 199.296 199.793Z" fill="black"/>
<path d="M221.365 75.2906C218.359 79.0087 215.084 82.5812 211.1 85.2247C207.117 87.8683 202.341 89.5333 197.578 89.1191C192.136 88.6458 187.029 85.5336 181.581 85.9276C176.604 86.2874 172.246 89.5262 167.303 90.5545C170.725 92.6869 174.148 94.8204 177.571 96.9528C179.269 98.0107 180.992 99.0804 182.904 99.6697C185.214 100.382 187.687 100.357 190.094 100.128C203.43 98.8544 216.001 91.1272 223.159 79.8027C223.719 78.9164 224.265 77.946 224.239 76.8976C224.212 75.8468 223.378 74.7498 221.365 75.2906Z" fill="white"/>
<path d="M187.365 100.842C185.889 100.842 184.292 100.693 182.736 100.214C180.74 99.5988 178.976 98.4995 177.27 97.4357L167.001 91.0374C166.804 90.9143 166.701 90.6824 166.741 90.4528C166.782 90.2232 166.959 90.041 167.186 89.9937C169.301 89.5535 171.361 88.6754 173.352 87.8258C175.957 86.7146 178.651 85.5656 181.539 85.3562C184.74 85.1254 187.836 86.0662 190.83 86.9773C193.047 87.6518 195.338 88.3488 197.627 88.5476C201.861 88.9133 206.535 87.5654 210.785 84.7455C214.992 81.9552 218.411 78.0337 220.921 74.9286C220.997 74.8351 221.101 74.7677 221.217 74.7357C222.598 74.3653 223.441 74.7014 223.904 75.0493C224.461 75.4658 224.79 76.132 224.809 76.8787C224.838 78.0999 224.22 79.1827 223.639 80.1021C216.425 91.5178 203.59 99.4071 190.147 100.691C189.308 100.774 188.364 100.842 187.365 100.842ZM168.75 90.7829L177.874 96.4677C179.519 97.4925 181.219 98.5515 183.072 99.1231C185.487 99.8674 188.065 99.7467 190.04 99.5574C203.139 98.3066 215.646 90.6196 222.676 79.4951C223.191 78.6809 223.691 77.8112 223.669 76.9083C223.66 76.5131 223.496 76.1699 223.223 75.964C222.877 75.706 222.35 75.6492 221.689 75.796C219.139 78.9401 215.685 82.8664 211.418 85.6981C206.954 88.66 202.027 90.0765 197.531 89.6848C195.123 89.4753 192.773 88.7606 190.5 88.0684C187.473 87.1465 184.613 86.278 181.624 86.4933C178.927 86.6886 176.438 87.75 173.803 88.8742C172.17 89.5724 170.493 90.2871 168.75 90.7829Z" fill="black"/>
<path d="M237.94 202.53C236.037 206.132 233.972 209.648 232.057 213.999C234.324 215.395 236.59 216.792 238.857 218.188C242.214 220.256 245.608 222.341 249.504 223.359C249.839 220.748 248.311 218.268 246.609 216.258C244.909 214.247 242.92 212.364 242.014 209.89C241.527 208.559 241.384 207.124 240.93 205.779C240.476 204.436 239.603 203.109 237.94 202.53Z" fill="white"/>
<path d="M249.505 223.931C249.456 223.931 249.408 223.925 249.361 223.912C245.369 222.868 241.908 220.736 238.559 218.674L231.757 214.485C231.515 214.335 231.42 214.03 231.535 213.769C232.969 210.515 234.483 207.728 235.945 205.034C236.449 204.105 236.949 203.187 237.436 202.263C237.568 202.013 237.861 201.897 238.128 201.99C239.705 202.54 240.861 203.786 241.471 205.596C241.696 206.261 241.846 206.944 241.992 207.604C242.154 208.335 242.307 209.028 242.551 209.693C243.238 211.571 244.64 213.154 245.996 214.684C246.35 215.084 246.704 215.484 247.046 215.888C249.377 218.645 250.366 221.112 250.071 223.43C250.049 223.592 249.961 223.739 249.825 223.831C249.729 223.896 249.617 223.931 249.505 223.931ZM232.781 213.775L239.157 217.702C242.242 219.601 245.425 221.562 248.98 222.62C248.976 220.816 248.053 218.847 246.174 216.625C245.838 216.227 245.49 215.834 245.141 215.44C243.715 213.83 242.241 212.166 241.478 210.084C241.209 209.347 241.041 208.586 240.877 207.849C240.732 207.19 240.593 206.566 240.39 205.959C239.951 204.659 239.216 203.751 238.202 203.253C237.79 204.027 237.371 204.799 236.949 205.576C235.565 208.126 234.137 210.757 232.781 213.775Z" fill="black"/>
<path d="M191.567 132.404C190.141 140.316 189.274 146.4 194.535 152.477C200.036 158.833 209.189 158.362 227.427 158.362C228.589 158.362 234.029 158.702 234.999 159.341C236.496 160.326 235.574 189.061 234.747 206.134C238.238 206.805 241.729 207.476 245.011 207.027C259.239 144.576 254.95 149.483 250.32 144.452C244.293 137.902 227.148 135.96 222.933 135.461C219.399 135.042 215.855 134.623 212.298 134.64C204.851 134.674 196.196 136.211 191.567 132.404Z" fill="#D0006F"/>
<path d="M242.763 207.744C240.089 207.744 237.33 207.214 234.64 206.695C234.361 206.642 234.164 206.391 234.177 206.107C235.2 185.011 235.701 161.717 234.634 159.787C233.75 159.318 229.013 158.932 227.427 158.932C226.211 158.932 225.035 158.935 223.898 158.936C208.108 158.964 199.41 158.98 194.103 152.85C188.476 146.348 189.704 139.525 191.005 132.301C191.042 132.103 191.181 131.937 191.37 131.867C191.56 131.797 191.773 131.834 191.93 131.962C195.374 134.795 201.415 134.511 207.256 134.235C208.925 134.157 210.651 134.075 212.295 134.068C215.874 134.041 219.504 134.48 222.999 134.894L223.186 134.917C237.431 136.601 246.702 139.678 250.739 144.066C251.197 144.564 251.656 144.964 252.101 145.351C256.294 149.003 258.398 150.836 245.567 207.155C245.514 207.387 245.323 207.56 245.088 207.594C244.325 207.698 243.548 207.744 242.763 207.744ZM235.342 205.668C238.438 206.261 241.614 206.829 244.546 206.51C257.127 151.235 254.951 149.345 251.354 146.212C250.887 145.804 250.403 145.383 249.903 144.839C247.258 141.965 240.452 138.106 223.056 136.05L222.869 136.028C219.408 135.618 215.824 135.191 212.304 135.21C210.684 135.217 208.971 135.298 207.314 135.376C201.648 135.643 195.8 135.918 191.972 133.404C190.584 141.308 190.232 146.627 194.97 152.102C199.934 157.837 207.948 157.82 223.899 157.794C225.037 157.792 226.213 157.791 227.43 157.791C227.959 157.791 234.077 158.047 235.316 158.864C235.789 159.176 236.582 159.699 236.318 176.713C236.191 184.74 235.828 195.528 235.342 205.668Z" fill="black"/>
<path d="M215.436 17.9864C215.65 22.4712 215.97 26.5017 216.874 32.4172C217.305 35.2311 218.228 38.3954 219.419 41.0425C219.978 42.2874 220.451 42.9134 221.758 43.6967C221.957 42.5158 223.256 42.0531 223.57 40.891C223.957 39.4616 223.154 38.083 224.163 36.8854C226.084 34.604 227.498 32.0302 228.316 29.3227C228.988 27.1004 229.251 24.716 228.399 22.5114C227.547 20.3069 225.405 18.3236 222.662 17.8515C220.574 17.4917 217.225 16.8279 215.436 17.9864Z" fill="#D0006F"/>
<path d="M221.759 44.2681C221.657 44.2681 221.555 44.2409 221.465 44.1865C220.002 43.3084 219.471 42.5487 218.899 41.2766C217.699 38.6082 216.754 35.4108 216.311 32.5034C215.398 26.5322 215.081 22.5326 214.866 18.0134C214.856 17.8111 214.955 17.6182 215.125 17.5069C217.011 16.2857 220.274 16.8549 222.432 17.2312L222.76 17.288C225.515 17.7637 227.937 19.7328 228.931 22.3054C229.725 24.3596 229.703 26.7086 228.862 29.4882C228.016 32.2856 226.582 34.8984 224.599 37.2533C224.14 37.7988 224.176 38.4082 224.225 39.1798C224.259 39.7418 224.298 40.3797 224.121 41.04C223.931 41.7381 223.478 42.2138 223.079 42.6339C222.713 43.0185 222.395 43.351 222.321 43.7924C222.289 43.9782 222.168 44.1367 221.997 44.216C221.922 44.2503 221.84 44.2681 221.759 44.2681ZM216.023 18.3104C216.236 22.6509 216.558 26.5654 217.44 32.3318C217.869 35.141 218.782 38.2319 219.941 40.8092C220.362 41.7452 220.704 42.2742 221.472 42.8292C221.688 42.4434 221.984 42.1334 222.256 41.847C222.606 41.4802 222.908 41.1618 223.021 40.7429C223.152 40.2637 223.121 39.7714 223.089 39.2507C223.036 38.3905 222.975 37.4142 223.729 36.5196C225.612 34.2843 226.973 31.8087 227.774 29.1604C228.537 26.634 228.569 24.5277 227.87 22.7195C227.018 20.5138 224.936 18.824 222.568 18.4157L222.237 18.3578C220.368 18.03 217.601 17.5472 216.023 18.3104Z" fill="black"/>
<path d="M248.053 28.3342C247.661 32.2498 248.263 36.2046 248.097 40.1356C247.932 44.0667 246.87 48.1693 243.714 51.0247C240.936 53.5393 236.647 54.8031 232.568 54.312C228.488 53.8197 224.725 51.5844 222.786 48.5018C220.962 45.6026 220.896 39.4647 220.742 36.3868C218.908 36.5809 216.912 35.9194 215.87 34.613C214.829 33.3066 214.928 31.3943 216.242 30.3115C217.555 29.23 219.168 29.1282 220.918 30.9186C220.912 28.3898 221.464 25.9462 221.711 24.822C222.382 21.7726 222.658 17.212 224.861 16.0038C226.108 15.3199 228.696 14.7933 230.146 14.4891C232.651 13.9637 236.016 15.695 238.607 15.8109C241.197 15.9269 243.787 17.2889 245.813 18.6793C248.238 20.3431 248.348 25.4042 248.053 28.3342Z" fill="white"/>
<path d="M234.332 54.9879C233.72 54.9879 233.109 54.9524 232.5 54.879C228.243 54.3655 224.336 52.039 222.303 48.8062C220.586 46.0762 220.365 40.8861 220.219 37.4509C220.212 37.2935 220.206 37.1396 220.199 36.9917C218.295 37.0189 216.438 36.2439 215.424 34.9694C214.15 33.3707 214.35 31.1318 215.879 29.8716C216.743 29.1604 218.385 28.3072 220.384 29.7083C220.508 27.6315 220.921 25.7571 221.137 24.7738L221.154 24.698C221.29 24.0756 221.411 23.3928 221.537 22.6686C222.037 19.8203 222.601 16.5922 224.588 15.5023C225.864 14.803 228.369 14.2776 229.866 13.964L230.03 13.9297C231.643 13.5924 233.497 14.0882 235.292 14.5687C236.497 14.8905 237.634 15.1958 238.634 15.2396C240.892 15.3414 243.416 16.3389 246.138 18.2074C249.259 20.3505 248.755 27.0659 248.623 28.39C248.405 30.5591 248.501 32.7992 248.593 34.9647C248.667 36.6651 248.741 38.4224 248.668 40.1595C248.461 45.094 246.922 48.8914 244.099 51.4485C241.609 53.7004 237.991 54.9879 234.332 54.9879ZM220.742 35.8167C220.878 35.8167 221.01 35.8652 221.114 35.9539C221.232 36.0557 221.304 36.2024 221.313 36.3586C221.329 36.6758 221.343 37.026 221.36 37.4012C221.492 40.5145 221.715 45.7248 223.27 48.1979C225.125 51.1468 228.714 53.2733 232.638 53.7454C236.571 54.2199 240.667 53.0153 243.333 50.6025C245.922 48.2595 247.334 44.7296 247.528 40.1122C247.599 38.4236 247.526 36.6912 247.454 35.0144C247.359 32.8086 247.262 30.5283 247.488 28.2776C247.824 24.9288 247.502 20.5291 245.493 19.1505C242.95 17.4051 240.625 16.4738 238.583 16.3815C237.459 16.3307 236.208 15.9958 234.998 15.6727C233.332 15.2266 231.608 14.7651 230.265 15.0479L230.1 15.0822C228.666 15.3828 226.264 15.8857 225.137 16.5034C223.632 17.3282 223.117 20.27 222.663 22.865C222.534 23.6011 222.412 24.2969 222.27 24.943L222.253 25.0187C222.004 26.15 221.485 28.5048 221.491 30.9153C221.491 31.1472 221.352 31.3567 221.136 31.4454C220.922 31.533 220.675 31.4821 220.513 31.3164C219.134 29.9059 217.856 29.7225 216.606 30.752C215.563 31.6111 215.437 33.1506 216.319 34.257C217.195 35.3563 218.99 36.0001 220.684 35.819C220.703 35.8179 220.722 35.8167 220.742 35.8167Z" fill="black"/>
<path d="M236.429 21.3176C236.632 23.0879 239.066 25.8096 240.736 26.1563C242.406 26.503 243.121 25.7894 243.968 24.2381C245.329 25.7232 246.312 27.1952 247.782 27.936C250.027 29.0673 253.069 27.9017 254.098 25.5161C255.127 23.1305 253.945 19.9852 251.643 18.9852C253.2 19.5331 254.963 18.08 255.172 16.3701C255.381 14.6613 254.341 12.9869 252.946 12.0817C251.55 11.1764 249.86 10.9137 248.23 10.5043C249.025 8.90794 248.443 6.82764 247.176 5.62182C245.91 4.41481 244.115 3.97225 242.399 4.00538C241.271 4.02668 240.115 4.24678 239.161 4.88105C238.207 5.51532 237.489 6.62056 237.407 7.87608C236.12 5.85257 233.859 4.34736 231.548 4.65385C229.237 4.96033 227.251 7.54356 226.884 9.42506C225.927 7.96246 224.606 6.70457 222.907 6.62055C219.534 6.4537 218.482 9.22981 219.612 13.0603C217.918 11.9941 215.177 12.4875 214.06 14.9974C213.228 16.8659 213.619 20.0183 214.807 21.6702C215.995 23.3234 220.606 25.1055 224.172 23.0737C226.153 21.9448 227.213 20.2337 227.924 18.5971C228.731 20.3887 229.33 21.6253 231.706 22.6891C233.439 23.4642 235.647 22.9695 236.429 21.3176Z" fill="#D0006F"/>
<path d="M249.667 28.9393C248.912 28.9393 248.177 28.7736 247.524 28.4447C246.318 27.8376 245.43 26.801 244.492 25.7029C244.351 25.5384 244.209 25.3727 244.062 25.2035C243.361 26.2993 242.446 27.0933 240.62 26.7146C239.068 26.3928 237.038 24.3799 236.215 22.5659C235.063 23.6581 233.166 23.9669 231.471 23.2084C229.418 22.2901 228.561 21.1825 227.915 19.9211C227.246 21.1589 226.202 22.5694 224.452 23.567C220.563 25.7857 215.626 23.7871 214.342 22.0014C213.018 20.1589 212.641 16.7758 213.537 14.7629C214.113 13.4672 215.135 12.5394 216.414 12.1501C217.194 11.9123 218.024 11.8981 218.785 12.0933C218.398 10.1136 218.636 8.47112 219.483 7.39547C220.009 6.72925 221.03 5.9518 222.933 6.04765C224.307 6.1151 225.563 6.8322 226.679 8.18239C227.501 6.27485 229.389 4.36139 231.471 4.08449C233.466 3.81943 235.585 4.76373 237.125 6.5411C237.457 5.682 238.056 4.92703 238.844 4.40281C239.772 3.78511 240.965 3.45851 242.387 3.43248C244.483 3.39224 246.326 4.02296 247.569 5.2063C248.928 6.50087 249.474 8.46166 248.996 10.1006C249.087 10.1219 249.177 10.1432 249.268 10.1645C250.628 10.4816 252.035 10.8094 253.256 11.6011C254.96 12.7051 255.957 14.6481 255.738 16.4373C255.604 17.5343 254.922 18.5863 253.958 19.1851C253.761 19.3069 253.56 19.4063 253.356 19.4821C254.917 21.0453 255.53 23.6356 254.623 25.7396C254.058 27.0495 252.923 28.0956 251.509 28.6092C250.903 28.8293 250.279 28.9393 249.667 28.9393ZM243.967 23.6664C244.125 23.6664 244.278 23.7326 244.387 23.851C244.732 24.2273 245.051 24.6 245.358 24.9597C246.258 26.0117 247.034 26.9193 248.036 27.4246C248.939 27.879 250.062 27.9216 251.116 27.5371C252.236 27.13 253.13 26.3111 253.572 25.2887C254.476 23.1918 253.427 20.3826 251.412 19.5069C251.131 19.385 250.996 19.0608 251.108 18.7756C251.22 18.4893 251.54 18.3449 251.829 18.4455C252.302 18.6123 252.844 18.5319 253.352 18.2159C254.019 17.8017 254.509 17.0491 254.601 16.3001C254.794 14.7227 253.75 13.2849 252.631 12.5596C251.577 11.8768 250.327 11.5845 249.004 11.2768C248.698 11.2058 248.391 11.1336 248.086 11.0567C247.918 11.0141 247.779 10.8993 247.706 10.7419C247.634 10.5846 247.637 10.4035 247.714 10.2485C248.354 8.96339 247.952 7.1517 246.778 6.03345C245.753 5.05838 244.196 4.54481 242.406 4.5744C241.204 4.59688 240.218 4.85958 239.474 5.35422C238.613 5.92577 238.039 6.90557 237.973 7.91141C237.956 8.15754 237.784 8.36581 237.545 8.42734C237.304 8.48888 237.055 8.38948 236.922 8.18121C235.615 6.12694 233.531 4.96253 231.619 5.21813C229.526 5.49622 227.747 7.95992 227.44 9.53376C227.395 9.76096 227.218 9.93964 226.99 9.98461C226.761 10.0284 226.53 9.93136 226.404 9.73729C225.337 8.11021 224.15 7.25347 222.875 7.19075C221.744 7.13632 220.9 7.44162 220.379 8.10429C219.623 9.06516 219.541 10.8129 220.157 12.8992C220.224 13.1264 220.143 13.3725 219.954 13.5157C219.765 13.6589 219.507 13.6707 219.306 13.5441C218.583 13.0897 217.627 12.9785 216.745 13.2459C215.788 13.537 215.019 14.2423 214.578 15.2303C213.838 16.8953 214.165 19.8063 215.267 21.3387C216.226 22.6712 220.476 24.5231 223.887 22.5789C225.891 21.4358 226.851 19.63 227.399 18.3709C227.489 18.1638 227.692 18.0289 227.918 18.0278H227.922C228.147 18.0278 228.35 18.1591 228.442 18.3638C229.203 20.0548 229.706 21.1707 231.937 22.1694C233.317 22.786 235.242 22.4937 235.913 21.076C236.022 20.8465 236.269 20.7151 236.521 20.7565C236.773 20.7979 236.966 21.0015 236.994 21.2547C237.171 22.7824 239.405 25.2994 240.851 25.5999C242.079 25.8555 242.618 25.5195 243.465 23.9669C243.552 23.8048 243.713 23.6959 243.897 23.6735C243.922 23.6675 243.944 23.6664 243.967 23.6664Z" fill="black"/>
<path d="M243.842 33.6265C243.946 33.1508 243.624 32.6762 243.122 32.5662C242.621 32.4561 242.13 32.752 242.025 33.2289C241.921 33.7046 242.243 34.1791 242.745 34.2891C243.247 34.3992 243.738 34.1022 243.842 33.6265Z" fill="black"/>
<path d="M230.881 32.9851C230.985 32.5094 230.663 32.0349 230.161 31.9248C229.66 31.8148 229.169 32.1106 229.064 32.5875C228.96 33.0632 229.282 33.5377 229.784 33.6478C230.284 33.7578 230.776 33.4608 230.881 32.9851Z" fill="black"/>
<path d="M233.64 48.7991C231.992 48.7991 230.361 47.9731 229.419 46.6076C229.241 46.3484 229.306 45.9934 229.565 45.8136C229.824 45.6349 230.179 45.6988 230.359 45.9591C231.187 47.159 232.775 47.8394 234.212 47.6134C234.525 47.5649 234.815 47.7779 234.864 48.0891C234.912 48.4003 234.699 48.6926 234.388 48.7411C234.14 48.7802 233.889 48.7991 233.64 48.7991Z" fill="black"/>
<path d="M236.348 44.1772C235.924 44.1772 235.518 44.1275 235.136 44.0269C234.114 43.7595 233.274 43.1264 232.83 42.2886C232.682 42.0105 232.789 41.665 233.067 41.517C233.346 41.3703 233.691 41.4756 233.839 41.7537C234.13 42.3016 234.723 42.7394 235.424 42.9229C236.061 43.0897 236.798 43.072 237.617 42.8708C237.878 42.8069 238.171 42.7181 238.353 42.5477C238.568 42.3454 238.671 41.9762 238.628 41.5597C238.587 41.1751 238.443 40.7869 238.289 40.3763L238.215 40.1752C237.293 37.6523 236.96 34.9093 237.249 32.2409C237.282 31.9273 237.559 31.7001 237.877 31.7356C238.191 31.7699 238.417 32.0515 238.383 32.3639C238.112 34.8596 238.424 37.4239 239.285 39.7835L239.358 39.9775C239.529 40.4367 239.706 40.9112 239.761 41.4401C239.844 42.2211 239.614 42.9288 239.132 43.3808C238.758 43.7311 238.294 43.8802 237.888 43.9796C237.352 44.1109 236.837 44.1772 236.348 44.1772Z" fill="black"/>
<path d="M220.917 33.5011C220.609 33.5011 220.356 33.2561 220.346 32.9461C220.315 31.8551 220.322 31.274 220.334 30.2185C220.338 29.9061 220.592 29.6541 220.905 29.6541C220.907 29.6541 220.908 29.6541 220.911 29.6541C221.225 29.6576 221.479 29.9156 221.475 30.2315C221.463 31.3072 221.457 31.8468 221.487 32.9142C221.495 33.2289 221.248 33.4916 220.933 33.4999C220.927 33.5011 220.922 33.5011 220.917 33.5011Z" fill="black"/>
<path d="M218.616 20.8287C218.514 20.8287 218.41 20.8015 218.318 20.7435C216.621 19.6998 215.697 17.5307 216.119 15.5853C216.186 15.2776 216.491 15.0824 216.799 15.1487C217.106 15.2161 217.301 15.519 217.235 15.8279C216.912 17.3153 217.619 18.9744 218.916 19.772C219.184 19.9376 219.268 20.2891 219.102 20.5565C218.995 20.7316 218.808 20.8287 218.616 20.8287Z" fill="black"/>
<g opacity="0.1294">
<path d="M228.246 18.5601C228.433 18.843 228.63 19.1199 228.834 19.3908C228.851 19.4488 228.882 19.5388 228.955 19.7435C229.072 20.0251 229.215 20.2949 229.366 20.5612C229.968 21.4569 230.585 22.051 231.206 22.4971C231.353 22.2959 231.633 22.1894 231.876 22.3255C231.915 22.3433 231.954 22.3587 231.994 22.3752C232.013 22.38 232.034 22.3859 232.063 22.3942C232.536 22.4817 232.997 22.6367 233.479 22.6628C233.427 22.6592 233.376 22.6545 233.324 22.6509C233.474 22.6935 234.212 22.6474 234.796 22.5433C234.829 22.5362 234.894 22.5231 234.957 22.5089C235.078 22.4687 235.209 22.4723 235.33 22.5113C235.359 22.503 235.389 22.4947 235.422 22.49C235.428 22.4805 235.435 22.4675 235.45 22.4462C235.455 22.4368 235.46 22.4261 235.463 22.4155C235.46 22.361 235.459 22.3078 235.463 22.2533C235.5 21.8534 235.96 21.5386 236.342 21.6735C236.734 21.7587 236.919 22.1894 236.895 22.5693C236.953 22.7042 237.018 22.8355 237.091 22.9633C237.402 23.4414 237.763 23.8887 238.12 24.3336C238.189 24.42 238.384 24.6354 238.416 24.6756C238.432 24.6922 238.448 24.7099 238.463 24.7265C238.874 25.1442 239.721 25.853 240.542 26.1134C240.547 26.1146 240.551 26.1157 240.554 26.1169C240.751 26.1607 240.951 26.1808 241.151 26.1867C241.205 26.1832 241.274 26.1773 241.334 26.1666C241.362 26.1572 241.392 26.1501 241.42 26.1382C241.49 26.1098 241.558 26.0755 241.624 26.0412C241.638 26.0317 241.655 26.0211 241.677 26.0069C241.702 25.9903 241.725 25.9702 241.748 25.9536C241.973 25.9548 242.201 25.9051 242.394 25.801C242.613 25.7477 242.801 25.6424 242.972 25.4827C243.063 25.3963 243.136 25.2957 243.206 25.1916C243.216 25.1774 243.225 25.162 243.234 25.1466C243.239 25.1442 243.264 25.1182 243.272 25.1087C243.307 25.0709 243.34 25.033 243.373 24.9951C243.597 24.7383 243.793 24.4638 243.947 24.1632C243.953 24.1632 243.959 24.1632 243.965 24.1644C244.211 24.2011 244.449 24.3703 244.542 24.6046C244.576 24.7111 244.62 24.8141 244.67 24.9147C244.684 24.9431 244.699 24.9715 244.715 24.9987C244.721 25.007 244.73 25.0235 244.749 25.0567L244.746 25.0543C244.75 25.0626 244.755 25.0709 244.76 25.078C244.938 25.285 245.077 25.53 245.266 25.73C245.34 25.8093 245.417 25.8838 245.493 25.9595C245.515 25.9797 245.538 26.0033 245.563 26.0282C245.573 26.0376 245.583 26.0471 245.595 26.0589C245.986 26.4388 246.421 26.7713 246.872 27.0766C247.177 27.3216 247.614 27.4482 247.821 27.7925C248.273 28.5049 247.345 29.3297 246.678 28.8114C245.723 28.2114 244.827 27.5062 244.136 26.6068C244.021 26.4613 243.914 26.3086 243.813 26.1524C243.329 26.7382 242.761 27.26 242.084 27.5961C241.061 28.0292 239.884 27.7144 238.982 27.1358C238.102 26.5796 237.801 26.2033 237.337 25.7134C236.888 25.1975 236.475 24.652 236.138 24.0579C235.845 24.3822 235.497 24.6591 235.104 24.8496C234.559 25.0933 233.93 25.1904 233.343 25.0626C233.369 25.0697 233.396 25.0768 233.417 25.0827C233.358 25.0756 233.3 25.0673 233.242 25.0567C232.497 24.9158 231.812 24.5703 231.167 24.1822C230.227 23.6106 229.366 22.8864 228.707 22.0025C228.308 21.4368 227.953 20.825 227.761 20.1553C227.724 19.9884 227.749 20.1363 227.78 20.2239C227.688 19.9766 227.617 19.7222 227.549 19.4666C227.509 19.3175 227.457 19.1589 227.519 19.0098C227.605 18.6465 227.945 18.5057 228.246 18.5601Z" fill="black"/>
</g>
<g opacity="0.1294">
<path d="M215.747 23.4936C216.054 23.0818 216.526 23.3149 216.907 23.4735C217.471 23.7019 218.063 23.851 218.632 24.0663C219.051 24.2284 219.463 24.4107 219.898 24.5255C219.895 24.5243 219.89 24.5231 219.887 24.5219C220.022 24.5598 220.127 24.5894 219.888 24.5243C220.116 24.5976 220.365 24.6213 220.587 24.7089C220.658 24.6095 220.747 24.5266 220.869 24.4769C221.41 24.2237 222.024 24.8308 221.776 25.3751C221.592 25.7905 221.4 26.2058 221.274 26.6436C221.165 27.2968 220.946 28.3275 220.058 28.0068C219.883 27.9335 219.765 27.7927 219.671 27.6353C219.687 27.6921 219.323 27.2507 219.225 27.1679C218.833 26.749 218.07 26.0839 217.319 25.4213C216.926 25.0923 216.521 24.7763 216.1 24.4841C216.067 24.4628 216.033 24.4438 215.998 24.4237C215.97 24.4071 215.926 24.3823 215.882 24.3551C215.607 24.1645 215.543 23.7622 215.747 23.4936Z" fill="black"/>
</g>
<path d="M226.547 70.5715C225.723 69.2023 223.859 68.8982 222.576 69.8508L221.266 70.8235C220.538 71.3631 219.743 72.0246 219.699 72.9299C219.664 73.6683 220.149 74.3179 220.609 74.8966C221.291 75.7521 222.092 76.6751 223.18 76.7887C223.926 76.8656 224.648 76.5378 225.326 76.2183C225.758 76.0148 226.202 75.803 226.528 75.4539C226.981 74.9711 227.152 74.286 227.203 73.6257C227.283 72.5819 227.095 71.5016 226.562 70.5999C226.558 70.5892 226.552 70.5797 226.547 70.5715Z" fill="white"/>
<path d="M223.407 77.3686C223.314 77.3686 223.218 77.3639 223.122 77.3544C221.725 77.2088 220.748 75.9829 220.164 75.2504C219.732 74.7096 219.081 73.8931 219.13 72.9003C219.19 71.6531 220.319 70.8141 220.926 70.3644L222.236 69.3917C222.999 68.8249 223.971 68.606 224.903 68.7906C225.809 68.9705 226.567 69.497 227.035 70.2757C227.039 70.2816 227.044 70.2899 227.045 70.2922C227.618 71.2626 227.866 72.4234 227.771 73.6659C227.699 74.6008 227.421 75.3321 226.944 75.8409C226.538 76.274 226.022 76.5166 225.569 76.7308C224.962 77.0195 224.22 77.3686 223.407 77.3686ZM224.249 69.8686C223.772 69.8686 223.303 70.0213 222.915 70.3088L221.605 71.2815C220.976 71.7489 220.301 72.3027 220.269 72.9571C220.244 73.4766 220.626 74.002 221.056 74.5404C221.695 75.3427 222.39 76.1332 223.239 76.2208C223.804 76.2799 224.384 76.0314 225.082 75.7013C225.462 75.5226 225.854 75.3368 226.112 75.0623C226.407 74.7475 226.582 74.2493 226.634 73.5807C226.71 72.5879 226.51 71.6318 226.072 70.8898L226.547 70.5727L226.058 70.8662C225.757 70.3668 225.269 70.0284 224.682 69.9112C224.537 69.8828 224.393 69.8686 224.249 69.8686Z" fill="black"/>
<path d="M216.565 68.1693C216.38 68.1693 216.199 68.0794 216.089 67.9137C215.032 66.3198 214.354 64.4726 214.127 62.5745C214.089 62.2621 214.313 61.9781 214.627 61.9403C214.938 61.9048 215.224 62.126 215.261 62.4396C215.467 64.1626 216.081 65.837 217.041 67.283C217.215 67.5457 217.144 67.8995 216.881 68.0735C216.783 68.1386 216.673 68.1693 216.565 68.1693Z" fill="black"/>
<path d="M214.136 69.9194C213.978 69.9194 213.82 69.8543 213.708 69.7265L212.247 68.0663C212.039 67.8296 212.063 67.4687 212.3 67.2604C212.536 67.0522 212.897 67.0758 213.104 67.3125L214.564 68.9727C214.773 69.2094 214.75 69.5703 214.514 69.7786C214.405 69.8732 214.27 69.9194 214.136 69.9194Z" fill="black"/>
<path d="M204.436 132.282C204.41 132.282 204.384 132.281 204.358 132.278C200.788 131.791 197.298 130.827 193.984 129.41C193.694 129.286 193.559 128.951 193.683 128.661C193.807 128.371 194.141 128.236 194.432 128.361C197.651 129.737 201.042 130.674 204.51 131.146C204.823 131.189 205.042 131.476 204.999 131.789C204.961 132.075 204.716 132.282 204.436 132.282Z" fill="black"/>
<g opacity="0.1294">
<path d="M258.887 111.569C258.234 111.585 257.719 112.07 257.172 112.37C256.31 112.946 255.439 113.51 254.587 114.101C252.617 115.55 250.573 116.922 248.811 118.629C247.633 119.867 249.404 121.638 250.647 120.465C252.913 118.485 253.972 117.697 256.273 116.072C257.08 115.568 257.873 115.041 258.684 114.544C259.084 114.245 259.633 114.115 259.928 113.699C260.636 112.896 259.942 111.539 258.887 111.569Z" fill="black"/>
</g>
<path d="M195.126 220.426C195.12 220.426 195.115 220.426 195.109 220.424C195.005 220.415 194.927 220.323 194.936 220.219L196.295 204.701C196.304 204.597 196.395 204.523 196.501 204.529C196.605 204.538 196.683 204.63 196.673 204.735L195.315 220.252C195.306 220.351 195.223 220.426 195.126 220.426Z" fill="black"/>
<path d="M201.281 222.57C201.279 222.57 201.278 222.57 201.275 222.57C201.17 222.566 201.088 222.479 201.092 222.373L201.739 203.011C201.743 202.908 201.827 202.827 201.93 202.827C201.93 202.827 201.933 202.827 201.936 202.827C202.041 202.831 202.123 202.918 202.119 203.024L201.472 222.385C201.468 222.489 201.384 222.57 201.281 222.57Z" fill="black"/>
<path d="M260.306 174.009C260.304 174.009 260.301 174.009 260.298 174.009C260.192 174.005 260.111 173.916 260.115 173.812L260.47 165.282C260.475 165.177 260.559 165.1 260.668 165.1C260.773 165.105 260.855 165.194 260.85 165.298L260.496 173.827C260.492 173.93 260.408 174.009 260.306 174.009Z" fill="black"/>
<path d="M265.79 181.017C265.685 181.017 265.6 180.931 265.6 180.825C265.64 173.121 265.866 165.314 266.274 157.622C266.28 157.517 266.372 157.434 266.474 157.442C266.579 157.448 266.66 157.537 266.654 157.642C266.247 165.327 266.02 173.128 265.981 180.828C265.981 180.932 265.895 181.017 265.79 181.017Z" fill="black"/>
<path d="M235.025 213.218C235.007 213.218 234.989 213.215 234.971 213.211C234.871 213.181 234.813 213.076 234.841 212.975C235.329 211.304 236.006 209.687 236.854 208.167C236.905 208.075 237.022 208.043 237.113 208.094C237.204 208.145 237.237 208.261 237.187 208.353C236.352 209.848 235.686 211.438 235.207 213.082C235.183 213.163 235.107 213.218 235.025 213.218Z" fill="black"/>
<path d="M236.474 214.805C236.461 214.805 236.448 214.804 236.435 214.801C236.332 214.78 236.266 214.679 236.287 214.576C236.568 213.216 237.021 211.893 237.636 210.645C237.682 210.552 237.796 210.513 237.891 210.559C237.985 210.605 238.023 210.72 237.977 210.813C237.377 212.032 236.933 213.324 236.66 214.653C236.642 214.743 236.562 214.805 236.474 214.805Z" fill="black"/>
<path d="M238.22 216.175H238.216C238.111 216.173 238.027 216.086 238.029 215.982C238.053 214.547 238.391 213.104 239.007 211.808C239.052 211.713 239.165 211.673 239.26 211.718C239.355 211.763 239.395 211.876 239.35 211.971C238.757 213.218 238.433 214.607 238.409 215.988C238.408 216.091 238.323 216.175 238.22 216.175Z" fill="black"/>
<path d="M240.15 217.226H240.146C240.041 217.224 239.957 217.137 239.959 217.032C239.982 215.739 240.171 214.449 240.519 213.2C240.547 213.1 240.651 213.041 240.753 213.069C240.854 213.098 240.913 213.202 240.884 213.303C240.545 214.521 240.361 215.778 240.339 217.039C240.338 217.143 240.252 217.226 240.15 217.226Z" fill="black"/>
<path d="M242.271 218.646C242.166 218.646 242.082 218.562 242.08 218.456C242.073 217.116 242.162 215.762 242.346 214.432C242.36 214.328 242.458 214.257 242.56 214.27C242.664 214.284 242.736 214.38 242.722 214.484C242.542 215.795 242.453 217.131 242.46 218.454C242.462 218.559 242.377 218.646 242.271 218.646Z" fill="black"/>
<path d="M244.295 219.542C244.194 219.542 244.11 219.462 244.105 219.361C244.053 218.267 244.082 217.161 244.188 216.072C244.198 215.967 244.294 215.896 244.397 215.902C244.502 215.912 244.578 216.006 244.567 216.11C244.462 217.18 244.434 218.268 244.485 219.344C244.49 219.449 244.41 219.538 244.304 219.543C244.301 219.542 244.297 219.542 244.295 219.542Z" fill="black"/>
<path d="M246.271 221.072C246.177 221.072 246.095 221.002 246.082 220.907C245.961 220.003 245.946 219.084 246.037 218.176C246.048 218.071 246.146 217.993 246.246 218.006C246.351 218.016 246.427 218.11 246.416 218.214C246.327 219.093 246.342 219.982 246.46 220.858C246.474 220.962 246.401 221.058 246.297 221.071C246.287 221.072 246.279 221.072 246.271 221.072Z" fill="black"/>
<path d="M174.86 93.1991C174.805 93.1991 174.751 93.1755 174.713 93.1293C173.985 92.2454 173.301 91.3105 172.679 90.3508C172.622 90.2633 172.647 90.145 172.735 90.0882C172.822 90.0314 172.94 90.055 172.997 90.1438C173.613 91.0904 174.288 92.0134 175.007 92.8867C175.073 92.9684 175.062 93.0879 174.981 93.1542C174.945 93.185 174.902 93.1991 174.86 93.1991Z" fill="black"/>
<path d="M180.402 97.1113C180.346 97.1113 180.291 97.0865 180.253 97.0391C178.293 94.5778 176.385 92.0253 174.578 89.4516C174.517 89.3652 174.537 89.2469 174.624 89.1865C174.709 89.1262 174.829 89.1475 174.889 89.2327C176.691 91.7993 178.596 94.3458 180.551 96.8013C180.616 96.8841 180.603 97.0036 180.52 97.0687C180.486 97.0983 180.445 97.1113 180.402 97.1113Z" fill="black"/>
<path d="M184.608 98.3312C184.552 98.3312 184.498 98.3075 184.46 98.2613C181.9 95.1243 179.432 91.8488 177.124 88.5272C177.064 88.4408 177.085 88.3225 177.172 88.2621C177.257 88.2018 177.376 88.2231 177.435 88.3095C179.738 91.624 182.2 94.8912 184.754 98.0199C184.821 98.1016 184.809 98.2211 184.727 98.2874C184.693 98.3169 184.65 98.3312 184.608 98.3312Z" fill="black"/>
<path d="M187.655 98.9621C187.601 98.9621 187.548 98.9396 187.51 98.8946C184.689 95.5612 182.082 91.9958 179.761 88.2955C179.706 88.2067 179.733 88.0896 179.822 88.0328C179.912 87.9772 180.029 88.0044 180.084 88.0931C182.394 91.778 184.99 95.3292 187.801 98.6485C187.868 98.729 187.859 98.8485 187.778 98.9171C187.743 98.9467 187.699 98.9621 187.655 98.9621Z" fill="black"/>
<path d="M190.543 98.6782C190.488 98.6782 190.435 98.6557 190.398 98.6107C187.533 95.2441 184.82 91.6847 182.334 88.0317C182.275 87.9453 182.297 87.827 182.384 87.7678C182.47 87.7098 182.588 87.7311 182.647 87.8187C185.127 91.461 187.832 95.0087 190.687 98.3646C190.754 98.4451 190.745 98.5646 190.666 98.6332C190.63 98.6628 190.586 98.6782 190.543 98.6782Z" fill="black"/>
<path d="M193.436 98.3788C193.385 98.3788 193.334 98.3587 193.296 98.3172C190.344 95.121 187.611 91.6728 185.174 88.0684C185.114 87.9808 185.137 87.8625 185.224 87.8045C185.312 87.7453 185.429 87.7678 185.488 87.8554C187.915 91.4444 190.636 94.8773 193.575 98.0593C193.646 98.1362 193.642 98.2569 193.565 98.3279C193.528 98.3622 193.482 98.3788 193.436 98.3788Z" fill="black"/>
<path d="M195.862 97.8038C195.811 97.8038 195.76 97.7837 195.722 97.7435C193.091 94.9082 190.58 91.8978 188.257 88.7986C188.194 88.7146 188.211 88.5951 188.295 88.5324C188.379 88.4696 188.497 88.4862 188.561 88.5702C190.874 91.6599 193.378 94.6585 196 97.4843C196.073 97.5612 196.068 97.6819 195.991 97.7529C195.954 97.786 195.908 97.8038 195.862 97.8038Z" fill="black"/>
<path d="M198.385 97.1067C198.335 97.1067 198.285 97.0877 198.247 97.0487C195.844 94.5519 193.488 91.9426 191.248 89.2955C191.181 89.215 191.19 89.0955 191.27 89.028C191.351 88.9606 191.472 88.97 191.539 89.0505C193.774 91.6917 196.123 94.2939 198.522 96.7848C198.594 96.8605 198.593 96.9812 198.517 97.0534C198.479 97.0889 198.432 97.1067 198.385 97.1067Z" fill="black"/>
<path d="M200.836 96.167C200.789 96.167 200.743 96.1493 200.705 96.1149C198.852 94.3612 197.04 92.5164 195.319 90.6314C195.248 90.5533 195.254 90.4337 195.331 90.3627C195.409 90.2917 195.529 90.2977 195.6 90.3746C197.313 92.2525 199.119 94.0914 200.965 95.838C201.041 95.9102 201.044 96.0309 200.972 96.1067C200.937 96.1469 200.887 96.167 200.836 96.167Z" fill="black"/>
<path d="M203.192 95.3385C203.146 95.3385 203.101 95.3219 203.065 95.29C201.567 93.9351 200.105 92.5032 198.722 91.0312C198.65 90.9543 198.653 90.8347 198.73 90.7626C198.807 90.6904 198.926 90.6939 198.999 90.7708C200.375 92.2346 201.829 93.6605 203.319 95.0072C203.397 95.0782 203.403 95.1977 203.333 95.2758C203.297 95.3172 203.244 95.3385 203.192 95.3385Z" fill="black"/>
<path d="M205.074 94.1151C205.026 94.1151 204.979 94.0974 204.942 94.063L201.44 90.7189C201.364 90.6468 201.361 90.5261 201.434 90.4503C201.506 90.3746 201.627 90.3722 201.702 90.4444L205.206 93.7885C205.282 93.8607 205.286 93.9814 205.212 94.0571C205.174 94.095 205.125 94.1151 205.074 94.1151Z" fill="black"/>
<path d="M207.482 93.2643C207.435 93.2643 207.389 93.2466 207.351 93.2123L204.106 90.1462C204.03 90.074 204.027 89.9534 204.099 89.8776C204.171 89.8019 204.292 89.7983 204.367 89.8693L207.612 92.9354C207.688 93.0075 207.691 93.1282 207.619 93.204C207.583 93.2442 207.533 93.2643 207.482 93.2643Z" fill="black"/>
<path d="M209.154 92.1071C209.112 92.1071 209.071 92.094 209.035 92.0656C208.1 91.3249 207.213 90.5084 206.398 89.6398C206.325 89.5629 206.329 89.4434 206.406 89.3712C206.483 89.299 206.602 89.3026 206.674 89.3795C207.478 90.235 208.351 91.0385 209.271 91.7686C209.354 91.8337 209.367 91.9532 209.301 92.0361C209.265 92.0822 209.21 92.1071 209.154 92.1071Z" fill="black"/>
<path d="M210.769 90.9365C210.722 90.9365 210.674 90.9188 210.638 90.8833L208.379 88.7201C208.303 88.648 208.301 88.5273 208.373 88.4515C208.446 88.3758 208.566 88.3734 208.641 88.4456L210.9 90.6088C210.976 90.6821 210.979 90.8016 210.906 90.8774C210.869 90.9164 210.819 90.9365 210.769 90.9365Z" fill="black"/>
<path d="M212.571 89.7736C212.525 89.7736 212.48 89.757 212.443 89.7239C211.709 89.0577 210.928 88.427 210.121 87.8507C210.035 87.7891 210.015 87.6708 210.077 87.5856C210.137 87.5004 210.257 87.4803 210.342 87.5418C211.161 88.1276 211.955 88.7666 212.699 89.4434C212.777 89.5144 212.783 89.634 212.712 89.7121C212.674 89.7523 212.623 89.7736 212.571 89.7736Z" fill="black"/>
<path d="M214.168 88.3808C214.13 88.3808 214.093 88.3702 214.06 88.3477C213.305 87.827 212.581 87.246 211.91 86.6224C211.833 86.5502 211.829 86.4307 211.9 86.3538C211.973 86.2768 212.092 86.2733 212.169 86.3443C212.827 86.9561 213.536 87.5253 214.277 88.0353C214.363 88.0945 214.384 88.214 214.325 88.2992C214.287 88.3524 214.228 88.3808 214.168 88.3808Z" fill="black"/>
<path d="M215.794 86.7002C215.755 86.7002 215.714 86.6884 215.68 86.6624L213.791 85.2613C213.707 85.1986 213.69 85.0803 213.752 84.9951C213.815 84.911 213.935 84.8933 214.019 84.956L215.907 86.3571C215.991 86.4198 216.009 86.5393 215.946 86.6233C215.91 86.673 215.852 86.7002 215.794 86.7002Z" fill="black"/>
<path d="M217.236 84.9453C217.195 84.9453 217.155 84.9323 217.119 84.9051L215.835 83.9052C215.752 83.8413 215.737 83.7217 215.802 83.6377C215.867 83.5549 215.987 83.5395 216.068 83.6046L217.353 84.6045C217.436 84.6684 217.452 84.7891 217.387 84.8719C217.349 84.9193 217.292 84.9453 217.236 84.9453Z" fill="black"/>
<path d="M218.801 83.7467C218.758 83.7467 218.714 83.7313 218.677 83.7006L217.338 82.5456C217.258 82.477 217.249 82.3575 217.317 82.277C217.386 82.1977 217.507 82.1895 217.586 82.2569L218.926 83.4118C219.005 83.4805 219.014 83.6012 218.946 83.6805C218.908 83.7242 218.855 83.7467 218.801 83.7467Z" fill="black"/>
<path d="M220.023 82.1609C219.989 82.1609 219.956 82.1526 219.925 82.1337C219.469 81.8568 219.017 81.5597 218.582 81.2497C218.497 81.1894 218.476 81.0698 218.537 80.9846C218.598 80.8983 218.717 80.8793 218.802 80.9397C219.231 81.2438 219.676 81.5361 220.124 81.8094C220.214 81.8639 220.242 81.981 220.188 82.0709C220.15 82.1289 220.087 82.1609 220.023 82.1609Z" fill="black"/>
<path d="M221.294 80.5929C221.26 80.5929 221.225 80.5834 221.193 80.5633L219.792 79.677C219.703 79.6214 219.677 79.5031 219.732 79.4143C219.789 79.3256 219.907 79.2995 219.995 79.3551L221.396 80.2415C221.485 80.2971 221.511 80.4154 221.455 80.5042C221.419 80.5621 221.357 80.5929 221.294 80.5929Z" fill="black"/>
<path d="M222.412 78.9022C222.382 78.9022 222.351 78.8951 222.324 78.8809L221.075 78.23C220.982 78.1815 220.946 78.0667 220.994 77.9732C221.043 77.8798 221.159 77.8443 221.251 77.8928L222.5 78.5436C222.593 78.5921 222.629 78.7069 222.581 78.8004C222.547 78.8643 222.48 78.9022 222.412 78.9022Z" fill="black"/>
<path d="M224.412 75.3024C224.381 75.3024 224.347 75.2941 224.318 75.2775C223.379 74.7391 222.477 74.1202 221.635 73.441C221.554 73.3747 221.541 73.2552 221.607 73.1735C221.673 73.0919 221.793 73.0789 221.874 73.1451C222.699 73.8125 223.585 74.4196 224.507 74.9485C224.598 75.0006 224.63 75.1166 224.577 75.2077C224.541 75.2692 224.478 75.3024 224.412 75.3024Z" fill="black"/>
<path d="M225.738 73.9762C225.711 73.9762 225.683 73.9703 225.657 73.9573C224.985 73.6389 224.324 73.278 223.695 72.8852C223.606 72.8295 223.579 72.7124 223.634 72.6236C223.69 72.5349 223.808 72.5077 223.896 72.5633C224.512 72.9491 225.16 73.3029 225.819 73.6141C225.913 73.6591 225.955 73.7727 225.91 73.8673C225.878 73.936 225.809 73.9762 225.738 73.9762Z" fill="black"/>
<path d="M289.673 104.323C289.66 104.323 289.647 104.321 289.633 104.319C289.53 104.298 289.465 104.196 289.486 104.093L290.394 99.807C290.415 99.7041 290.52 99.639 290.62 99.6603C290.723 99.6816 290.788 99.7834 290.767 99.8863L289.859 104.172C289.84 104.261 289.762 104.323 289.673 104.323Z" fill="black"/>
<path d="M292.076 109.634C292.068 109.634 292.061 109.634 292.053 109.632C291.949 109.619 291.875 109.525 291.888 109.419C292.345 105.79 293.009 102.145 293.86 98.5871C293.883 98.4853 293.985 98.4214 294.089 98.4463C294.191 98.4711 294.255 98.5729 294.23 98.6759C293.383 102.221 292.721 105.853 292.267 109.468C292.253 109.564 292.171 109.634 292.076 109.634Z" fill="black"/>
<path d="M294.536 114.299C294.529 114.299 294.522 114.299 294.515 114.298C294.411 114.286 294.335 114.192 294.347 114.088C294.98 108.533 295.763 102.924 296.677 97.4168C296.694 97.3126 296.789 97.2428 296.896 97.2606C297 97.2771 297.07 97.3754 297.052 97.4795C296.14 102.98 295.356 108.583 294.724 114.131C294.715 114.227 294.632 114.299 294.536 114.299Z" fill="black"/>
<path d="M297.212 119.373C297.206 119.373 297.201 119.373 297.195 119.372C297.091 119.363 297.013 119.271 297.022 119.166C297.594 112.492 298.293 105.733 299.099 99.0766C299.112 98.9725 299.208 98.9003 299.311 98.911C299.415 98.924 299.49 99.0186 299.477 99.1228C298.671 105.774 297.972 112.529 297.401 119.198C297.391 119.299 297.309 119.373 297.212 119.373Z" fill="black"/>
<path d="M299.802 122.934C299.796 122.934 299.789 122.934 299.783 122.933C299.679 122.922 299.602 122.83 299.612 122.725L301.294 105.557C301.305 105.452 301.402 105.377 301.502 105.387C301.606 105.397 301.683 105.489 301.673 105.595L299.991 122.763C299.982 122.861 299.899 122.934 299.802 122.934Z" fill="black"/>
<path d="M302.171 127.919C302.164 127.919 302.157 127.919 302.15 127.918C302.046 127.906 301.97 127.813 301.982 127.709L303.868 110.623C303.88 110.518 303.972 110.443 304.077 110.455C304.182 110.466 304.257 110.56 304.245 110.664L302.359 127.751C302.349 127.847 302.267 127.919 302.171 127.919Z" fill="black"/>
<path d="M304.925 132.229C304.917 132.229 304.909 132.229 304.902 132.228C304.797 132.215 304.723 132.12 304.736 132.016C305.421 126.482 305.98 120.859 306.395 115.303C306.403 115.197 306.497 115.121 306.598 115.128C306.704 115.136 306.782 115.227 306.774 115.331C306.357 120.893 305.799 126.522 305.112 132.062C305.102 132.158 305.02 132.229 304.925 132.229Z" fill="black"/>
<path d="M307.905 136.619C307.9 136.619 307.895 136.619 307.891 136.619C307.785 136.611 307.707 136.52 307.715 136.416L308.911 120.235C308.919 120.129 309.008 120.05 309.114 120.06C309.219 120.068 309.298 120.159 309.289 120.263L308.094 136.444C308.087 136.543 308.003 136.619 307.905 136.619Z" fill="black"/>
<path d="M310.951 140.825H310.948C310.842 140.823 310.759 140.736 310.762 140.631C310.877 135.279 311.132 129.863 311.524 124.533C311.532 124.427 311.629 124.347 311.727 124.358C311.833 124.366 311.911 124.456 311.904 124.561C311.513 129.885 311.256 135.294 311.143 140.639C311.139 140.743 311.054 140.825 310.951 140.825Z" fill="black"/>
<path d="M313.764 144.534C313.76 144.534 313.757 144.534 313.754 144.534C313.649 144.528 313.569 144.439 313.575 144.334L314.389 128.962C314.393 128.857 314.486 128.78 314.589 128.782C314.694 128.788 314.774 128.877 314.768 128.982L313.954 144.354C313.948 144.456 313.864 144.534 313.764 144.534Z" fill="black"/>
<path d="M316.17 147.394C316.166 147.394 316.16 147.394 316.155 147.393C316.05 147.384 315.973 147.292 315.981 147.188L317.124 132.862C317.132 132.757 317.225 132.681 317.329 132.687C317.434 132.696 317.511 132.788 317.503 132.892L316.36 147.218C316.351 147.318 316.267 147.394 316.17 147.394Z" fill="black"/>
<path d="M319.015 150.926C319.011 150.926 319.006 150.926 319 150.926C318.895 150.918 318.817 150.826 318.825 150.721C319.18 146.032 319.435 141.269 319.583 136.565C319.587 136.46 319.673 136.376 319.78 136.38C319.885 136.384 319.967 136.471 319.964 136.577C319.815 141.286 319.561 146.055 319.205 150.75C319.198 150.85 319.114 150.926 319.015 150.926Z" fill="black"/>
<path d="M321.83 154.061C321.826 154.061 321.821 154.061 321.817 154.061C321.713 154.054 321.634 153.963 321.641 153.859L322.611 139.761C322.619 139.656 322.71 139.575 322.814 139.585C322.919 139.592 322.997 139.683 322.991 139.788L322.021 153.885C322.013 153.984 321.93 154.061 321.83 154.061Z" fill="black"/>
<path d="M324.363 156.683C324.353 156.683 324.345 156.682 324.336 156.68C324.232 156.666 324.159 156.569 324.174 156.465C324.781 152.207 325.219 147.872 325.478 143.577C325.484 143.472 325.56 143.387 325.679 143.399C325.784 143.404 325.863 143.494 325.858 143.6C325.598 147.905 325.159 152.251 324.551 156.518C324.537 156.614 324.455 156.683 324.363 156.683Z" fill="black"/>
<path d="M327.817 160.77C327.813 160.77 327.811 160.77 327.807 160.77C327.702 160.766 327.621 160.676 327.627 160.572L328.292 147.003C328.297 146.898 328.386 146.809 328.491 146.822C328.596 146.827 328.677 146.917 328.672 147.021L328.007 160.589C328.001 160.692 327.917 160.77 327.817 160.77Z" fill="black"/>
<path d="M331.374 163.646C331.268 163.646 331.184 163.56 331.183 163.456L331.141 150.109C331.141 150.004 331.226 149.919 331.33 149.919H331.331C331.436 149.919 331.52 150.004 331.522 150.108L331.564 163.455C331.564 163.559 331.479 163.644 331.374 163.646Z" fill="black"/>
<path d="M334.545 165.658C334.442 165.658 334.357 165.576 334.355 165.473L334.08 153.328C334.078 153.223 334.162 153.136 334.266 153.133C334.376 153.142 334.459 153.213 334.461 153.319L334.736 165.463C334.738 165.568 334.654 165.655 334.55 165.657L334.545 165.658Z" fill="black"/>
<path d="M337.505 163.164C337.409 163.164 337.326 163.092 337.317 162.994C337.084 160.817 337.043 158.606 337.196 156.42C337.203 156.315 337.288 156.235 337.4 156.244C337.505 156.251 337.583 156.342 337.576 156.447C337.424 158.61 337.466 160.8 337.695 162.953C337.706 163.057 337.632 163.151 337.526 163.163C337.519 163.164 337.512 163.164 337.505 163.164Z" fill="black"/>
<path d="M145.454 218.743C145.436 218.743 145.418 218.741 145.4 218.735C145.3 218.705 145.242 218.6 145.271 218.499L146.38 214.71C146.41 214.61 146.514 214.552 146.616 214.581C146.716 214.611 146.774 214.716 146.745 214.817L145.636 218.606C145.611 218.689 145.535 218.743 145.454 218.743Z" fill="black"/>
<path d="M147.076 223.273C147.064 223.273 147.052 223.272 147.039 223.269C146.936 223.249 146.869 223.15 146.888 223.047C147.529 219.693 148.32 216.329 149.239 213.048C149.268 212.947 149.372 212.887 149.474 212.916C149.574 212.945 149.633 213.05 149.605 213.151C148.689 216.422 147.9 219.775 147.262 223.118C147.245 223.209 147.166 223.273 147.076 223.273Z" fill="black"/>
<path d="M149.073 228.844C149.064 228.844 149.056 228.844 149.048 228.843C148.944 228.829 148.87 228.734 148.885 228.63C149.372 224.921 150.024 221.188 150.822 217.535C150.844 217.432 150.945 217.368 151.048 217.389C151.151 217.412 151.216 217.514 151.193 217.615C150.397 221.259 149.747 224.982 149.262 228.68C149.248 228.774 149.166 228.844 149.073 228.844Z" fill="black"/>
<path d="M151.356 233.594C151.349 233.594 151.342 233.594 151.336 233.593C151.232 233.582 151.156 233.487 151.167 233.383C151.556 229.731 152.037 226.043 152.596 222.422C152.613 222.318 152.711 222.249 152.813 222.263C152.917 222.28 152.988 222.377 152.972 222.48C152.413 226.096 151.933 229.779 151.544 233.423C151.535 233.52 151.452 233.594 151.356 233.594Z" fill="black"/>
<path d="M153.554 238.442C153.548 238.442 153.541 238.442 153.535 238.441C153.431 238.43 153.354 238.337 153.364 238.233L154.505 226.592C154.516 226.488 154.61 226.415 154.713 226.422C154.817 226.433 154.894 226.526 154.884 226.63L153.743 238.271C153.733 238.369 153.651 238.442 153.554 238.442Z" fill="black"/>
<path d="M156.081 242.74C156.074 242.74 156.068 242.74 156.061 242.739C155.957 242.728 155.881 242.634 155.892 242.529L157.061 231.446C157.071 231.341 157.161 231.264 157.27 231.277C157.374 231.287 157.45 231.381 157.439 231.486L156.27 242.569C156.26 242.668 156.177 242.74 156.081 242.74Z" fill="black"/>
<path d="M159.148 246.871C159.143 246.871 159.139 246.871 159.133 246.871C159.029 246.863 158.949 246.771 158.958 246.666L159.759 236.139C159.767 236.034 159.871 235.957 159.963 235.964C160.069 235.972 160.147 236.063 160.139 236.169L159.337 246.696C159.329 246.795 159.246 246.871 159.148 246.871Z" fill="black"/>
<path d="M162.353 250.883C162.248 250.881 162.163 250.796 162.164 250.691C162.198 247.243 162.321 243.746 162.53 240.296C162.536 240.191 162.616 240.105 162.731 240.118C162.836 240.124 162.915 240.215 162.91 240.319C162.701 243.761 162.579 247.252 162.545 250.694C162.543 250.799 162.458 250.883 162.353 250.883Z" fill="black"/>
<path d="M165.898 254.151C165.798 254.151 165.713 254.072 165.709 253.969C165.557 250.659 165.492 247.301 165.514 243.987C165.515 243.882 165.599 243.798 165.704 243.798C165.81 243.799 165.895 243.884 165.895 243.99C165.873 247.297 165.94 250.648 166.09 253.952C166.095 254.057 166.014 254.146 165.909 254.151C165.903 254.151 165.901 254.151 165.898 254.151Z" fill="black"/>
<path d="M169.352 257.607C169.256 257.607 169.173 257.535 169.163 257.438C168.823 254.277 168.659 251.062 168.671 247.881C168.671 247.776 168.756 247.692 168.861 247.692C168.949 247.698 169.052 247.777 169.052 247.883C169.039 251.049 169.204 254.25 169.541 257.397C169.552 257.502 169.478 257.596 169.372 257.606C169.366 257.607 169.359 257.607 169.352 257.607Z" fill="black"/>
<path d="M172.936 260.225C172.843 260.225 172.762 260.156 172.748 260.063C172.337 257.236 172.022 254.354 171.809 251.498C171.801 251.392 171.88 251.301 171.984 251.294C172.087 251.286 172.181 251.365 172.188 251.47C172.4 254.317 172.714 257.191 173.124 260.008C173.139 260.112 173.067 260.208 172.963 260.224C172.953 260.225 172.945 260.225 172.936 260.225Z" fill="black"/>
<path d="M176.75 262.956C176.662 262.956 176.584 262.896 176.564 262.807C175.916 259.875 175.397 256.878 175.017 253.903C175.004 253.799 175.077 253.703 175.182 253.69C175.283 253.675 175.382 253.751 175.395 253.855C175.772 256.819 176.29 259.804 176.934 262.724C176.957 262.827 176.892 262.928 176.79 262.95C176.776 262.955 176.763 262.956 176.75 262.956Z" fill="black"/>
<path d="M180.277 264.849C180.191 264.849 180.113 264.79 180.093 264.704C179.455 262.023 178.882 259.29 178.39 256.577C178.371 256.474 178.44 256.374 178.544 256.355C178.642 256.339 178.746 256.405 178.765 256.509C179.256 259.214 179.828 261.942 180.464 264.615C180.489 264.718 180.425 264.82 180.323 264.845C180.307 264.848 180.291 264.849 180.277 264.849Z" fill="black"/>
<path d="M183.357 264.932C183.271 264.932 183.193 264.873 183.171 264.784L181.794 258.799C181.77 258.696 181.834 258.594 181.936 258.571C182.041 258.547 182.141 258.611 182.164 258.713L183.542 264.698C183.565 264.801 183.502 264.903 183.399 264.926C183.386 264.931 183.371 264.932 183.357 264.932Z" fill="black"/>
<path d="M186.399 263.987C186.395 263.987 186.392 263.987 186.388 263.987C186.338 263.983 186.212 263.957 186.155 263.776L185.272 260.93C185.241 260.83 185.297 260.723 185.398 260.692C185.499 260.66 185.605 260.717 185.635 260.818L186.486 263.563C186.515 263.573 186.541 263.589 186.561 263.609C186.624 263.674 186.639 263.775 186.599 263.861C186.567 263.929 186.476 263.987 186.399 263.987Z" fill="black"/>
<g opacity="0.1294">
<path d="M233.718 54.8557C233.056 54.2593 232.082 54.27 231.261 54.0357C230.433 53.8357 229.636 53.5174 228.847 53.1967C228.414 53.0133 227.994 52.8003 227.589 52.5612C227.542 52.5281 227.497 52.4926 227.45 52.4606C227.237 52.3127 226.992 52.153 226.731 52.108C226.431 51.8145 226.115 51.5424 225.759 51.3306C224.698 50.8288 223.72 52.2938 224.563 53.1032C226.31 54.7895 228.026 56.5112 229.762 58.2105C230.575 58.9453 231.195 59.989 232.202 60.4636C232.7 60.6091 233.298 60.3298 233.469 59.834C233.63 59.4305 233.58 58.9631 233.596 58.5347C233.625 57.5466 233.593 57.8401 233.848 56.697C234.058 56.0911 234.229 55.3634 233.718 54.8557Z" fill="black"/>
</g>
<g opacity="0.1294">
<path d="M222.725 80.7861C221.356 82.4144 220.033 84.0794 218.547 85.6106C217.85 86.3277 217.124 87.0247 216.388 87.711C216.283 87.827 216.176 87.9441 216.064 88.0636C215.309 88.8979 214.55 89.731 213.772 90.5451C213.642 90.4682 213.494 90.4197 213.334 90.409C212.838 90.8232 212.341 91.235 211.839 91.6361C211.607 91.8219 211.331 91.7699 211.147 91.6219C211.145 91.6243 211.141 91.6255 211.139 91.6279C207.822 94.204 204 96.1624 200.2 97.87C200.142 97.896 200.086 97.9078 200.032 97.9137C199.911 97.9942 199.789 98.0747 199.671 98.1599C199.12 98.7267 199.066 99.5775 198.948 100.321C198.795 101.22 198.759 102.451 199.769 102.845C200.588 103.235 201.289 102.558 201.962 102.178C203.208 101.485 204.394 100.697 205.551 99.8639C208.853 97.7836 210.868 96.657 213.649 93.9851C215.783 91.9616 217.747 89.7594 219.659 87.5264C220.154 86.9206 220.604 86.2839 221.035 85.6319C221.423 84.7929 221.8 83.9433 222.094 83.0676C222.346 82.3221 222.537 81.5577 222.74 80.798C222.736 80.792 222.73 80.7897 222.725 80.7861Z" fill="black"/>
</g>
<g opacity="0.1294">
<path d="M235.707 159.568C235.002 158.898 233.946 159.061 233.055 158.924C230.516 158.584 227.95 158.492 225.389 158.562C224.282 158.596 223.175 158.597 222.068 158.602C221.578 158.645 221.041 158.505 220.583 158.715C220.417 158.777 220.282 158.867 220.173 158.973C218.467 158.891 216.76 158.819 215.054 158.725C211.489 158.473 207.694 158.203 205.003 157.683C203.597 157.315 202.993 159.416 204.409 159.838C206.191 160.258 208.03 160.39 209.841 160.637C212.025 160.94 215.145 161.292 218.195 161.506C221.514 161.746 224.819 162.165 228.142 162.359C230.379 162.489 232.641 162.414 234.849 162.009C236.003 161.872 236.562 160.389 235.707 159.568Z" fill="black"/>
</g>
<g opacity="0.1294">
<path d="M251.033 219.593C251.053 219.628 251.063 219.665 251.078 219.701C251.131 219.825 251.157 219.886 251.033 219.593Z" fill="black"/>
</g>
<g opacity="0.1294">
<path d="M253.395 175.238C252.972 174.467 251.71 174.618 251.5 175.486C250.321 179.636 250.033 183.975 249.201 188.198C248.772 190.368 248.206 192.51 247.814 194.689C247.311 197.761 246.735 200.826 245.79 203.798C245.344 205.234 244.973 206.345 244.618 207.016C244.58 207.085 244.533 207.149 244.489 207.216C244.477 207.219 244.466 207.223 244.454 207.225C244.141 207.244 243.827 207.226 243.514 207.232C242.001 207.156 241.29 208.572 241.838 209.884C242.545 212.189 245.338 215.544 246.011 216.437C247.539 218.337 249.213 221.47 249.261 222.019C249.432 222.58 249.562 223.152 249.69 223.724C249.717 224.017 249.832 224.297 250.043 224.505C250.784 225.292 252.228 224.675 252.154 223.586C251.973 222.329 251.626 221.102 251.155 219.921C251.138 219.845 251.111 219.771 251.079 219.7C251.06 219.656 251.039 219.605 251.018 219.558C250.849 219.146 250.255 217.761 250.517 218.374C249.962 217.102 249.234 215.304 248.494 213.315C248.01 212.047 247.545 210.773 247.031 209.517C246.858 209.187 246.757 208.788 246.577 208.453C247.95 205.801 248.595 202.809 249.286 199.919C249.936 196.309 250.587 192.703 251.404 189.125C251.893 186.299 252.492 181.177 252.591 180.646C252.772 179.352 252.996 178.062 253.295 176.79C253.405 176.281 253.705 175.734 253.395 175.238Z" fill="black"/>
</g>
<g opacity="0.1294">
<path d="M351.005 148.577C350.603 148.235 350.25 148.209 349.932 148.35C349.615 148.285 349.272 148.356 349.001 148.637C347.438 150.296 345.944 151.999 344.497 153.723C343.613 153.53 343.117 154.321 342.629 155.064C342.093 155.839 341.555 156.613 340.973 157.355C340.717 157.686 340.457 158.013 340.192 158.337C336.018 162.058 331.586 165.495 327.349 169.142C319.601 175.423 311.822 181.707 304.287 187.556C303.982 187.767 303.677 187.977 303.373 188.188C298.295 191.634 293.104 194.908 288.041 198.38C277.55 205.629 267.237 213.141 256.464 219.976C251.645 223.087 246.752 226.078 241.908 229.148C238.701 231.146 235.369 232.929 232.113 234.843C227.19 237.833 222.353 240.959 217.361 243.834C212.99 246.585 208.458 249.058 203.895 251.472C199.825 253.805 195.798 256.217 191.829 258.721C190.655 259.439 189.487 260.169 188.304 260.872C187.811 261.183 187.191 261.402 186.942 261.943C186.113 262.332 185.324 262.679 184.588 262.961C183.91 263.131 183.467 263.903 183.671 264.575C183.853 265.25 184.608 265.692 185.285 265.491C185.628 265.362 185.969 265.228 186.309 265.09C185.039 265.797 185.719 267.954 187.342 267.559C197.108 265.32 206.822 262.808 216.684 261.002C219.235 260.573 220.269 260.439 222.306 260.217C223.794 260.142 224.742 260.037 225.385 258.957C225.513 257.269 225.686 255.584 225.882 253.913C226.213 251.088 226.622 248.272 227.098 245.467C227.122 245.266 227.147 245.065 227.172 244.864C226.972 244.651 226.709 244.51 226.426 244.459C227.54 243.753 228.644 243.03 229.73 242.278C230.49 241.667 231.48 241.268 231.83 240.625C233.783 239.622 235.738 238.625 237.703 237.648C240.542 236.256 243.189 234.524 245.892 232.892C251.052 229.884 255.935 226.45 260.849 223.062C265.089 220.137 269.425 217.355 273.737 214.537C277.699 211.887 281.973 209.746 285.943 207.11C289.817 204.504 293.638 201.821 297.534 199.245C300.788 197.026 304.149 194.963 307.354 192.672C308.456 191.884 309.508 191.034 310.541 190.159C312.233 189.008 313.885 187.796 315.542 186.595C317.773 184.971 320.009 183.349 322.096 181.542C327.258 177.088 332.364 172.532 336.865 167.397C337.218 166.935 337.715 166.554 337.975 166.034C338.106 165.774 338.096 165.479 337.993 165.216C339.075 163.842 340.135 162.484 341.223 161.101C341.64 160.614 342.049 160.118 342.451 159.618C343.963 158.202 345.43 156.737 346.811 155.189C348.191 153.676 349.481 152.083 350.708 150.443C350.795 150.328 351.005 150.047 351.055 149.977C351.216 149.79 351.308 149.554 351.308 149.307C351.313 149.031 351.192 148.771 351.005 148.577ZM190.34 264.097C189.106 264.393 187.871 264.68 186.632 264.953C187.83 264.452 189.004 263.897 190.17 263.32C190.242 263.517 190.364 263.694 190.521 263.832C190.447 263.913 190.388 264.002 190.34 264.097ZM222.703 246.857C221.94 247.38 218.114 250.086 216.217 251.176C213.603 252.63 210.961 253.944 208.294 255.218C210.404 254.036 212.492 252.819 214.544 251.537C217.467 249.796 220.427 248.115 223.342 246.362C223.14 246.527 222.929 246.692 222.703 246.857Z" fill="black"/>
</g>
<g opacity="0.1294">
<path d="M204.226 225.461C204.2 225.473 204.174 225.486 204.146 225.496C204.537 225.337 204.433 225.374 204.226 225.461Z" fill="black"/>
</g>
<g opacity="0.1294">
<path d="M211.868 209.638C211.416 209.759 211.078 210.202 211.082 210.67C211.098 210.974 211.121 211.28 211.093 211.584C211.088 211.651 211.08 211.717 211.072 211.785C210.86 213.332 210.057 216.033 209.813 216.399C206.468 223.219 200.506 224.804 193.647 222.975C193.019 222.802 192.354 222.376 191.725 222.785C190.889 223.254 190.878 224.56 191.725 225.026C194.132 226.058 196.815 226.372 199.415 226.432C200.979 226.393 202.55 226.141 204.007 225.555C204.082 225.522 204.159 225.489 204.225 225.461C207.232 224.16 209.618 221.683 211.287 218.905C212.337 217.227 212.771 215.262 213.071 213.329C213.202 212.133 213.875 209.353 211.868 209.638Z" fill="black"/>
</g>
<g opacity="0.1294">
<path d="M280.83 167.471C280.764 165.783 278.301 165.905 278.383 167.6C278.368 168.375 278.093 169.785 277.621 171.317C277.609 171.351 277.595 171.386 277.582 171.419C277.24 172.176 276.858 172.913 276.477 173.651C275.068 176.305 274.282 177.155 271.807 179.164C271.559 179.35 271.269 179.619 270.237 180.244C269.038 180.945 267.147 181.893 266.979 181.919C267.861 181.572 265.953 182.293 265.558 182.361C264.404 182.697 262.678 183.029 262.596 182.982C261.561 183.05 260.524 182.998 259.497 182.861C258.971 182.79 258.417 182.591 257.934 182.898C256.986 183.411 257.181 184.957 258.235 185.21C260 185.509 261.802 185.773 263.595 185.667C263.636 185.664 263.676 185.658 263.718 185.653C263.893 185.995 264.227 186.252 264.688 186.241C266.647 186.296 268.651 186.044 270.485 185.334C271.683 184.828 272.756 184.072 273.835 183.356C275.32 182.425 276.61 181.246 277.558 179.763C277.885 179.19 278.57 178.649 278.383 177.927C278.318 177.66 278.146 177.463 277.93 177.344C278.931 175.822 279.696 174.141 280.234 172.402C280.424 171.781 280.509 171.134 280.592 170.491C280.535 170.924 280.551 170.806 280.602 170.451C280.73 169.465 280.892 168.47 280.83 167.471Z" fill="black"/>
</g>
<g opacity="0.1294">
<path d="M168.263 258.331C167.959 258.235 167.671 258.297 167.394 258.409C166.93 258.44 166.512 258.735 166.092 258.943C165.197 259.424 164.306 259.915 163.452 260.47C160.231 262.596 157.348 265.172 154.618 267.889C152.46 270.098 151.295 271.105 149.801 273.351C149.471 273.921 149.436 274.69 149.822 275.205C149.934 275.44 150.088 275.658 150.302 275.808C150.438 275.904 150.73 276.109 150.84 276.182C150.846 276.187 150.852 276.191 150.857 276.196C150.981 276.297 151.159 276.497 151.246 276.596C151.794 277.346 151.928 278.397 152.755 278.915C153.523 279.333 154.568 279.007 155.039 278.289C155.135 278.143 155.19 277.974 155.254 277.81C155.294 277.721 155.363 277.571 155.423 277.448C156.016 276.105 156.751 274.835 157.48 273.562C160.206 269.027 162.28 266.064 166.265 262.62C167.283 261.686 168.633 260.711 168.929 260.352C169.512 259.682 169.112 258.544 168.263 258.331Z" fill="black"/>
</g>
<path d="M46.0817 100.24C66.5475 102.539 87.205 102.376 107.791 101.82C112.758 101.686 118.134 101.381 121.95 98.1763C127.446 93.5636 126.794 83.6591 120.964 79.4867C115.135 75.3142 105.98 77.585 102.368 83.8035C102.823 76.139 96.6314 68.6769 89.0581 67.761C81.4847 66.8451 73.7067 72.6186 72.3387 80.1718C71.9565 74.9935 64.6695 72.6671 60.374 75.545C56.0785 78.4228 54.746 84.304 55.4028 89.4551C53.5355 84.5087 45.7941 83.8437 42.4228 87.9061C39.0515 91.9697 40.062 99.5632 46.0817 100.24Z" fill="#8E24AA"/>
<path d="M69.0257 102.454C61.2074 102.171 53.6163 101.647 46.0193 100.794C43.4597 100.506 41.5202 99.0331 40.5582 96.6475C39.3808 93.727 39.9713 89.9865 41.9936 87.55C43.8005 85.3727 46.979 84.3029 50.0912 84.8236C51.9715 85.1384 53.5773 85.9987 54.6896 87.2364C54.6281 82.8048 55.9936 77.8088 60.0643 75.0812C62.4937 73.4529 66.0496 73.2967 68.9121 74.6919C70.5049 75.4681 71.6847 76.6231 72.3355 77.9993C74.6714 71.2401 82.0176 66.3434 89.1259 67.2073C96.3478 68.0806 102.399 74.7723 102.914 82.0226C104.857 79.5885 107.724 77.8431 111.019 77.1355C114.743 76.3343 118.487 77.0266 121.289 79.0335C124.254 81.1564 126.117 84.8437 126.273 88.899C126.425 92.8253 124.979 96.3623 122.308 98.6047C118.464 101.832 113.255 102.23 107.806 102.377C93.7788 102.756 81.1324 102.893 69.0257 102.454ZM46.1435 99.6863C65.4402 101.855 84.7381 101.885 107.776 101.263C113.021 101.121 118.023 100.745 121.592 97.7504C123.998 95.7316 125.298 92.5212 125.16 88.9416C125.016 85.2283 123.328 81.8641 120.641 79.9412C118.094 78.1176 114.672 77.4916 111.253 78.2265C107.623 79.0063 104.56 81.1411 102.851 84.084C102.721 84.3065 102.456 84.4118 102.209 84.3373C101.962 84.2627 101.798 84.0284 101.814 83.7704C102.25 76.416 96.259 69.1929 88.9934 68.3149C81.7312 67.438 74.2028 73.0234 72.8893 80.2713C72.8396 80.547 72.603 80.7375 72.3119 80.7281C72.0314 80.7127 71.8054 80.4926 71.7853 80.2121C71.6445 78.3129 70.4197 76.6657 68.4246 75.693C65.9076 74.4659 62.7978 74.5925 60.6867 76.0066C56.312 78.9377 55.4055 85.0449 55.9581 89.383C55.9936 89.6635 55.8138 89.9262 55.5392 89.9948C55.2611 90.0634 54.9819 89.9155 54.8825 89.6504C54.1405 87.6861 52.3277 86.3276 49.9077 85.9229C47.1813 85.4662 44.4111 86.3844 42.8527 88.2612C41.0812 90.3959 40.5629 93.6726 41.5936 96.2298C42.3935 98.2202 44.01 99.4461 46.1435 99.6863Z" fill="black"/>
<g opacity="0.1294">
<path d="M123.352 95.7669C123.327 95.1528 122.766 94.6664 122.165 94.6392C121.705 94.6061 121.349 94.9102 120.964 95.1114C120.504 95.367 120.033 95.6072 119.545 95.8048C117.793 96.4154 116.026 97.0816 114.166 97.2532C113.991 97.2686 113.817 97.2828 113.642 97.3017C114.402 97.2295 113.719 97.2852 113.319 97.2816C104.844 97.0509 96.3815 97.665 87.9064 97.6686C84.0381 97.6709 80.1721 97.8224 76.3038 97.8165C69.8771 97.7313 63.4504 97.678 57.0237 97.6023C55.4025 97.5218 53.7766 97.4567 52.1614 97.2863C49.4906 96.9503 46.8352 96.4426 44.1466 96.2758C42.1267 96.2403 41.9539 99.2578 44.033 99.3962C48.151 99.7785 48.5013 100.234 53.7056 100.852C57.7053 101.293 61.7357 101.148 65.7508 101.304C69.7942 101.429 73.8353 101.62 77.8776 101.755C81.1827 101.82 84.4889 101.751 87.7952 101.77C87.9052 101.77 88.0153 101.766 88.1253 101.766C92.6989 102.023 97.2891 102.041 101.866 101.964C103.828 101.904 105.79 101.997 107.752 101.969C109.503 101.881 110.114 101.768 111.252 101.687C113.496 101.543 115.789 101.419 117.879 100.506C118.511 100.229 119.223 99.9796 119.713 99.485C119.9 99.2885 119.98 99.0247 119.967 98.762C120.59 98.4579 121.195 98.1171 121.768 97.7242C121.975 97.568 122.597 97.1349 122.061 97.51C122.328 97.3254 122.588 97.1266 122.831 96.9124C123.194 96.6615 123.428 96.2071 123.352 95.7669Z" fill="black"/>
</g>
</svg>
