<svg width="99" height="89" viewBox="0 0 99 89" fill="none" xmlns="http://www.w3.org/2000/svg">
<path d="M90.5056 71.4247V71.4222C90.5056 68.6765 88.2601 66.4545 85.5022 66.4545C82.7444 66.4545 80.4989 68.6765 80.4989 71.4222C80.4989 74.1678 82.7444 76.3899 85.5022 76.3899C88.2492 76.3899 90.4919 74.167 90.5056 71.4247ZM62.4978 13.3909C62.4978 20.5083 56.684 26.2818 49.5 26.2818C42.316 26.2818 36.5022 20.5083 36.5022 13.3909C36.5022 6.27344 42.316 0.5 49.5 0.5C56.684 0.5 62.4978 6.27344 62.4978 13.3909ZM54.5034 13.3909C54.5034 10.6452 52.2578 8.42319 49.5 8.42319C46.7422 8.42319 44.4966 10.6452 44.4966 13.3909C44.4966 16.1366 46.7422 18.3586 49.5 18.3586C52.2578 18.3586 54.5034 16.1366 54.5034 13.3909ZM14.8011 53.5763C14.9832 40.7796 22.147 29.3193 33.6263 23.4612L37.1894 30.5635C28.4502 35.0633 22.9891 43.8044 22.7972 53.5763H14.8011ZM70.7797 81.2537C64.7208 85.9299 57.1795 88.5 49.4877 88.5C41.7959 88.5 34.2546 85.9299 28.1957 81.2537L33.2031 75.0603C42.6237 82.2565 56.3744 82.2572 65.7727 75.0608L70.7797 81.2537ZM61.8101 30.5633L65.362 23.4615C76.841 29.3197 84.0045 40.7798 84.1866 53.5763H76.1911C76.0107 43.804 70.5494 35.0628 61.8101 30.5633ZM0.5 71.4222C0.5 64.3047 6.31378 58.5313 13.4978 58.5313C20.6818 58.5313 26.4955 64.3047 26.4955 71.4222C26.4955 78.5396 20.6818 84.313 13.4978 84.313C6.31377 84.313 0.5 78.5396 0.5 71.4222ZM8.49441 71.4222C8.49441 74.1678 10.7399 76.3899 13.4978 76.3899C16.2556 76.3899 18.5011 74.1678 18.5011 71.4222C18.5011 68.6765 16.2556 66.4545 13.4978 66.4545C10.7399 66.4545 8.49441 68.6765 8.49441 71.4222ZM72.5045 71.4222C72.5045 64.3047 78.3182 58.5313 85.5022 58.5313C92.6862 58.5313 98.5 64.3047 98.5 71.4222C98.5 78.5396 92.6862 84.313 85.5022 84.313C78.3182 84.313 72.5045 78.5396 72.5045 71.4222Z" fill="url(#paint0_linear_70_1126)" stroke="white"/>
<defs>
<linearGradient id="paint0_linear_70_1126" x1="49.5" y1="0" x2="49.5" y2="89" gradientUnits="userSpaceOnUse">
<stop stop-color="#D0006F"/>
<stop offset="1" stop-color="#8E24AA"/>
</linearGradient>
</defs>
</svg>
