<svg width="79" height="79" viewBox="0 0 79 79" fill="none" xmlns="http://www.w3.org/2000/svg">
<path d="M33.8285 36.7083H34.116L34.2606 36.4598C34.7908 35.5486 35.5486 34.7908 36.4598 34.2606L36.7083 34.116V33.8285V23.0417C36.7083 22.3013 37.0025 21.5912 37.526 21.0677C38.0495 20.5441 38.7596 20.25 39.5 20.25C40.2404 20.25 40.9505 20.5441 41.474 21.0677C41.9975 21.5912 42.2917 22.3013 42.2917 23.0417V33.8285V34.1175L42.5422 34.2618C43.3487 34.7262 44.0375 35.37 44.5553 36.1434C45.073 36.9167 45.4057 37.7989 45.5278 38.7215C45.6498 39.6442 45.5578 40.5825 45.2589 41.4639C44.96 42.3453 44.4622 43.146 43.8041 43.8041C43.146 44.4622 42.3453 44.96 41.4639 45.2589C40.5825 45.5578 39.6442 45.6498 38.7215 45.5278C37.7989 45.4057 36.9167 45.073 36.1434 44.5553C35.37 44.0375 34.7262 43.3487 34.2618 42.5422L34.1175 42.2917H33.8285H26.3333C25.5929 42.2917 24.8829 41.9975 24.3593 41.474C23.8358 40.9505 23.5417 40.2404 23.5417 39.5C23.5417 38.7596 23.8358 38.0495 24.3593 37.526C24.8829 37.0025 25.5929 36.7083 26.3333 36.7083H33.8285ZM78.5 39.5005C78.4999 49.8438 74.391 59.7634 67.0772 67.0772C59.7632 74.3911 49.8434 78.5 39.5 78.5C29.1566 78.5 19.2368 74.3911 11.9228 67.0772C4.60892 59.7632 0.5 49.8434 0.5 39.5C0.5 38.7596 0.794121 38.0495 1.31766 37.526C1.8412 37.0025 2.55127 36.7083 3.29167 36.7083C4.03206 36.7083 4.74213 37.0025 5.26567 37.526C5.78921 38.0495 6.08333 38.7596 6.08333 39.5C6.08333 46.1092 8.04319 52.57 11.7151 58.0653C15.3869 63.5606 20.6059 67.8438 26.712 70.373C32.8181 72.9022 39.5371 73.564 46.0193 72.2746C52.5015 70.9852 58.4557 67.8026 63.1292 63.1292C67.8026 58.4557 70.9852 52.5015 72.2746 46.0193C73.564 39.5371 72.9022 32.8181 70.373 26.712C67.8438 20.6059 63.5606 15.3869 58.0653 11.7151C52.57 8.04319 46.1092 6.08333 39.5 6.08333C38.7596 6.08333 38.0495 5.78921 37.526 5.26567C37.0025 4.74213 36.7083 4.03206 36.7083 3.29167C36.7083 2.55127 37.0025 1.8412 37.526 1.31766C38.0495 0.794181 38.7594 0.500068 39.4997 0.5C49.8398 0.511256 59.7531 4.62381 67.0647 11.9353C74.3763 19.2469 78.4888 29.1604 78.5 39.5005ZM7.56484 27.9435C7.10576 28.2503 6.56602 28.414 6.01388 28.414C5.27348 28.414 4.56341 28.1199 4.03987 27.5963C3.51633 27.0728 3.22221 26.3627 3.22221 25.6223C3.22221 25.0702 3.38594 24.5305 3.69269 24.0714C3.99944 23.6123 4.43544 23.2545 4.94555 23.0432C5.45566 22.8319 6.01697 22.7766 6.5585 22.8843C7.10003 22.992 7.59746 23.2579 7.98788 23.6483C8.3783 24.0388 8.64418 24.5362 8.7519 25.0777C8.85962 25.6192 8.80433 26.1805 8.59304 26.6907C8.38174 27.2008 8.02393 27.6368 7.56484 27.9435ZM15.4451 16.1692C14.986 16.476 14.4463 16.6397 13.8941 16.6397C13.1537 16.6397 12.4437 16.3456 11.9201 15.822C11.3966 15.2985 11.1025 14.5884 11.1025 13.848C11.1025 13.2959 11.2662 12.7562 11.5729 12.2971C11.8797 11.838 12.3157 11.4802 12.8258 11.2689C13.3359 11.0576 13.8972 11.0023 14.4388 11.11C14.9803 11.2177 15.4777 11.4836 15.8681 11.874C16.2586 12.2645 16.5244 12.7619 16.6322 13.3034C16.7399 13.8449 16.6846 14.4063 16.4733 14.9164C16.262 15.4265 15.9042 15.8625 15.4451 16.1692ZM27.1568 8.38114C26.6978 8.6879 26.158 8.85163 25.6059 8.85163C24.8655 8.85163 24.1554 8.5575 23.6319 8.03397C23.1083 7.51043 22.8142 6.80035 22.8142 6.05996C22.8142 5.50782 22.9779 4.96808 23.2847 4.50899C23.5914 4.0499 24.0274 3.69209 24.5375 3.48079C25.0477 3.2695 25.609 3.21422 26.1505 3.32193C26.692 3.42965 27.1895 3.69553 27.5799 4.08595C27.9703 4.47637 28.2362 4.9738 28.3439 5.51533C28.4516 6.05686 28.3963 6.61817 28.185 7.12828C27.9737 7.63839 27.6159 8.07439 27.1568 8.38114Z" fill="url(#paint0_linear_70_1157)" stroke="white"/>
<defs>
<linearGradient id="paint0_linear_70_1157" x1="39.5" y1="0" x2="39.5" y2="79" gradientUnits="userSpaceOnUse">
<stop stop-color="#D0006F"/>
<stop offset="1" stop-color="#8E24AA"/>
</linearGradient>
</defs>
</svg>
