<svg width="400" height="400" viewBox="0 0 414 409" fill="none" xmlns="http://www.w3.org/2000/svg">
<path d="M284.637 111.362C283.481 103.887 277.122 96.1657 271.178 92.4281C270.558 92.0183 269.94 91.6474 269.32 91.2786C255.861 100.552 231.253 115.552 202.352 120.112C200.123 120.481 197.398 119.946 195.705 121.466C190.38 126.189 189.307 142.701 176.137 143.07C174.318 147.673 172.668 152.107 170.893 155.885C173.045 152.885 188.778 155.73 192.774 156.625C196.693 157.488 213.601 162.071 212.882 165.662C215.854 159.293 214.698 152.847 212.758 146.109C236.332 141.593 268.99 124.999 284.637 111.362Z" fill="#8E24AA"/>
<path d="M78.4541 180.653C74.2611 184.663 68.9669 187.345 63.2411 188.361C57.5156 189.378 51.6155 188.682 46.2873 186.362C40.9591 184.043 36.442 180.204 33.3071 175.33C30.1722 170.456 28.5606 164.768 28.6757 158.983C28.791 153.198 30.6279 147.577 33.9544 142.831C37.2807 138.085 41.9473 134.426 47.3637 132.319C52.7801 130.211 58.7032 129.749 64.3839 130.989C70.0646 132.231 75.2477 135.12 79.2779 139.291C81.9562 142.06 84.0598 145.326 85.4681 148.904C86.8764 152.482 87.5619 156.301 87.4856 160.142C87.4091 163.984 86.572 167.772 85.0222 171.292C83.4725 174.811 81.2406 177.992 78.4541 180.653Z" fill="#8E24AA"/>
<path d="M394.457 295.615C397.429 285.388 407.339 288.508 412.789 282.347C413.78 291.754 408.577 301.201 399.164 301.651L394.457 295.615Z" fill="#8E24AA"/>
<path d="M170.395 315.862C166.638 318.041 159.62 313.522 151.941 304.895C152.076 307.872 152.924 310.775 154.417 313.358C159.62 323.051 159.373 346.956 165.153 345.278C166.764 344.784 168.663 336.651 170.356 327.33C171.232 322.826 172.391 318.381 173.825 314.02C173.107 314.385 171.115 315.386 170.395 315.862Z" fill="#D0006F"/>
<path d="M194.424 109.885C195.182 112.077 196.298 114.131 197.728 115.962C201.359 115.429 205.396 114.334 206.148 112.677C206.28 112.398 206.391 112.11 206.48 111.815C205.53 114.813 200.039 112.8 194.424 109.885Z" fill="#D0006F"/>
<path d="M199.296 87.8276C191.988 80.1885 168.167 86.1842 152.024 97.8089C135.799 109.473 140.464 120.398 161.478 115.388C160.241 115.757 146.78 119.782 137.986 129.838C125.063 144.625 136.293 150.293 150.777 147.336C168.076 143.803 182.939 129.675 187.975 119.898C190.288 114.138 191.857 108.109 192.645 101.956C186.618 97.0692 190.293 92.6328 193.595 96.0016C195.37 97.8089 197.352 96.9463 195.164 91.0411C197.369 89.6803 200.016 89.2446 199.296 87.8276Z" fill="#D0006F"/>
<path d="M254.416 326.624C253.652 316.872 253.763 307.072 254.745 297.338C246.912 299.538 238.602 299.411 230.841 296.969C231.006 303.789 228.86 307.238 230.635 311.469C231.702 313.842 233.215 315.987 235.093 317.793C242.856 325.598 249.503 348.597 254.58 345.312C255.985 344.404 255.447 336.071 254.416 326.624Z" fill="#D0006F"/>
<path d="M176.754 154.572C176.382 156.478 175.801 158.338 175.019 160.117C168.29 156.789 169.859 154.613 176.754 154.572Z" fill="#D0006F"/>
<path d="M212.922 165.612C212.755 166.393 211.641 166.886 209.783 167.122C210.486 165.849 211.106 164.697 211.641 163.548C212.591 164.346 213.044 165.045 212.922 165.612Z" fill="#D0006F"/>
<path d="M231.416 228.625L227.08 240.987C226.915 236.182 226.751 231.459 226.666 226.818L231.416 228.625Z" fill="#D0006F"/>
<path d="M83.1434 315.903C72.0565 297.023 57.3448 280.943 50.3943 283.606C40.9875 287.212 53.7503 316.13 61.0693 328.759C73.3725 349.954 88.236 364.328 94.4363 361.011C103.449 356.016 88.7259 325.408 83.1434 315.903Z" fill="#D0006F"/>
<path d="M159.373 271.423C147.152 250.393 132.33 236.182 126.218 239.719C120.068 243.25 125.022 263.13 137.201 284.158C149.381 305.186 164.244 319.358 170.353 315.862C176.506 312.332 171.552 292.451 159.373 271.423Z" fill="#D0006F"/>
<path d="M173.823 314.014C172.393 318.375 171.235 322.82 170.354 327.323C168.68 336.649 166.766 344.792 165.151 345.271C159.382 346.997 159.599 323.057 154.415 313.352C152.919 310.77 152.07 307.867 151.939 304.889" stroke="black" stroke-width="1.5" stroke-linecap="round" stroke-linejoin="round"/>
<path d="M316.718 159.459C315.894 158.132 314.789 157.002 313.477 156.149C312.165 155.295 310.683 154.739 309.13 154.519C307.578 154.3 305.998 154.422 304.5 154.878C303.001 155.334 301.62 156.112 300.458 157.158C299.999 155.597 299.182 154.164 298.076 152.968C296.968 151.772 295.598 150.846 294.072 150.262C292.548 149.678 290.906 149.451 289.278 149.6C287.65 149.748 286.081 150.268 284.687 151.119C283.481 151.857 282.434 152.825 281.606 153.966C280.776 155.108 280.182 156.402 279.856 157.772C278.142 156.486 276.078 155.746 273.934 155.647C271.789 155.549 269.665 156.097 267.839 157.22C266.014 158.344 264.572 159.99 263.703 161.943C262.834 163.895 262.58 166.063 262.97 168.163C261.576 167.8 260.124 167.719 258.699 167.923C257.273 168.128 255.905 168.615 254.671 169.356C253.279 170.206 252.104 171.362 251.233 172.736C250.361 174.11 249.819 175.664 249.648 177.28C249.477 178.895 249.681 180.528 250.244 182.052C250.806 183.577 251.714 184.952 252.896 186.073C251.447 186.64 250.142 187.516 249.071 188.638C248 189.76 247.187 191.102 246.693 192.569C246.197 194.036 246.03 195.593 246.203 197.132C246.374 198.67 246.884 200.152 247.693 201.474C248.822 203.332 250.511 204.791 252.516 205.645C254.524 206.499 256.75 206.706 258.881 206.238L316.516 171.083C317.967 170.214 319.729 164.296 316.718 159.459Z" stroke="black" stroke-width="1.5" stroke-linecap="round" stroke-linejoin="round"/>
<path d="M272.994 175.764C274.356 177.04 275.234 178.744 275.481 180.59C275.728 182.435 275.329 184.309 274.349 185.895C273.369 187.482 271.871 188.684 270.107 189.3C268.34 189.916 266.415 189.908 264.654 189.278" stroke="black" stroke-width="1.5" stroke-linecap="round" stroke-linejoin="round"/>
<path d="M298.675 168.536C298.445 170.198 297.708 171.748 296.559 172.976C295.41 174.203 293.908 175.048 292.26 175.394C290.61 175.74 288.893 175.571 287.343 174.909C285.795 174.248 284.49 173.126 283.605 171.698C283.23 171.082 282.94 170.419 282.738 169.727" stroke="black" stroke-width="1.5" stroke-linecap="round" stroke-linejoin="round"/>
<path d="M300.45 157.157C299.34 158.199 298.418 159.422 297.725 160.774" stroke="black" stroke-width="1.5" stroke-linecap="round" stroke-linejoin="round"/>
<path d="M256.654 185.38C255.373 185.444 254.107 185.678 252.889 186.075" stroke="black" stroke-width="1.5" stroke-linecap="round" stroke-linejoin="round"/>
<path d="M279.85 157.774C279.579 159.113 279.535 160.487 279.718 161.84" stroke="black" stroke-width="1.5" stroke-linecap="round" stroke-linejoin="round"/>
<path d="M267.056 170.07C265.818 169.198 264.433 168.553 262.965 168.165" stroke="black" stroke-width="1.5" stroke-linecap="round" stroke-linejoin="round"/>
<path d="M331.415 183.198C328.352 178.179 322.03 177.284 320.929 178.106L263.25 213.306C261.6 214.291 259.335 220.255 262.468 225.297C263.283 226.615 264.378 227.741 265.674 228.592C266.973 229.446 268.442 230.005 269.982 230.232C271.521 230.456 273.091 230.344 274.582 229.902C276.071 229.459 277.448 228.698 278.61 227.669C279.271 229.932 280.676 231.909 282.597 233.288C284.518 234.666 286.846 235.365 289.214 235.276C291.581 235.186 293.851 234.312 295.661 232.792C297.471 231.273 298.718 229.194 299.206 226.889C300.91 228.187 302.969 228.944 305.113 229.058C307.258 229.175 309.386 228.642 311.223 227.531C313.057 226.421 314.512 224.786 315.396 222.838C316.278 220.891 316.549 218.723 316.174 216.62C318.462 217.196 320.877 217 323.04 216.064C325.204 215.126 326.995 213.5 328.128 211.442C329.262 209.382 329.676 207.008 329.306 204.687C328.935 202.369 327.801 200.239 326.082 198.631C327.545 198.079 328.87 197.213 329.96 196.094C331.049 194.976 331.879 193.632 332.388 192.159C332.896 190.686 333.074 189.119 332.904 187.57C332.737 186.022 332.228 184.529 331.415 183.198Z" stroke="black" stroke-width="1.5" stroke-linecap="round" stroke-linejoin="round"/>
<path d="M296.942 214.619C296.518 213.189 295.707 211.904 294.597 210.903C293.487 209.902 292.123 209.225 290.651 208.945C289.179 208.664 287.659 208.794 286.257 209.316C284.854 209.84 283.623 210.735 282.699 211.908C281.795 213.066 281.212 214.44 281.006 215.891" stroke="black" stroke-width="1.5" stroke-linecap="round" stroke-linejoin="round"/>
<path d="M315.068 195.159C313.479 194.613 311.758 194.568 310.14 195.03C308.525 195.492 307.09 196.438 306.034 197.741C304.978 199.043 304.35 200.637 304.239 202.307C304.126 203.976 304.534 205.641 305.405 207.07C305.778 207.692 306.238 208.259 306.769 208.755" stroke="black" stroke-width="1.5" stroke-linecap="round" stroke-linejoin="round"/>
<path d="M326.089 198.642C324.634 199.177 323.097 199.455 321.547 199.464" stroke="black" stroke-width="1.5" stroke-linecap="round" stroke-linejoin="round"/>
<path d="M280.896 224.706C280.278 225.802 279.509 226.805 278.611 227.689" stroke="black" stroke-width="1.5" stroke-linecap="round" stroke-linejoin="round"/>
<path d="M316.183 216.631C314.854 216.252 313.597 215.659 312.461 214.876" stroke="black" stroke-width="1.5" stroke-linecap="round" stroke-linejoin="round"/>
<path d="M299.33 222.5C299.527 223.964 299.486 225.448 299.213 226.899" stroke="black" stroke-width="1.5" stroke-linecap="round" stroke-linejoin="round"/>
<path d="M263.25 213.306L257.1 217" stroke="black" stroke-width="1.5" stroke-linecap="round" stroke-linejoin="round"/>
<path d="M258.875 206.24L252.805 209.896" stroke="black" stroke-width="1.5" stroke-linecap="round" stroke-linejoin="round"/>
<path d="M226.88 235.278L161.316 274.871" stroke="black" stroke-width="1.5" stroke-linecap="round" stroke-linejoin="round"/>
<path d="M225.555 226.365L157.143 267.726" stroke="black" stroke-width="1.5" stroke-linecap="round" stroke-linejoin="round"/>
<path d="M283.771 112.101C298.454 110.75 313.218 113.648 326.284 120.446C339.35 127.245 350.166 137.654 357.427 150.422C379.358 187.917 367.87 236.341 331.786 258.566C309.216 272.469 302.953 265.119 259.123 277.546" stroke="black" stroke-width="1.5" stroke-linecap="round" stroke-linejoin="round"/>
<path d="M170.83 315.543C190.879 305.141 208.797 296.048 227.251 288.549" stroke="black" stroke-width="1.5" stroke-linecap="round" stroke-linejoin="round"/>
<path d="M173.122 204.72C159.211 215.81 143.974 226.613 126.18 239.674" stroke="black" stroke-width="1.5" stroke-linecap="round" stroke-linejoin="round"/>
<path d="M232.905 140.236C224.253 153.178 214.545 165.39 203.881 176.749" stroke="black" stroke-width="1.5" stroke-linecap="round" stroke-linejoin="round"/>
<path d="M269.281 91.3193C276.257 95.2208 283.359 103.231 284.639 111.362C268.99 124.999 236.334 141.593 212.76 146.109C214.7 152.846 215.856 159.295 212.884 165.662C213.603 162.075 196.943 157.55 192.776 156.625C188.709 155.721 173.03 152.913 170.895 155.885C172.67 152.107 174.322 147.67 176.139 143.07C189.309 142.701 190.361 126.165 195.707 121.466C197.391 119.986 200.043 120.483 202.354 120.112C231.237 115.438 255.863 100.561 269.322 91.2783L269.281 91.3193Z" stroke="black" stroke-width="1.5" stroke-linecap="round" stroke-linejoin="round"/>
<path d="M173.258 163.197C185.078 163.01 196.718 166.085 206.887 172.082" stroke="black" stroke-width="1.5" stroke-linecap="round" stroke-linejoin="round"/>
<path d="M206.293 112.253C204.947 114.595 199.744 112.645 194.428 109.88C195.185 112.073 196.302 114.127 197.732 115.958" stroke="black" stroke-width="1.5" stroke-linecap="round" stroke-linejoin="round"/>
<path d="M200.822 120.265C197.945 119.561 198.715 118.168 197.73 115.962C205.492 114.821 206.836 113.4 206.517 109.531C206.051 103.91 202.734 91.6642 199.298 87.8274" stroke="black" stroke-width="1.5" stroke-linecap="round" stroke-linejoin="round"/>
<path d="M212.761 146.109C210.366 146.562 208.055 146.89 205.906 147.097" stroke="black" stroke-width="1.5" stroke-linecap="round" stroke-linejoin="round"/>
<path d="M195.171 91.0327C197.359 96.9464 195.388 97.8091 193.602 95.9931C190.298 92.6265 186.625 97.0715 192.652 101.948C191.866 108.103 190.299 114.134 187.987 119.896C182.95 129.673 168.087 143.801 150.789 147.334C136.296 150.291 125.066 144.623 137.998 129.836C146.791 119.773 160.252 115.749 161.49 115.386C140.476 120.396 135.815 109.477 152.035 97.8069C168.182 86.1887 191.999 80.1865 199.308 87.8256C200.006 89.2318 197.294 89.7278 195.171 91.0327Z" stroke="black" stroke-width="1.5" stroke-linecap="round" stroke-linejoin="round"/>
<path d="M176.139 143.07C178.319 137.201 181.129 131.582 184.52 126.312C185.86 124.317 187.008 122.2 187.945 119.989" stroke="black" stroke-width="1.5" stroke-linecap="round" stroke-linejoin="round"/>
<path d="M203.943 176.684C206.807 172.49 209.385 168.111 211.663 163.576" stroke="black" stroke-width="1.5" stroke-linecap="round" stroke-linejoin="round"/>
<path d="M293.641 89.3072C299.873 87.8277 305.005 90.6228 304.58 93.0038C304.485 93.4811 304.287 93.9327 304.003 94.3289C303.717 94.7253 303.353 95.057 302.93 95.3029" stroke="black" stroke-width="1.5" stroke-linecap="round" stroke-linejoin="round"/>
<path d="M293.061 85.5284C299.625 83.9669 306.149 87.2537 303.341 90.7045" stroke="black" stroke-width="1.5" stroke-linecap="round" stroke-linejoin="round"/>
<path d="M283.936 108.405C287.821 103.994 292.805 100.679 298.387 98.7947" stroke="black" stroke-width="1.5" stroke-linecap="round" stroke-linejoin="round"/>
<path d="M293.392 93.7413C299.462 92.5098 303.46 94.8908 303.219 97.233C302.922 100.108 297.149 104.462 292.277 101.669" stroke="black" stroke-width="1.5" stroke-linecap="round" stroke-linejoin="round"/>
<path d="M288.27 83.3501C288.352 83.2681 290.871 79.7786 289.757 78.6678C288.807 77.7232 275.099 88.936 271.26 92.5097" stroke="black" stroke-width="1.5" stroke-linecap="round" stroke-linejoin="round"/>
<path d="M296.157 85.1166C307.057 79.9017 309.984 73.6105 307.924 74.7644C301.052 78.1871 293.993 81.2311 286.784 83.883C281.204 85.9951 275.962 88.9008 271.221 92.5099" stroke="black" stroke-width="1.5" stroke-linecap="round" stroke-linejoin="round"/>
<path d="M254.746 297.338C253.772 307.071 253.662 316.871 254.416 326.624C255.468 336.068 255.984 344.406 254.581 345.312C249.499 348.592 242.842 325.613 235.093 317.792C233.212 315.989 231.698 313.841 230.636 311.469C228.856 307.231 231.013 303.776 230.84 296.935" stroke="black" stroke-width="1.5" stroke-linecap="round" stroke-linejoin="round"/>
<path d="M159.377 271.423C171.571 292.442 176.514 312.338 170.357 315.851C164.252 319.349 149.385 305.173 137.205 284.147C125.025 263.121 120.076 243.254 126.222 239.715C132.368 236.175 147.171 250.384 159.377 271.423Z" stroke="black" stroke-width="1.5" stroke-linecap="round" stroke-linejoin="round"/>
<path d="M96.7116 349.434C93.6245 330.319 75.0668 298.516 59.9995 287.031C52.2165 281.033 46.6427 282.094 47.2801 292.153C48.4898 311.24 69.855 348.064 85.8025 358.869C94.6564 364.865 98.4633 360.284 96.7116 349.434Z" stroke="black" stroke-width="1.5" stroke-linecap="round" stroke-linejoin="round"/>
<path d="M94.8492 360.795L107.107 353.741C108.288 352.82 109.091 351.502 109.364 350.035C109.638 348.569 109.364 347.053 108.594 345.772C113.472 353.081 123.043 345.534 119.204 339.2C122.766 345.239 133.966 341.34 129.361 332.178C130.405 333.524 131.892 334.457 133.561 334.818C135.23 335.18 136.973 334.943 138.484 334.149C143.47 330.983 141.621 324.825 138.527 314.803C132.74 297.59 123.561 281.697 111.525 268.056C108.633 264.629 105.321 261.573 101.667 258.963C95.8898 255.398 89.3903 258.071 91.6255 267.769C89.787 264.722 87.6299 262.729 83.9856 263.702C83.0655 263.956 82.2172 264.42 81.5072 265.054C80.797 265.69 80.2444 266.48 79.8927 267.364C79.5409 268.246 79.3995 269.199 79.4797 270.146C79.5597 271.093 79.8591 272.007 80.3543 272.82C80.3543 272.82 76.0769 267.442 71.2293 271.261C70.0255 272.195 69.2144 273.541 68.9547 275.035C68.695 276.532 69.005 278.07 69.8245 279.351C69.4343 278.665 68.9114 278.066 68.2861 277.582C67.6609 277.099 66.9459 276.746 66.1819 276.539C65.4181 276.332 64.621 276.28 63.8362 276.381C63.0514 276.483 62.295 276.739 61.6101 277.134L50.0723 283.738" stroke="black" stroke-width="1.5" stroke-linecap="round" stroke-linejoin="round"/>
<path d="M394.459 295.615C389.366 298.412 384.484 301.569 379.845 305.061C366.217 315.532 352.925 328.677 354.696 330.979C356.468 333.28 372.578 323.838 386.238 313.358C390.817 309.778 395.122 305.866 399.12 301.651" stroke="black" stroke-width="1.5" stroke-linecap="round" stroke-linejoin="round"/>
<path d="M394.463 295.615C397.435 285.388 407.345 288.508 412.795 282.347C413.786 291.754 408.583 301.201 399.17 301.651L394.463 295.615Z" stroke="black" stroke-width="1.5" stroke-linecap="round" stroke-linejoin="round"/>
<path d="M381.559 303.774L387.937 312.002" stroke="black" stroke-width="1.5" stroke-linecap="round" stroke-linejoin="round"/>
<path d="M404.163 98.8765L398.754 110.93H408.661L403.211 122.986" stroke="black" stroke-width="1.5" stroke-linecap="round" stroke-linejoin="round"/>
<path d="M211.643 396.612L189.68 397.267" stroke="black" stroke-width="1.5" stroke-linecap="round" stroke-linejoin="round"/>
<path d="M200.991 407.866L200.33 386.014" stroke="black" stroke-width="1.5" stroke-linecap="round" stroke-linejoin="round"/>
<path d="M176.756 154.572C176.384 156.478 175.803 158.337 175.021 160.116C168.292 156.789 169.861 154.613 176.756 154.572Z" stroke="black" stroke-width="1.5" stroke-linecap="round" stroke-linejoin="round"/>
<path d="M212.883 165.661C212.683 166.405 211.623 166.891 209.83 167.132" stroke="black" stroke-width="1.5" stroke-linecap="round" stroke-linejoin="round"/>
<path d="M176.755 154.572C176.079 159.238 173.698 163.492 170.067 166.522C153.842 179.337 153.591 197.285 165.443 210.718" stroke="black" stroke-width="1.5" stroke-linecap="round" stroke-linejoin="round"/>
<path d="M49.3518 284.187L31.0586 294.504" stroke="black" stroke-width="1.5" stroke-linecap="round" stroke-linejoin="round"/>
<path d="M94.0082 361.246L77.5859 370.777" stroke="black" stroke-width="1.5" stroke-linecap="round" stroke-linejoin="round"/>
<path d="M69.66 375.746L57.4805 382.811" stroke="black" stroke-width="1.5" stroke-linecap="round" stroke-linejoin="round"/>
<path d="M22.5498 299.803L10.123 306.828" stroke="black" stroke-width="1.5" stroke-linecap="round" stroke-linejoin="round"/>
<path d="M61.111 328.76L21.1035 352.294" stroke="black" stroke-width="1.5" stroke-linecap="round" stroke-linejoin="round"/>
<path d="M13.1384 357.265L1 364.287" stroke="black" stroke-width="1.5" stroke-linecap="round" stroke-linejoin="round"/>
<path d="M78.4541 180.653C74.2611 184.663 68.9669 187.345 63.2411 188.361C57.5156 189.378 51.6155 188.682 46.2873 186.362C40.9591 184.043 36.442 180.204 33.3071 175.33C30.1722 170.456 28.5606 164.768 28.6757 158.983C28.791 153.198 30.6279 147.577 33.9544 142.831C37.2807 138.085 41.9473 134.426 47.3637 132.319C52.7801 130.211 58.7032 129.749 64.3839 130.989C70.0646 132.231 75.2477 135.12 79.2779 139.291C81.9562 142.06 84.0598 145.326 85.4681 148.904C86.8764 152.482 87.5619 156.301 87.4856 160.142C87.4091 163.984 86.572 167.772 85.0222 171.292C83.4725 174.811 81.2406 177.992 78.4541 180.653Z" stroke="black" stroke-width="1.5" stroke-linecap="round" stroke-linejoin="round"/>
<path d="M87.4541 161.299C96.5791 165.612 101.979 169.71 101.203 172.298C99.8137 176.972 79.2788 175.173 55.2925 168.271C31.3062 161.37 12.9675 151.982 14.3355 147.301C15.116 144.629 22.0556 144.056 32.3295 145.33" stroke="black" stroke-width="1.5" stroke-linecap="round" stroke-linejoin="round"/>
<path d="M167.066 191.823C168.263 199.298 172.486 206.152 178.173 207.925C195.931 213.45 226.683 226.859 226.683 226.859C227.067 248.012 228.992 271.287 226.932 295.615C236.779 299.739 247.831 299.987 257.856 296.312C259.59 273.353 260.703 251.337 260.291 231.006C260.197 225.946 259.02 220.966 256.835 216.396C254.647 211.828 251.506 207.776 247.617 204.515C231.572 191.319 213.682 180.514 194.511 172.438" stroke="black" stroke-width="1.5" stroke-linecap="round" stroke-linejoin="round"/>
<path d="M226.67 226.858L231.418 228.625L227.084 240.987" stroke="black" stroke-width="1.5" stroke-linecap="round" stroke-linejoin="round"/>
<path d="M227.789 279.39C237.827 282.817 248.634 283.343 258.96 280.91" stroke="black" stroke-width="1.5" stroke-linecap="round" stroke-linejoin="round"/>
<path d="M218.705 1V7.86054" stroke="black" stroke-width="1.5" stroke-linecap="round" stroke-linejoin="round"/>
<path d="M232.123 14.3479H225.227" stroke="black" stroke-width="1.5" stroke-linecap="round" stroke-linejoin="round"/>
<path d="M218.705 27.6982V20.8376" stroke="black" stroke-width="1.5" stroke-linecap="round" stroke-linejoin="round"/>
<path d="M205.287 14.3479H212.186" stroke="black" stroke-width="1.5" stroke-linecap="round" stroke-linejoin="round"/>
<path d="M225.224 14.348C224.368 14.3502 223.518 14.1841 222.726 13.8589C221.933 13.5337 221.213 13.0557 220.608 12.4529C220.001 11.8501 219.522 11.1341 219.195 10.3458C218.867 9.55778 218.7 8.71317 218.703 7.8606C218.705 8.713 218.538 9.55744 218.211 10.3454C217.885 11.1334 217.404 11.8493 216.799 12.4523C216.192 13.0551 215.472 13.5328 214.681 13.8582C213.89 14.1835 213.04 14.35 212.184 14.348C213.04 14.3461 213.89 14.5126 214.681 14.838C215.475 15.1635 216.194 15.6414 216.799 16.2447C217.404 16.8477 217.885 17.5639 218.213 18.3522C218.538 19.1403 218.705 19.9851 218.703 20.8376C218.7 19.9849 218.867 19.1401 219.195 18.3516C219.52 17.5633 220.001 16.8468 220.606 16.2438C221.213 15.6408 221.933 15.1629 222.724 14.8374C223.518 14.512 224.368 14.3457 225.224 14.348Z" stroke="black" stroke-width="1.5" stroke-linecap="round" stroke-linejoin="round"/>
</svg>
