<?xml version="1.0" encoding="UTF-8"?>
<!DOCTYPE svg PUBLIC "-//W3C//DTD SVG 1.1//EN" "http://www.w3.org/Graphics/SVG/1.1/DTD/svg11.dtd">
<!-- Creator: CorelDRAW 2021.5 -->
<svg xmlns="http://www.w3.org/2000/svg" xml:space="preserve" width="72" height="72" version="1.1" style="shape-rendering:geometricPrecision; text-rendering:geometricPrecision; image-rendering:optimizeQuality; fill-rule:evenodd; clip-rule:evenodd"
viewBox="0 0 2175.12 448.07"
 xmlns:xlink="http://www.w3.org/1999/xlink"
 xmlns:xodm="http://www.corel.com/coreldraw/odm/2003">
 <defs>
  <style type="text/css">
   <![CDATA[
    .fil3 {fill:#2B2D31}
    .fil0 {fill:#1773EB;fill-rule:nonzero}
    .fil1 {fill:#E44F20;fill-rule:nonzero}
    .fil2 {fill:#FFDA00;fill-rule:nonzero}
   ]]>
  </style>
 </defs>
 <g id="Layer_x0020_1">
  <metadata id="CorelCorpID_0Corel-Layer"/>
  <g id="_105553220828256">
   <path class="fil0" d="M143.99 56.03c15.77,15.74 21.79,38.8 15.77,60.25 19.4,-11.67 41.64,-17.82 64.29,-17.79l0.48 0c33.28,0.1 65.14,13.47 88.55,37.13l0 0c18.77,19.72 49.94,20.48 69.66,1.74 19.71,-18.77 20.47,-49.94 1.73,-69.66 -0.47,-0.5 -0.95,-0.98 -1.45,-1.45 -41.8,-42.27 -98.74,-66.09 -158.21,-66.25l-0.85 0c-44.52,-0.09 -88.02,13.16 -124.93,38.02l1.39 0c16.34,-0.03 32.02,6.46 43.57,18.04l0 -0.03z"/>
   <path class="fil1" d="M347.15 298.69c-13,0 -25.49,5.14 -34.7,14.29l0 0c-23.47,23.35 -55.24,36.47 -88.33,36.44l-0.48 0c-22.71,-0.03 -44.95,-6.28 -64.35,-18.08 1.48,5.37 2.2,10.92 2.2,16.47 0,34.04 -27.57,61.61 -61.61,61.61l-1.61 0c36.88,25.11 80.42,38.58 125.02,38.65l0.86 0c59.12,0.09 115.87,-23.32 157.73,-65.05 19.31,-19.18 19.47,-50.35 0.29,-69.69 -9.25,-9.34 -21.87,-14.58 -34.99,-14.58l0 -0.06 -0.03 0z"/>
   <path class="fil2" d="M56.25 304.21c11.52,-11.61 27.23,-18.11 43.57,-18.04 5.65,0 11.26,0.75 16.69,2.27 -23.95,-39.81 -23.85,-89.63 0.25,-129.35 -32.84,9.03 -66.75,-10.31 -75.74,-43.12 -1.45,-5.33 -2.21,-10.82 -2.21,-16.37l0 -1.68c-51.52,75.72 -51.77,175.19 -0.6,251.15l0 -1.29c-0.06,-16.34 6.43,-32.05 18.04,-43.57z"/>
   <path class="fil0" d="M100.42 48.93c-14.01,0 -23.82,5.81 -35.71,17.7 -11.33,11.29 -14.89,21.2 -14.93,32.97 0,27.95 22.72,50.63 50.67,50.6 27.95,0 50.63,-22.72 50.6,-50.67 0,-27.95 -22.68,-50.6 -50.63,-50.6l0 0z"/>
   <path class="fil1" d="M49.06 347.84c0,13.98 5.8,23.82 17.67,35.68 11.32,11.33 21.2,14.92 32.96,14.95 27.89,-0.09 50.42,-22.74 50.32,-50.63 -0.09,-27.89 -22.74,-50.41 -50.63,-50.32 -27.83,0.1 -50.32,22.65 -50.32,50.48l0 -0.16 0 0z"/>
  </g>
  <path class="fil3" d="M596.63 267.93c14.1,-10.66 15.99,-4.7 27.88,7.23 5.97,5.96 22.28,16.31 11.61,25.08 -22.27,18.17 -42.33,26.34 -70.85,26.34 -64.26,-0.32 -109.72,-48.27 -105.97,-111.93 1.58,-28.52 12.84,-55.49 35.11,-73.98 20.38,-17.26 45.78,-24.76 72.44,-24.13 13.47,0.31 25.39,2.2 37.91,7.54 8.14,3.12 16,6.91 22.88,12.24 14.1,10.98 7.54,17.25 -3.44,28.2 -2.53,2.53 -5.02,5.02 -7.23,7.54 -5.64,5.65 -9.4,9.72 -16.94,4.39 -14.41,-10.04 -32.62,-15.37 -49.84,-10.98 -55.49,14.1 -52.97,112.87 15.05,113.19 10.66,0.32 22.58,-4.07 31.36,-10.66l0.03 -0.07zm1542.43 59.88c-9.4,0 -16.94,-7.54 -16.94,-16.94l0.95 -218.84c0,-9.41 7.54,-16.95 16.94,-16.95l18.17 0c9.4,0 16.94,7.54 16.94,16.94l-0.94 218.85c0,9.4 -7.54,16.94 -16.94,16.94l-18.18 0zm-95.3 -25.4c-19.75,18.49 -38.55,28.21 -66.47,28.21 -56.44,-0.32 -83.38,-47.04 -83.38,-99.38l0.32 -89.02c0,-9.4 7.54,-16.94 16.94,-16.94l18.17 0c9.4,0 16.94,7.54 16.94,16.94l-0.32 89.02c0,29.15 15.68,52.06 46.41,52.06 30.73,0 49.53,-25.72 49.84,-54.55l0 -31.67c-0.31,-1.26 -0.31,-2.53 -0.31,-3.76l0.31 -50.47c0,-9.4 7.54,-16.94 16.94,-16.94l18.18 0c9.4,0 16.94,7.54 16.94,16.94l-0.63 168.05c0,9.09 -7.51,16.63 -16.94,16.63l-15.37 0c-9.4,0 -15.99,-7.83 -16.62,-16.63l-0.95 -8.46 0 -0.03zm-216.32 -176.5l35.11 0c9.4,0 16.63,7.82 16.63,17.25l0 11.61c0,9.09 -7.51,16.94 -16.94,16.94l-35.11 0 -0.64 138.27c0,9.41 -7.54,16.95 -16.94,16.95l-18.17 0c-9.4,0 -16.94,-7.54 -16.94,-16.95l0.63 -191.23c0,-41.71 23.82,-74.61 66.47,-78.37 1.26,0 2.21,-0.31 3.44,-0.31 2.49,-0.32 5.02,0 7.51,0l16.31 0c9.4,0 16.62,7.82 16.62,17.25l0 10.67c0,9.08 -7.54,16.94 -16.94,16.94l-13.15 0c-20.07,0 -28.52,15.36 -28.84,34.16l0.95 6.91 0 -0.09zm-126.03 -0.63l38.55 0c9.09,0 16.63,7.54 16.63,16.94l0 11.61c0,9.08 -7.54,16.62 -16.94,16.62l-38.56 0 -0.31 84.64c0,16.31 7.82,25.71 24.13,25.71l7.83 0c9.08,0 16.62,7.54 16.62,16.94l0 11.61c0,9.09 -7.51,16.63 -16.94,16.63l-14.73 0c-2.81,0 -5.33,0 -8.14,-0.32 -41.71,-2.81 -60.19,-29.78 -60.19,-70.54 0.31,-54.86 0.31,-109.4 0.63,-164.26 0,-9.09 7.54,-16.63 16.94,-16.63l17.85 0c9.09,0 16.63,7.54 16.63,16.94l0 34.17 0 -0.06zm-557.72 -2.21l38.55 0c9.08,0 16.62,7.54 16.62,16.94l0 11.61c0,9.08 -7.54,16.62 -16.94,16.62l-38.55 0 0 84.64c0,16.31 7.82,25.72 24.13,25.72l7.83 0c9.08,0 16.62,7.54 16.62,16.94l0 11.61c0,9.08 -7.54,16.62 -16.94,16.62l-11.61 0c-45.46,-0.32 -71.8,-19.75 -71.8,-70.85 0.32,-54.86 0.32,-109.41 0.63,-164.27 0,-9.09 7.54,-16.63 16.94,-16.63l17.86 0c9.09,0 16.63,7.54 16.63,16.94l0 34.17 0.03 -0.06zm-226.36 23.82c18.49,-17.26 38.56,-28.21 64.58,-28.21 56.44,0.32 85.59,46.41 85.27,99.38l-0.31 89.02c0,9.4 -7.54,16.94 -16.94,16.94l-18.17 0c-9.41,0 -16.94,-7.54 -16.94,-16.94l0.31 -88.39c0,-29.15 -15.68,-52.06 -46.4,-52.06 -30.73,0 -49.53,25.4 -49.85,54.23l-0.31 86.22c0,9.09 -7.55,16.63 -16.95,16.63l-17.85 0c-9.09,0 -16.63,-7.54 -16.63,-16.94 0.32,-53.6 0.32,-107.55 0.63,-161.15l0 -7.22c0,-9.09 7.54,-16.63 16.94,-16.63l15.37 0c9.4,0 15.99,7.83 16.62,16.63l0.63 8.46 0 0.03zm558.68 2.2c18.48,-17.25 38.55,-28.2 64.57,-28.2 56.44,0.32 85.59,46.41 85.27,99.38l-0.31 89.02c0,9.4 -7.54,16.94 -16.94,16.94l-18.17 0c-9.41,0 -16.94,-7.54 -16.94,-16.94l0.31 -88.39c0,-29.15 -15.68,-52.06 -46.4,-52.06 -30.73,0 -49.53,25.4 -49.85,54.23l-0.31 86.22c0,9.09 -7.54,16.63 -16.95,16.63l-17.85 0c-9.09,0 -16.63,-7.54 -16.63,-16.94l0.63 -168.37c0,-9.09 7.54,-16.63 16.94,-16.63l15.37 0c9.4,0 15.99,7.83 16.62,16.63l0.64 8.45 0 0.03zm-729.22 -31.98c-61.14,-0.32 -104.39,43.88 -104.7,104.7 -0.32,61.45 42.33,105.02 104.07,105.34 61.77,0.31 105.02,-42.94 105.34,-104.71 0.31,-60.51 -43.89,-105.02 -104.71,-105.33zm507.56 125.71c4.39,28.2 31.36,39.81 57.7,40.13 12.56,0 26.98,-3.12 38.24,-8.46 1.89,-0.94 3.75,-1.57 5.65,-2.8 6.27,-3.44 11.92,-5.65 17.57,0 3.12,3.12 5.96,6.27 9.08,9.08 2.81,2.81 5.65,5.65 8.14,9.09 8.46,10.66 2.53,13.15 -7.22,19.75 -20.7,13.78 -47.67,20.69 -72.43,20.69 -66.48,-0.31 -110.36,-40.76 -110.36,-107.86 0.32,-63.31 44.2,-105.33 107.55,-105.02 64.57,0.32 101.26,38.24 102.21,102.84 0.32,17.58 0.95,23.19 -17.26,23.19l-138.87 -0.63 0 0zm-507.56 -78.36c31.67,0 52.68,27.6 52.68,57.98 0,30.38 -19.75,57.07 -52.96,57.07 -33.22,0 -52.69,-25.71 -52.69,-57.38 0.32,-31.36 20.07,-57.7 52.97,-57.7l0 0.03zm508.83 34.79l104.07 0.32c-3.75,-26.03 -25.4,-36.37 -50.16,-36.37 -24.76,0 -46.09,11.61 -53.91,36.05l0 0z"/>
 </g>
</svg>
