<?xml version="1.0" encoding="UTF-8"?>
<!DOCTYPE svg PUBLIC "-//W3C//DTD SVG 1.1//EN" "http://www.w3.org/Graphics/SVG/1.1/DTD/svg11.dtd">
<!-- Creator: CorelDRAW 2021.5 -->
<svg xmlns="http://www.w3.org/2000/svg" xml:space="preserve" width="200px" height="100%" version="1.1" style="shape-rendering:geometricPrecision; text-rendering:geometricPrecision; image-rendering:optimizeQuality; fill-rule:evenodd; clip-rule:evenodd"
viewBox="0 0 484.42 145.48"
 xmlns:xlink="http://www.w3.org/1999/xlink"
 xmlns:xodm="http://www.corel.com/coreldraw/odm/2003">
 <defs>
  <style type="text/css">
   <![CDATA[
    .fil0 {fill:url(#id0)}
    .fil1 {fill:url(#id1)}
    .fil2 {fill:url(#id2);fill-rule:nonzero}
   ]]>
  </style>
  <linearGradient id="id0" gradientUnits="userSpaceOnUse" x1="-2.58" y1="90.06" x2="133.07" y2="76.13">
   <stop offset="0" style="stop-opacity:1; stop-color:#500085"/>
   <stop offset="1" style="stop-opacity:1; stop-color:#E0006C"/>
  </linearGradient>
  <linearGradient id="id1" gradientUnits="userSpaceOnUse" xlink:href="#id0" x1="35.54" y1="69.85" x2="-10.69" y2="71.95">
  </linearGradient>
  <linearGradient id="id2" gradientUnits="userSpaceOnUse" x1="144.61" y1="115.95" x2="476.36" y2="42.84">
   <stop offset="0" style="stop-opacity:1; stop-color:#D0006F"/>
   <stop offset="1" style="stop-opacity:1; stop-color:#8E24AA"/>
  </linearGradient>
 </defs>
 <g id="Layer_x0020_1">
  <metadata id="CorelCorpID_0Corel-Layer"/>
  <path class="fil0" d="M126.51 36.12c-7.47,-3.18 -61.05,-36.13 -63.18,-36.12 -0.8,0 -9.06,5.1 -10.5,5.95 -2.19,1.3 -9.01,4.86 -10.1,6.31 5.08,2.68 10.47,6.15 15.74,9.06 15.54,8.58 31.31,18.48 46.92,27.02 0.37,14.92 0.03,33.53 -0.03,48.79 -2.95,1.67 -61.66,35.22 -62.95,36.48 1.6,1.12 20.27,12 21.19,11.86 0.56,-0.08 19.06,-10.86 21.21,-12.14l37.06 -21.38c2.42,-1.34 4.66,-2.13 4.66,-3.56l-0.02 -72.27zm-126 -0.21c0.54,0.77 0.26,0.47 1.01,1.09l4.06 2.41c1.78,1.07 3.61,2.08 5.45,3.13 1.83,1.05 9.64,5.27 10.39,6.33 1.8,0.53 40.17,22.59 41.57,23.87 -1.19,1.12 -39.4,23.2 -41.51,23.91 -1.38,1.39 -12.8,7.68 -15.89,9.42 -1.01,0.57 -1.65,0.98 -2.74,1.57 -2.68,1.48 -2.12,1 -1.86,1.92 0.69,0.71 18.81,11.21 20.23,11.73 2.51,-1.01 5.6,-3.17 8.24,-4.66 6.04,-3.42 54.65,-31.01 54.94,-32.29l-0.08 -23.63c-1.86,-1.64 -62.78,-36.32 -62.82,-36.33 -1.75,-0.27 -16.44,9.61 -20.99,11.53z"/>
  <path class="fil1" d="M0.99 109.56c-0.26,-0.92 -0.82,-0.44 1.86,-1.92 1.09,-0.59 1.73,-1 2.74,-1.57 3.09,-1.74 14.51,-8.03 15.89,-9.42 -0.45,-0.94 -0.65,-46.33 -0.06,-47.78 -0.75,-1.06 -8.56,-5.28 -10.39,-6.33 -1.84,-1.05 -3.67,-2.06 -5.45,-3.13l-4.06 -2.41c-0.75,-0.62 -0.47,-0.32 -1.01,-1.09 -0.58,1.33 -0.4,3.07 -0.38,4.6l0.01 60.58c0,3.15 -0.64,7.96 0.85,8.47z"/>
  <path class="fil2" d="M158.68 42.46c6.22,0 11.66,1.24 16.32,3.7 4.65,2.47 8.26,5.93 10.81,10.39 2.55,4.46 3.83,9.61 3.83,15.44 0,5.78 -1.28,10.91 -3.83,15.4 -2.55,4.48 -6.17,7.96 -10.85,10.43 -4.69,2.47 -10.11,3.7 -16.28,3.7l-22.13 0 0 -59.06 22.13 0zm-0.93 46.61c5.44,0 9.68,-1.49 12.71,-4.46 3.02,-2.97 4.54,-7.18 4.54,-12.62 0,-5.44 -1.52,-9.67 -4.54,-12.7 -3.03,-3.03 -7.27,-4.55 -12.71,-4.55l-6.81 0 0 34.33 6.81 0zm47.2 -39.37c-2.53,0 -4.59,-0.75 -6.19,-2.23 -1.59,-1.49 -2.39,-3.33 -2.39,-5.51 0,-2.25 0.8,-4.11 2.39,-5.6 1.6,-1.48 3.66,-2.23 6.19,-2.23 2.47,0 4.5,0.75 6.1,2.23 1.6,1.49 2.39,3.35 2.39,5.6 0,2.18 -0.79,4.02 -2.39,5.51 -1.6,1.48 -3.63,2.23 -6.1,2.23zm7.15 4.88l0 46.94 -14.39 0 0 -46.94 14.39 0zm28.27 -0.68c3.3,0 6.21,0.68 8.7,2.02 2.5,1.35 4.42,3.11 5.77,5.3l0 -6.64 14.38 0 0 46.86c0,4.31 -0.85,8.23 -2.56,11.73 -1.72,3.51 -4.32,6.3 -7.83,8.37 -3.5,2.08 -7.86,3.11 -13.08,3.11 -6.96,0 -12.59,-1.64 -16.91,-4.92 -4.32,-3.28 -6.79,-7.72 -7.4,-13.33l14.21 0c0.45,1.79 1.52,3.21 3.2,4.25 1.68,1.03 3.76,1.55 6.23,1.55 2.97,0 5.34,-0.85 7.11,-2.56 1.76,-1.71 2.65,-4.45 2.65,-8.2l0 -6.65c-1.41,2.19 -3.34,3.97 -5.81,5.34 -2.47,1.38 -5.36,2.06 -8.66,2.06 -3.87,0 -7.38,-0.99 -10.52,-2.98 -3.14,-2 -5.62,-4.83 -7.45,-8.5 -1.82,-3.67 -2.73,-7.92 -2.73,-12.75 0,-4.82 0.91,-9.05 2.73,-12.7 1.83,-3.65 4.31,-6.45 7.45,-8.41 3.14,-1.97 6.65,-2.95 10.52,-2.95zm14.47 24.15c0,-3.59 -1,-6.42 -2.99,-8.5 -1.99,-2.07 -4.42,-3.11 -7.28,-3.11 -2.86,0 -5.28,1.02 -7.28,3.07 -1.99,2.05 -2.98,4.86 -2.98,8.45 0,3.59 0.99,6.44 2.98,8.54 2,2.11 4.42,3.16 7.28,3.16 2.86,0 5.29,-1.04 7.28,-3.12 1.99,-2.07 2.99,-4.9 2.99,-8.49zm32.05 -28.35c-2.53,0 -4.59,-0.75 -6.19,-2.23 -1.59,-1.49 -2.39,-3.33 -2.39,-5.51 0,-2.25 0.8,-4.11 2.39,-5.6 1.6,-1.48 3.66,-2.23 6.19,-2.23 2.47,0 4.5,0.75 6.1,2.23 1.6,1.49 2.39,3.35 2.39,5.6 0,2.18 -0.79,4.02 -2.39,5.51 -1.6,1.48 -3.63,2.23 -6.1,2.23zm7.15 4.88l0 46.94 -14.39 0 0 -46.94 14.39 0zm38.19 46.94l-9 -13.04 -7.57 13.04 -15.56 0 15.48 -23.98 -15.9 -22.96 16.15 0 9 12.95 7.57 -12.95 15.57 0 -15.74 23.64 16.16 23.3 -16.16 0zm47.87 -12.2l0 12.2 -7.32 0c-5.21,0 -9.28,-1.28 -12.2,-3.83 -2.91,-2.55 -4.37,-6.71 -4.37,-12.49l0 -18.68 -5.72 0 0 -11.94 5.72 0 0 -11.45 14.39 0 0 11.45 9.42 0 0 11.94 -9.42 0 0 18.85c0,1.4 0.33,2.41 1,3.03 0.68,0.61 1.8,0.92 3.37,0.92l5.13 0zm15.23 -39.62c-2.53,0 -4.59,-0.75 -6.18,-2.23 -1.6,-1.49 -2.4,-3.33 -2.4,-5.51 0,-2.25 0.8,-4.11 2.4,-5.6 1.59,-1.48 3.65,-2.23 6.18,-2.23 2.47,0 4.5,0.75 6.1,2.23 1.6,1.49 2.4,3.35 2.4,5.6 0,2.18 -0.8,4.02 -2.4,5.51 -1.6,1.48 -3.63,2.23 -6.1,2.23zm7.15 4.88l0 46.94 -14.39 0 0 -46.94 14.39 0zm7.57 23.38c0,-4.82 0.91,-9.05 2.74,-12.7 1.82,-3.65 4.3,-6.45 7.44,-8.41 3.14,-1.97 6.65,-2.95 10.52,-2.95 3.31,0 6.21,0.68 8.7,2.02 2.5,1.35 4.42,3.11 5.77,5.3l0 -6.64 14.38 0 0 46.94 -14.38 0 0 -6.65c-1.41,2.19 -3.35,3.96 -5.85,5.3 -2.5,1.35 -5.4,2.02 -8.71,2.02 -3.81,0 -7.29,-0.99 -10.43,-2.98 -3.14,-2 -5.62,-4.83 -7.44,-8.5 -1.83,-3.67 -2.74,-7.92 -2.74,-12.75zm35.17 0.09c0,-3.59 -1,-6.42 -2.99,-8.5 -1.99,-2.07 -4.42,-3.11 -7.28,-3.11 -2.86,0 -5.28,1.02 -7.27,3.07 -2,2.05 -2.99,4.86 -2.99,8.45 0,3.59 0.99,6.44 2.99,8.54 1.99,2.11 4.41,3.16 7.27,3.16 2.86,0 5.29,-1.04 7.28,-3.12 1.99,-2.07 2.99,-4.9 2.99,-8.49zm39.2 -38.79l0 62.26 -14.39 0 0 -62.26 14.39 0z"/>
 </g>
</svg>
