<svg width="64" height="64" viewBox="0 0 119 119" fill="none" xmlns="http://www.w3.org/2000/svg">
<path d="M101.213 17.2553C95.7574 11.7622 89.2634 7.40788 82.1093 4.44561C74.9544 1.48334 67.2815 -0.0276561 59.5372 0.000383196C49.1844 0.0104982 39.0153 2.73886 30.0493 7.91222C21.0832 13.0856 13.6346 20.5224 8.44937 29.4778C3.26413 38.4332 0.524374 48.5932 0.50428 58.9394C0.484261 69.2865 3.18472 79.4565 8.33521 88.432L0 119L31.257 110.819C39.8881 115.617 49.5863 118.175 59.4628 118.256C75.1635 118.257 90.2286 112.059 101.378 101.013C112.529 89.9678 118.862 74.9672 119 59.2771C118.948 51.4477 117.349 43.7056 114.297 36.4946C111.245 29.2836 106.799 22.7457 101.213 17.2553ZM59.5372 108.067C50.7384 108.073 42.1003 105.709 34.5316 101.224L32.7455 100.109L14.2145 105.018L19.1263 86.9445L17.9356 85.0851C11.6042 74.8713 9.24122 62.6909 11.2944 50.8519C13.3475 39.0133 19.6741 28.3383 29.0757 20.8493C38.4774 13.3602 50.3008 9.57732 62.3064 10.2172C74.3121 10.8569 85.6666 15.8751 94.2176 24.3209C103.565 33.4555 108.916 45.9157 109.102 58.9796C108.984 72.0391 103.71 84.5236 94.4275 93.7171C85.1457 102.91 72.6056 108.068 59.5372 108.067ZM86.4034 71.3258C84.9149 70.5821 77.6961 67.0121 76.3565 66.5658C75.0169 66.1196 73.975 65.8221 73.0075 67.3096C71.5518 69.3036 69.986 71.215 68.319 73.0364C67.5003 74.0777 66.6073 74.1521 65.1188 73.0364C56.6325 69.6851 49.5625 63.512 45.0994 55.5584C43.5366 52.9553 46.5879 53.104 49.4159 47.5259C49.625 47.1235 49.7337 46.6773 49.7337 46.2243C49.7337 45.7714 49.625 45.3252 49.4159 44.9228C49.4159 44.179 46.0669 36.8902 44.8762 33.9896C43.6854 31.089 42.4947 31.5353 41.5272 31.4609H38.6248C37.8727 31.4724 37.1319 31.6443 36.4517 31.9649C35.7714 32.2856 35.1676 32.7476 34.6804 33.3203C33.0106 34.943 31.7081 36.9045 30.8608 39.0727C30.0135 41.2409 29.6411 43.5654 29.7686 45.8897C30.2352 51.4536 32.3319 56.7566 35.7968 61.1365C42.139 70.6252 50.8306 78.3118 61.0256 83.4489C66.3728 86.5682 72.587 87.8727 78.738 87.1676C80.786 86.7616 82.7262 85.9293 84.4312 84.7244C86.137 83.5203 87.5696 81.9703 88.636 80.1764C89.6243 77.9868 89.9354 75.5525 89.5291 73.1852C88.8593 72.4414 87.8918 72.0696 86.4034 71.3258Z" fill="url(#paint0_linear_85_60)"/>
<defs>
<linearGradient id="paint0_linear_85_60" x1="59.5" y1="0" x2="59.5" y2="119" gradientUnits="userSpaceOnUse">
<stop stop-color="#D0006F"/>
<stop offset="1" stop-color="#8E24AA"/>
</linearGradient>
</defs>
</svg>
