<svg width="60" height="60" viewBox="0 0 58 59" fill="none" xmlns="http://www.w3.org/2000/svg">
<path d="M34.3733 30.5203C34.3733 27.5254 31.9457 25.0978 28.9509 25.0978C25.9565 25.0978 23.529 27.5256 23.529 30.5203C23.529 33.515 25.9565 35.9427 28.9509 35.9427C31.9457 35.9427 34.3733 33.5151 34.3733 30.5203ZM36.6933 30.5203C36.6933 34.7963 33.2269 38.2627 28.9509 38.2627C24.6752 38.2627 21.209 34.7962 21.209 30.5203C21.209 26.2443 24.6752 22.7778 28.9509 22.7778C33.2269 22.7778 36.6933 26.2442 36.6933 30.5203Z" fill="url(#paint0_linear_50_891)"/>
<path d="M41.6579 15.6993C48.3873 15.6993 53.8425 21.1545 53.8425 27.884C53.8425 31.9996 51.7821 35.7529 48.4618 37.9893C49.0106 39.3893 49.2982 40.8781 49.2982 42.4037C49.2982 49.1332 43.8431 54.5883 37.1136 54.5883C34.0477 54.5883 31.1659 53.4423 28.9513 51.4347C26.7372 53.4423 23.8554 54.5883 20.7895 54.5883C14.06 54.5883 8.60482 49.1332 8.60482 42.4037C8.60482 40.8781 8.89245 39.3893 9.44124 37.9893C6.12091 35.7529 4.06055 31.9996 4.06055 27.884C4.06055 21.1546 9.51561 15.6993 16.2446 15.6993C16.4363 15.6993 16.6285 15.7048 16.8232 15.7157C17.4173 9.54073 22.6207 4.7124 28.9513 4.7124C35.2822 4.7124 40.4853 9.54056 41.0794 15.7157C41.272 15.7049 41.465 15.6994 41.6579 15.6993H41.6579ZM17.7552 18.1484C17.2012 18.0628 16.7131 18.0193 16.2446 18.0193C10.7969 18.0193 6.38049 22.4359 6.38049 27.884C6.38049 31.5104 8.35527 34.788 11.4737 36.5159C12.0156 36.8162 12.2259 37.4893 11.9513 38.0447C11.2794 39.4034 10.9248 40.8806 10.9248 42.4037C10.9248 47.8519 15.3412 52.2683 20.7894 52.2683C23.606 52.2683 26.2273 51.0747 28.0915 49.017C28.5519 48.5088 29.3503 48.5087 29.8108 49.0169C31.6757 51.0748 34.2971 52.2683 37.1136 52.2683C42.5618 52.2683 46.9782 47.8519 46.9782 42.4037C46.9782 40.8806 46.6236 39.4034 45.9517 38.0447C45.6771 37.4893 45.8874 36.8161 46.4293 36.5159C49.5477 34.788 51.5225 31.5104 51.5225 27.884C51.5225 22.4358 47.1061 18.0193 41.6579 18.0193C41.1895 18.0193 40.702 18.0627 40.1478 18.1484C39.4373 18.2582 38.799 17.7019 38.8108 16.983C38.8038 11.4369 34.3919 7.0324 28.9512 7.0324C23.5124 7.0324 19.1012 11.4344 19.0866 16.8699C19.104 17.7019 18.4657 18.2582 17.7551 18.1484H17.7552Z" fill="url(#paint1_linear_50_891)"/>
<defs>
<linearGradient id="paint0_linear_50_891" x1="28.9511" y1="22.7778" x2="28.9511" y2="38.2627" gradientUnits="userSpaceOnUse">
<stop stop-color="#D0006F"/>
<stop offset="1" stop-color="#8E24AA"/>
</linearGradient>
<linearGradient id="paint1_linear_50_891" x1="28.9515" y1="4.7124" x2="28.9515" y2="54.5883" gradientUnits="userSpaceOnUse">
<stop stop-color="#D0006F"/>
<stop offset="1" stop-color="#8E24AA"/>
</linearGradient>
</defs>
</svg>
