<svg width="50" height="50" viewBox="0 0 68 69" fill="none" xmlns="http://www.w3.org/2000/svg">
<g clip-path="url(#clip0_50_868)">
<path d="M34 21.9023C30.6185 21.9023 27.3755 23.2456 24.9844 25.6367C22.5933 28.0278 21.25 31.2708 21.25 34.6523C21.25 38.0339 22.5933 41.2769 24.9844 43.668C27.3755 46.059 30.6185 47.4023 34 47.4023C37.3815 47.4023 40.6245 46.059 43.0156 43.668C45.4067 41.2769 46.75 38.0339 46.75 34.6523C46.75 31.2708 45.4067 28.0278 43.0156 25.6367C40.6245 23.2456 37.3815 21.9023 34 21.9023ZM34 28.2773C35.6908 28.2773 37.3123 28.949 38.5078 30.1445C39.7034 31.3401 40.375 32.9616 40.375 34.6523C40.375 36.3431 39.7034 37.9646 38.5078 39.1602C37.3123 40.3557 35.6908 41.0273 34 41.0273C32.3092 41.0273 30.6877 40.3557 29.4922 39.1602C28.2966 37.9646 27.625 36.3431 27.625 34.6523C27.625 32.9616 28.2966 31.3401 29.4922 30.1445C30.6877 28.949 32.3092 28.2773 34 28.2773Z" fill="url(#paint0_linear_50_868)"/>
<path d="M34 0.652344C24.9826 0.652344 16.3346 4.23448 9.95837 10.6107C3.58213 16.9869 0 25.635 0 34.6523C0 43.6697 3.58213 52.3177 9.95837 58.694C16.3346 65.0702 24.9826 68.6523 34 68.6523C43.0174 68.6523 51.6654 65.0702 58.0416 58.694C64.4179 52.3177 68 43.6697 68 34.6523C68 25.635 64.4179 16.9869 58.0416 10.6107C51.6654 4.23448 43.0174 0.652344 34 0.652344ZM34 4.90234C41.8902 4.90234 49.4572 8.03671 55.0364 13.6159C60.6156 19.1951 63.75 26.7622 63.75 34.6523C63.75 42.5425 60.6156 50.1096 55.0364 55.6888C49.4572 61.268 41.8902 64.4023 34 64.4023C26.1098 64.4023 18.5428 61.268 12.9636 55.6888C7.38437 50.1096 4.25 42.5425 4.25 34.6523C4.25 26.7622 7.38437 19.1951 12.9636 13.6159C18.5428 8.03671 26.1098 4.90234 34 4.90234Z" fill="url(#paint1_linear_50_868)"/>
</g>
<defs>
<linearGradient id="paint0_linear_50_868" x1="34" y1="21.9023" x2="34" y2="47.4023" gradientUnits="userSpaceOnUse">
<stop stop-color="#D0006F"/>
<stop offset="1" stop-color="#8E24AA"/>
</linearGradient>
<linearGradient id="paint1_linear_50_868" x1="34" y1="0.652344" x2="34" y2="68.6523" gradientUnits="userSpaceOnUse">
<stop stop-color="#D0006F"/>
<stop offset="1" stop-color="#8E24AA"/>
</linearGradient>
<clipPath id="clip0_50_868">
<rect width="68" height="68" fill="white" transform="translate(0 0.652344)"/>
</clipPath>
</defs>
</svg>
