<svg width="60" height="60" viewBox="0 0 64 52" fill="none" xmlns="http://www.w3.org/2000/svg">
<path fill-rule="evenodd" clip-rule="evenodd" d="M60.0438 21.3336H56.1076V1.65234H47.251V28.7141L34.4582 21.9241V28.7141L22.6494 21.9241V28.7141L11.8247 21.9241V28.7141L2.96813 21.9241C1.88566 21.9241 1 22.8097 1 23.8922V48.9858C1 50.0683 1.88566 50.954 2.96813 50.954H60.0438C61.1263 50.954 62.012 50.0683 62.012 48.9858V23.4002C62.012 22.2193 61.1263 21.3336 60.0438 21.3336Z" stroke="url(#paint0_linear_50_913)" stroke-width="2"/>
<path d="M8.8718 33.1426H4.93555V37.0788H8.8718V33.1426Z" stroke="url(#paint1_linear_50_913)" stroke-width="2"/>
<path d="M18.7136 33.1426H14.7773V37.0788H18.7136V33.1426Z" stroke="url(#paint2_linear_50_913)" stroke-width="2"/>
<path d="M29.5378 33.1426H25.6016V37.0788H29.5378V33.1426Z" stroke="url(#paint3_linear_50_913)" stroke-width="2"/>
<path d="M41.3464 33.1426H37.4102V37.0788H41.3464V33.1426Z" stroke="url(#paint4_linear_50_913)" stroke-width="2"/>
<path d="M1 47.0176H62.012" stroke="url(#paint5_linear_50_913)" stroke-width="2"/>
<defs>
<linearGradient id="paint0_linear_50_913" x1="31.506" y1="1.65234" x2="31.506" y2="50.954" gradientUnits="userSpaceOnUse">
<stop stop-color="#D0006F"/>
<stop offset="1" stop-color="#8E24AA"/>
</linearGradient>
<linearGradient id="paint1_linear_50_913" x1="6.90368" y1="33.1426" x2="6.90368" y2="37.0788" gradientUnits="userSpaceOnUse">
<stop stop-color="#D0006F"/>
<stop offset="1" stop-color="#8E24AA"/>
</linearGradient>
<linearGradient id="paint2_linear_50_913" x1="16.7455" y1="33.1426" x2="16.7455" y2="37.0788" gradientUnits="userSpaceOnUse">
<stop stop-color="#D0006F"/>
<stop offset="1" stop-color="#8E24AA"/>
</linearGradient>
<linearGradient id="paint3_linear_50_913" x1="27.5697" y1="33.1426" x2="27.5697" y2="37.0788" gradientUnits="userSpaceOnUse">
<stop stop-color="#D0006F"/>
<stop offset="1" stop-color="#8E24AA"/>
</linearGradient>
<linearGradient id="paint4_linear_50_913" x1="39.3783" y1="33.1426" x2="39.3783" y2="37.0788" gradientUnits="userSpaceOnUse">
<stop stop-color="#D0006F"/>
<stop offset="1" stop-color="#8E24AA"/>
</linearGradient>
<linearGradient id="paint5_linear_50_913" x1="31.506" y1="47.0176" x2="31.506" y2="48.0176" gradientUnits="userSpaceOnUse">
<stop stop-color="#D0006F"/>
<stop offset="1" stop-color="#8E24AA"/>
</linearGradient>
</defs>
</svg>
