<svg width="50" height="50" viewBox="0 0 68 69" fill="none" xmlns="http://www.w3.org/2000/svg">
<path d="M56.1066 40.8342C56.9263 40.8342 57.7125 40.5085 58.2921 39.9289C58.8718 39.3492 59.1974 38.563 59.1974 37.7433V27.704C59.5226 27.4114 59.8321 27.1019 60.1246 26.7767C61.2944 25.2882 62.1067 23.551 62.499 21.6989C62.8913 19.8469 62.853 17.9295 62.3871 16.0945L59.1016 2.99525C58.9349 2.32679 58.5496 1.7332 58.007 1.30872C57.4644 0.884243 56.7955 0.653223 56.1066 0.652344H6.65377C5.96475 0.652362 5.29548 0.882623 4.75229 1.30655C4.2091 1.73048 3.82313 2.32376 3.6557 2.99216L0.379446 16.0883C-0.0859936 17.9235 -0.123769 19.841 0.269032 21.6931C0.661833 23.5452 1.47472 25.2823 2.645 26.7705C2.93675 27.0965 3.2463 27.406 3.57224 27.6978V65.5614C3.57224 66.3812 3.89788 67.1674 4.47752 67.747C5.05716 68.3267 5.84331 68.6523 6.66305 68.6523H41.11C41.9298 68.6523 42.7159 68.3267 43.2956 67.747C43.8752 67.1674 44.2008 66.3812 44.2008 65.5614C44.2008 64.7417 43.8752 63.9555 43.2956 63.3758C42.7159 62.7962 41.9298 62.4705 41.11 62.4705H9.74148V31.2523C11.9346 31.7551 14.2239 31.6429 16.3573 30.9279C18.4907 30.2129 20.3854 28.923 21.8327 27.2002C21.9254 27.3083 21.9903 27.4351 22.0861 27.5402C23.2538 28.8062 24.6707 29.817 26.2478 30.5091C27.8249 31.2011 29.5281 31.5594 31.2504 31.5614H31.5069C33.2285 31.5601 34.9312 31.2024 36.5079 30.5109C38.0845 29.8194 39.501 28.809 40.668 27.5433C40.7669 27.4382 40.8288 27.3083 40.9215 27.2033C42.3698 28.9255 44.2652 30.2148 46.3991 30.9292C48.5329 31.6436 50.8225 31.7554 53.0158 31.2523V37.7433C53.0158 38.563 53.3414 39.3492 53.9211 39.9289C54.5007 40.5085 55.2869 40.8342 56.1066 40.8342ZM19.7402 7.24834L18.8377 18.0665L18.711 19.612C18.5761 21.1796 17.8603 22.6402 16.7041 23.7072C15.5479 24.7743 14.0347 25.3708 12.4614 25.3796C11.5082 25.3799 10.5676 25.1629 9.71089 24.7451C8.85418 24.3273 8.10398 23.7197 7.51728 22.9685C6.93058 22.2173 6.52283 21.3422 6.325 20.4098C6.12718 19.4774 6.14448 18.5122 6.3756 17.5874L9.0646 6.83416H19.7835L19.7402 7.24834ZM36.1215 23.3551C35.5365 23.9963 34.8236 24.5078 34.0288 24.8565C33.234 25.2052 32.3749 25.3834 31.5069 25.3796H31.2504C30.3841 25.3799 29.5271 25.2006 28.7335 24.8531C27.94 24.5055 27.2271 23.9973 26.6399 23.3603C26.0526 22.7234 25.6038 21.9717 25.3217 21.1525C25.0396 20.3334 24.9303 19.4647 25.0008 18.6013L25.9651 6.83416H36.7829L37.7627 18.5796C37.8381 19.4461 37.731 20.3188 37.4483 21.1413C37.1656 21.9639 36.7136 22.718 36.1215 23.3551ZM50.2959 25.3796C48.7252 25.3713 47.214 24.7775 46.0578 23.7143C44.9015 22.6512 44.1832 21.1951 44.0432 19.6305L42.9645 6.83416H53.6896L56.3786 17.5874C56.6096 18.5119 56.627 19.4769 56.4293 20.4091C56.2317 21.3413 55.8242 22.2161 55.2379 22.9673C54.6515 23.7184 53.9017 24.3261 53.0454 24.7441C52.1891 25.1621 51.2488 25.3794 50.2959 25.3796ZM59.7568 52.1685L68 53.3709L61.1322 59.0365L63.2773 68.6523L55.6368 63.1567L47.9963 68.6523L50.1414 59.0365L43.2736 53.3709L51.5168 52.1685L55.6368 43.9251L59.7568 52.1685Z" fill="url(#paint0_linear_50_926)"/>
<defs>
<linearGradient id="paint0_linear_50_926" x1="34" y1="0.652344" x2="34" y2="68.6523" gradientUnits="userSpaceOnUse">
<stop stop-color="#D0006F"/>
<stop offset="1" stop-color="#8E24AA"/>
</linearGradient>
</defs>
</svg>
