<svg width="441" height="652" viewBox="0 0 441 652" fill="none" xmlns="http://www.w3.org/2000/svg">
<g style="mix-blend-mode:color-dodge">
<path fill-rule="evenodd" clip-rule="evenodd" d="M566.772 161.872C533.297 147.634 293.553 -0.0573949 284.009 1.67336e-05C280.455 0.0287225 243.484 22.8498 237.035 26.6677C227.262 32.495 196.739 48.4554 191.838 54.9429C214.565 66.9707 238.669 82.5005 262.285 95.5616C331.815 134.027 402.376 178.378 472.222 216.643C473.884 283.527 472.336 366.918 472.078 435.324C458.895 442.816 196.165 593.177 190.405 598.803C197.598 603.855 281.115 652.569 285.213 651.995C287.735 651.622 370.506 603.281 380.165 597.54L545.965 501.749C556.798 495.721 566.829 492.19 566.829 485.788L566.772 161.872ZM2.9375 160.925C5.34497 164.398 4.08391 163.02 7.43717 165.833L25.6078 176.627C33.5754 181.421 41.7722 185.928 49.9978 190.664C58.1659 195.343 93.1315 214.26 96.4848 219.025C104.567 221.408 276.242 320.271 282.49 325.983C277.188 331.035 106.229 430.013 96.7714 433.171C90.5521 439.428 39.4794 467.56 25.6651 475.397C21.1368 477.952 18.2708 479.76 13.4272 482.43C1.38984 489.061 3.94061 486.908 5.05836 491.041C8.18234 494.199 89.2337 541.248 95.625 543.573C106.831 539.066 120.674 529.392 132.454 522.733C159.48 507.404 376.983 383.739 378.302 377.969L377.958 272.074C369.646 264.754 97.0007 109.283 96.8574 109.283C89.0045 108.049 23.2863 152.313 2.9375 160.925Z" fill="white" fill-opacity="0.05"/>
<path fill-rule="evenodd" clip-rule="evenodd" d="M566.772 161.872C533.297 147.634 293.553 -0.0573949 284.009 1.67336e-05C280.455 0.0287225 243.484 22.8498 237.035 26.6677C227.262 32.495 196.739 48.4554 191.838 54.9429C214.565 66.9707 238.669 82.5005 262.285 95.5616C331.815 134.027 402.376 178.378 472.222 216.643C473.884 283.527 472.336 366.918 472.078 435.324C458.895 442.816 196.165 593.177 190.405 598.803C197.598 603.855 281.115 652.569 285.213 651.995C287.735 651.622 370.506 603.281 380.165 597.54L545.965 501.749C556.798 495.721 566.829 492.19 566.829 485.788L566.772 161.872ZM2.9375 160.925C5.34497 164.398 4.08391 163.02 7.43717 165.833L25.6078 176.627C33.5754 181.421 41.7722 185.928 49.9978 190.664C58.1659 195.343 93.1315 214.26 96.4848 219.025C104.567 221.408 276.242 320.271 282.49 325.983C277.188 331.035 106.229 430.013 96.7714 433.171C90.5521 439.428 39.4794 467.56 25.6651 475.397C21.1368 477.952 18.2708 479.76 13.4272 482.43C1.38984 489.061 3.94061 486.908 5.05836 491.041C8.18234 494.199 89.2337 541.248 95.625 543.573C106.831 539.066 120.674 529.392 132.454 522.733C159.48 507.404 376.983 383.739 378.302 377.969L377.958 272.074C369.646 264.754 97.0007 109.283 96.8574 109.283C89.0045 108.049 23.2863 152.313 2.9375 160.925Z" fill="white" fill-opacity="0.05"/>
<path fill-rule="evenodd" clip-rule="evenodd" d="M4.44981 490.469C3.32284 486.35 0.751046 488.496 12.8876 481.888C17.7711 479.228 20.6608 477.426 25.2265 474.881C39.1546 467.072 90.6484 439.041 96.9189 432.805C94.8673 428.601 93.9715 225.89 96.6299 219.425C93.249 214.677 57.9952 195.828 49.7597 191.165C41.4663 186.446 33.2019 181.955 25.1687 177.178L6.84823 166.423C3.46732 163.62 4.73878 164.993 2.31146 161.532C-0.318129 167.482 0.519872 175.262 0.577666 182.098L0.606562 452.627C0.606562 466.7 -2.2542 488.181 4.44981 490.469Z" fill="#DADADB" fill-opacity="0.05"/>
</g>
</svg>
