<svg width="443" height="112" viewBox="0 0 344 90" fill="none" xmlns="http://www.w3.org/2000/svg">
<path d="M21.975 8.734C28.117 8.734 33.4843 9.95133 38.077 12.386C42.6697 14.8207 46.211 18.2513 48.701 22.678C51.2463 27.0493 52.519 32.1123 52.519 37.867C52.519 43.5663 51.2463 48.6293 48.701 53.056C46.211 57.4827 42.642 60.9133 37.994 63.348C33.4013 65.7827 28.0617 67 21.975 67H0.146V8.734H21.975ZM21.062 54.716C26.4293 54.716 30.607 53.2497 33.595 50.317C36.583 47.3843 38.077 43.2343 38.077 37.867C38.077 32.4997 36.583 28.322 33.595 25.334C30.607 22.346 26.4293 20.852 21.062 20.852H14.339V54.716H21.062ZM67.5887 15.872C65.0987 15.872 63.0514 15.1527 61.4467 13.714C59.8974 12.22 59.1227 10.394 59.1227 8.236C59.1227 6.02267 59.8974 4.19666 61.4467 2.758C63.0514 1.264 65.0987 0.516995 67.5887 0.516995C70.0234 0.516995 72.0154 1.264 73.5647 2.758C75.1694 4.19666 75.9717 6.02267 75.9717 8.236C75.9717 10.394 75.1694 12.22 73.5647 13.714C72.0154 15.1527 70.0234 15.872 67.5887 15.872ZM74.6437 20.686V67H60.4507V20.686H74.6437ZM102.525 20.022C105.79 20.022 108.64 20.686 111.074 22.014C113.564 23.342 115.473 25.085 116.801 27.243V20.686H130.994V66.917C130.994 71.1777 130.137 75.0233 128.421 78.454C126.761 81.94 124.188 84.7067 120.702 86.754C117.272 88.8013 112.983 89.825 107.837 89.825C100.976 89.825 95.4149 88.1927 91.1542 84.928C86.8935 81.7187 84.4589 77.3473 83.8502 71.814H97.8772C98.3199 73.5847 99.3712 74.968 101.031 75.964C102.691 77.0153 104.739 77.541 107.173 77.541C110.106 77.541 112.43 76.6833 114.145 74.968C115.916 73.308 116.801 70.6243 116.801 66.917V60.36C115.418 62.518 113.509 64.2887 111.074 65.672C108.64 67 105.79 67.664 102.525 67.664C98.7072 67.664 95.2489 66.6957 92.1502 64.759C89.0515 62.767 86.5892 59.9727 84.7632 56.376C82.9925 52.724 82.1072 48.5187 82.1072 43.76C82.1072 39.0013 82.9925 34.8237 84.7632 31.227C86.5892 27.6303 89.0515 24.8637 92.1502 22.927C95.2489 20.9903 98.7072 20.022 102.525 20.022ZM116.801 43.843C116.801 40.3017 115.805 37.5073 113.813 35.46C111.877 33.4127 109.497 32.389 106.675 32.389C103.853 32.389 101.446 33.4127 99.4542 35.46C97.5175 37.452 96.5492 40.2187 96.5492 43.76C96.5492 47.3013 97.5175 50.1233 99.4542 52.226C101.446 54.2733 103.853 55.297 106.675 55.297C109.497 55.297 111.877 54.2733 113.813 52.226C115.805 50.1787 116.801 47.3843 116.801 43.843ZM148.4 15.872C145.91 15.872 143.863 15.1527 142.258 13.714C140.709 12.22 139.934 10.394 139.934 8.236C139.934 6.02267 140.709 4.19666 142.258 2.758C143.863 1.264 145.91 0.516995 148.4 0.516995C150.835 0.516995 152.827 1.264 154.376 2.758C155.981 4.19666 156.783 6.02267 156.783 8.236C156.783 10.394 155.981 12.22 154.376 13.714C152.827 15.1527 150.835 15.872 148.4 15.872ZM155.455 20.686V67H141.262V20.686H155.455ZM193.131 67L184.25 54.135L176.78 67H161.425L176.697 43.345L161.01 20.686H176.946L185.827 33.468L193.297 20.686H208.652L193.131 44.009L209.067 67H193.131ZM240.349 54.965V67H233.128C227.982 67 223.97 65.755 221.093 63.265C218.215 60.7197 216.777 56.5973 216.777 50.898V32.472H211.133V20.686H216.777V9.398H230.97V20.686H240.266V32.472H230.97V51.064C230.97 52.4473 231.302 53.4433 231.966 54.052C232.63 54.6607 233.736 54.965 235.286 54.965H240.349ZM255.392 15.872C252.902 15.872 250.855 15.1527 249.25 13.714C247.701 12.22 246.926 10.394 246.926 8.236C246.926 6.02267 247.701 4.19666 249.25 2.758C250.855 1.264 252.902 0.516995 255.392 0.516995C257.827 0.516995 259.819 1.264 261.368 2.758C262.973 4.19666 263.775 6.02267 263.775 8.236C263.775 10.394 262.973 12.22 261.368 13.714C259.819 15.1527 257.827 15.872 255.392 15.872ZM262.447 20.686V67H248.254V20.686H262.447ZM269.911 43.76C269.911 39.0013 270.796 34.8237 272.567 31.227C274.393 27.6303 276.855 24.8637 279.954 22.927C283.053 20.9903 286.511 20.022 290.329 20.022C293.594 20.022 296.443 20.686 298.878 22.014C301.368 23.342 303.277 25.085 304.605 27.243V20.686H318.798V67H304.605V60.443C303.222 62.601 301.285 64.344 298.795 65.672C296.36 67 293.511 67.664 290.246 67.664C286.483 67.664 283.053 66.6957 279.954 64.759C276.855 62.767 274.393 59.9727 272.567 56.376C270.796 52.724 269.911 48.5187 269.911 43.76ZM304.605 43.843C304.605 40.3017 303.609 37.5073 301.617 35.46C299.68 33.4127 297.301 32.389 294.479 32.389C291.657 32.389 289.25 33.4127 287.258 35.46C285.321 37.452 284.353 40.2187 284.353 43.76C284.353 47.3013 285.321 50.1233 287.258 52.226C289.25 54.2733 291.657 55.297 294.479 55.297C297.301 55.297 299.68 54.2733 301.617 52.226C303.609 50.1787 304.605 47.3843 304.605 43.843ZM343.259 5.58V67H329.066V5.58H343.259Z" fill="url(#paint0_linear_146_670)"/>
<defs>
<linearGradient id="paint0_linear_146_670" x1="48.0779" y1="31.9427" x2="381.351" y2="31.9427" gradientUnits="userSpaceOnUse">
<stop stop-color="#D1006E"/>
<stop offset="1" stop-color="#8E24AA"/>
</linearGradient>
</defs>
</svg>
