<svg width="40" height="41" viewBox="0 0 40 41" fill="none" xmlns="http://www.w3.org/2000/svg">
<path d="M20.0264 0.935547C8.73891 0.935547 -0.319305 10.4745 0.476443 21.9325C1.19575 32.2988 10.2376 40.135 20.6274 40.135H21.9864C24.1521 40.135 25.9063 38.3808 25.9063 36.215V30.3351C25.9063 28.1693 27.6605 26.4152 29.8262 26.4152H35.7061C37.8719 26.4152 39.6261 24.661 39.6261 22.4952V21.1363C39.6261 10.7465 31.7918 1.70462 21.4275 0.985312C20.9571 0.951992 20.4889 0.935547 20.0264 0.935547ZM20.0264 4.85549C20.3988 4.85549 20.7736 4.86829 21.1518 4.89377C29.3132 5.4602 35.7061 12.5947 35.7061 21.1363V22.4952H29.8262C25.5025 22.4952 21.9864 26.0114 21.9864 30.3351V36.215H20.6274C12.0858 36.215 4.94937 29.8201 4.3849 21.6607C4.07914 17.2508 5.5607 13.0559 8.55749 9.84346C11.5582 6.62715 15.6321 4.85549 20.0264 4.85549ZM21.0064 6.81546C20.2266 6.81546 19.4789 7.1252 18.9275 7.67655C18.3762 8.2279 18.0664 8.97569 18.0664 9.75541C18.0664 10.5351 18.3762 11.2829 18.9275 11.8343C19.4789 12.3856 20.2266 12.6954 21.0064 12.6954C21.7861 12.6954 22.5339 12.3856 23.0852 11.8343C23.6366 11.2829 23.9463 10.5351 23.9463 9.75541C23.9463 8.97569 23.6366 8.2279 23.0852 7.67655C22.5339 7.1252 21.7861 6.81546 21.0064 6.81546ZM13.1665 8.77543C12.3868 8.77543 11.639 9.08517 11.0876 9.63652C10.5363 10.1879 10.2265 10.9357 10.2265 11.7154C10.2265 12.4951 10.5363 13.2429 11.0876 13.7942C11.639 14.3456 12.3868 14.6553 13.1665 14.6553C13.9462 14.6553 14.694 14.3456 15.2453 13.7942C15.7967 13.2429 16.1064 12.4951 16.1064 11.7154C16.1064 10.9357 15.7967 10.1879 15.2453 9.63652C14.694 9.08517 13.9462 8.77543 13.1665 8.77543ZM28.8462 10.7354C28.0665 10.7354 27.3187 11.0451 26.7674 11.5965C26.216 12.1478 25.9063 12.8956 25.9063 13.6754C25.9063 14.4551 26.216 15.2029 26.7674 15.7542C27.3187 16.3056 28.0665 16.6153 28.8462 16.6153C29.626 16.6153 30.3738 16.3056 30.9251 15.7542C31.4765 15.2029 31.7862 14.4551 31.7862 13.6754C31.7862 12.8956 31.4765 12.1478 30.9251 11.5965C30.3738 11.0451 29.626 10.7354 28.8462 10.7354ZM9.24654 16.6153C8.46682 16.6153 7.71903 16.9251 7.16768 17.4764C6.61633 18.0278 6.30659 18.7755 6.30659 19.5553C6.30659 20.335 6.61633 21.0828 7.16768 21.6341C7.71903 22.1855 8.46682 22.4952 9.24654 22.4952C10.0263 22.4952 10.7741 22.1855 11.3254 21.6341C11.8768 21.0828 12.1865 20.335 12.1865 19.5553C12.1865 18.7755 11.8768 18.0278 11.3254 17.4764C10.7741 16.9251 10.0263 16.6153 9.24654 16.6153ZM16.1064 24.4552C15.0668 24.4552 14.0698 24.8682 13.3346 25.6033C12.5995 26.3384 12.1865 27.3355 12.1865 28.3751C12.1865 29.4148 12.5995 30.4118 13.3346 31.1469C14.0698 31.8821 15.0668 32.2951 16.1064 32.2951C17.1461 32.2951 18.1431 31.8821 18.8783 31.1469C19.6134 30.4118 20.0264 29.4148 20.0264 28.3751C20.0264 27.3355 19.6134 26.3384 18.8783 25.6033C18.1431 24.8682 17.1461 24.4552 16.1064 24.4552Z" fill="url(#paint0_linear_146_999)"/>
<defs>
<linearGradient id="paint0_linear_146_999" x1="20.0269" y1="0.935547" x2="20.0269" y2="40.135" gradientUnits="userSpaceOnUse">
<stop stop-color="#D0006F"/>
<stop offset="1" stop-color="#8E24AA"/>
</linearGradient>
</defs>
</svg>
