<svg width="40" height="40" viewBox="0 0 40 40" fill="none" xmlns="http://www.w3.org/2000/svg">
<path d="M20.1411 39.7556C9.40889 39.745 0.716049 31.0429 0.738324 20.3323C0.760599 9.59142 9.47324 0.893009 20.1671 0.935703C30.9173 0.979016 39.5489 9.6205 39.5526 20.3435C39.5563 31.0664 30.8592 39.7667 20.1411 39.7556ZM35.6823 20.3546C35.7027 11.8121 28.7523 4.82394 20.1628 4.81466C11.6024 4.80847 4.66183 11.6828 4.60985 20.32C4.55912 28.8464 11.5813 35.8797 20.1436 35.8847C28.6904 35.8896 35.6613 28.9225 35.6823 20.3546Z" fill="url(#paint0_linear_146_1088)"/>
<path d="M28.9566 13.4963C28.9338 14.0835 28.6863 14.5606 28.2729 14.9714C26.5709 16.6668 24.8721 18.3653 23.1763 20.0669C22.896 20.3472 22.896 20.3472 23.1856 20.6367C24.8912 22.3428 26.5965 24.0492 28.3014 25.7557C29.1522 26.6102 29.1726 27.8019 28.3633 28.5964C27.583 29.3636 26.4074 29.3481 25.5913 28.5401C24.2801 27.2407 22.9795 25.932 21.6739 24.6277C21.2365 24.1902 20.7904 23.7614 20.3653 23.3116C20.1933 23.1303 20.0912 23.1421 19.9192 23.3116C18.2044 25.0379 16.4849 26.7593 14.7606 28.4757C14.0138 29.2213 13.0683 29.3636 12.2584 28.8606C11.1712 28.1849 11.0159 26.737 11.9447 25.7984C13.2503 24.4792 14.567 23.1711 15.8787 21.8588L17.0816 20.6559C17.3909 20.3465 17.3909 20.3465 17.0915 20.0427C15.3878 18.337 13.6834 16.6309 11.9781 14.9244C11.3043 14.2481 11.1508 13.3887 11.5493 12.6041C12.1507 11.4198 13.6828 11.1711 14.6616 12.1184C15.5508 12.9791 16.4152 13.8639 17.2901 14.7388C18.165 15.6137 19.0306 16.4713 19.8888 17.3462C20.085 17.5473 20.1982 17.5578 20.403 17.3505C22.1071 15.6292 23.8247 13.9196 25.5356 12.2044C25.8487 11.8907 26.2026 11.6642 26.6462 11.5757C27.828 11.3394 28.9684 12.2805 28.9566 13.4963Z" fill="url(#paint1_linear_146_1088)"/>
<defs>
<linearGradient id="paint0_linear_146_1088" x1="20.1455" y1="0.935547" x2="20.1455" y2="39.7556" gradientUnits="userSpaceOnUse">
<stop stop-color="#D0006F"/>
<stop offset="1" stop-color="#8E24AA"/>
</linearGradient>
<linearGradient id="paint1_linear_146_1088" x1="20.1444" y1="11.5383" x2="20.1444" y2="29.1593" gradientUnits="userSpaceOnUse">
<stop stop-color="#D0006F"/>
<stop offset="1" stop-color="#8E24AA"/>
</linearGradient>
</defs>
</svg>
