<svg width="39" height="39" viewBox="0 0 39 39" fill="none" xmlns="http://www.w3.org/2000/svg">
<path d="M0.0035521 14.0409C0.0035521 11.0539 0.0035521 8.06695 0.0035521 5.07998C0.00702084 3.34214 0.70366 1.94539 2.10908 0.920952C2.96759 0.294843 3.94405 0 5.00548 0C11.0376 0 17.0694 0.00115625 23.1008 0.00346874C25.6567 0.00982811 27.6726 1.7679 28.0669 4.28737C28.1031 4.57493 28.1177 4.8648 28.1108 5.15456C28.1154 6.32005 28.1108 7.48613 28.1108 8.65221C28.1108 9.06557 28.1108 9.06614 27.7061 9.06614C23.7937 9.06614 19.8818 9.06614 15.9702 9.06614C13.046 9.07019 10.5792 10.7462 9.52237 13.4333C9.19341 14.2693 9.06507 15.1405 9.06507 16.0349C9.06507 19.9179 9.06507 23.801 9.06507 27.6841C9.06507 28.1096 9.06507 28.1096 8.6442 28.1096C7.43013 28.1096 6.21607 28.1188 5.00201 28.1096C2.78028 28.0876 0.949363 26.7839 0.261395 24.6784C0.0891145 24.1274 0.0197396 23.5256 0.0151146 22.9475C-0.00974476 19.9765 0.0035521 17.009 0.0035521 14.0409Z" fill="url(#paint0_linear_146_720)"/>
<path d="M24.9064 38.9969C21.929 38.9969 18.9517 39.005 15.9744 38.994C14.0353 38.987 12.5484 38.1465 11.5471 36.4832C11.0748 35.6975 10.8863 34.8315 10.888 33.9146C10.895 31.024 10.888 28.1333 10.888 25.2427C10.888 22.1301 10.8782 19.0181 10.8927 15.9054C10.9013 13.9843 11.7627 12.5269 13.4034 11.5406C14.155 11.0908 14.9806 10.8873 15.857 10.8873C21.9082 10.8873 27.9595 10.8752 34.0101 10.8931C36.8597 10.9012 38.9872 13.09 38.9941 15.9806C39.0045 20.4321 38.9941 24.8837 38.9941 29.3353C38.9941 30.8673 39.0022 32.3993 38.9941 33.9319C38.9774 36.3294 37.5448 38.21 35.2363 38.8362C34.7784 38.9599 34.2847 38.9899 33.8066 38.9917C30.842 39.0038 27.8745 38.9969 24.9064 38.9969ZM24.9266 36.2722C27.0749 36.2722 29.2232 36.2722 31.3715 36.2722C32.2965 36.2722 33.2215 36.2768 34.1465 36.26C34.7883 36.2479 35.3115 35.9594 35.7312 35.4813C36.1509 35.0032 36.2804 34.4233 36.2792 33.7938C36.2719 30.2001 36.2708 26.6067 36.2758 23.0135C36.2758 20.701 36.2862 18.3885 36.2648 16.076C36.2613 15.6713 36.1995 15.2348 36.0295 14.8764C35.604 13.9803 34.8374 13.6045 33.8471 13.6045C27.9117 13.6126 21.9763 13.6141 16.0408 13.6091C15.9351 13.6091 15.8235 13.5929 15.724 13.6195C15.3928 13.7068 15.0332 13.7537 14.7412 13.9184C13.9897 14.3451 13.611 15.0221 13.611 15.8968C13.611 21.927 13.611 27.9587 13.611 33.9921C13.611 34.0591 13.6156 34.1268 13.6191 34.1938C13.6395 34.6106 13.7868 35.0112 14.0411 35.342C14.5418 36.012 15.2222 36.2797 16.0495 36.2762C19.0113 36.2652 21.9672 36.2716 24.9266 36.2722Z" fill="url(#paint1_linear_146_720)"/>
<defs>
<linearGradient id="paint0_linear_146_720" x1="14.0564" y1="0" x2="14.0564" y2="28.1137" gradientUnits="userSpaceOnUse">
<stop stop-color="#D0006F"/>
<stop offset="1" stop-color="#8E24AA"/>
</linearGradient>
<linearGradient id="paint1_linear_146_720" x1="24.9418" y1="10.8833" x2="24.9418" y2="38.9997" gradientUnits="userSpaceOnUse">
<stop stop-color="#D0006F"/>
<stop offset="1" stop-color="#8E24AA"/>
</linearGradient>
</defs>
</svg>
