<svg width="60" height="60" viewBox="0 0 125 122" fill="none" xmlns="http://www.w3.org/2000/svg">
<path d="M23 50.2C23 44.5667 27.5667 40 33.2 40H57.6667C67.2396 40 75 47.7604 75 57.3333V84.614C75 88.1409 72.1409 91 68.614 91H63.8C41.2668 91 23 72.7332 23 50.2Z" fill="#FF6B00" fill-opacity="0.6"/>
<path fill-rule="evenodd" clip-rule="evenodd" d="M70.1252 32.9123C70.4827 31.5702 71.0339 30.2831 71.7482 29.091L69.2065 25.7016C68.9416 25.3522 68.9878 24.8682 69.2938 24.569L72.6699 21.2677C73.0014 20.9435 73.5264 20.9288 73.8729 21.2184L77.2867 23.6752C78.5054 22.9773 79.8208 22.4391 81.1921 22.0905L81.8417 17.9394C81.9082 17.5054 82.2907 17.1962 82.7239 17.1964L87.4949 17.199C87.9537 17.1992 88.3307 17.5387 88.3814 17.9729L89.0266 22.0948C90.3976 22.4448 91.7124 22.9844 92.9303 23.6836L96.3926 21.1956C96.7495 20.9364 97.2439 20.9815 97.5496 21.2811L100.922 24.5861C101.253 24.9106 101.268 25.4245 100.973 25.7637L98.4629 29.1055C99.1759 30.2984 99.7257 31.586 100.082 32.9285L104.322 33.5644C104.766 33.6295 105.082 34.0039 105.081 34.4281L105.079 39.0984C105.079 39.5475 104.732 39.9165 104.288 39.9662L100.078 40.5976C99.7201 41.9397 99.1689 43.2267 98.4546 44.4189L100.996 47.8082C101.261 48.1577 101.215 48.6416 100.909 48.9409L97.5329 52.2422C97.2014 52.5664 96.6764 52.581 96.3299 52.2915L92.9161 49.8346C91.6975 50.5326 90.3821 51.0707 89.0107 51.4193L88.3611 55.5704C88.2946 56.0045 87.9122 56.3137 87.4789 56.3134L82.7079 56.3109C82.2491 56.3106 81.8721 55.9711 81.8214 55.537L81.1762 51.4151C79.8052 51.065 78.4904 50.5255 77.2726 49.8262L73.8102 52.3142C73.4533 52.5735 72.9589 52.5283 72.6532 52.2288L69.2806 48.9238C68.9495 48.5993 68.9344 48.0854 69.2303 47.7462L71.7399 44.4044C71.027 43.2115 70.4772 41.9238 70.121 40.5814L65.8805 39.9404C65.437 39.8753 65.1212 39.5009 65.1214 39.0768L65.1239 34.4065C65.1242 33.9574 65.471 33.5884 65.9145 33.5387L70.1252 32.9123ZM2.12648 81.9499L5.09461 79.0475C5.44141 78.7084 6.0072 78.7087 6.35363 79.0482L9.41046 82.0437C9.99067 74.1853 13.8227 66.7278 20.4417 61.5465C20.8905 61.1975 22.9098 59.6967 23.3534 59.5821C23.8275 59.4576 24.3167 59.7323 24.4439 60.2014L26.0921 66.2449L37.6042 52.2294L20.486 45.7085L22.0173 51.3228C22.1191 51.707 21.9455 52.1211 21.5784 52.3155C10.2236 58.2272 2.89782 69.5062 2.12648 81.9499ZM11.1271 83.9906C11.1777 75.2686 15.5047 66.9579 23.0514 61.8129L24.837 68.3454C25.0202 69.0191 25.9274 69.2342 26.3915 68.6656L39.7651 52.3862C40.1374 51.9324 39.9543 51.2437 39.3937 51.0288L19.5593 43.4738C18.8101 43.164 18.1421 43.8173 18.3252 44.491L20.1311 51.1034C18.6882 51.891 17.286 52.7685 15.9347 53.7507C-3.04987 67.517 -5.08824 94.5259 11.5664 110.846C26.6458 125.619 51.0827 125.611 66.1531 110.875C73.4869 103.704 77.2384 94.3848 77.4523 84.9937C77.6664 75.5383 74.2818 66.0115 67.3535 58.5326C67.328 58.5027 67.3025 58.4777 67.272 58.4528C61.423 53.3003 58.2717 46.2231 58.0716 38.9628C57.6516 23.6941 70.213 11.0664 85.8314 11.0747C101.159 11.083 113.544 23.2147 113.567 38.2542C113.583 47.0013 109.2 55.4415 101.617 60.5814L100.106 55.052C99.9231 54.3783 99.0159 54.1632 98.5517 54.7318L85.1782 71.0111C84.8058 71.465 84.989 72.1537 85.5496 72.3685L105.384 79.9236C106.133 80.2333 106.801 79.575 106.618 78.9063L104.537 71.2909C105.975 70.5083 107.382 69.6209 108.744 68.6387C127.749 54.8673 129.767 27.8494 113.123 11.5386C98.0575 -3.22435 73.6167 -3.23744 58.5358 11.5094C43.3936 26.3163 43.5595 50.2964 58.5174 64.9546L58.6498 65.0844L58.7568 65.1993C69.3433 75.848 69.2526 92.8485 58.4917 103.376C47.6492 113.978 30.0783 113.969 19.2428 103.355C13.8425 98.0629 11.1344 91.1307 11.1229 84.1951C11.1331 84.1153 11.1322 84.0555 11.1271 83.9906ZM9.34283 84.4387C9.50288 99.697 21.7551 112.213 37.3216 113.014L34.2974 115.972C33.9506 116.311 33.9503 116.865 34.2967 117.204L37.2975 120.145C17.7296 119.326 2.24743 103.654 2.06327 84.4796L5.73015 80.8939L9.34283 84.4387ZM115.351 37.7769L119.014 41.3665L122.635 37.8258C122.401 17.7913 105.522 1.80109 85.0713 2.20401L88.1841 5.25437C88.5305 5.59385 88.5302 6.14772 88.1834 6.48683L85.2815 9.3245C101.623 9.04385 115.089 21.7843 115.351 37.7769ZM122.572 40.3554L119.645 43.218C119.298 43.5571 118.732 43.5568 118.386 43.2173L115.294 40.1869C114.749 48.1103 110.912 55.6228 104.237 60.8437C103.773 61.2077 101.758 62.6985 101.315 62.8181C100.841 62.9426 100.352 62.6679 100.224 62.1988L98.8457 57.1585L87.3336 71.174L104.452 77.6948L102.656 71.1125C102.529 70.7182 102.702 70.2792 103.09 70.0798C114.491 64.1582 121.827 52.83 122.572 40.3569L122.572 40.3554ZM82.5857 9.49697L86.2934 5.87148L82.6762 2.32688C64.1014 3.87379 49.6325 18.8052 49.0303 36.9921C48.7298 45.9584 51.8343 54.9764 58.1614 62.0207L59.7814 63.713L59.8884 63.8129C65.5893 69.3995 68.4652 76.9706 68.4103 84.3397C68.3605 91.6746 65.4817 98.9934 59.7545 104.588C54.2261 109.994 47.0578 112.804 39.8241 113.03L36.193 116.58L39.8408 120.155C59.4602 119.667 75.2448 104.178 75.6779 84.9571C75.8815 75.9358 72.6548 66.8526 66.0474 59.7136C65.65 59.3592 65.273 59.0097 64.9164 58.6652C53.4077 47.3872 53.4175 29.0547 64.9434 17.7842C69.8853 12.9468 76.141 10.1859 82.5849 9.49571L82.5857 9.49697ZM30.8219 86.6506C30.8242 82.4892 34.2717 79.118 38.5228 79.1203C42.7739 79.1226 46.2179 82.4974 46.2156 86.6589C46.2134 90.8203 42.7659 94.1915 38.5147 94.1892C34.2636 94.1869 30.8197 90.812 30.8219 86.6506ZM34.3361 82.561C36.6464 80.3019 40.3878 80.3039 42.6956 82.5654C46.4096 86.205 43.7608 92.4457 38.5106 92.4429C33.2604 92.4401 30.6182 86.1916 34.3361 82.561ZM23.5349 82.8096C23.8925 81.4676 24.4437 80.1805 25.1579 78.9884L22.6162 75.599C22.3514 75.2496 22.3975 74.7656 22.7035 74.4664L26.0796 71.165C26.4111 70.8409 26.9361 70.8262 27.2826 71.1158L30.6965 73.5726C31.9151 72.8747 33.2305 72.3365 34.6018 71.9879L35.2514 67.8368C35.3179 67.4028 35.7004 67.0936 36.1336 67.0938L40.9046 67.0964C41.3634 67.0966 41.7404 67.4362 41.7911 67.8703L42.4363 71.9922C43.8073 72.3422 45.1221 72.8818 46.34 73.581L49.8023 71.093C50.1593 70.8338 50.6537 70.8789 50.9593 71.1785L54.3319 74.4834C54.6631 74.808 54.6781 75.3219 54.3823 75.6611L51.8726 79.0029C52.5856 80.1958 53.1354 81.4834 53.4915 82.8259L57.7321 83.4618C58.1755 83.5269 58.4913 83.9013 58.4911 84.3255L58.4886 88.9958C58.4884 89.4449 58.1416 89.8139 57.6981 89.8636L53.4873 90.495C53.1298 91.8371 52.5786 93.1241 51.8643 94.3163L54.406 97.7056C54.6709 98.0551 54.6248 98.539 54.3188 98.8383L50.9426 102.14C50.6111 102.464 50.0861 102.478 49.7397 102.189L46.3258 99.7321C45.1072 100.43 43.7918 100.968 42.4204 101.317L41.7708 105.468C41.7043 105.902 41.3219 106.211 40.8886 106.211L36.1176 106.208C35.6589 106.208 35.2818 105.869 35.2311 105.434L34.586 101.312C33.2149 100.962 31.9001 100.423 30.6823 99.7236L27.2199 102.212C26.863 102.471 26.3686 102.426 26.0629 102.126L22.6903 98.8212C22.3592 98.4967 22.3442 97.9828 22.64 97.6436L25.1497 94.3018C24.4367 93.1089 23.8869 91.8213 23.5308 90.4788L19.2902 89.8378C18.8467 89.7727 18.5309 89.3983 18.5311 88.9742L18.5336 84.3039C18.5339 83.8548 18.8807 83.4858 19.3242 83.4361L23.5349 82.8096ZM25.8548 81.5186C26.1662 80.7802 26.5437 80.0819 26.9774 79.4185C27.1865 79.0993 27.1562 78.6951 26.932 78.4106L24.5074 75.176L26.8024 72.9319L30.1296 75.3237C30.4354 75.5435 30.8381 75.5437 31.1389 75.3542C32.4902 74.5067 34.0043 73.8888 35.5899 73.5503C35.962 73.4706 36.2272 73.1764 36.2835 72.8271L36.9126 68.8407L40.1545 68.8424L40.7793 72.8295C40.8352 73.2088 41.1307 73.4884 41.4925 73.5584C43.0063 73.8636 44.6268 74.5481 45.916 75.3621C46.2421 75.5669 46.655 75.5372 46.9457 75.3178L50.2499 72.9444L52.5425 75.191L50.0991 78.448C49.8747 78.7473 49.8744 79.1415 50.068 79.436C50.9338 80.7588 51.565 82.241 51.9109 83.793C51.9923 84.1573 52.2929 84.417 52.6497 84.472L56.7221 85.088L56.7204 88.2615L52.6473 88.873C52.2599 88.9277 51.9743 89.2169 51.9027 89.5712C51.591 91.053 50.8918 92.6393 50.0602 93.9013C49.8511 94.2205 49.8814 94.6247 50.1056 94.9092L52.5302 98.1438L50.2352 100.388L46.9079 97.9961C46.6022 97.7763 46.1995 97.7761 45.8987 97.9656C44.5474 98.8131 43.0333 99.431 41.4478 99.7695C41.0756 99.8492 40.8104 100.143 40.7541 100.493L40.125 104.479L36.8831 104.477L36.2583 100.49C36.2024 100.111 35.9069 99.8314 35.5451 99.7614C34.0313 99.4562 32.4108 98.7717 31.1216 97.9577C30.7955 97.7529 30.3826 97.7826 30.0919 98.002L26.7877 100.375L24.4951 98.1288L26.9385 94.8718C27.1629 94.5725 27.1632 94.1783 26.9696 93.8838C26.1038 92.561 25.4726 91.0788 25.1267 89.5319C25.0453 89.1676 24.7447 88.9079 24.3879 88.8529L20.3155 88.2369L20.3172 85.0634L24.3903 84.4519C24.7777 84.3972 25.0633 84.108 25.1349 83.7537C25.3137 82.9754 25.5537 82.227 25.8548 81.5186ZM74.9615 34.337C74.7063 34.9057 75.129 35.5596 75.7764 35.56L81.1489 35.5628C82.7597 35.5637 82.7584 37.9488 81.1476 37.9479L75.7751 37.9451L75.7751 37.9501C75.1787 37.9497 74.7451 38.5183 74.9283 39.0823C75.4372 40.6444 76.4458 41.9871 77.7655 42.9358C81.6073 45.6822 87.0214 44.4427 89.2511 40.3623L94.4247 40.3651C94.9192 40.3654 95.317 39.9764 95.3172 39.4924L95.3201 34.0436C95.3204 33.5596 94.923 33.1702 94.4286 33.1699L89.2549 33.1672C88.6337 32.0292 87.7268 31.0607 86.6262 30.3566C82.3408 27.61 76.5748 29.6076 74.9615 34.337ZM78.8213 31.9789C78.138 32.4675 77.5617 33.0909 77.1382 33.8142L81.1548 33.8164C85.1256 33.8185 85.1225 39.6965 81.1517 39.6943L77.135 39.6922C78.8614 42.6321 82.7655 43.5472 85.6565 41.7026C86.6203 41.0894 87.3904 40.2116 87.8701 39.1739C87.9977 38.8447 88.3241 38.6104 88.7064 38.6106L93.5436 38.6132L93.5456 34.9108L88.7083 34.9082C88.3668 34.908 88.0407 34.7133 87.8931 34.3889C86.3352 30.9202 81.9115 29.78 78.8213 31.9789ZM72.4448 31.6212C72.1437 32.3346 71.9038 33.0779 71.7249 33.8512C71.6585 34.2055 71.3678 34.4947 70.9804 34.5494L66.9073 35.161L66.9056 38.3345L70.978 38.9504C71.3348 39.0005 71.6354 39.2651 71.7167 39.6294C72.0625 41.1813 72.6887 42.6587 73.5597 43.9814C73.7532 44.2759 73.753 44.6701 73.5286 44.9693L71.0852 48.2263L73.3778 50.4729L76.682 48.0996C76.9727 47.8752 77.3856 47.8455 77.7117 48.0552C79.0009 48.8642 80.6215 49.5537 82.1351 49.8589C82.497 49.924 82.7925 50.2086 82.8484 50.5878L83.4732 54.5749L86.7151 54.5767L87.3442 50.5902C87.3954 50.241 87.6657 49.9467 88.0378 49.8671C89.6232 49.5336 91.1324 48.9107 92.4888 48.0631C92.7896 47.8737 93.1923 47.8739 93.498 48.0936L96.8253 50.4855L99.1202 48.2413L96.6956 45.0067C96.4664 44.7222 96.436 44.318 96.6503 43.9988C97.4767 42.7368 98.181 41.1505 98.4928 39.6687C98.5593 39.3145 98.85 39.0253 99.2374 38.9706L103.31 38.359L103.312 35.1855L99.2397 34.5696C98.8829 34.5195 98.5823 34.2549 98.501 33.8906C98.1603 32.3386 97.5239 30.8613 96.658 29.5335C96.4645 29.239 96.4647 28.8448 96.6892 28.5456L99.1325 25.2885L96.84 23.0419L93.5357 25.4153C93.2451 25.6397 92.8322 25.6694 92.506 25.4597C91.2169 24.6507 89.5963 23.9612 88.0826 23.656C87.7207 23.5909 87.4252 23.3063 87.3694 22.9271L86.7445 18.9399L83.5026 18.9382L82.8735 22.9247C82.8224 23.2739 82.5521 23.5682 82.1799 23.6478C80.5945 23.9813 79.0853 24.6042 77.729 25.4518C77.4281 25.6412 77.0254 25.641 76.7197 25.4213L73.3924 23.0294L71.0975 25.2735L73.5221 28.5081C73.7513 28.7927 73.7817 29.1968 73.5674 29.5161C73.1338 30.1795 72.7562 30.8829 72.4448 31.6212Z" fill="black"/>
</svg>
