<svg width="64" height="61.4" viewBox="0 0 130 123" fill="none" xmlns="http://www.w3.org/2000/svg">
<path d="M0 45.6C0 36.4321 7.43207 29 16.6 29H56.6667C72.3147 29 85 41.6853 85 57.3333V101.561C85 107.326 80.3265 112 74.5614 112H66.4C29.7283 112 0 82.2717 0 45.6Z" fill="#CAB1FF" fill-opacity="0.6"/>
<path d="M39.8533 64.6266C39.3013 64.6266 38.8574 64.1831 38.8574 63.6317V56.6755C38.8574 56.1241 39.3013 55.6807 39.8533 55.6807C40.4053 55.6807 40.8492 56.1241 40.8492 56.6755V63.6356C40.8453 64.1831 40.4014 64.6266 39.8533 64.6266Z" fill="black"/>
<path d="M20.939 113.347H14.7282C12.4547 113.347 10.3587 112.206 9.13123 110.293C7.90375 108.381 7.73777 106.002 8.68347 103.939C8.68347 103.939 8.68347 103.935 8.68733 103.935L17.0056 86.0778C17.2372 85.5804 17.8278 85.3644 18.3257 85.5958C18.8237 85.8271 19.0398 86.4171 18.8082 86.9145L10.4899 104.772C9.82603 106.218 9.94569 107.883 10.8065 109.225C11.6672 110.567 13.134 111.365 14.7282 111.365H20.939C21.4909 111.365 21.9348 111.809 21.9348 112.36C21.9348 112.912 21.4871 113.347 20.939 113.347Z" fill="black"/>
<path d="M23.4859 75.5196C23.347 75.5196 23.2041 75.4888 23.0729 75.4271C22.5711 75.1996 22.355 74.6096 22.5827 74.1083L25.6398 67.4451C26.9831 64.5223 29.9244 62.6367 33.1437 62.6367H39.8523C40.4043 62.6367 40.8482 63.0802 40.8482 63.6316C40.8482 64.183 40.4043 64.6264 39.8523 64.6264H33.1437C30.7003 64.6264 28.4692 66.0608 27.454 68.2742L24.3969 74.9374C24.2232 75.3037 23.8642 75.5196 23.4859 75.5196Z" fill="black"/>
<path d="M78.0893 113.347H71.701C71.149 113.347 70.7051 112.904 70.7051 112.352C70.7051 111.801 71.149 111.357 71.701 111.357H78.0893C79.6834 111.357 81.1502 110.559 82.011 109.217C82.8718 107.875 82.9876 106.21 82.3237 104.764L74.9356 88.6571C74.7079 88.1558 74.9279 87.5658 75.4259 87.3383C75.9277 87.1108 76.5182 87.3306 76.746 87.828L84.134 103.935C85.0797 106.001 84.9137 108.381 83.6863 110.289C82.4588 112.206 80.3667 113.347 78.0893 113.347Z" fill="black"/>
<path d="M69.3405 75.5429C68.9622 75.5429 68.5994 75.3269 68.4334 74.9645L65.3647 68.282C64.3495 66.0648 62.1146 64.6342 59.675 64.6342H52.7849C52.233 64.6342 51.7891 64.1908 51.7891 63.6394C51.7891 63.088 52.233 62.6445 52.7849 62.6445H59.675C62.8904 62.6445 65.8356 64.5301 67.1789 67.453L70.2476 74.1354C70.4753 74.6367 70.2553 75.2267 69.7574 75.4542C69.6223 75.512 69.4794 75.5429 69.3405 75.5429Z" fill="black"/>
<path d="M52.7869 64.6266C52.2349 64.6266 51.791 64.1831 51.791 63.6317V56.6755C51.791 56.1241 52.2349 55.6807 52.7869 55.6807C53.3389 55.6807 53.7828 56.1241 53.7828 56.6755V63.6356C53.7828 64.1831 53.3389 64.6266 52.7869 64.6266Z" fill="black"/>
<path d="M46.3954 69.1381C44.6468 69.1381 42.8017 68.5134 41.3117 67.4299C39.8411 66.3541 38.9263 64.9582 38.8645 63.705C38.8375 63.1536 39.2621 62.6909 39.8102 62.6639C40.3622 62.6369 40.8254 63.0611 40.8524 63.6086C40.8794 64.1369 41.3928 65.0238 42.4852 65.8258C43.6355 66.6703 45.0598 67.1484 46.3876 67.1484C47.8004 67.1484 49.2054 66.732 50.2438 66.0071C51.2088 65.3284 51.7569 64.4762 51.7878 63.6009C51.8071 63.0495 52.2664 62.6215 52.8184 62.6408C53.3704 62.66 53.7988 63.1189 53.7795 63.6703C53.7255 65.1819 52.8763 66.5932 51.3902 67.6343C50.0045 68.6021 48.2289 69.1381 46.3954 69.1381Z" fill="black"/>
<path d="M75.6773 108.377H17.9549C17.4029 108.377 16.959 107.933 16.959 107.382V82.5876C16.959 77.6211 21.0081 73.5762 25.9798 73.5762H67.6562C72.6279 73.5762 76.6771 77.6211 76.6771 82.5876V107.382C76.6732 107.929 76.2293 108.377 75.6773 108.377ZM18.9507 106.387H74.6853V82.5876C74.6853 78.7162 71.5317 75.562 67.6524 75.562H25.9759C22.1005 75.562 18.943 78.7124 18.943 82.5876L18.9507 106.387Z" fill="black"/>
<path d="M72.2617 113.347H20.6882C17.3956 113.347 14.7168 110.671 14.7168 107.382C14.7168 106.831 15.1607 106.387 15.7127 106.387H77.2372C77.7892 106.387 78.2331 106.831 78.2331 107.382C78.2331 110.675 75.5504 113.347 72.2617 113.347ZM16.8321 108.377C17.276 110.093 18.8354 111.361 20.6882 111.361H72.2617C74.1145 111.361 75.6739 110.093 76.1178 108.377H16.8321Z" fill="black"/>
<path d="M46.3176 96.4464C44.3953 96.4464 42.832 94.8847 42.832 92.9644C42.832 91.0441 44.3953 89.4824 46.3176 89.4824C48.2399 89.4824 49.8032 91.0441 49.8032 92.9644C49.8032 94.8847 48.236 96.4464 46.3176 96.4464ZM46.3176 91.4721C45.4954 91.4721 44.8276 92.1392 44.8276 92.9605C44.8276 93.7819 45.4954 94.449 46.3176 94.449C47.1398 94.449 47.8076 93.7819 47.8076 92.9605C47.8114 92.1469 47.1437 91.4721 46.3176 91.4721Z" fill="black"/>
<path d="M46.6353 58.7155C44.8828 58.7155 43.169 58.4225 41.5324 57.8402C39.9536 57.2772 38.483 56.4598 37.1628 55.4148C34.5265 53.3171 32.6389 50.3711 31.8476 47.1205C31.7627 46.7696 31.6894 46.4072 31.6276 46.0524C31.535 45.5126 31.9017 44.9959 32.4459 44.9033C32.9863 44.8108 33.5036 45.1771 33.5962 45.7208C33.6502 46.0331 33.7159 46.3455 33.7853 46.6501C35.2328 52.5845 40.5172 56.7297 46.643 56.7297C53.1896 56.7297 58.6862 52.0485 59.713 45.6013C59.74 45.4316 59.767 45.2542 59.7824 45.0768C59.8481 44.5331 60.3421 44.1398 60.8864 44.2054C61.4307 44.2709 61.8244 44.7645 61.7588 45.3082C61.7356 45.5087 61.7047 45.7131 61.6738 45.9097C61.1103 49.4457 59.3038 52.6886 56.5709 55.0369C53.811 57.4083 50.2791 58.7155 46.6353 58.7155Z" fill="black"/>
<path d="M32.6974 47.934C32.3384 47.934 31.9948 47.7374 31.8173 47.4057C31.7594 47.3016 30.4547 44.8068 29.6171 41.4444C29.1191 39.447 28.8953 37.5575 28.9493 35.8262C29.0149 33.6051 29.5399 31.6386 30.501 29.9766C31.2807 28.6347 32.2612 27.4587 33.423 26.4831C34.527 25.5499 35.7622 24.8443 36.9974 24.4355C40.6721 23.2132 45.6361 23.4214 49.6235 23.5911C52.1788 23.6991 54.599 23.8032 55.6373 23.4561C56.4942 23.1708 56.9459 22.6849 57.0501 21.9291C57.135 21.3315 56.969 20.7955 56.9652 20.7916C56.8185 20.352 56.9922 19.8739 57.3859 19.631C57.7758 19.388 58.2892 19.4459 58.6134 19.7698C60.0648 21.2196 61.1262 23.0782 61.6859 25.1451C62.207 27.0615 62.2727 29.0666 61.8867 30.9445C61.2768 33.9252 59.6015 36.1616 57.2971 37.0794C54.7881 38.0819 51.1288 37.6424 47.2573 37.1758C43.1657 36.6822 38.9274 36.1732 36.5998 37.5267C36.0478 37.8429 35.0172 38.9303 34.2606 42.6243C33.7974 44.8801 33.6855 46.9662 33.6855 46.9854C33.6623 47.4327 33.342 47.8068 32.9058 47.9032C32.844 47.9224 32.7668 47.934 32.6974 47.934ZM44.9451 25.4458C42.3319 25.4458 39.7032 25.6271 37.6304 26.3173C35.5306 27.0152 33.5118 28.7581 32.2264 30.9715C30.4045 34.1141 30.8484 38.1205 31.5393 40.9238C31.7285 41.6834 31.9446 42.4007 32.1608 43.0523C32.2033 42.794 32.2573 42.524 32.3152 42.2541C32.6086 40.8197 32.9791 39.5896 33.4114 38.6063C34.0059 37.2568 34.7431 36.3159 35.6116 35.8146C38.5144 34.1295 43.0885 34.6809 47.5043 35.2092C50.959 35.6218 54.5334 36.0537 56.5676 35.2401C58.239 34.573 59.4703 32.8609 59.9489 30.5512C60.4585 28.0602 59.9991 25.3764 58.7562 23.2055C58.3239 24.2042 57.4708 24.9445 56.2742 25.3456C54.8846 25.8083 52.53 25.7042 49.5424 25.5846C48.0988 25.5152 46.5239 25.4458 44.9451 25.4458Z" fill="black"/>
<path d="M60.6806 46.677C60.5996 46.677 60.5224 46.6693 60.4413 46.6462C60.036 46.5459 59.7311 46.2027 59.6886 45.7901C59.6886 45.7709 59.4686 43.8082 59.0363 41.6334C58.2836 37.8391 57.5347 36.6977 57.2491 36.3815C56.8785 35.9728 56.9094 35.3442 57.3186 34.9779C57.7277 34.6077 58.3569 34.6386 58.7236 35.0473C59.6153 36.0306 60.3564 38.0627 60.9894 41.2632C61.0473 41.5447 61.1014 41.8262 61.1477 42.0999C62.4871 36.7671 60.3332 30.1656 60.3062 30.0846C60.1364 29.5641 60.4143 28.9973 60.9354 28.8276C61.4604 28.6579 62.0162 28.9356 62.1938 29.4561C62.2285 29.5602 63.07 32.1052 63.4212 35.4175C63.6335 37.3763 63.622 39.2079 63.4019 40.8506C63.1202 42.956 62.4794 44.7683 61.4951 46.2413C61.3253 46.5112 61.0087 46.677 60.6806 46.677Z" fill="black"/>
<path d="M121.217 70.5956H67.7175C67.1655 70.5956 66.7216 70.1522 66.7216 69.6008C66.7216 69.0494 67.1655 68.6059 67.7175 68.6059H121.221C124.649 68.6059 127.436 65.8181 127.436 62.3978V8.20171C127.436 4.77758 124.645 1.99355 121.221 1.99355H51.0423C47.6146 1.99355 44.8277 4.78144 44.8277 8.20171V23.8686C44.8277 24.42 44.3838 24.8635 43.8318 24.8635C43.2798 24.8635 42.8359 24.42 42.8359 23.8686V8.19786C42.8359 3.67863 46.5145 0 51.0423 0H121.225C125.749 0 129.431 3.67477 129.431 8.19786V62.3978C129.423 66.917 125.745 70.5956 121.217 70.5956Z" fill="black"/>
<path d="M53.2864 11.9342C51.3641 11.9342 49.8008 10.3725 49.8008 8.45218C49.8008 6.5319 51.3641 4.97021 53.2864 4.97021C55.2086 4.97021 56.7719 6.5319 56.7719 8.45218C56.7719 10.3725 55.2086 11.9342 53.2864 11.9342ZM53.2864 6.96377C52.4642 6.96377 51.7964 7.63086 51.7964 8.45218C51.7964 9.27351 52.4642 9.9406 53.2864 9.9406C54.1085 9.9406 54.7763 9.27351 54.7763 8.45218C54.7763 7.63086 54.1085 6.96377 53.2864 6.96377Z" fill="black"/>
<path d="M63.2414 11.9342C61.3192 11.9342 59.7559 10.3725 59.7559 8.45218C59.7559 6.5319 61.3192 4.97021 63.2414 4.97021C65.1637 4.97021 66.727 6.5319 66.727 8.45218C66.727 10.3725 65.1637 11.9342 63.2414 11.9342ZM63.2414 6.96377C62.4193 6.96377 61.7515 7.63086 61.7515 8.45218C61.7515 9.27351 62.4193 9.9406 63.2414 9.9406C64.0636 9.9406 64.7314 9.27351 64.7314 8.45218C64.7314 7.63086 64.0636 6.96377 63.2414 6.96377Z" fill="black"/>
<path d="M73.1926 11.9342C71.2742 11.9342 69.707 10.3725 69.707 8.45218C69.707 6.5319 71.2703 4.97021 73.1926 4.97021C75.1149 4.97021 76.6782 6.5319 76.6782 8.45218C76.6782 10.3725 75.111 11.9342 73.1926 11.9342ZM73.1926 6.96377C72.3704 6.96377 71.7026 7.63086 71.7026 8.45218C71.7026 9.27351 72.3704 9.9406 73.1926 9.9406C74.0148 9.9406 74.6826 9.27351 74.6826 8.45218C74.6864 7.63086 74.0187 6.96377 73.1926 6.96377Z" fill="black"/>
<path d="M73.7203 27.7554C73.4656 27.7554 73.2108 27.659 73.0178 27.4662L68.2739 22.7272C68.0886 22.5421 67.9844 22.2876 67.9844 22.0254C67.9844 21.7632 68.0886 21.5049 68.2739 21.3236L73.0178 16.5846C73.4038 16.199 74.0369 16.199 74.4267 16.5846C74.8127 16.9702 74.8127 17.6026 74.4267 17.9921L70.3853 22.0293L74.4267 26.0588C74.8127 26.4444 74.8127 27.0768 74.4267 27.4662C74.226 27.659 73.9712 27.7554 73.7203 27.7554Z" fill="black"/>
<path d="M117.551 27.7553C117.296 27.7553 117.041 27.6589 116.848 27.4661C116.462 27.0805 116.462 26.4482 116.848 26.0587L120.89 22.0215L116.848 17.9842C116.462 17.5986 116.462 16.9663 116.848 16.5768C117.234 16.1912 117.867 16.1912 118.257 16.5768L123.001 21.3158C123.186 21.5009 123.29 21.7554 123.29 22.0176C123.29 22.2798 123.186 22.5382 123.001 22.7194L118.257 27.4584C118.06 27.6589 117.805 27.7553 117.551 27.7553Z" fill="black"/>
<path d="M73.7203 44.9918C73.4656 44.9918 73.2108 44.8954 73.0178 44.7026L68.2739 39.9635C68.0886 39.7785 67.9844 39.524 67.9844 39.2618C67.9844 38.9995 68.0886 38.7412 68.2739 38.56L73.0178 33.8209C73.4038 33.4353 74.0369 33.4353 74.4267 33.8209C74.8127 34.2065 74.8127 34.8389 74.4267 35.2284L70.3853 39.2656L74.4267 43.2951C74.8127 43.6807 74.8127 44.3131 74.4267 44.7026C74.226 44.8954 73.9712 44.9918 73.7203 44.9918Z" fill="black"/>
<path d="M94.3631 44.9917C94.1084 44.9917 93.8536 44.8953 93.6606 44.7025C93.2746 44.3169 93.2746 43.6845 93.6606 43.295L97.702 39.2578L93.6606 35.2206C93.2746 34.835 93.2746 34.2026 93.6606 33.8131C94.0466 33.4275 94.6796 33.4275 95.0695 33.8131L99.8134 38.5522C99.9987 38.7372 100.103 38.9917 100.103 39.2539C100.103 39.5161 99.9987 39.7745 99.8134 39.9557L95.0695 44.6948C94.8726 44.8953 94.6179 44.9917 94.3631 44.9917Z" fill="black"/>
<path d="M100.564 20.8803H78.6658C78.1138 20.8803 77.6699 20.4369 77.6699 19.8855C77.6699 19.3341 78.1138 18.8906 78.6658 18.8906H100.564C101.116 18.8906 101.559 19.3341 101.559 19.8855C101.559 20.4369 101.116 20.8803 100.564 20.8803Z" fill="black"/>
<path d="M109.518 20.8803H103.547C102.995 20.8803 102.551 20.4369 102.551 19.8855C102.551 19.3341 102.995 18.8906 103.547 18.8906H109.518C110.07 18.8906 110.514 19.3341 110.514 19.8855C110.514 20.4369 110.07 20.8803 109.518 20.8803Z" fill="black"/>
<path d="M95.5881 26.8491H78.6697C78.1177 26.8491 77.6738 26.4056 77.6738 25.8542C77.6738 25.3028 78.1177 24.8594 78.6697 24.8594H95.5881C96.1401 24.8594 96.584 25.3028 96.584 25.8542C96.584 26.4056 96.1362 26.8491 95.5881 26.8491Z" fill="black"/>
<path d="M105.542 26.8491H99.5701C99.0181 26.8491 98.5742 26.4056 98.5742 25.8542C98.5742 25.3028 99.0181 24.8594 99.5701 24.8594H105.542C106.093 24.8594 106.537 25.3028 106.537 25.8542C106.537 26.4056 106.09 26.8491 105.542 26.8491Z" fill="black"/>
<path d="M113.501 26.8491H109.517C108.965 26.8491 108.521 26.4056 108.521 25.8542C108.521 25.3028 108.965 24.8594 109.517 24.8594H113.501C114.053 24.8594 114.497 25.3028 114.497 25.8542C114.497 26.4056 114.049 26.8491 113.501 26.8491Z" fill="black"/>
<path d="M81.9155 44.9918C81.7534 44.9918 81.5913 44.9532 81.4407 44.8684C80.9582 44.6062 80.7807 44.0008 81.0432 43.5188L86.2194 34.0369C86.4819 33.5549 87.0879 33.3775 87.5704 33.6397C88.0529 33.9019 88.2305 34.5073 87.968 34.9893L82.7917 44.4712C82.6103 44.8067 82.2668 44.9918 81.9155 44.9918Z" fill="black"/>
<path d="M73.7203 61.6573C73.4656 61.6573 73.2108 61.5609 73.0178 61.3681L68.2739 56.6291C68.0886 56.444 67.9844 56.1895 67.9844 55.9273C67.9844 55.6651 68.0886 55.4067 68.2739 55.2255L73.0178 50.4865C73.4038 50.1009 74.0369 50.1009 74.4267 50.4865C74.8127 50.8721 74.8127 51.5044 74.4267 51.8939L70.3853 55.9311L74.4267 59.9684C74.8127 60.354 74.8127 60.9864 74.4267 61.3758C74.226 61.5609 73.9712 61.6573 73.7203 61.6573Z" fill="black"/>
<path d="M94.3631 61.6572C94.1084 61.6572 93.8536 61.5608 93.6606 61.368C93.2746 60.9824 93.2746 60.35 93.6606 59.9606L97.702 55.9233L93.6606 51.8861C93.2746 51.5005 93.2746 50.8681 93.6606 50.4787C94.0466 50.0931 94.6796 50.0931 95.0695 50.4787L99.8134 55.2177C99.9987 55.4028 100.103 55.6573 100.103 55.9195C100.103 56.1817 99.9987 56.44 99.8134 56.6213L95.0695 61.3603C94.8726 61.5608 94.6179 61.6572 94.3631 61.6572Z" fill="black"/>
<path d="M81.9155 61.6573C81.7534 61.6573 81.5913 61.6187 81.4407 61.5339C80.9582 61.2717 80.7807 60.6663 81.0432 60.1843L86.2194 50.7024C86.4819 50.2204 87.0879 50.043 87.5704 50.3052C88.0529 50.5674 88.2305 51.1728 87.968 51.6548L82.7917 61.1367C82.6103 61.4684 82.2668 61.6573 81.9155 61.6573Z" fill="black"/>
<path d="M128.432 122.297C127.88 122.297 127.436 121.853 127.436 121.302V113.351H9.99176V121.302C9.99176 121.853 9.54786 122.297 8.99588 122.297C8.4439 122.297 8 121.853 8 121.302V112.352C8 111.801 8.4439 111.357 8.99588 111.357H128.432C128.984 111.357 129.428 111.801 129.428 112.352V121.302C129.424 121.853 128.98 122.297 128.432 122.297Z" fill="black"/>
<path d="M105.106 113.347H97.0155C94.5837 113.347 92.6035 111.369 92.6035 108.94V91.4758C92.6035 90.9244 93.0474 90.481 93.5994 90.481H108.53C109.082 90.481 109.526 90.9244 109.526 91.4758V108.94C109.518 111.369 107.538 113.347 105.106 113.347ZM94.5914 92.4707V108.943C94.5914 110.282 95.6799 111.365 97.0155 111.365H105.102C106.442 111.365 107.526 110.278 107.526 108.943V92.4707H94.5914Z" fill="black"/>
<path d="M111.177 108.377H108.525C107.973 108.377 107.529 107.933 107.529 107.382C107.529 106.83 107.973 106.387 108.525 106.387H111.177C111.91 106.387 112.505 105.789 112.505 105.06V100.757C112.505 100.028 111.91 99.4307 111.181 99.4307L108.691 99.4499C108.139 99.4538 107.691 99.0104 107.688 98.4667C107.684 97.9153 108.128 97.468 108.672 97.4641L111.165 97.4448C111.169 97.4448 111.169 97.4448 111.173 97.4448C113.003 97.4448 114.497 98.9294 114.497 100.765V105.068C114.493 106.888 113.007 108.377 111.177 108.377Z" fill="black"/>
</svg>
