<svg width="72" height="63.5" viewBox="0 0 144 127" fill="none" xmlns="http://www.w3.org/2000/svg">
<path d="M2.04266 23.8094C0.914531 16.3944 6.01108 9.46877 13.4261 8.34064L45.4996 3.46095C58.064 1.54939 69.7991 10.1852 71.7106 22.7496L77.1876 58.7489C77.8919 63.3778 74.7102 67.7013 70.0813 68.4056L63.9178 69.3433C34.2576 73.8558 6.55518 53.4696 2.04266 23.8094Z" fill="#50BE61"/>
<path d="M88.3617 73.7387H67.2932C63.8113 73.7387 60.9785 70.906 60.9785 67.424C60.9785 63.9421 63.8113 61.1094 67.2932 61.1094H88.3617C91.8436 61.1094 94.6764 63.9421 94.6764 67.424C94.6764 70.906 91.8436 73.7387 88.3617 73.7387ZM67.2932 64.0602C65.4342 64.0602 63.9293 65.565 63.9293 67.424C63.9293 69.283 65.4342 70.7879 67.2932 70.7879H88.3617C90.2207 70.7879 91.7256 69.283 91.7256 67.424C91.7256 65.565 90.2207 64.0602 88.3617 64.0602H67.2932Z" fill="black"/>
<path d="M87.7433 94.3048C86.9171 94.3048 86.2679 93.6556 86.2679 92.8294V73.7379H69.36V92.8294C69.36 93.6556 68.7108 94.3048 67.8846 94.3048C67.0584 94.3048 66.4092 93.6556 66.4092 92.8294V72.2625C66.4092 71.4363 67.0584 70.7871 67.8846 70.7871H87.7433C88.5695 70.7871 89.2187 71.4363 89.2187 72.2625V92.8294C89.2187 93.6261 88.5695 94.3048 87.7433 94.3048Z" fill="black"/>
<path d="M86.5334 64.0592C85.7072 64.0592 85.058 63.41 85.058 62.5838C85.058 55.2659 88.6285 52.079 90.753 50.161C91.2547 49.7184 91.9333 49.0987 92.0514 48.8037C92.0514 48.7742 92.0219 48.7447 91.9924 48.7151L77.7991 24.5778L63.6059 48.7151C63.5764 48.7742 63.5764 48.8037 63.5469 48.8037C63.6649 49.0692 64.3436 49.6889 64.8452 50.161C66.9698 52.0495 70.5402 55.2364 70.5402 62.5838C70.5402 63.41 69.8911 64.0592 69.0648 64.0592C68.2386 64.0592 67.5895 63.41 67.5895 62.5838C67.5895 56.5642 64.8747 54.1446 62.8682 52.3741C61.4518 51.1053 59.6814 49.5414 61.0387 47.2398L76.5598 20.9188C76.8254 20.4762 77.2975 20.1812 77.8286 20.1812C78.3598 20.1812 78.8319 20.4467 79.0975 20.9188L94.5595 47.2103C95.9169 49.5119 94.1464 51.0758 92.7301 52.3446C90.753 54.1151 88.0088 56.5642 88.0088 62.5543C88.0088 63.3805 87.3596 64.0592 86.5334 64.0592Z" fill="black"/>
<path d="M77.8279 41.4267C77.0017 41.4267 76.3525 40.7776 76.3525 39.9513V21.6565C76.3525 20.8303 77.0017 20.1812 77.8279 20.1812C78.6541 20.1812 79.3033 20.8303 79.3033 21.6565V39.9218C79.3033 40.7481 78.6246 41.4267 77.8279 41.4267Z" fill="black"/>
<path d="M77.8283 51.1059C74.3464 51.1059 71.5137 48.2731 71.5137 44.7912C71.5137 41.3093 74.3464 38.4766 77.8283 38.4766C81.3102 38.4766 84.143 41.3093 84.143 44.7912C84.143 48.2731 81.3102 51.1059 77.8283 51.1059ZM77.8283 41.4273C75.9693 41.4273 74.4644 42.9322 74.4644 44.7912C74.4644 46.6502 75.9693 48.1551 77.8283 48.1551C79.6873 48.1551 81.1922 46.6502 81.1922 44.7912C81.1922 42.9322 79.6873 41.4273 77.8283 41.4273Z" fill="black"/>
<path d="M119.167 44.6733C118.459 44.6733 117.839 44.1422 117.721 43.434C114.948 25.9359 100.754 12.0672 83.1972 9.73613C82.4005 9.6181 81.8103 8.8804 81.9284 8.0837C82.0464 7.28699 82.7841 6.69683 83.5808 6.81486C92.8757 8.05419 101.344 12.1853 108.102 18.7655C114.829 25.3457 119.167 33.6964 120.613 42.9619C120.731 43.7586 120.2 44.5258 119.374 44.6438C119.315 44.6733 119.256 44.6733 119.167 44.6733ZM36.4569 44.6733C36.3684 44.6733 36.3094 44.6733 36.2208 44.6438C35.4241 44.5258 34.8635 43.7586 34.9815 42.9619C36.4569 33.7259 40.765 25.3457 47.4928 18.7655C54.2206 12.1853 62.7188 8.05419 72.0138 6.81486C72.8105 6.69683 73.5777 7.28699 73.6662 8.0837C73.7842 8.8804 73.1941 9.64761 72.3974 9.73613C54.8697 12.0672 40.6765 25.9359 37.9323 43.434C37.8143 44.1422 37.1651 44.6733 36.4569 44.6733Z" fill="black"/>
<path d="M38.7286 55.8269H33.1517C30.7911 55.8269 28.873 53.9089 28.873 51.5483V46.0008C28.873 43.6402 30.7911 41.7222 33.1517 41.7222H38.7286C41.0893 41.7222 43.0073 43.6402 43.0073 46.0008V51.5778C43.0073 53.9089 41.0893 55.8269 38.7286 55.8269ZM33.1517 44.6729C32.414 44.6729 31.8238 45.2631 31.8238 46.0008V51.5778C31.8238 52.3154 32.414 52.9056 33.1517 52.9056H38.7286C39.4663 52.9056 40.0565 52.3154 40.0565 51.5778V46.0008C40.0565 45.2631 39.4663 44.6729 38.7286 44.6729H33.1517Z" fill="black"/>
<path d="M122.473 55.8274H116.896C114.535 55.8274 112.617 53.9094 112.617 51.5487V46.0013C112.617 43.6407 114.535 41.7227 116.896 41.7227H122.473C124.833 41.7227 126.751 43.6407 126.751 46.0013V51.5782C126.751 53.9094 124.833 55.8274 122.473 55.8274ZM116.896 44.6734C116.158 44.6734 115.568 45.2636 115.568 46.0013V51.5782C115.568 52.3159 116.158 52.9061 116.896 52.9061H122.473C123.21 52.9061 123.801 52.3159 123.801 51.5782V46.0013C123.801 45.2636 123.21 44.6734 122.473 44.6734H116.896Z" fill="black"/>
<path d="M80.6027 14.9587H75.0257C72.6651 14.9587 70.7471 13.0407 70.7471 10.6801V5.13263C70.7471 2.77201 72.6651 0.854004 75.0257 0.854004H80.6027C82.9633 0.854004 84.8813 2.77201 84.8813 5.13263V10.7096C84.8813 13.0407 82.9633 14.9587 80.6027 14.9587ZM75.0257 3.80478C74.288 3.80478 73.6978 4.39493 73.6978 5.13263V10.7096C73.6978 11.4473 74.288 12.0374 75.0257 12.0374H80.6027C81.3404 12.0374 81.9305 11.4473 81.9305 10.7096V5.13263C81.9305 4.39493 81.3404 3.80478 80.6027 3.80478H75.0257Z" fill="black"/>
<path d="M33.1544 15.3427H27.5775C25.2168 15.3427 23.2988 13.4247 23.2988 11.0641V5.48712C23.2988 3.1265 25.2168 1.2085 27.5775 1.2085H33.1544C35.515 1.2085 37.433 3.1265 37.433 5.48712V11.0641C37.433 13.4247 35.515 15.3427 33.1544 15.3427ZM27.5775 4.15927C26.8398 4.15927 26.2496 4.74943 26.2496 5.48712V11.0641C26.2496 11.8018 26.8398 12.3919 27.5775 12.3919H33.1544C33.8921 12.3919 34.4823 11.8018 34.4823 11.0641V5.48712C34.4823 4.74943 33.8921 4.15927 33.1544 4.15927H27.5775Z" fill="black"/>
<path d="M128.051 15.3427H122.474C120.113 15.3427 118.195 13.4247 118.195 11.0641V5.48712C118.195 3.1265 120.113 1.2085 122.474 1.2085H128.051C130.412 1.2085 132.33 3.1265 132.33 5.48712V11.0641C132.33 13.4247 130.412 15.3427 128.051 15.3427ZM122.474 4.15927C121.736 4.15927 121.146 4.74943 121.146 5.48712V11.0641C121.146 11.8018 121.736 12.3919 122.474 12.3919H128.051C128.789 12.3919 129.379 11.8018 129.379 11.0641V5.48712C129.379 4.74943 128.789 4.15927 128.051 4.15927H122.474Z" fill="black"/>
<path d="M45.8106 11.211C40.7943 11.211 35.9551 10.1487 35.6305 10.0602C34.8338 9.88317 34.3321 9.08646 34.5092 8.28975C34.6862 7.49304 35.4829 6.99141 36.2796 7.16846C39.5255 7.87664 48.7909 9.26351 52.7745 6.9619C58.4695 3.65703 71.1578 6.46027 72.5742 6.81436C73.3709 6.99141 73.8725 7.78812 73.666 8.58483C73.4594 9.38154 72.6922 9.88317 71.8955 9.67661C68.3251 8.8504 58.2039 7.22747 54.2204 9.52908C52.0368 10.8274 48.8794 11.211 45.8106 11.211Z" fill="black"/>
<path d="M109.815 11.2111C106.746 11.2111 103.589 10.798 101.405 9.52914C97.4215 7.22753 87.3003 8.85046 83.7299 9.67668C82.9332 9.85372 82.1365 9.35209 81.9594 8.58489C81.7824 7.78818 82.284 6.99147 83.0512 6.81443C84.4676 6.48984 97.1559 3.6866 102.851 6.96196C106.834 9.26357 116.1 7.90621 119.346 7.16852C120.142 6.99147 120.939 7.4931 121.116 8.28981C121.293 9.08652 120.792 9.88323 119.995 10.0603C119.67 10.1488 114.831 11.2111 109.815 11.2111Z" fill="black"/>
<path d="M50.5928 80.2003H25.6883C24.8621 80.2003 24.2129 79.5511 24.2129 78.7249C24.2129 77.8987 24.8621 77.2495 25.6883 77.2495H50.5928C51.419 77.2495 52.0682 77.8987 52.0682 78.7249C52.0682 79.5511 51.3895 80.2003 50.5928 80.2003Z" fill="black"/>
<path d="M50.5928 87.2525H25.6883C24.8621 87.2525 24.2129 86.6034 24.2129 85.7771C24.2129 84.9509 24.8621 84.3018 25.6883 84.3018H50.5928C51.419 84.3018 52.0682 84.9509 52.0682 85.7771C52.0682 86.6034 51.3895 87.2525 50.5928 87.2525Z" fill="black"/>
<path d="M38.1405 94.3048H25.6883C24.8621 94.3048 24.2129 93.6556 24.2129 92.8294C24.2129 92.0032 24.8621 91.354 25.6883 91.354H38.1405C38.9668 91.354 39.6159 92.0032 39.6159 92.8294C39.6159 93.6556 38.9668 94.3048 38.1405 94.3048Z" fill="black"/>
<path d="M129.937 80.2003H105.062C104.236 80.2003 103.587 79.5511 103.587 78.7249C103.587 77.8987 104.236 77.2495 105.062 77.2495H129.937C130.764 77.2495 131.413 77.8987 131.413 78.7249C131.413 79.5511 130.764 80.2003 129.937 80.2003Z" fill="black"/>
<path d="M129.937 87.2525H105.062C104.236 87.2525 103.587 86.6034 103.587 85.7771C103.587 84.9509 104.236 84.3018 105.062 84.3018H129.937C130.764 84.3018 131.413 84.9509 131.413 85.7771C131.413 86.6034 130.764 87.2525 129.937 87.2525Z" fill="black"/>
<path d="M129.937 94.3048H117.485C116.659 94.3048 116.01 93.6556 116.01 92.8294C116.01 92.0032 116.659 91.354 117.485 91.354H129.937C130.764 91.354 131.413 92.0032 131.413 92.8294C131.413 93.6556 130.764 94.3048 129.937 94.3048Z" fill="black"/>
<path d="M132.387 109.295H23.238C17.366 109.295 12.6152 104.515 12.6152 98.6721V33.0173C12.6152 27.1453 17.3955 22.3945 23.238 22.3945H44.9262C45.7524 22.3945 46.4016 23.0437 46.4016 23.8699C46.4016 24.6961 45.7524 25.3453 44.9262 25.3453H23.238C18.9889 25.3453 15.566 28.7977 15.566 33.0173V98.6721C15.566 102.921 19.0184 106.344 23.238 106.344H132.387C136.636 106.344 140.059 102.892 140.059 98.6721V33.0173C140.059 28.7682 136.607 25.3453 132.387 25.3453H110.699C109.873 25.3453 109.224 24.6961 109.224 23.8699C109.224 23.0437 109.873 22.3945 110.699 22.3945H132.387C138.259 22.3945 143.01 27.1748 143.01 33.0173V98.6721C143.04 104.515 138.259 109.295 132.387 109.295Z" fill="black"/>
<path d="M89.4255 126.999H66.2324C65.7013 126.999 65.2291 126.734 64.9636 126.291C64.698 125.849 64.6685 125.288 64.9341 124.845C67.7963 119.416 67.7963 114.223 64.9341 108.469C64.698 107.996 64.7275 107.465 64.9931 107.023C65.2586 106.58 65.7308 106.314 66.2619 106.314H89.455C89.9566 106.314 90.4288 106.58 90.7238 107.023C90.9894 107.465 91.0189 107.996 90.7829 108.469C87.9206 114.193 87.9206 119.386 90.7829 124.845C91.0189 125.288 91.0189 125.849 90.7533 126.291C90.4288 126.734 89.9271 126.999 89.4255 126.999ZM68.534 124.049H87.1239C85.1469 119.18 85.1764 114.341 87.1534 109.295H68.5045C70.4815 114.341 70.4815 119.18 68.534 124.049Z" fill="black"/>
<path d="M96.4478 127H59.1795C58.3533 127 57.7041 126.35 57.7041 125.524C57.7041 124.698 58.3533 124.049 59.1795 124.049H96.4183C97.2445 124.049 97.8937 124.698 97.8937 125.524C97.8937 126.35 97.2445 127 96.4478 127Z" fill="black"/>
</svg>
