<svg width="62" height="62" viewBox="0 0 124 124" fill="none" xmlns="http://www.w3.org/2000/svg">
<path d="M35.7891 64.6852C35.7891 58.4261 40.8631 53.3521 47.1222 53.3521H77.7638C89.3548 53.3521 98.7511 62.7484 98.7511 74.3394V102.286C98.7511 106.556 95.2893 110.018 91.019 110.018H81.1218C56.0852 110.018 35.7891 89.7218 35.7891 64.6852Z" fill="#83A6FF"/>
<path d="M82.5886 96.5223L93.2608 90.3625C93.9839 89.9439 94.9082 90.194 95.3268 90.9171C95.7454 91.6402 95.4954 92.5644 94.7723 92.9831L84.1 99.1429C83.8608 99.2788 83.5998 99.344 83.3443 99.344C82.8224 99.344 82.3113 99.0722 82.0341 98.5883C81.6154 97.8652 81.8655 96.941 82.5886 96.5223ZM80.0551 60.319L82.1754 63.9887C83.1974 65.7611 82.5885 68.0391 80.8162 69.0611L79.4407 69.8549C79.6473 70.9477 79.756 72.0676 79.756 73.1875C79.756 74.3075 79.6527 75.4221 79.4407 76.5202L80.8162 77.3139C82.5885 78.336 83.1974 80.614 82.1754 82.3863L80.0551 86.0561C79.5604 86.9151 78.7612 87.524 77.7989 87.785C76.8366 88.0459 75.8362 87.91 74.9827 87.4153L73.6018 86.6161C71.9055 88.084 69.9429 89.2148 67.8335 89.9487V91.5362C67.8335 93.5859 66.1699 95.2495 64.1202 95.2495H59.885C57.8353 95.2495 56.1717 93.5805 56.1717 91.5362V89.9487C54.0623 89.2148 52.0996 88.0784 50.4034 86.6161L49.0225 87.4098C47.2501 88.4319 44.9721 87.823 43.9501 86.0507L41.8298 82.3809C40.8077 80.6086 41.4166 78.3305 43.189 77.3085L44.5645 76.5148C44.3579 75.422 44.2546 74.3075 44.2546 73.1821C44.2546 72.0622 44.3579 70.9422 44.5645 69.8495L43.189 69.0557C41.4167 68.0336 40.8078 65.7556 41.8298 63.9833L43.9501 60.3136C44.9776 58.5413 47.2501 57.9324 49.0225 58.9544L50.4034 59.7536C52.0997 58.2857 54.0623 57.1549 56.1717 56.421V54.8335C56.1717 52.7838 57.8353 51.1202 59.885 51.1202H64.1202C66.1699 51.1202 67.8335 52.7838 67.8335 54.8335V56.421C69.9429 57.1549 71.9056 58.2913 73.6018 59.7536L74.9827 58.9544C76.7604 57.9269 79.0331 58.5412 80.0551 60.3136V60.319ZM76.4941 61.5803L74.1508 62.9341C73.5637 63.2766 72.8188 63.1787 72.335 62.7003C70.5462 60.9388 68.3281 59.6557 65.9196 58.9924C65.2618 58.813 64.8105 58.215 64.8105 57.5353V54.8333C64.8105 54.4582 64.4952 54.1428 64.1201 54.1428H59.8849C59.5097 54.1428 59.1944 54.4582 59.1944 54.8333V57.5353C59.1944 58.2149 58.7377 58.813 58.0853 58.9924C55.6822 59.6557 53.4641 60.9387 51.67 62.7003C51.1861 63.1787 50.4413 63.2711 49.8541 62.9341L47.5109 61.5803C47.1901 61.39 46.7552 61.5096 46.5703 61.8304L44.4501 65.5002C44.2652 65.8264 44.3794 66.2559 44.7002 66.4407L47.038 67.789C47.6251 68.1315 47.9187 68.822 47.7447 69.4797C47.4348 70.6813 47.2772 71.9317 47.2772 73.1876C47.2772 74.4435 47.4348 75.6885 47.7447 76.8955C47.9133 77.5533 47.6251 78.2438 47.038 78.5863L44.7002 79.9345C44.3794 80.1194 44.2598 80.5543 44.4501 80.8805L46.5703 84.5503C46.7552 84.8765 47.1901 84.9907 47.5109 84.8004L49.8541 83.4466C50.0879 83.3107 50.3488 83.2455 50.6098 83.2455C50.9958 83.2455 51.3818 83.3923 51.67 83.6804C53.4587 85.4419 55.6768 86.725 58.0853 87.3883C58.7431 87.5677 59.1944 88.1657 59.1944 88.8454V91.5474C59.1944 91.9225 59.5097 92.2378 59.8848 92.2378H64.1201C64.4952 92.2378 64.8105 91.9225 64.8105 91.5474V88.8454C64.8105 88.1658 65.2672 87.5677 65.9196 87.3883C68.3227 86.725 70.5408 85.442 72.3349 83.6804C72.8188 83.202 73.5582 83.1041 74.1508 83.4466L76.494 84.8004C76.7061 84.9254 76.9127 84.8928 77.016 84.8656C77.1193 84.8384 77.315 84.7569 77.4346 84.5448L79.5548 80.8751C79.7397 80.5489 79.6255 80.1194 79.3048 79.9291L76.967 78.5808C76.3798 78.2437 76.0862 77.5478 76.2602 76.8901C76.5701 75.6831 76.7332 74.4381 76.7332 73.1822C76.7332 71.9263 76.5755 70.6813 76.2602 69.4743C76.0917 68.8165 76.3798 68.126 76.967 67.7836L79.3048 66.4353C79.6255 66.2504 79.7451 65.8155 79.5548 65.4893L77.4346 61.8195C77.2497 61.4933 76.8148 61.3792 76.4886 61.5694L76.4941 61.5803ZM72.2371 73.1932C72.2371 78.8365 67.6485 83.4251 62.0052 83.4251C56.3619 83.4251 51.7733 78.8365 51.7733 73.1932C51.7733 67.5499 56.3619 62.9613 62.0052 62.9613C67.6485 62.9613 72.2371 67.5499 72.2371 73.1932ZM69.2143 73.1932C69.2143 69.2189 65.9795 65.9841 62.0052 65.9841C58.0309 65.9841 54.7961 69.2189 54.7961 73.1932C54.7961 77.1674 58.0309 80.4022 62.0052 80.4022C65.9795 80.4022 69.2143 77.1674 69.2143 73.1932ZM20.9316 9.05654L13.1789 16.8092L8.16077 11.7966C7.56817 11.204 6.61129 11.204 6.02409 11.7966C5.43149 12.3892 5.43149 13.346 6.02409 13.9332L12.1078 20.0169C12.4013 20.3105 12.7873 20.4573 13.1788 20.4573C13.5648 20.4573 13.9508 20.3105 14.2498 20.0169L23.0681 11.1986C23.6607 10.606 23.6607 9.64916 23.0681 9.06197C22.4755 8.46937 21.5186 8.46937 20.9314 9.06197L20.9316 9.05654ZM81.0724 16.0481V33.1685L105.44 47.2382L105.434 47.2436C105.646 47.3632 105.831 47.5317 105.967 47.7547L111.681 57.0351C111.893 57.3831 111.959 57.8017 111.861 58.1986C111.763 58.5955 111.502 58.9325 111.148 59.1391L106.19 62.0043V97.8318C106.19 98.3701 105.902 98.8702 105.434 99.1421L62.751 123.787C62.5172 123.922 62.2562 123.988 61.9953 123.988C61.7343 123.988 61.4733 123.922 61.2396 123.787L37.6709 110.179L36.1106 111.739C34.3654 113.484 32.0712 114.359 29.7823 114.359C27.488 114.359 25.1991 113.484 23.4539 111.739C20.5779 108.857 20.0777 104.497 21.948 101.094L18.5663 99.1422C18.0988 98.8704 17.8106 98.3756 17.8106 97.832V62.0044L12.8524 59.1393C12.499 58.9327 12.2435 58.5956 12.1402 58.1987C12.0423 57.8018 12.1021 57.3832 12.3196 57.0353L18.0336 47.7548C18.1695 47.5319 18.3544 47.3633 18.5664 47.2437L18.561 47.2383L42.9285 33.1687V16.0482H28.9994C28.2383 23.3551 22.0459 29.0746 14.5373 29.0746C6.52361 29.0746 0 22.5505 0 14.5373C0.0108727 6.52361 6.53489 0 14.5484 0C22.0564 0 28.2489 5.71944 29.0105 13.0264H44.4511C45.2883 13.0264 45.9624 13.7005 45.9624 14.5377V31.4243L61.2499 22.5951C61.7175 22.3232 62.2937 22.3232 62.7612 22.5951L78.0487 31.4243V14.5377C78.0487 13.7005 78.7229 13.0264 79.56 13.0264H95.0006C95.7617 5.71944 101.954 0 109.463 0C117.482 0 124 6.52403 124 14.5373C124 22.5509 117.476 29.0746 109.463 29.0746C101.955 29.0746 95.7622 23.3551 95.0006 16.0482L81.0724 16.0481ZM97.9423 14.5367C97.9423 20.8868 103.107 26.0516 109.457 26.0516C115.807 26.0516 120.972 20.8868 120.972 14.5367C120.972 8.18667 115.807 3.02186 109.457 3.02186C103.107 3.02186 97.9423 8.18667 97.9423 14.5367ZM26.0589 14.5367C26.0589 8.18667 20.8941 3.02186 14.5441 3.02186C8.19403 3.02186 3.02923 8.18667 3.02923 14.5367C3.02923 20.8868 8.19403 26.0516 14.5441 26.0516C20.8941 26.0516 26.0589 20.8868 26.0589 14.5367ZM15.7075 57.2968L35.1105 68.5018C35.578 65.8052 36.4425 63.2392 37.644 60.8741L19.8332 50.5934L15.7068 57.3022L15.7075 57.2968ZM62.0013 48.9135C48.6162 48.9135 37.727 59.8031 37.727 73.1877C37.727 86.5729 48.6167 97.462 62.0013 97.462C75.3865 97.462 86.2756 86.5723 86.2756 73.1877C86.2756 59.8026 75.3859 48.9135 62.0013 48.9135ZM20.8293 96.9624L23.8303 98.6967L37.4328 85.0941C35.6822 81.4951 34.6982 77.4555 34.6982 73.1932C34.6982 72.7202 34.7091 72.2472 34.7363 71.7797L20.8292 63.7497L20.8293 96.9624ZM47.3596 96.2175C43.9889 94.07 41.1237 91.1994 38.9763 87.8342L25.5912 101.219C23.2805 103.53 23.2805 107.292 25.5912 109.603C27.9018 111.913 31.664 111.913 33.9745 109.603L47.3596 96.2175ZM39.8896 107.966L60.4895 119.862V100.453C56.7817 100.252 53.2696 99.306 50.1001 97.762L39.89 107.972L39.8896 107.966ZM103.173 63.7545L89.266 71.7844C89.2877 72.252 89.304 72.725 89.304 73.198C89.304 87.7408 77.8707 99.6699 63.5183 100.452V119.861L103.179 96.967V63.7546L103.173 63.7545ZM104.168 50.5977L86.3572 60.8839C87.5587 63.2489 88.4232 65.8096 88.8907 68.5116L108.294 57.3066L104.168 50.5977ZM81.0726 36.6687V45.3021C81.0726 46.1393 80.3984 46.8134 79.5612 46.8134C78.724 46.8134 78.0499 46.1393 78.0499 45.3021V34.9235L62.0067 25.6594L45.9635 34.9235V45.3021C45.9635 46.1393 45.2893 46.8134 44.4521 46.8134C43.6149 46.8134 42.9408 46.1393 42.9408 45.3021V36.6687L22.352 48.5533L39.1732 58.2633C44.0553 50.8204 52.4659 45.8949 62.0125 45.8949C71.5591 45.8949 79.9694 50.8206 84.8518 58.2633L101.673 48.5533L81.0842 36.6687H81.0726ZM103.977 20.027C104.271 20.3206 104.657 20.4674 105.048 20.4674C105.434 20.4674 105.82 20.3206 106.119 20.027L109.463 16.6835L112.806 20.027C113.1 20.3206 113.486 20.4674 113.877 20.4674C114.263 20.4674 114.649 20.3206 114.948 20.027C115.541 19.4344 115.541 18.4775 114.948 17.8903L111.605 14.5468L114.948 11.2033C115.541 10.6107 115.541 9.65381 114.948 9.06662C114.356 8.47402 113.399 8.47402 112.812 9.06662L109.468 12.4101L106.125 9.06662C105.532 8.47402 104.575 8.47402 103.988 9.06662C103.395 9.65921 103.395 10.6161 103.988 11.2033L107.332 14.5468L103.988 17.8903C103.395 18.4829 103.395 19.4398 103.988 20.027H103.977Z" fill="black"/>
</svg>
