<svg width="52.5" height="66" viewBox="0 0 105 132" fill="none" xmlns="http://www.w3.org/2000/svg">
<path d="M0 18.1847C0 8.69387 7.69387 1 17.1847 1H58.2372C74.3189 1 87.3558 14.0368 87.3558 30.1186V76.1958C87.3558 82.1206 82.5527 86.9237 76.6279 86.9237H68.739C30.7755 86.9237 0 56.1482 0 18.1847Z" fill="#FDCD60"/>
<path fill-rule="evenodd" clip-rule="evenodd" d="M11.7923 0.0488281C6.17033 0.0488281 2 5.48207 2 11.7459V120.06C2 126.323 6.17033 131.757 11.7923 131.757H61.8165C67.4385 131.757 71.606 126.323 71.606 120.06V105.02C71.606 104.545 71.4174 104.09 71.0817 103.754C70.746 103.419 70.2907 103.23 69.8159 103.23C69.3412 103.23 68.8859 103.419 68.5502 103.754C68.2145 104.09 68.0259 104.545 68.0259 105.02V110.295H5.58015V20.0809H68.0259V26.2651C68.0259 26.7398 68.2145 27.1951 68.5502 27.5308C68.8859 27.8666 69.3412 28.0551 69.8159 28.0551C70.2907 28.0551 70.746 27.8666 71.0817 27.5308C71.4174 27.1951 71.606 26.7398 71.606 26.2651V11.7459C71.606 5.48207 67.4385 0.0488339 61.8165 0.0488339L11.7923 0.0488281ZM11.7923 3.62898H61.8165C65.0595 3.62898 68.0259 7.03403 68.0259 11.7459V16.5008H5.58015V11.7459C5.58015 7.03403 8.5493 3.62898 11.7923 3.62898ZM26.1688 8.78944C25.6941 8.78944 25.2388 8.97804 24.9031 9.31374C24.5674 9.64945 24.3788 10.1048 24.3788 10.5795C24.3788 11.0543 24.5674 11.5096 24.9031 11.8453C25.2388 12.181 25.6941 12.3696 26.1688 12.3696H47.4372C47.9119 12.3696 48.3673 12.181 48.703 11.8453C49.0387 11.5096 49.2273 11.0543 49.2273 10.5795C49.2273 10.1048 49.0387 9.64945 48.703 9.31374C48.3673 8.97804 47.9119 8.78944 47.4372 8.78944H26.1688ZM76.2295 30.5752C75.9899 30.5827 75.7543 30.6381 75.5366 30.7383C75.3189 30.8385 75.1235 30.9814 74.962 31.1585C74.8005 31.3356 74.6763 31.5434 74.5966 31.7694C74.5169 31.9954 74.4834 32.2352 74.4981 32.4744V32.4773C74.5006 32.5195 74.5023 32.5608 74.5037 32.6031V32.606V32.6116C74.5011 35.3259 72.3408 37.4871 69.6257 37.4923C66.9112 37.4971 64.7443 35.3421 64.731 32.6284V32.6228C64.7324 32.5762 64.7339 32.5294 64.7366 32.4829C64.7522 32.2098 64.705 31.9367 64.5986 31.6846C64.4922 31.4325 64.3294 31.2082 64.1228 31.0289C63.9162 30.8495 63.6712 30.7199 63.4067 30.65C63.1422 30.5801 62.8652 30.5717 62.5969 30.6256C58.022 31.5497 53.6696 33.3543 49.7839 35.9399C49.5718 36.0811 49.3923 36.2661 49.2574 36.4823C49.1226 36.6985 49.0354 36.941 49.0018 37.1936C48.9682 37.4462 48.9888 37.703 49.0625 37.947C49.1361 38.1909 49.2609 38.4164 49.4286 38.6082C50.1999 39.4879 50.6315 40.6157 50.6425 41.7856V41.8192C50.6423 44.5346 48.4824 46.6987 45.7674 46.7055C44.5713 46.7062 43.4151 46.2682 42.5201 45.4748C42.3293 45.3058 42.1046 45.1794 41.861 45.1042C41.6175 45.029 41.3607 45.0067 41.1078 45.0387C40.8549 45.0708 40.6118 45.1565 40.3947 45.29C40.1776 45.4236 39.9915 45.602 39.8489 45.8133C37.175 49.7735 35.3185 54.2256 34.3836 58.9116C34.3299 59.1806 34.3388 59.4584 34.4095 59.7234C34.4803 59.9884 34.611 60.2337 34.7915 60.4402C34.9721 60.6467 35.1977 60.809 35.4509 60.9144C35.7042 61.0199 35.9782 61.0658 36.252 61.0485C36.2953 61.0458 36.3401 61.0445 36.3835 61.0429C39.1 61.0282 41.2748 63.1764 41.295 65.8929V65.9293C41.2947 68.6417 39.139 70.804 36.4282 70.8156C36.3752 70.8136 36.3217 70.8109 36.2688 70.8072C35.9941 70.7881 35.7187 70.8326 35.4641 70.9373C35.2094 71.042 34.9823 71.204 34.8005 71.4107C34.6186 71.6175 34.4869 71.8634 34.4156 72.1293C34.3443 72.3953 34.3352 72.6741 34.3892 72.9441C35.3212 77.5995 37.1632 82.0243 39.8126 85.9641C39.9584 86.181 40.15 86.3633 40.3739 86.4983C40.5977 86.6332 40.8484 86.7175 41.1083 86.7453C41.3682 86.773 41.631 86.7435 41.8783 86.6588C42.1256 86.5741 42.3513 86.4362 42.5396 86.255C43.4432 85.3848 44.6473 84.8979 45.9016 84.89C48.6181 84.8753 50.7958 87.0236 50.816 89.74V89.7764C50.8132 91.0287 50.3318 92.2317 49.4678 93.1384C49.2872 93.3277 49.1504 93.5542 49.0668 93.802C48.9832 94.0499 48.9549 94.3131 48.984 94.5731C49.013 94.833 49.0987 95.0834 49.235 95.3067C49.3712 95.53 49.5548 95.7207 49.7727 95.8655C53.6622 98.4475 58.0169 100.247 62.5941 101.166C62.8619 101.219 63.1384 101.211 63.4024 101.142C63.6665 101.072 63.9111 100.943 64.1176 100.764C64.3241 100.586 64.487 100.362 64.5938 100.111C64.7006 99.8593 64.7485 99.5868 64.7338 99.3142C64.7322 99.286 64.7321 99.2584 64.7309 99.2302C64.7205 96.5133 66.8724 94.3395 69.5893 94.3243C72.3039 94.3096 74.4805 96.4578 74.5036 99.1715C74.5015 99.2181 74.4986 99.2648 74.4952 99.3114C74.4754 99.5859 74.5192 99.8614 74.6232 100.116C74.7272 100.371 74.8885 100.599 75.0947 100.781C75.3009 100.963 75.5464 101.096 75.812 101.168C76.0777 101.24 76.3564 101.25 76.6265 101.197C81.3258 100.268 85.7947 98.4114 89.7668 95.734C89.9797 95.5904 90.1593 95.4027 90.2933 95.1836C90.4272 94.9645 90.5125 94.7192 90.5433 94.4642C90.5741 94.2092 90.5496 93.9506 90.4716 93.7059C90.3936 93.4613 90.2639 93.2362 90.0912 93.0461C89.2826 92.1545 88.8319 90.9967 88.8242 89.7932V89.7903C88.8168 87.0765 90.9684 84.906 93.6826 84.89C94.893 84.8857 96.0593 85.3296 96.9607 86.1375C97.1521 86.3092 97.3782 86.4376 97.6237 86.5141C97.8692 86.5906 98.1283 86.6133 98.3834 86.5807C98.6385 86.548 98.8835 86.4608 99.1018 86.325C99.3202 86.1892 99.5067 86.0079 99.6487 85.7935C102.233 81.8961 104.034 77.533 104.949 72.9469C105.003 72.6784 104.995 72.4012 104.924 72.1364C104.854 71.8717 104.725 71.6266 104.545 71.4199C104.365 71.2132 104.141 71.0505 103.888 70.9443C103.636 70.8381 103.362 70.7912 103.089 70.8072C103.009 70.8118 102.931 70.815 102.851 70.8157C100.134 70.8211 97.964 68.6659 97.9537 65.9489V65.946C97.9433 63.2304 100.095 61.0576 102.809 61.0401C102.901 61.0414 102.992 61.0475 103.083 61.0541C103.358 61.0736 103.633 61.0294 103.888 60.9251C104.143 60.8207 104.37 60.659 104.552 60.4526C104.734 60.2461 104.867 60.0004 104.938 59.7346C105.01 59.4688 105.019 59.1901 104.966 58.92C104.041 54.2558 102.2 49.821 99.5508 45.872C99.4097 45.6615 99.2254 45.4834 99.0103 45.3494C98.7952 45.2154 98.554 45.1286 98.3028 45.0947C98.0517 45.0609 97.7962 45.0808 97.5532 45.153C97.3103 45.2253 97.0855 45.3484 96.8937 45.514C96.011 46.2766 94.8883 46.6977 93.7219 46.7028C91.0049 46.7082 88.8346 44.5502 88.8243 41.8332C88.8216 40.6616 89.2391 39.5283 90.0019 38.639C90.1668 38.4469 90.2891 38.222 90.3606 37.9791C90.4322 37.7362 90.4514 37.4809 90.4171 37.23C90.3827 36.9792 90.2955 36.7385 90.1613 36.5238C90.027 36.3091 89.8488 36.1253 89.6383 35.9846C85.6992 33.3539 81.279 31.528 76.6322 30.6088C76.4997 30.5824 76.3645 30.5712 76.2295 30.5752ZM77.6699 34.6449C80.6675 35.4148 83.5248 36.5957 86.184 38.1803C85.628 39.3294 85.2404 40.5521 85.2442 41.8471C85.2617 46.4967 89.0779 50.2922 93.7275 50.2829H93.7303C95.0154 50.278 96.225 49.8873 97.3636 49.3319C98.9559 51.9921 100.143 54.8505 100.919 57.8515C97.1958 58.752 94.3583 61.9746 94.3736 65.96C94.3885 69.9186 97.2125 73.1047 100.905 74.0042C100.146 76.9287 98.9945 79.7171 97.4587 82.3196C96.2764 81.7236 95.0132 81.3052 93.6688 81.3099H93.6659C89.0155 81.3347 85.2263 85.1595 85.2442 89.81V89.8129C85.2519 91.1475 85.6746 92.3961 86.2735 93.5664C83.587 95.1792 80.6989 96.3819 77.6643 97.1606C76.7164 93.4975 73.5135 90.7229 69.5698 90.7443C65.668 90.7661 62.5189 93.5153 61.5704 97.1298C58.6574 96.3733 55.882 95.2252 53.2885 93.6979C53.9376 92.4836 54.3939 91.1787 54.3961 89.7793V89.7764V89.7261C54.3961 89.7214 54.3961 89.7167 54.3961 89.7121C54.3616 85.0633 50.5309 81.2847 45.8821 81.3099C44.4798 81.3179 43.1741 81.7805 41.9607 82.4371C40.3842 79.7964 39.2038 76.9638 38.4309 73.9874C42.0916 73.0545 44.8747 69.8704 44.8751 65.932V65.9291V65.8788C44.8751 65.8751 44.8751 65.8713 44.8751 65.8676C44.8461 61.9479 42.0667 58.7955 38.4253 57.871C39.2085 54.8454 40.4094 51.9647 42.0222 49.287C43.1921 49.873 44.4393 50.2863 45.7674 50.2856H45.7702C50.4189 50.2764 54.2223 46.4677 54.2228 41.819V41.7687C54.2228 41.7631 54.2228 41.7575 54.2228 41.7519C54.2106 40.468 53.8132 39.2616 53.2522 38.127C55.855 36.5844 58.6434 35.4259 61.5705 34.6615C62.5169 38.3108 65.7 41.0791 69.6314 41.0722H69.6343C73.5611 41.0646 76.7323 38.2909 77.6699 34.6449ZM14.9361 35.8504C14.4613 35.8504 14.006 36.039 13.6703 36.3747C13.3346 36.7104 13.146 37.1657 13.146 37.6404C13.146 38.1152 13.3346 38.5705 13.6703 38.9062C14.006 39.2419 14.4613 39.4305 14.9361 39.4305H36.417C36.8918 39.4305 37.3471 39.2419 37.6828 38.9062C38.0185 38.5705 38.2071 38.1152 38.2071 37.6404C38.2071 37.1657 38.0185 36.7104 37.6828 36.3747C37.3471 36.039 36.8918 35.8504 36.417 35.8504H14.9361ZM69.5866 50.1123C60.8984 50.1606 53.852 57.2746 53.8843 65.9628C53.9165 74.6511 61.0158 81.7092 69.7041 81.6931C78.2278 81.6773 85.1091 74.8307 85.37 66.3684C85.4182 66.2263 85.4482 66.0788 85.4595 65.9293C85.4596 65.9204 85.4651 65.913 85.4651 65.9041C85.4643 65.8901 85.4634 65.8761 85.4623 65.8621C85.4638 65.837 85.4647 65.8118 85.4651 65.7866C85.465 65.7737 85.4568 65.7632 85.4567 65.7503C85.4447 65.6074 85.4156 65.4666 85.37 65.3307C85.0507 56.8667 78.113 50.0648 69.5866 50.1123ZM69.6062 53.6924C76.3619 53.6548 81.8349 59.059 81.885 65.8146C81.8857 65.8304 81.8867 65.8463 81.8878 65.8621C81.8867 65.8761 81.8858 65.8901 81.885 65.9041C81.885 72.6599 76.4543 78.1004 69.6985 78.113C62.9427 78.1254 57.4895 72.7046 57.4644 65.9488C57.4394 59.1931 62.8505 53.73 69.6062 53.6924ZM14.9361 64.7489C14.5296 64.749 14.1398 64.9105 13.8523 65.1979C13.5649 65.4853 13.4034 65.8752 13.4033 66.2817C13.4034 66.6882 13.5649 67.078 13.8523 67.3654C14.1398 67.6529 14.5296 67.8144 14.9361 67.8144H30.6888C31.0953 67.8144 31.4851 67.6529 31.7725 67.3654C32.06 67.078 32.2215 66.6882 32.2215 66.2817C32.2215 65.8752 32.06 65.4853 31.7725 65.1979C31.4851 64.9105 31.0953 64.749 30.6888 64.7489H14.9361ZM14.9361 93.1328C14.4613 93.1328 14.006 93.3214 13.6703 93.6571C13.3346 93.9928 13.146 94.4482 13.146 94.9229C13.146 95.3977 13.3346 95.853 13.6703 96.1887C14.006 96.5244 14.4613 96.713 14.9361 96.713H36.417C36.8918 96.713 37.3471 96.5244 37.6828 96.1887C38.0185 95.853 38.2071 95.3977 38.2071 94.9229C38.2071 94.4482 38.0185 93.9928 37.6828 93.6571C37.3471 93.3214 36.8918 93.1328 36.417 93.1328H14.9361ZM5.58015 113.875H68.0259V120.06C68.0259 124.771 65.0595 128.176 61.8165 128.176H11.7923C8.5493 128.176 5.58015 124.771 5.58015 120.06L5.58015 113.875ZM36.803 115.316C35.4081 115.316 34.0704 115.929 33.0843 117.02C32.0982 118.11 31.5444 119.589 31.5447 121.131C31.5451 122.672 32.0992 124.15 33.0852 125.24C34.0712 126.33 35.4085 126.942 36.803 126.943C38.198 126.943 39.536 126.331 40.5226 125.241C41.5092 124.151 42.0638 122.673 42.0642 121.131C42.0643 120.367 41.9283 119.611 41.6639 118.905C41.3996 118.2 41.0121 117.559 40.5235 117.019C40.0349 116.479 39.4549 116.05 38.8165 115.758C38.1782 115.466 37.4939 115.316 36.803 115.316Z" fill="black"/>
</svg>
