<svg width="80px" height="80px" viewBox="0 0 80 81" fill="none" xmlns="http://www.w3.org/2000/svg">
<path d="M62.0649 15.1374L58.2539 14.1177L62.0649 13.0197L63.076 9.25488L64.0871 13.0197L67.8203 14.1177L64.0871 15.1374L63.076 18.9022L62.0649 15.1374ZM65.7204 19.2159L64.2426 18.9022L65.7204 18.5884L66.1093 17.0982L66.4204 18.5884L67.8981 18.9022L66.4204 19.2159L66.1093 20.7061L65.7204 19.2159Z" fill="#FDCD60"/>
<path d="M13.2988 14.9808C13.2988 15.168 13.3726 15.3476 13.5038 15.4799C13.6351 15.6123 13.8132 15.6867 13.9988 15.6867C14.1845 15.6867 14.3625 15.6123 14.4938 15.4799C14.625 15.3476 14.6988 15.168 14.6988 14.9808C14.6988 14.7936 14.625 14.614 14.4938 14.4817C14.3625 14.3493 14.1845 14.2749 13.9988 14.2749C13.8132 14.2749 13.6351 14.3493 13.5038 14.4817C13.3726 14.614 13.2988 14.7936 13.2988 14.9808Z" fill="#5546CB"/>
<path d="M15.3219 65.492L12.833 64.8645L15.3219 64.3155L15.9441 61.7272L16.4885 64.3155L19.0551 64.8645L16.4885 65.492L15.9441 68.0019L15.3219 65.492ZM7.62206 52.1583L6.5332 51.923L7.62206 51.6877L7.93317 50.5112L8.16649 51.6877L9.33313 51.923L8.16649 52.1583L7.93317 53.3348L7.62206 52.1583Z" fill="#FDCD60"/>
<path d="M64.71 67.139C64.3255 67.139 63.9495 67.024 63.6298 66.8085C63.31 66.593 63.0608 66.2868 62.9136 65.9285C62.7665 65.5702 62.728 65.1759 62.803 64.7956C62.878 64.4152 63.0632 64.0658 63.3351 63.7916C63.6071 63.5174 63.9535 63.3306 64.3307 63.255C64.7079 63.1793 65.0988 63.2181 65.4541 63.3665C65.8094 63.515 66.1131 63.7663 66.3267 64.0887C66.5404 64.4112 66.6544 64.7903 66.6544 65.1781C66.6544 65.6982 66.4496 66.1969 66.0849 66.5646C65.7203 66.9324 65.2257 67.139 64.71 67.139ZM64.71 64.3154C64.5562 64.3154 64.4058 64.3614 64.2779 64.4475C64.15 64.5337 64.0503 64.6562 63.9915 64.7995C63.9326 64.9429 63.9172 65.1006 63.9472 65.2527C63.9772 65.4048 64.0513 65.5446 64.1601 65.6543C64.2688 65.764 64.4074 65.8387 64.5583 65.8689C64.7092 65.8992 64.8655 65.8837 65.0077 65.8243C65.1498 65.7649 65.2712 65.6644 65.3567 65.5354C65.4422 65.4065 65.4878 65.2548 65.4878 65.0997C65.4684 64.9055 65.378 64.7256 65.2342 64.5951C65.0904 64.4646 64.9035 64.3928 64.71 64.3938V64.3154Z" fill="#5546CB"/>
<path d="M35.9316 38.4325C35.9316 39.5142 36.3577 40.5516 37.1162 41.3165C37.8747 42.0814 38.9034 42.5111 39.976 42.5111C41.0486 42.5111 42.0773 42.0814 42.8358 41.3165C43.5942 40.5516 44.0203 39.5142 44.0203 38.4325C44.0203 37.3508 43.5942 36.3135 42.8358 35.5486C42.0773 34.7837 41.0486 34.354 39.976 34.354C38.9034 34.354 37.8747 34.7837 37.1162 35.5486C36.3577 36.3135 35.9316 37.3508 35.9316 38.4325Z" fill="#AFBCF3"/>
<path d="M59.9646 41.8049C59.9646 41.5969 60.0466 41.3974 60.1925 41.2503C60.3383 41.1032 60.5361 41.0205 60.7424 41.0205H66.8089C66.7683 33.8285 63.9225 26.9415 58.8868 21.8486C53.8511 16.7556 47.0301 13.8659 39.8985 13.8042C40.0624 13.856 40.2047 13.961 40.3032 14.1029C40.4017 14.2448 40.4508 14.4155 40.443 14.5885V20.9416C40.443 21.1496 40.361 21.3491 40.2152 21.4962C40.0693 21.6433 39.8715 21.726 39.6652 21.726C39.4589 21.726 39.2611 21.6433 39.1152 21.4962C38.9694 21.3491 38.8874 21.1496 38.8874 20.9416V14.5885C38.8796 14.4155 38.9287 14.2448 39.0272 14.1029C39.1257 13.961 39.268 13.856 39.4319 13.8042C32.2869 13.8661 25.4542 16.7666 20.4164 21.8765C15.3785 26.9863 12.5417 33.8933 12.5215 41.099H19.0546C19.2609 41.099 19.4587 41.1816 19.6046 41.3287C19.7505 41.4758 19.8324 41.6753 19.8324 41.8833C19.8324 42.0913 19.7505 42.2908 19.6046 42.4379C19.4587 42.585 19.2609 42.6676 19.0546 42.6676H12.5215C12.8326 49.4129 15.6325 55.766 20.4546 60.5504C25.3632 65.4785 31.9628 68.3148 38.8874 68.4722V62.5897C38.8874 62.3817 38.9694 62.1822 39.1152 62.0351C39.2611 61.888 39.4589 61.8054 39.6652 61.8054C39.8715 61.8054 40.0693 61.888 40.2152 62.0351C40.361 62.1822 40.443 62.3817 40.443 62.5897V68.4722C47.3785 68.2939 53.9796 65.4289 58.8758 60.472C63.6979 55.6876 66.42 49.3345 66.8089 42.5892H60.7424C60.5361 42.5892 60.3383 42.5066 60.1925 42.3595C60.0466 42.2124 59.9646 42.0129 59.9646 41.8049ZM39.8985 59.5308C30.0988 59.5308 22.2434 51.5306 22.2434 41.7264C22.2434 31.9223 30.0988 23.8437 39.8985 23.8437C49.6983 23.8437 57.5536 31.8439 57.5536 41.7264C57.5536 51.609 49.6205 59.5308 39.8985 59.5308Z" fill="#FF8859"/>
<path d="M66.1098 29.8832C63.3438 23.2693 58.2394 17.9279 51.7875 14.8962C45.3357 11.8644 37.9968 11.3587 31.196 13.4772C24.3952 15.5957 18.6176 20.1872 14.9852 26.3602C11.3528 32.5332 10.1247 39.8473 11.5394 46.8821C12.9541 53.917 16.9106 60.1707 22.6407 64.429C28.3709 68.6872 35.4657 70.6462 42.5476 69.9255C49.6295 69.2048 56.1932 65.8559 60.9641 60.529C65.7351 55.202 68.3729 48.2772 68.3653 41.0992C68.3655 37.246 67.5985 33.4319 66.1098 29.8832ZM58.8767 60.4722C53.9805 65.4291 47.3794 68.2941 40.4438 68.4724V62.5899C40.4438 62.3819 40.3619 62.1824 40.216 62.0353C40.0702 61.8882 39.8724 61.8056 39.6661 61.8056C39.4598 61.8056 39.262 61.8882 39.1161 62.0353C38.9703 62.1824 38.8883 62.3819 38.8883 62.5899V68.5508C31.9418 68.3516 25.3392 65.4579 20.4555 60.4722C15.6334 55.6093 12.9112 49.3347 12.5224 42.5894H18.9777C19.184 42.5894 19.3818 42.5068 19.5277 42.3597C19.6736 42.2126 19.7555 42.0131 19.7555 41.8051C19.7555 41.5971 19.6736 41.3976 19.5277 41.2505C19.3818 41.1034 19.184 41.0207 18.9777 41.0207H12.5224C12.563 33.8287 15.4088 26.9417 20.4445 21.8488C25.4802 16.7558 32.3012 13.8661 39.4328 13.8044C39.2689 13.8562 39.1266 13.9612 39.0281 14.1031C38.9296 14.245 38.8805 14.4157 38.8883 14.5887V20.9418C38.8883 21.1498 38.9703 21.3493 39.1161 21.4964C39.262 21.6435 39.4598 21.7262 39.6661 21.7262C39.8724 21.7262 40.0702 21.6435 40.216 21.4964C40.3619 21.3493 40.4438 21.1498 40.4438 20.9418V14.5887C40.4517 14.4157 40.4025 14.245 40.3041 14.1031C40.2056 13.9612 40.0633 13.8562 39.8994 13.8044C47.031 13.8661 53.852 16.7558 58.8877 21.8488C63.9234 26.9417 66.7692 33.8287 66.8098 41.0207H60.7433C60.537 41.0207 60.3392 41.1034 60.1933 41.2505C60.0475 41.3976 59.9655 41.5971 59.9655 41.8051C59.9655 42.0131 60.0475 42.2126 60.1933 42.3597C60.3392 42.5068 60.537 42.5894 60.7433 42.5894H66.732C66.4209 49.3347 63.621 55.6878 58.8767 60.4722Z" fill="#5546CB"/>
<path d="M39.8992 23.8438C30.0995 23.8438 22.2441 31.8439 22.2441 41.6481C22.2441 51.4523 30.0995 59.5309 39.8992 59.5309C49.699 59.5309 57.5543 51.6091 57.5543 41.7265C57.5543 31.8439 49.6212 23.8438 39.8992 23.8438ZM49.699 51.6091C49.5554 51.7569 49.3597 51.8415 49.1545 51.8444H48.7656L36.0882 44.707H36.0104C35.9105 44.6766 35.8177 44.6261 35.7376 44.5588C35.6574 44.4914 35.5915 44.4084 35.5438 44.3148L29.9439 32.7067C29.872 32.5558 29.8498 32.3855 29.8807 32.221C29.9116 32.0564 29.994 31.9061 30.1157 31.7922C30.2374 31.6782 30.3921 31.6065 30.5571 31.5876C30.7221 31.5687 30.8888 31.6035 31.0328 31.6871L42.3103 37.9617L42.5436 38.197L42.7769 38.4323L49.8545 50.5895C49.9552 50.7497 49.995 50.9413 49.9664 51.1287C49.9378 51.3162 49.8428 51.4869 49.699 51.6091Z" fill="white"/>
<path d="M32.4316 34.2754L36.476 42.5893L40.5203 38.8245L32.4316 34.2754Z" fill="#FDCD60"/>
<path d="M37.7988 43.8444L47.0541 49.021L41.8432 40.0796L37.7988 43.8444Z" fill="#AFBCF3"/>
<path d="M42.777 38.4323L42.5436 38.197L42.3103 37.9617L31.0328 31.687C30.8889 31.6035 30.7222 31.5686 30.5571 31.5875C30.3921 31.6064 30.2374 31.6781 30.1157 31.7921C29.994 31.9061 29.9117 32.0563 29.8808 32.2209C29.8499 32.3855 29.872 32.5557 29.944 32.7067L35.5438 44.2363C35.5915 44.3299 35.6574 44.4129 35.7376 44.4803C35.8178 44.5476 35.9106 44.5981 36.0105 44.6285H36.0882L48.7657 51.6875H49.1546C49.2933 51.6923 49.4308 51.6596 49.5528 51.5927C49.6747 51.5258 49.7767 51.4272 49.8482 51.3072C49.9196 51.1871 49.9579 51.05 49.959 50.91C49.9601 50.77 49.924 50.6322 49.8545 50.511L42.777 38.4323ZM32.4328 34.2753L40.5992 38.8245L36.5549 42.5892L32.4328 34.2753ZM37.7993 43.8442L41.9214 40.0794L47.0546 48.9423L37.7993 43.8442Z" fill="#5546CB"/>
</svg>
