<svg width="80px" height="80px" viewBox="0 0 80 81" fill="none" xmlns="http://www.w3.org/2000/svg">
<path d="M57.6449 40.3835C57.6449 39.2541 58.0182 38.225 58.6404 37.3717C58.1924 34.6861 57.1471 32.2139 55.6538 30.0805C54.6209 29.9174 53.6254 29.4656 52.8414 28.6624C52.0575 27.8593 51.5846 26.8553 51.4352 25.8263C49.3197 24.3204 46.8683 23.2662 44.2052 22.8145C43.3715 23.4419 42.3386 23.8184 41.2186 23.8184C40.0987 23.8184 39.0782 23.4419 38.232 22.8145C35.569 23.2662 33.1175 24.3204 31.002 25.8263C30.8402 26.8679 30.3923 27.8718 29.5958 28.6624C28.7994 29.453 27.8039 29.9299 26.7835 30.0805C25.2902 32.2139 24.2449 34.6861 23.7969 37.3717C24.4191 38.2125 24.7924 39.2541 24.7924 40.3835C24.7924 41.5129 24.4191 42.542 23.7969 43.3953C24.2449 46.0809 25.2902 48.5531 26.7835 50.6865C27.8163 50.8496 28.8119 51.3014 29.5958 52.1046C30.3923 52.9077 30.8527 53.9117 31.002 54.9407C33.1175 56.4466 35.569 57.5008 38.232 57.9526C39.0658 57.3251 40.0987 56.9486 41.2186 56.9486C42.3386 56.9486 43.359 57.3251 44.2052 57.9526C46.8683 57.5008 49.3197 56.4466 51.4352 54.9407C51.597 53.8991 52.045 52.8952 52.8414 52.1046C53.6379 51.3014 54.6334 50.8371 55.6538 50.6865C57.1471 48.5531 58.1924 46.0809 58.6404 43.3953C58.0182 42.5545 57.6449 41.5129 57.6449 40.3835Z" fill="#274C77"/>
<path d="M41.2173 51.6777C47.4027 51.6777 52.417 46.621 52.417 40.3833C52.417 34.1455 47.4027 29.0889 41.2173 29.0889C35.0319 29.0889 30.0176 34.1455 30.0176 40.3833C30.0176 46.621 35.0319 51.6777 41.2173 51.6777Z" fill="#F5DD90"/>
<path d="M8.86328 40.3836C8.86328 22.3628 23.3482 7.75537 41.218 7.75537V12.7751C26.0984 12.7751 13.8409 25.1362 13.8409 40.3836" fill="#6096BA"/>
<path d="M11.3526 47.9129L6.375 40.3833H16.3303L11.3526 47.9129Z" fill="#F76C5E"/>
<path d="M57.3948 68.6321C41.9144 77.6425 22.1282 72.2965 13.1934 56.6852L17.499 54.1753C25.065 67.3772 41.8024 71.9075 54.8936 64.2775" fill="#6096BA"/>
<path d="M62.6094 62.6959L58.6398 70.8153L53.6621 62.1187L62.6094 62.6959Z" fill="#F76C5E"/>
<path d="M57.3943 12.1226C72.8748 21.133 78.176 41.0864 69.2411 56.6978L64.9355 54.1879C72.5015 40.986 68.0092 24.0946 54.918 16.4772" fill="#6096BA"/>
<path d="M49.6797 10.5284L58.6394 9.95117L53.6618 18.6479L49.6797 10.5284Z" fill="#F76C5E"/>
</svg>
