<svg width="80px" height="80px" viewBox="0 0 81 81" fill="none" xmlns="http://www.w3.org/2000/svg">
<path d="M55.1209 7.75519C52.3979 6.05682 49.2543 5.16975 46.0527 5.19638C42.8511 5.22304 39.7221 6.16233 37.0272 7.90578C31.8007 11.4196 30.5812 18.1711 29.5607 24.1446C28.8639 27.9094 28.1421 31.8247 26.5244 33.4813C25.6782 34.3095 23.8365 34.0585 21.1237 33.4813C17.9629 32.904 14.0305 32.1761 10.82 34.5605C8.33114 36.4178 6.78807 39.7308 6.14098 44.7506C5.55692 48.305 5.75347 51.9453 6.71674 55.4145C7.68001 58.8839 9.38655 62.0977 11.7159 64.8295C17.3656 71.4806 27.1466 75.2956 38.4209 75.2956C61.791 75.2956 75.7533 58.7305 75.7533 42.6674C75.7533 29.7667 66.2957 13.7789 55.1209 7.75519Z" fill="#F9A825"/>
<path d="M20.4771 56.271H20.2531C19.6185 56.1947 19.012 55.9628 18.487 55.5951C17.962 55.2276 17.5344 54.7357 17.2416 54.1627C16.7895 53.4466 16.5249 52.6264 16.4725 51.7791C16.4202 50.9315 16.5818 50.0847 16.9424 49.3174C17.3029 48.5501 17.8505 47.8875 18.534 47.3918C19.2174 46.8961 20.0145 46.5832 20.8504 46.4825C21.4721 46.345 22.1179 46.3646 22.7302 46.5397C23.3425 46.7149 23.9023 47.0402 24.3597 47.4865C24.9299 48.2718 25.2495 49.2133 25.2762 50.1863C25.3029 51.1592 25.0353 52.1172 24.509 52.9329C23.4886 55.0663 22.0451 56.271 20.4771 56.271Z" fill="#43A047"/>
<path d="M35.7822 64.8545C35.0009 64.843 34.2334 64.646 33.5415 64.2798C32.8498 63.9136 32.2533 63.3883 31.8 62.7462C31.3774 62.2641 31.079 61.6846 30.9314 61.0586C30.7839 60.4324 30.7916 59.7793 30.9538 59.1571C31.3523 58.2724 32.0089 57.5317 32.8361 57.0338C33.6637 56.5358 34.6219 56.3047 35.5831 56.3712C36.5298 56.1634 37.5169 56.257 38.4086 56.639C39.3001 57.0212 40.0522 57.673 40.5607 58.5046C40.8138 59.0954 40.9146 59.7412 40.8539 60.3819C40.7929 61.0227 40.5721 61.6374 40.2123 62.169C39.7884 62.8823 39.2011 63.4824 38.4995 63.9191C37.7979 64.3558 37.0027 64.6163 36.1804 64.6788L35.7822 64.8545Z" fill="#039BE5"/>
<path d="M53.3292 59.6343C52.5445 59.6331 51.7702 59.4529 51.0644 59.1072C50.477 58.8593 49.9576 58.472 49.5502 57.9781C49.143 57.4844 48.8598 56.8988 48.7249 56.2711C48.476 54.6146 49.5462 52.9581 51.6866 51.7031C52.4444 51.104 53.3663 50.7542 54.3277 50.7002C55.2889 50.6462 56.2436 50.8912 57.0624 51.402C57.5395 51.8309 57.9064 52.37 58.1319 52.9734C58.3574 53.5765 58.4343 54.2258 58.3566 54.8656C58.3006 55.6996 58.045 56.5075 57.6115 57.2201C57.1782 57.9326 56.5799 58.5285 55.8678 58.9567C55.097 59.4077 54.2204 59.6416 53.3292 59.6343Z" fill="#3949AB"/>
<path d="M48.7009 27.3326C47.8338 27.437 46.9553 27.2809 46.176 26.8833C45.3965 26.486 44.7511 25.8651 44.3206 25.0988C44.0814 24.5024 43.9926 23.8555 44.062 23.216C44.1314 22.5765 44.3572 21.9643 44.7188 21.4344C45.1242 20.6771 45.7158 20.0377 46.4368 19.5774C47.1581 19.1172 47.9844 18.8517 48.8365 18.8063C49.6887 18.7609 50.5382 18.9373 51.3032 19.3184C52.0683 19.6995 52.7233 20.2726 53.2057 20.9826C53.6221 21.4681 53.9147 22.0489 54.0578 22.6744C54.201 23.2999 54.1903 23.9512 54.027 24.5717C53.5043 26.178 51.8119 27.0816 49.348 27.3075L48.7009 27.3326Z" fill="#E53935"/>
<path d="M59.2783 43.0943C58.9839 43.0913 58.691 43.0492 58.4072 42.9688C56.8144 42.492 55.9184 40.8104 55.57 38.3507C55.3617 37.4065 55.4428 36.4206 55.8027 35.5241C56.1628 34.6276 56.7848 33.8625 57.5859 33.331C58.1683 33.0757 58.8034 32.9675 59.4366 33.0155C60.0698 33.0637 60.6818 33.2667 61.2196 33.607C61.9677 33.9938 62.6066 34.5656 63.0763 35.2688C63.5461 35.9721 63.8316 36.7838 63.906 37.6283C63.9807 38.4729 63.8418 39.3228 63.5026 40.0986C63.1634 40.8746 62.635 41.551 61.9662 42.0653C61.2179 42.7158 60.2664 43.0803 59.2783 43.0943Z" fill="#8E24AA"/>
<path d="M38.272 50.1971C37.612 50.1971 36.9788 49.9328 36.5122 49.4619C36.0455 48.9913 35.7832 48.3528 35.7832 47.6872V42.6675C35.7832 38.727 38.7698 37.8736 42.5279 37.6477L41.8559 37.1709C41.3475 36.7853 41.0048 36.2179 40.8982 35.5854C40.7917 34.9529 40.9293 34.3033 41.283 33.77C41.6367 33.2366 42.1795 32.8602 42.7997 32.7179C43.4202 32.5755 44.071 32.678 44.6185 33.0045C50.741 37.1207 50.0442 39.3795 49.7953 40.2329C49.5464 41.0862 48.5509 42.6675 45.7385 42.6675C44.076 42.603 42.4109 42.6785 40.7608 42.8934V47.6872C40.7608 48.3528 40.4985 48.9913 40.0319 49.4619C39.5652 49.9328 38.9321 50.1971 38.272 50.1971Z" fill="#C62828"/>
<path d="M37.0021 7.88064C31.7755 11.3944 30.5311 18.146 29.5356 24.1195C28.8387 27.9093 28.1419 31.7996 26.4992 33.4561C25.678 34.2843 23.8363 34.0334 21.1234 33.4561C17.9626 32.8788 14.0303 32.1761 10.7948 34.5353C8.30601 36.3926 6.78783 39.7057 6.14073 44.7254C5.5516 48.2778 5.74332 51.9177 6.70236 55.387C7.66138 58.8567 9.36431 62.0716 11.6908 64.8043C17.3404 71.4554 27.0966 75.2955 38.2714 75.2955C39.0429 75.2955 39.7647 75.2955 40.5113 75.2955V6.09863C39.2741 6.54642 38.0957 7.14485 37.0021 7.88064Z" fill="#FBC02D"/>
<path d="M20.4269 56.2457H20.2029C19.5708 56.1614 18.9678 55.926 18.444 55.5593C17.9202 55.1926 17.4908 54.7052 17.1914 54.1375C16.7383 53.4179 16.4744 52.5936 16.4247 51.7425C16.3749 50.8917 16.5408 50.0419 16.9069 49.2733C17.2729 48.5051 17.827 47.8432 18.5169 47.3505C19.2067 46.8578 20.0097 46.5504 20.85 46.4573C21.4718 46.3263 22.1158 46.3493 22.727 46.524C23.3381 46.699 23.8982 47.0205 24.3592 47.4612C24.9294 48.2466 25.249 49.1883 25.2757 50.1611C25.3024 51.1339 25.0348 52.0919 24.5085 52.9076C24.2047 53.7926 23.6614 54.5744 22.9401 55.1642C22.2188 55.7541 21.3482 56.1288 20.4269 56.2457Z" fill="#43A047"/>
<path d="M40.6113 58.9316V61.1905C40.8473 60.4564 40.8473 59.6658 40.6113 58.9316Z" fill="#039BE5"/>
<path d="M40.5116 58.5803C39.9979 57.7541 39.2453 57.1065 38.3551 56.725C37.4651 56.3435 36.4805 56.2467 35.534 56.4469C34.5566 56.3591 33.5763 56.5802 32.7291 57.0792C31.8816 57.5784 31.2094 58.3311 30.8052 59.2329C30.6688 59.8521 30.6838 60.4954 30.8485 61.1075C31.0133 61.7194 31.3229 62.2821 31.751 62.7467C32.2288 63.3669 32.8398 63.8699 33.5382 64.2177C34.2366 64.5654 35.0041 64.7491 35.7829 64.7546H36.1064C36.933 64.6961 37.7334 64.4374 38.4394 64.0004C39.1458 63.5634 39.7371 62.9613 40.1632 62.2447C40.3541 61.9127 40.5044 61.5588 40.6112 61.1906V58.9317C40.593 58.8107 40.5597 58.6928 40.5116 58.5803Z" fill="#039BE5"/>
<path d="M35.6328 42.6678V47.6875C35.6328 48.3531 35.8951 48.9916 36.3618 49.4622C36.8284 49.9328 37.4616 50.1974 38.1216 50.1974C38.7817 50.1974 39.4148 49.9328 39.8815 49.4622C40.3481 48.9916 40.6105 48.3531 40.6105 47.6875V37.9492C37.7234 38.3508 35.6328 39.4551 35.6328 42.6678Z" fill="#F4511E"/>
<path d="M38.2709 75.1201C26.9965 75.1201 17.2403 71.3302 11.4912 64.7293C9.17056 61.993 7.47137 58.7779 6.51265 55.3092C5.55393 51.8409 5.35886 48.2031 5.94109 44.6503C6.58818 39.6306 8.10637 36.3176 10.6201 34.4603C13.8307 32.101 17.763 32.8038 20.9238 33.3811C23.6366 33.883 25.4783 34.134 26.3245 33.3811C27.9423 31.7245 28.664 27.8343 29.3609 24.0445C30.4311 18.071 31.6755 11.3195 36.8273 7.80565C39.5277 6.01574 42.6781 5.03911 45.9091 4.99021C49.14 4.9413 52.318 5.82218 55.0704 7.52957C66.2701 13.6536 75.6032 29.6163 75.6032 42.4919C75.6032 58.5299 61.7405 75.1201 38.2709 75.1201ZM16.2448 37.8486C15.3624 37.812 14.4912 38.0579 13.756 38.5514C11.9908 40.3567 10.9683 42.7687 10.8938 45.3029C10.386 48.1463 10.5134 51.0683 11.2668 53.8558C12.0203 56.6432 13.3808 59.2261 15.2493 61.4162C20.0278 66.9379 28.44 70.1004 38.2709 70.1004C58.5299 70.1004 70.6255 56.0451 70.6255 42.4919C70.6255 31.4485 62.2133 17.2176 52.6314 12.0222C50.7028 10.7543 48.4501 10.0792 46.148 10.0792C43.8458 10.0792 41.5932 10.7543 39.6646 12.0222C36.1803 14.3313 35.2096 19.7526 34.239 24.9731C33.3679 29.7167 32.5466 34.2093 29.8338 36.9451C27.1209 39.6808 23.338 39.0282 20.0527 38.4259C18.8011 38.1295 17.5276 37.9365 16.2448 37.8486Z" fill="#263238"/>
</svg>
