<svg width="80px" height="80px" viewBox="0 0 74 73" fill="none" xmlns="http://www.w3.org/2000/svg">
<g clip-path="url(#clip0_50_703)">
<path d="M32.9497 54.3062C31.7767 56.046 31.0781 58.199 31.0781 60.5345C31.0781 65.0516 33.6746 68.8983 37.3101 70.3573C40.9455 68.898 43.5421 65.0514 43.5421 60.5345C43.5421 58.199 42.8439 56.046 41.6707 54.3062H32.9497Z" fill="#FF9737"/>
<path opacity="0.1" d="M33.4192 61.0635C33.4192 58.55 34.1333 56.2237 35.3427 54.3062H32.9478C31.7747 56.046 31.0762 58.199 31.0762 60.5345C31.0762 65.0516 33.6727 68.8983 37.3082 70.3573C37.3505 70.3403 37.3922 70.3212 37.4344 70.3036C34.987 68.1314 33.4192 64.8003 33.4192 61.0635Z" fill="#231F20"/>
<path d="M58.9448 34.0829L48.3128 23.4278C48.0839 23.1982 47.7741 23.0693 47.4512 23.0693H27.1672C26.8442 23.0693 26.5346 23.1982 26.3056 23.4278L15.6733 34.0831C15.4424 34.3145 15.3125 34.6291 15.3125 34.9574V50.2745C15.3125 50.9555 15.8598 51.5073 16.5349 51.5073H58.083C58.7581 51.5073 59.3054 50.9555 59.3054 50.2745V34.9574C59.3054 34.629 59.1756 34.3145 58.9448 34.0829Z" fill="#578CAD"/>
<path opacity="0.1" d="M17.7048 51.045V35.7278C17.7048 35.3996 17.8348 35.0848 18.0656 34.8536L28.6979 24.1983C28.927 23.9687 29.2367 23.8398 29.5595 23.8398H48.7238L48.3126 23.4278C48.0837 23.1982 47.774 23.0693 47.4511 23.0693H27.1672C26.8442 23.0693 26.5346 23.1982 26.3056 23.4278L15.6733 34.0831C15.4424 34.3145 15.3125 34.6291 15.3125 34.9574V50.2745C15.3125 50.9555 15.8598 51.5073 16.5349 51.5073H17.7946C17.7371 51.3645 17.7048 51.2087 17.7048 51.045Z" fill="#231F20"/>
<path d="M37.9572 2.80629C37.5522 2.58801 37.0658 2.58801 36.6608 2.80629C30.3055 6.23173 26.3574 12.8782 26.3574 20.1519V52.7085C26.3574 54.3213 27.6587 55.6335 29.258 55.6335H45.3601C46.9594 55.6335 48.2606 54.3212 48.2606 52.7085V20.1519C48.2607 12.8782 44.3127 6.23159 37.9572 2.80629Z" fill="#CAE9F7"/>
<path d="M26.3574 48.2573V52.7088C26.3574 54.3243 27.6559 55.6337 29.258 55.6337H36.0846H40.4353H45.36C46.9617 55.6337 48.2604 54.3243 48.2604 52.7088V48.2573H26.3574Z" fill="#90C8EC"/>
<path d="M37.3102 28.5948C39.9355 28.5948 42.0638 26.4486 42.0638 23.8011C42.0638 21.1536 39.9355 19.0073 37.3102 19.0073C34.6849 19.0073 32.5566 21.1536 32.5566 23.8011C32.5566 26.4486 34.6849 28.5948 37.3102 28.5948Z" fill="#578CAD"/>
<path opacity="0.1" d="M28.7499 52.7086V52.3403C28.6794 52.0881 28.6389 51.8232 28.6389 51.5484V18.992C28.6389 12.3698 31.9121 6.2686 37.2942 2.64355C37.0764 2.64584 36.8589 2.69959 36.6608 2.80638C30.3055 6.23182 26.3574 12.8782 26.3574 20.152V52.7086C26.3574 54.3214 27.6587 55.6336 29.258 55.6336H31.6504C30.0509 55.6336 28.7499 54.3214 28.7499 52.7086Z" fill="#231F20"/>
<path opacity="0.1" d="M34.947 23.8006C34.947 21.5698 36.4583 19.6952 38.5045 19.1601C38.1223 19.0603 37.7215 19.0068 37.3084 19.0068C34.6831 19.0068 32.5547 21.1532 32.5547 23.8005C32.5547 26.4484 34.6831 28.5942 37.3084 28.5942C37.7215 28.5942 38.1223 28.5409 38.5045 28.4409C36.4581 27.9064 34.947 26.0318 34.947 23.8006Z" fill="#231F20"/>
<path d="M37.3101 60.138C36.6773 60.138 36.1641 59.6206 36.1641 58.9822V44.0322C36.1641 43.394 36.6771 42.8765 37.3101 42.8765C37.9432 42.8765 38.4562 43.3939 38.4562 44.0322V58.9824C38.456 59.6206 37.9431 60.138 37.3101 60.138Z" fill="#578CAD"/>
<path d="M63.4879 58.674C62.2019 58.674 60.9314 58.9329 59.7546 59.4284C59.1125 57.372 57.2042 55.8765 54.9558 55.8765C52.1822 55.8765 49.9258 58.1519 49.9258 60.9491C49.9258 61.5873 50.4389 62.1048 51.0718 62.1048C51.7048 62.1048 52.2179 61.5874 52.2179 60.9491C52.2179 59.4265 53.4461 58.1878 54.9559 58.1878C56.4657 58.1878 57.6941 59.4265 57.6941 60.9491C57.6941 61.6015 57.4644 62.2346 57.0472 62.7315C56.6383 63.2187 56.6987 63.9478 57.1818 64.3601C57.397 64.5438 57.66 64.6336 57.9215 64.6336C58.247 64.6336 58.5702 64.4946 58.7971 64.2246C59.3519 63.5634 59.7252 62.7711 59.8897 61.9299C60.984 61.3133 62.2255 60.9855 63.4879 60.9855C67.5606 60.9855 70.874 64.3269 70.874 68.434C70.874 69.0722 71.387 69.5898 72.0201 69.5898C72.6532 69.5898 73.1661 69.0724 73.1661 68.434C73.166 63.0521 68.8244 58.674 63.4879 58.674Z" fill="#90C8EC"/>
<path d="M22.2657 63.1005C22.0221 63.1005 21.7826 63.1175 21.5467 63.1471C21.5479 63.0172 21.5284 62.8851 21.4836 62.7553C20.595 60.1962 18.1892 58.4766 15.4968 58.4766C13.5114 58.4766 11.6396 59.421 10.4434 61.0105C9.80732 60.8411 9.14367 60.7517 8.46517 60.7517C4.22609 60.7517 0.777344 64.2296 0.777344 68.5045C0.777344 69.1427 1.29042 69.6602 1.92339 69.6602C2.55636 69.6602 3.06944 69.1428 3.06944 68.5045C3.06944 65.5041 5.49005 63.0632 8.46531 63.0632C10.3323 63.0632 12.0412 64.016 13.0366 65.6119C13.3736 66.152 14.0812 66.3144 14.6169 65.9746C15.1526 65.6347 15.3138 64.9212 14.9766 64.381C14.3639 63.3991 13.5612 62.5892 12.633 61.9848C13.3867 61.2265 14.4157 60.7879 15.497 60.7879C17.2168 60.7879 18.7533 61.8855 19.3204 63.5191C19.3593 63.6309 19.4144 63.7316 19.4806 63.8222C17.691 64.8167 16.4755 66.7375 16.4755 68.9395C16.4755 69.5777 16.9886 70.0953 17.6215 70.0953C18.2544 70.0953 18.7676 69.5778 18.7676 68.9395C18.7676 66.9943 20.3369 65.4116 22.266 65.4116C24.1948 65.4116 25.7643 66.9942 25.7643 68.9395C25.7643 69.5777 26.2774 70.0953 26.9104 70.0953C27.5434 70.0953 28.0564 69.5778 28.0564 68.9395C28.056 65.72 25.4584 63.1005 22.2657 63.1005Z" fill="#90C8EC"/>
</g>
<defs>
<clipPath id="clip0_50_703">
<rect width="72.388" height="73" fill="white" transform="translate(0.777344)"/>
</clipPath>
</defs>
</svg>
